<svg xmlns="http://www.w3.org/2000/svg" class="svga-svg" id="svga-svgcanvas" style="position:relative;overflow:hidden;left:0px;top:0px;" viewBox="0 0 200 200" preserveAspectRatio="xMinYMin meet" xmlns:NS1="http://www.w3.org/2000/svg" NS1:xlink="http://www.w3.org/1999/xlink" version="1.1"><g id="svga-group-wrapper"><g id="svga-group-backs-single"/><g id="svga-group-subwrapper" transform="matrix(0.849999, 0, 0, 0.849999, 15.0077, 17.6605)" data-updown="0" data-leftright="0" data-dist="0" data-scaleX="0.84999937" data-scaleY="0.84999937" data-rotate="0"><g id="svga-group-hair-back" data-updown="0" data-leftright="0" data-dist="0" data-scaleX="1" data-scaleY="1" data-rotate="0"><path id="SvgjsPath3884" opacity="1" fill="#644e45" stroke-width="none" d="M 41.279 215.266 c -0.033 -0.044 -0.063 -0.094 -0.095 -0.14 c 3.872 -1.418 107.984 7.4 115.031 6.323 c -0.001 0.108 -0.007 0.217 -0.007 0.325 c 0.282 -0.064 0.24 -0.075 0.254 -0.359 c 0.259 -0.032 1.051 -0.167 0.027 -0.457 c 3.485 -63.467 43.554 -53.333 20.529 -111.343 c -5.448 -13.536 -5.042 -26.26 -6.357 -42.117 c -1.84 1.797 -1.238 11.106 -3.489 28.325 c 17.078 53.526 2.414 51.246 -11.503 76.872 c -4.604 8.467 -8.295 17.095 -9.091 26.65 c -22.673 -39.208 -16.05 -38.328 -6.981 -62.078 c -1.56 2.201 -7.898 6.916 -13.709 8.025 c 14.211 -10.797 22.683 -10.831 22.98 -76.708 c -13.031 -6.03 -24.886 -17.239 -32.2 -29.8 c -9.476 19.65 -26.281 27.875 -47.75 31.14 c -5.35 2.72 -10.92 5 -16.55 7.08 c -0.476 27.679 6.753 46.579 21.26 66.64 c -5.091 -3.645 -10.294 -9.649 -13.96 -14.758 c 4.4 8.811 10.944 16.104 9.16 31.867 c -1.972 17.313 -18.629 29.105 -18.629 51.372 c -16.264 -25.388 -21.752 -14.633 -17.979 -42.312 c -6.177 -10.806 -9.18 -18.142 -11.68 -25.979 c -0.605 -0.005 -1.578 0.138 -2.133 0.204 C 11.333 170.695 21.465 190.498 41.279 215.266 Z" data-colored="true" data-filltype="sd1" data-stroketype="none"/><path id="SvgjsPath3885" opacity="1" fill="#543c32" stroke-width="none" d="M 142.489 227.847 h -90 V 97.24 h 90 V 227.847 Z" data-colored="true" data-filltype="sd2" data-stroketype="none"/><path id="SvgjsPath3886" opacity="1" fill="#452c22" stroke-width="none" d="M 156.49 220.958 c 3.485 -63.467 43.554 -53.333 20.529 -111.343 c -4.317 -10.726 -4.958 -20.946 -5.692 -32.615 c -0.213 0 -0.427 0 -0.641 0 c 0.342 11.384 0.54 21.512 3.883 31.266 c 20.946 61.4 -17.667 48.849 -18.343 112.635 c -4.423 -0.602 -111.114 -7.244 -115.042 -5.775 c -14.061 -20.667 -24.449 -40.831 -22.283 -63.372 c -0.668 -0.594 -1.228 -1.297 -1.759 -2.028 c -4.286 23.862 5.757 42.566 24.137 65.541 c -0.033 -0.044 -0.063 -0.094 -0.095 -0.14 c 3.872 -1.418 107.984 7.4 115.031 6.323 c -0.001 0.108 -0.007 0.217 -0.007 0.325 c 0.282 -0.064 0.24 -0.075 0.254 -0.359 C 156.722 221.383 157.514 221.248 156.49 220.958 Z" data-colored="true" data-filltype="sd3" data-stroketype="none"/></g><g id="svga-group-humanbody-single"><path id="SvgjsPath2761" opacity="1" fill="#f3d4cf" stroke="none" stroke-width="none" d="M 190.858 199.866 c -6.008 -10.158 -13.474 -11.973 -19.628 -13.936 c -6.323 -2.016 -19.346 -3.178 -26.449 -4.6 c -6.86 -1.373 -23.153 -5.789 -23.339 -13.488 c -0.192 -8.066 4.291 -40.09 4.291 -40.09 H 74.005 c 0 0 4.487 32.023 4.294 40.09 c -0.184 7.699 -16.48 12.115 -23.341 13.488 c -7.104 1.422 -20.125 2.584 -26.448 4.6 c -6.156 1.963 -13.624 3.777 -19.632 13.936 c -3.644 6.16 -6.008 16.133 -6.008 27.133 h 194 C 196.869 215.999 194.509 206.026 190.858 199.866 Z" data-colored="true" data-filltype="tone" data-stroketype="none" data-fromskin="true"/><path id="SvgjsPath2762" opacity="1" fill="#fff4f3" stroke="none" stroke-width="none" d="M 121.442 167.843 c 2.495 10.929 18.165 13.698 26.293 15.325 c 21.909 4.379 33.772 5.134 42.297 19.539 c 2.903 4.916 5.459 15.864 5.962 24.153 c 1.835 0.291 0.531 -17.432 -5.136 -26.994 c -9.742 -16.472 -29.089 -15.135 -46.077 -18.535 C 137.921 179.958 121.628 175.542 121.442 167.843 L 121.442 167.843 Z M 78.558 167.843 c -0.186 7.699 -16.479 12.115 -23.339 13.488 c -16.988 3.4 -36.335 2.063 -46.077 18.535 c -5.667 9.563 -6.971 27.285 -5.136 26.994 c 0.503 -8.289 3.059 -19.237 5.962 -24.153 c 8.524 -14.405 20.388 -15.16 42.297 -19.539 C 60.393 181.541 76.063 178.771 78.558 167.843 L 78.558 167.843 Z" data-colored="true" data-filltype="hl1" data-stroketype="none" data-fromskin="true"/><path id="SvgjsPath2763" opacity="1" fill="#e4b3ab" stroke="none" stroke-width="none" d="M 51.206 189.513 c 0 0 28.641 0.299 33.473 1.885 c 2.314 0.758 8.372 5.633 8.372 5.633 s -6.556 -3.17 -8.658 -3.758 C 79.51 191.909 51.206 189.513 51.206 189.513 Z M 99.795 199.999 c 2.053 -0.041 7.887 -3.799 7.887 -3.799 s -5.574 2.059 -7.342 2.16 c -1.491 0.086 -6.366 -1.238 -6.366 -1.238 S 98.112 200.032 99.795 199.999 Z M 117.008 192.757 c 6.75 -1.818 29.786 -3.23 29.786 -3.23 s -23.791 -0.516 -30.51 1.725 c -2.252 0.752 -7.562 5.16 -7.562 5.16 S 114.786 193.354 117.008 192.757 Z" data-colored="true" data-filltype="sd1" data-stroketype="none" data-fromskin="true"/><path id="SvgjsPath2764" opacity="1" fill="none" stroke="#c5796d" stroke-width="1.5" d="M 190.858 199.866 c -9.741 -16.471 -29.122 -15.142 -46.077 -18.535 c -6.86 -1.373 -23.153 -5.789 -23.339 -13.488 c -0.192 -8.066 4.291 -40.09 4.291 -40.09 H 74.005 c 0 0 4.487 32.023 4.294 40.09 c -0.184 7.699 -16.48 12.115 -23.341 13.488 c -7.104 1.422 -20.125 2.584 -26.448 4.6 c -6.156 1.963 -13.624 3.777 -19.632 13.936 c -3.644 6.16 -6.008 16.133 -6.008 27.133 h 194 C 196.869 215.999 194.509 206.026 190.858 199.866 Z" data-colored="true" data-filltype="none" data-stroketype="sd3" data-fromskin="true"/></g><g id="svga-group-chinshadow-single"><path id="SvgjsPath2910" opacity="1" fill="url(#SvgjsLinearGradient2911)" d="M 100.021 171.27 c 5.607 -0.009 13.53 -3.627 20.967 -8.478 c 0.485 -6.84 1.756 -17.341 2.758 -25.098 c -13.972 -1.825 -33.828 -1.785 -47.741 0.101 c 0.995 7.702 2.249 18.065 2.739 24.877 C 86.278 167.593 94.344 171.279 100.021 171.27 Z" data-colored="false" data-filltype="gradient" data-stroketype="none" data-fromskin="true"/></g><g id="svga-group-clothes-single" data-updown="0" data-leftright="0" data-dist="0" data-scaleX="1" data-scaleY="1" data-rotate="0"><path id="SvgjsPath3815" opacity="1" fill="#82cbe2" stroke-width="none" d="M 110.139 228.889 c -17.864 0 -38.7 -0.069 -63.699 -0.213 l -22.105 -0.12 c -13.348 -0.072 -16.001 -0.087 -17.631 -0.087 l -4.573 0.006 c 0.032 -40.523 20.015 -43.334 41.17 -46.313 c 7.271 -1.023 14.789 -2.082 21.584 -4.733 c 8.525 11.975 21.924 13.591 33.912 13.591 c 0.667 0 1.341 -0.006 2.016 -0.017 c 12.668 -0.285 27.552 -4.774 32.317 -14.161 c 0.614 0.234 1.186 0.504 1.738 0.766 c 0.621 0.293 1.263 0.597 1.974 0.854 c 4.65 1.684 10.432 2.48 16.552 3.324 c 20.011 2.76 44.916 6.193 44.578 45.069 c 0.003 0.154 0.004 1.097 -0.012 1.392 c -11.682 0 -19.607 0.113 -28.782 0.244 c -12.445 0.178 -27.935 0.398 -59.027 0.398 C 110.145 228.889 110.142 228.889 110.139 228.889 Z" data-colored="true" data-filltype="tone" data-stroketype="none"/><path id="SvgjsPath3816" opacity="1" fill="#a3dff1" stroke-width="none" d="M 197.869 226.999 c -2.027 -5.485 -0.96 -15.439 -6.837 -24.292 c -11.653 -17.556 -33.322 -15.948 -53.227 -21.639 c -4.204 8.565 -12.24 13.539 -21.429 16.39 l -0.016 -0.047 c 9.016 -3.198 16.683 -8.066 21.003 -16.475 c -0.501 -0.146 -1.001 -0.292 -1.499 -0.448 l 0.956 -1.836 c 24.187 7.439 43.709 2.062 55.037 21.214 C 195.509 206.026 197.869 215.999 197.869 226.999 Z M 57.233 182.344 c 1.267 -0.294 2.53 -0.607 3.788 -0.948 l -1.332 -1.765 c -23.343 6.027 -40.887 2.21 -51.548 20.235 c -3.65 6.16 -6.011 16.133 -6.011 27.133 c 2.027 -5.485 0.96 -15.439 6.837 -24.292 c 10.571 -15.926 29.385 -16.085 47.646 -20.225 c 6.519 8.028 16.042 13.7 26.402 15.333 C 70.02 194.425 61.938 188.143 57.233 182.344 Z" data-colored="true" data-filltype="hl1" data-stroketype="none"/><path id="SvgjsPath3817" opacity="1" fill="#64b8d3" stroke-width="none" d="M 132.08 178.811 c -4.996 7.702 -18.542 12.955 -33.907 12.955 c -15.182 0 -27.706 -5.206 -33.5 -13.926 l -0.044 -0.065 l 1.235 1.856 c -1.369 0.581 -4.817 1.748 -4.817 1.748 l -1.446 -1.86 l 0.089 0.117 c 0.271 0.354 0.553 0.736 0.851 1.14 c 4.359 5.904 11.656 15.785 36.296 15.785 c 2.162 0 4.443 -0.079 6.78 -0.235 c 16.303 -1.168 26.873 -6.359 32.244 -15.839 C 135.806 180.464 133.352 179.456 132.08 178.811 Z" data-colored="true" data-filltype="sd1" data-stroketype="none"/><path id="SvgjsPath3818" opacity="1" fill="#3295b4" stroke-width="none" d="M 133.079 176.717 c -5.041 10.081 -21.03 13.934 -32.27 14.187 c -14.635 0.228 -27.563 -1.841 -35.89 -13.597 c -26.368 10.344 -62.89 -3.587 -62.89 51.269 c 9.28 0 -4.304 -0.062 44.41 0.2 c 115.375 0.663 115.16 -0.43 151.61 -0.43 c 0.027 -0.131 0.023 -1.356 0.021 -1.49 c 0.44 -50.604 -41.021 -41.186 -61.195 -48.488 C 135.504 177.871 134.422 177.218 133.079 176.717 Z M 64.589 177.896 c 13.809 20.776 60.199 16.511 68.44 -0.561 c 1.12 0.471 2.34 0.94 3.64 1.4 c -3.904 8.186 -12.275 16.001 -33.06 17.49 c -32.014 2.134 -39.41 -10.844 -43.84 -16.65 C 59.905 179.537 63.225 178.407 64.589 177.896 Z M 2.169 228.405 c 2.5 -22.877 4.756 -39.219 32.69 -44.068 c 9.593 -1.77 14.509 -1.939 24.83 -4.731 c 7.873 10.792 15.739 18.518 44.7 17.3 c 21.37 -2.377 28.569 -9.619 32.461 -18.1 c 26.52 8.347 59.285 -0.172 60.88 49.38 C 147.265 227.529 98.51 226.216 2.169 228.405 Z" data-colored="true" data-filltype="sd3" data-stroketype="none"/></g><g id="svga-group-head" data-updown="0" data-leftright="0" data-dist="0" data-scaleX="1" data-scaleY="1" data-rotate="0"><g id="svga-group-ears-left" style="display:none;" data-updown="0" data-leftright="0" data-dist="0" data-scaleX="1" data-scaleY="1" data-rotate="0"><path id="SvgjsPath3833" opacity="1" fill="#f3d4cf" stroke="#c5796d" stroke-width="1.5" d="M 47.001 83.974 c -1.376 -2.313 -5.638 -7.997 -9.98 -6.603 c -2.749 0.882 -3.293 3.765 -3.735 6.311 c -0.588 3.386 0.471 10.083 1.389 12.503 c 0.881 2.325 3.533 6.816 5.264 8.527 c 2.13 2.1 4.775 8.793 5.194 9.487 c 0.66 1.097 1.536 2.745 4.122 2.538 c 2.853 -0.229 4.584 -1.742 5.856 -1.999 C 58.253 114.109 50.582 89.995 47.001 83.974 Z" data-colored="true" data-filltype="tone" data-stroketype="sd3"/><path id="SvgjsPath3834" opacity="1" fill="#c5796d" stroke-width="none" d="M 44.197 97.997 c -0.132 -0.548 0.007 -1.47 0.142 -2.362 c 0.124 -0.812 0.24 -1.579 0.169 -2.121 c -0.267 -2.032 -1.773 -5.893 -2.757 -7.985 c -1.132 -2.407 -2.963 -5.439 -5.262 -6.221 c -0.95 -0.324 -1.575 0.063 -1.938 0.456 c -0.266 0.289 -0.325 0.627 -0.238 0.667 c 0.086 0.04 0.285 -0.24 0.572 -0.504 c 0.235 -0.216 0.579 -0.402 1.051 -0.363 c -0.19 1.011 -1.167 6.49 -0.744 10.225 c 0.333 2.938 1.593 5.131 1.79 5.46 c 0.029 0.346 0.077 0.685 0.148 1.014 c 0.929 4.287 4.971 9.163 6.378 10.758 c 0.259 0.295 0.531 0.47 0.598 0.398 c 0.066 -0.072 -0.094 -0.364 -0.353 -0.66 c -1.388 -1.585 -5.391 -6.442 -6.289 -10.579 c -0.952 -4.389 2.318 -10.896 3.048 -12.272 c 0.371 0.646 0.687 1.267 0.93 1.785 c 0.19 0.406 0.402 0.881 0.619 1.395 c -0.429 0.718 -3.434 5.958 -2.338 10.153 c 0.406 1.546 2.235 3.54 3.447 4.086 c 0.667 0.301 0.919 0.75 1.209 1.271 c 0.336 0.604 0.718 1.288 1.828 1.784 c 0.225 0.102 0.429 0.142 0.61 0.142 c 0.313 0 0.551 -0.126 0.725 -0.276 c 0.018 0.266 0.017 0.604 0.009 0.917 c -0.012 0.404 0.042 0.737 0.137 0.745 c 0.094 0.008 0.196 -0.313 0.207 -0.717 c 0.016 -0.496 0.013 -1.11 -0.072 -1.403 c -0.248 -0.865 -1.008 -1.841 -1.813 -2.875 C 45.221 99.896 44.403 98.844 44.197 97.997 Z M 36.95 94.196 c -2.177 -6.731 0.656 -12.54 1.144 -13.464 c 0.85 0.775 1.6 1.811 2.21 2.824 C 39.86 84.365 37.041 89.669 36.95 94.196 Z M 46.341 104.042 c -1.004 -0.447 -1.339 -1.051 -1.666 -1.633 c -0.293 -0.527 -0.598 -1.072 -1.369 -1.42 c -0.168 -0.075 -0.352 -0.191 -0.542 -0.323 c -2.486 -5.906 0.272 -8.488 0.963 -9.017 c 0.211 0.722 0.369 1.384 0.439 1.915 c 0.063 0.488 -0.052 1.263 -0.167 2.012 c -0.142 0.929 -0.286 1.89 -0.137 2.512 c 0.226 0.926 1.069 2.009 1.884 3.057 c 0.723 0.929 1.466 1.888 1.721 2.67 C 47.359 103.972 47.017 104.345 46.341 104.042 Z" data-colored="true" data-filltype="sd3" data-stroketype="none"/></g><g id="svga-group-ears-right" style="display:none;" data-updown="0" data-leftright="0" data-dist="0" data-scaleX="1" data-scaleY="1" data-rotate="0"><path id="SvgjsPath3835" opacity="1" fill="#f3d4cf" stroke="#c5796d" stroke-width="1.5" d="M 152.736 83.974 c 1.377 -2.313 5.639 -7.997 9.98 -6.603 c 2.75 0.882 3.293 3.765 3.736 6.311 c 0.588 3.386 -0.471 10.083 -1.389 12.503 c -0.881 2.325 -3.533 6.816 -5.266 8.527 c -2.129 2.1 -4.775 8.793 -5.193 9.487 c -0.658 1.097 -1.535 2.745 -4.121 2.538 c -2.854 -0.229 -4.584 -1.742 -5.857 -1.999 C 141.484 114.109 149.156 89.995 152.736 83.974 Z" data-colored="true" data-filltype="tone" data-stroketype="sd3"/><path id="SvgjsPath3836" opacity="1" fill="#c5796d" stroke-width="none" d="M 153.727 100.913 c -0.805 1.033 -1.564 2.009 -1.813 2.875 c -0.086 0.293 -0.088 0.907 -0.072 1.403 c 0.012 0.404 0.113 0.725 0.207 0.717 s 0.148 -0.341 0.137 -0.745 c -0.008 -0.313 -0.008 -0.651 0.01 -0.917 c 0.174 0.15 0.412 0.276 0.725 0.276 c 0.182 0 0.385 -0.04 0.609 -0.142 c 1.109 -0.496 1.492 -1.18 1.828 -1.784 c 0.289 -0.52 0.543 -0.969 1.209 -1.271 c 1.213 -0.546 3.041 -2.54 3.447 -4.086 c 1.096 -4.194 -1.908 -9.435 -2.338 -10.153 c 0.217 -0.513 0.43 -0.988 0.619 -1.395 c 0.244 -0.518 0.559 -1.139 0.93 -1.785 c 0.73 1.377 4 7.883 3.049 12.272 c -0.896 4.137 -4.9 8.994 -6.289 10.579 c -0.258 0.296 -0.418 0.588 -0.352 0.66 c 0.066 0.071 0.338 -0.104 0.598 -0.398 c 1.406 -1.596 5.449 -6.471 6.379 -10.758 c 0.07 -0.329 0.117 -0.668 0.146 -1.014 c 0.197 -0.329 1.459 -2.523 1.791 -5.46 c 0.422 -3.735 -0.555 -9.214 -0.744 -10.225 c 0.473 -0.039 0.814 0.146 1.051 0.363 c 0.287 0.264 0.486 0.544 0.572 0.504 s 0.027 -0.378 -0.238 -0.667 c -0.363 -0.393 -0.988 -0.779 -1.938 -0.456 c -2.299 0.782 -4.131 3.814 -5.262 6.221 c -0.984 2.093 -2.49 5.953 -2.758 7.985 c -0.072 0.542 0.045 1.309 0.17 2.121 c 0.135 0.892 0.273 1.814 0.141 2.362 C 155.336 98.844 154.518 99.896 153.727 100.913 Z M 159.434 83.555 c 0.611 -1.013 1.361 -2.049 2.211 -2.824 c 0.488 0.925 3.32 6.733 1.145 13.464 C 162.697 89.669 159.879 84.365 159.434 83.555 Z M 152.27 103.816 c 0.254 -0.782 0.998 -1.741 1.721 -2.67 c 0.816 -1.048 1.658 -2.131 1.885 -3.057 c 0.148 -0.622 0.004 -1.583 -0.137 -2.512 c -0.115 -0.749 -0.23 -1.524 -0.166 -2.012 c 0.068 -0.531 0.227 -1.193 0.438 -1.915 c 0.691 0.529 3.449 3.111 0.965 9.017 c -0.191 0.132 -0.375 0.248 -0.543 0.323 c -0.771 0.348 -1.074 0.893 -1.369 1.42 c -0.326 0.582 -0.662 1.186 -1.666 1.633 C 152.721 104.345 152.379 103.972 152.27 103.816 Z" data-colored="true" data-filltype="sd3" data-stroketype="none"/></g><g id="svga-group-faceshape-wrap" data-updown="0" data-leftright="0" data-dist="0" data-scaleX="1" data-scaleY="1" data-rotate="0"><g id="svga-group-faceshape-single" data-updown="0" data-leftright="0" data-dist="0" data-scaleX="1" data-scaleY="1" data-rotate="0"><path id="SvgjsPath2907" opacity="1" fill="#f3d4cf" stroke="none" stroke-width="none" d="M 158.785 76.762 l -0.005 0 c -0.012 0.053 -10.717 44.373 -18.919 56.95 c -6.452 9.895 -28.166 25.54 -39.84 25.558 c -11.671 0.02 -33.437 -15.559 -39.918 -25.433 C 51.861 121.285 41.017 77 41.005 76.946 h -0.001 c -1.298 -4.911 -1.994 -10.066 -2.002 -15.382 C 38.949 28.09 66.155 0.919 99.773 0.867 c 33.621 -0.052 60.913 27.033 60.964 60.507 C 160.746 66.69 160.068 71.846 158.785 76.762 Z" data-colored="true" data-filltype="tone" data-stroketype="none"/><path id="SvgjsPath2908" opacity="1" fill="#ebc3bd" stroke="none" stroke-width="none" d="M 125.766 6.622 c 19.104 10.248 32.075 30.355 32.039 53.476 c -0.009 5.316 -0.704 10.471 -2.003 15.382 h -0.001 c -0.012 0.053 -10.856 44.339 -19.099 56.891 c -5.946 9.061 -24.555 25.121 -36.833 25.121 c -12.279 0 -30.886 -16.061 -36.833 -25.121 c -8.242 -12.552 -19.086 -56.837 -19.098 -56.891 h -0.001 c -1.298 -4.911 -1.994 -10.066 -2.002 -15.382 C 41.898 36.977 54.87 16.87 73.972 6.622 C 53.277 16.324 38.963 37.28 39.001 61.564 c 0.008 5.316 0.704 10.471 2.002 15.382 h 0.001 c 0.012 0.053 10.856 44.339 19.098 56.891 c 4.416 6.728 15.922 16.095 26.5 21.382 c -0.529 -0.226 -1.062 -0.466 -1.599 -0.717 c 5.408 2.875 10.664 4.763 14.713 4.768 c 0.049 0 0.103 -0.005 0.152 -0.005 s 0.103 0.005 0.152 0.005 c 4.049 -0.005 9.305 -1.893 14.714 -4.768 c -0.538 0.253 -1.071 0.491 -1.601 0.718 c 10.577 -5.287 22.085 -14.655 26.501 -21.383 c 8.242 -12.552 19.087 -56.837 19.098 -56.891 h 0.002 c 1.298 -4.911 1.994 -10.066 2.002 -15.382 C 160.775 37.28 146.462 16.324 125.766 6.622 Z" data-colored="true" data-filltype="sd05" data-stroketype="none"/><path id="SvgjsPath2909" opacity="1" fill="none" stroke="#c5796d" stroke-width="1.5" d="M 158.785 76.762 l -0.005 0 c -0.012 0.053 -10.717 44.373 -18.919 56.95 c -6.452 9.895 -28.166 25.54 -39.84 25.558 c -11.671 0.02 -33.437 -15.559 -39.918 -25.433 C 51.861 121.285 41.017 77 41.005 76.946 h -0.001 c -1.298 -4.911 -1.994 -10.066 -2.002 -15.382 C 38.949 28.09 66.155 0.919 99.773 0.867 c 33.621 -0.052 60.913 27.033 60.964 60.507 C 160.746 66.69 160.068 71.846 158.785 76.762 Z" data-colored="true" data-filltype="none" data-stroketype="sd3"/></g></g><g id="svga-group-mouth-single" data-updown="0" data-leftright="0" data-dist="0" data-scaleX="1" data-scaleY="1" data-rotate="0"><path id="SvgjsPath2944" opacity="1" fill="url(#SvgjsLinearGradient2945)" d="M 100.126 141.95 c -2.835 0 -3.5 -2.934 -3.5 -2.934 s 3.898 0.763 7 0 C 103.626 139.017 102.621 141.95 100.126 141.95 Z" data-colored="false" data-filltype="gradient" data-stroketype="none" data-fromskin="true"/><path id="SvgjsPath2948" opacity="1" fill="#c5796d" stroke-width="none" d="M 100.523 139.779 c -1.987 0 -3.757 -0.267 -3.868 -0.283 c -0.137 -0.021 -0.23 -0.147 -0.209 -0.284 c 0.021 -0.137 0.154 -0.226 0.285 -0.209 c 0.041 0.005 4.071 0.61 6.747 0.002 c 0.133 -0.025 0.27 0.055 0.3 0.189 s -0.054 0.268 -0.188 0.299 C 102.643 139.708 101.554 139.779 100.523 139.779 Z" data-colored="true" data-filltype="sd3" data-stroketype="none" data-fromskin="true"/><path id="SvgjsPath2949" opacity="1" fill="#ffffff" stroke-width="none" d="M 84 130 c 0 0 11.487 1.189 15.325 1.199 C 103.499 131.208 117 130 117 130 c -3.903 2.826 -8.199 5.543 -17.926 5.597 C 90.373 135.646 88.145 132.889 84 130 Z" data-colored="false" data-filltype="#ffffff" data-stroketype="none"/><path id="SvgjsPath2950" opacity="1" fill="none" stroke="#c92066" stroke-width="0.75" d="M 84 130 c 0 0 11.487 1.189 15.325 1.199 C 103.499 131.208 117 130 117 130 c -3.903 2.826 -8.199 5.543 -17.926 5.597 C 90.373 135.646 88.145 132.889 84 130 Z" data-colored="true" data-filltype="none" data-stroketype="sd3"/></g><g id="svga-group-eyes-left" data-updown="0" data-leftright="0" data-dist="0" data-scaleX="1" data-scaleY="1" data-rotate="0"><g id="svga-group-eyesback-left"><path id="SvgjsPath3728" opacity="1" fill="url(#SvgjsRadialGradient3729)" d="M 61.952 84.523 c -0.506 -2.285 5.191 -3.973 12.711 -3.051 c 7.518 0.923 12.738 5.524 12.052 7.844 c -0.38 1.286 -10.639 3.245 -14.253 2.847 C 68.798 91.758 63.174 90.04 61.952 84.523 Z" data-colored="false" data-filltype="gradient" data-stroketype="none"/></g><g id="svga-group-eyesiriswrapper-left" transform="translate(-0.75 -0.5)"><g id="svga-group-eyesiriscontrol-left" data-updown="0" data-leftright="0" data-dist="0" data-scaleX="1" data-scaleY="1" data-rotate="0"><g id="svga-group-eyesiris-left" data-updown="0" data-leftright="0" data-dist="0" data-scaleX="1" data-scaleY="1" data-rotate="0"><path id="SvgjsPath3782" opacity="1" fill="#9fae70" stroke="#6c802c" stroke-width="0.5" d="M 83.206 89.25 c -1.231 4.522 -5.896 7.187 -10.429 5.944 c -4.528 -1.241 -7.203 -5.918 -5.97 -10.442 c 1.23 -4.526 5.905 -7.19 10.434 -5.947 C 81.768 80.045 84.439 84.723 83.206 89.25 Z" data-colored="true" data-filltype="tone" data-stroketype="sd3"/><path id="SvgjsPath3783" opacity="1" fill="#b2bd8d" stroke="none" stroke-width="none" d="M 73.962 81.918 l -0.221 -0.395 c -0.776 0.308 -1.524 0.631 -2.232 0.973 l 0.524 1.267 l -0.066 0.732 l -2.021 -1.189 c -0.66 0.367 -1.273 0.75 -1.867 1.14 l 0.005 0.013 l -0.692 0.78 l 1.107 1.132 l -1.491 0.813 l 0.563 0.931 l 2.633 0.262 l -2.468 1.673 l 2.641 -0.146 L 68.984 92.3 l 3.255 -1.969 l -0.875 3.349 l 1.883 -3.093 l 0.363 3.319 l 0.544 -2.936 l 0.5 -0.061 l 0.709 3.329 l 0.216 -0.998 c 0.284 -0.074 1.018 0.997 1.297 0.922 l -0.829 -3.621 l 1.817 3.621 l -0.737 -3.756 l 2.236 2.905 c 0.08 -0.025 0.278 -1.204 0.357 -1.228 l -1.392 -2.081 l 2.53 0.763 l -1.518 -1.643 l -1.219 -1.009 l 5.083 1.137 l -2.83 -1.723 l 2 -0.818 l -4.329 -0.437 l 4.281 -2.27 l -3.875 0.988 l -1.043 -0.565 l -0.256 -0.501 l 0.074 -1.199 l 0.086 -1.967 l -1.768 3.113 l -0.156 -2.279 l -0.222 -0.597 c -0.354 0.124 -0.702 0.245 -1.043 0.375 L 73.962 81.918 Z" data-colored="true" data-filltype="hl1" data-stroketype="none"/><path id="SvgjsPath3784" opacity="0.9" fill="#8d9f56" stroke="none" stroke-width="none" d="M 83.303 85.237 c -7.429 0.338 -11.206 1.927 -16.591 3.727 c -1.038 -4.574 1.839 -9.12 6.42 -10.149 C 77.712 77.786 82.267 80.661 83.303 85.237 Z" data-colored="true" data-filltype="sd1" data-stroketype="none"/><path id="SvgjsPath3785" opacity="0.8" fill="#000000" stroke-width="none" d="M 76.234 84.165 c -1.869 -0.536 -3.777 0.532 -4.258 2.395 c -0.484 1.853 0.64 3.793 2.51 4.329 c 1.871 0.537 3.781 -0.532 4.264 -2.386 C 79.237 86.639 78.107 84.7 76.234 84.165 Z" data-colored="false" data-filltype="#000000" data-stroketype="none"/><path id="SvgjsPath3786" opacity="1" fill="none" stroke="#6c802c" stroke-width="0.75" d="M 76.234 84.165 c -1.869 -0.536 -3.777 0.532 -4.258 2.395 c -0.484 1.853 0.64 3.793 2.51 4.329 c 1.871 0.537 3.781 -0.532 4.264 -2.386 C 79.237 86.639 78.107 84.7 76.234 84.165 Z" data-colored="true" data-filltype="none" data-stroketype="sd3"/><path id="SvgjsPath3787" opacity="0.5" fill="#ffffff" stroke-width="none" d="M 68.812 92.044 c 0.868 1.378 2.021 2.416 3.653 2.762 c 1.879 0.398 2.094 -2.101 0.748 -2.387 c -1.02 -0.215 -1.667 -0.715 -2.199 -1.561 C 70.039 89.31 68.029 90.803 68.812 92.044 L 68.812 92.044 Z" data-colored="false" data-filltype="#ffffff" data-stroketype="none"/><path id="SvgjsPath3788" opacity="1" fill="url(#SvgjsLinearGradient3789)" d="M 76.468 83.449 c 1.316 0.265 2.082 1.087 2.747 2.323 c 1.222 2.272 4.676 0.252 3.453 -2.019 c -1.073 -1.995 -2.86 -3.703 -5.138 -4.162 C 74.615 79.004 74.206 82.993 76.468 83.449 L 76.468 83.449 Z" data-colored="false" data-filltype="gradient" data-stroketype="none"/></g></g></g><g id="svga-group-eyesfront-left"><path id="SvgjsPath3750" opacity="1" fill="#f3d4cf" stroke-width="none" d="M 55.5 88 c 0 13.807 8.06 24.999 18 24.999 s 18 -11.192 18 -24.999 c 0 -13.808 -8.06 -25 -18 -25 S 55.5 74.192 55.5 88 Z M 61.952 84.523 c -0.506 -2.285 5.191 -3.973 12.711 -3.051 c 7.518 0.923 12.738 5.524 12.052 7.844 c -0.38 1.286 -10.639 3.245 -14.253 2.847 C 68.798 91.758 63.174 90.04 61.952 84.523 Z" data-colored="true" data-filltype="tone" data-stroketype="none" data-fromskin="true"/><path id="SvgjsPath3751" opacity="1" fill="url(#SvgjsRadialGradient3752)" d="M 72.462 92.163 c 3.614 0.398 13.873 -1.561 14.253 -2.847 c 0.687 -2.32 -4.534 -6.921 -12.052 -7.844 c -6.46 -0.792 -11.563 0.345 -12.556 2.128 c 0.898 -6.4 7.7 -11.397 15.987 -11.434 c 8.911 -0.037 16.148 5.676 16.172 12.765 c 0.021 7.088 -7.185 12.862 -16.095 12.902 c -8.913 0.037 -16.149 -5.676 -16.173 -12.764 c 0 -0.105 0.016 -0.208 0.019 -0.313 C 63.348 90.083 68.852 91.764 72.462 92.163 Z" data-colored="false" data-filltype="gradient" data-stroketype="none" data-fromskin="true"/><path id="SvgjsPath3756" opacity="1" fill="url(#SvgjsRadialGradient3757)" d="M 61.952 84.523 c -0.506 -2.285 5.191 -3.973 12.711 -3.051 c 7.518 0.923 12.738 5.524 12.052 7.844 c -0.38 1.286 -10.639 3.245 -14.253 2.847 C 68.798 91.758 63.174 90.04 61.952 84.523 Z" data-colored="false" data-filltype="gradient" data-stroketype="none"/><path id="SvgjsPath3760" opacity="1" fill="#c5796d" stroke-width="none" d="M 62.349 79.417 c 4.208 -1.978 9.35 -2.16 13.838 -1.005 c 2.404 0.561 4.965 1.285 7.063 2.638 c 1.945 1.135 3.525 2.5 5.002 4.19 c -1.342 -1.701 -2.773 -3.118 -4.623 -4.27 c -2.276 -1.416 -4.769 -2.294 -7.364 -2.916 C 71.678 76.928 66.542 77.184 62.349 79.417 Z" data-colored="true" data-filltype="sd3" data-stroketype="none" data-fromskin="true"/><path id="SvgjsPath3761" opacity="1" fill="#000000" stroke-width="none" d="M 57.318 80.972 c 0 0 2.328 0.881 3.595 0.62 c -0.39 -0.459 -1.096 -1.604 -1.096 -1.604 s 1.853 0.551 3.151 0.032 c 0.88 -0.352 4.065 -1 5.456 -1.066 c 1.687 -0.082 5.073 0.125 6.735 0.424 c 3.374 0.608 8.985 2.63 11.678 7.184 c 0.255 0.572 1.407 0.921 1.407 0.921 s -1.02 -0.215 -1.149 0.042 c -0.282 0.561 1.298 2.016 1.496 2.197 c -0.161 -0.145 -1.289 -1.135 -1.722 -0.967 c -0.061 0.022 -0.137 0.388 -0.155 0.482 c 0.3 -2.426 -4.838 -6.746 -12.052 -7.604 c -7.52 -0.894 -13.217 0.743 -12.711 2.958 c 1.222 5.348 6.846 7.013 10.51 7.405 c 2.526 0.271 8.298 -0.577 11.675 -1.537 l 1.011 -0.317 c -1.999 1.009 -7.524 2.195 -9.767 2.403 c -0.744 0.07 -2.24 0.104 -2.986 0.085 c -5.949 -0.158 -10.16 -3.179 -11.729 -7.26 c -0.125 -0.328 -0.494 -0.619 -0.838 -0.696 c -1.604 -0.361 -5.096 -1.811 -5.096 -1.811 c 2.32 0.361 3.483 0.674 5.305 0.059 C 58.257 82.256 57.318 80.972 57.318 80.972 Z" data-colored="true" data-filltype="tone" data-stroketype="none"/></g></g><g id="svga-group-eyes-right" data-updown="0" data-leftright="0" data-dist="0" data-scaleX="1" data-scaleY="1" data-rotate="0"><g id="svga-group-eyesback-right"><path id="SvgjsPath3735" opacity="1" fill="url(#SvgjsRadialGradient3736)" d="M 138.048 84.523 c 0.506 -2.285 -5.191 -3.973 -12.711 -3.051 c -7.518 0.923 -12.738 5.524 -12.052 7.844 c 0.38 1.286 10.639 3.245 14.253 2.847 C 131.202 91.758 136.826 90.04 138.048 84.523 Z" data-colored="false" data-filltype="gradient" data-stroketype="none"/></g><g id="svga-group-eyesiriswrapper-right" transform="translate(0.75 -0.5)"><g id="svga-group-eyesiriscontrol-right" data-updown="0" data-leftright="0" data-dist="0" data-scaleX="1" data-scaleY="1" data-rotate="0"><g id="svga-group-eyesiris-right" data-updown="0" data-leftright="0" data-dist="0" data-scaleX="1" data-scaleY="1" data-rotate="0"><path id="SvgjsPath3792" opacity="1" fill="#9fae70" stroke="#6c802c" stroke-width="0.5" d="M 133.199 89.25 c -1.231 4.522 -5.896 7.187 -10.429 5.944 c -4.528 -1.241 -7.203 -5.918 -5.97 -10.442 c 1.23 -4.526 5.905 -7.19 10.434 -5.947 C 131.761 80.045 134.433 84.723 133.199 89.25 Z" data-colored="true" data-filltype="tone" data-stroketype="sd3"/><path id="SvgjsPath3793" opacity="1" fill="#b2bd8d" stroke="none" stroke-width="none" d="M 123.955 81.918 l -0.221 -0.395 c -0.776 0.308 -1.524 0.631 -2.232 0.973 l 0.524 1.267 l -0.066 0.732 l -2.021 -1.189 c -0.66 0.367 -1.273 0.75 -1.867 1.14 l 0.005 0.013 l -0.692 0.78 l 1.107 1.132 L 117 87.182 l 0.563 0.931 l 2.633 0.262 l -2.468 1.673 l 2.641 -0.146 l -1.392 2.398 l 3.255 -1.969 l -0.875 3.349 l 1.883 -3.093 l 0.363 3.319 l 0.544 -2.936 l 0.5 -0.061 l 0.709 3.329 l 0.216 -0.998 c 0.284 -0.074 1.018 0.997 1.297 0.922 l -0.829 -3.621 l 1.817 3.621 l -0.737 -3.756 l 2.236 2.905 c 0.08 -0.025 0.278 -1.204 0.357 -1.228 l -1.392 -2.081 l 2.53 0.763 l -1.518 -1.643 l -1.219 -1.009 l 5.083 1.137 l -2.83 -1.723 l 2 -0.818 l -4.329 -0.437 l 4.281 -2.27 l -3.875 0.988 l -1.043 -0.565 l -0.256 -0.501 l 0.074 -1.199 l 0.086 -1.967 l -1.768 3.113 l -0.156 -2.279 l -0.222 -0.597 c -0.354 0.124 -0.702 0.245 -1.043 0.375 L 123.955 81.918 Z" data-colored="true" data-filltype="hl1" data-stroketype="none"/><path id="SvgjsPath3794" opacity="0.9" fill="#8d9f56" stroke="none" stroke-width="none" d="M 133.296 85.237 c -7.429 0.338 -11.206 1.927 -16.591 3.727 c -1.038 -4.574 1.839 -9.12 6.42 -10.149 C 127.705 77.786 132.26 80.661 133.296 85.237 Z" data-colored="true" data-filltype="sd1" data-stroketype="none"/><path id="SvgjsPath3795" opacity="0.8" fill="#000000" stroke-width="none" d="M 126.229 84.165 c -1.869 -0.536 -3.777 0.532 -4.259 2.395 c -0.484 1.853 0.641 3.793 2.509 4.329 c 1.873 0.537 3.78 -0.532 4.266 -2.386 C 129.229 86.639 128.101 84.7 126.229 84.165 Z" data-colored="false" data-filltype="#000000" data-stroketype="none"/><path id="SvgjsPath3796" opacity="1" fill="none" stroke="#6c802c" stroke-width="0.75" d="M 126.229 84.165 c -1.869 -0.536 -3.777 0.532 -4.259 2.395 c -0.484 1.853 0.641 3.793 2.509 4.329 c 1.873 0.537 3.78 -0.532 4.266 -2.386 C 129.229 86.639 128.101 84.7 126.229 84.165 Z" data-colored="true" data-filltype="none" data-stroketype="sd3"/><path id="SvgjsPath3797" opacity="0.5" fill="#ffffff" stroke-width="none" d="M 118.805 92.044 c 0.868 1.378 2.021 2.416 3.653 2.762 c 1.879 0.398 2.094 -2.101 0.748 -2.387 c -1.02 -0.215 -1.667 -0.715 -2.199 -1.561 C 120.032 89.31 118.022 90.803 118.805 92.044 L 118.805 92.044 Z" data-colored="false" data-filltype="#ffffff" data-stroketype="none"/><path id="SvgjsPath3798" opacity="1" fill="url(#SvgjsLinearGradient3799)" d="M 126.461 83.449 c 1.316 0.265 2.082 1.087 2.747 2.323 c 1.222 2.272 4.676 0.252 3.453 -2.019 c -1.073 -1.995 -2.86 -3.703 -5.138 -4.162 C 124.608 79.004 124.199 82.993 126.461 83.449 L 126.461 83.449 Z" data-colored="false" data-filltype="gradient" data-stroketype="none"/></g></g></g><g id="svga-group-eyesfront-right"><path id="SvgjsPath3770" opacity="1" fill="#f3d4cf" stroke-width="none" d="M 126.5 63 c -9.94 0 -18 11.192 -18 25 c 0 13.807 8.06 24.999 18 24.999 s 18 -11.192 18 -24.999 C 144.5 74.192 136.44 63 126.5 63 Z M 127.538 92.163 c -3.614 0.398 -13.873 -1.561 -14.253 -2.847 c -0.687 -2.32 4.534 -6.921 12.052 -7.844 c 7.52 -0.922 13.217 0.767 12.711 3.051 C 136.826 90.04 131.202 91.758 127.538 92.163 Z" data-colored="true" data-filltype="tone" data-stroketype="none" data-fromskin="true"/><path id="SvgjsPath3771" opacity="1" fill="url(#SvgjsRadialGradient3772)" d="M 127.538 92.163 c -3.614 0.398 -13.873 -1.561 -14.253 -2.847 c -0.687 -2.32 4.534 -6.921 12.052 -7.844 c 6.46 -0.792 11.563 0.345 12.556 2.128 c -0.898 -6.4 -7.7 -11.397 -15.987 -11.434 c -8.911 -0.037 -16.148 5.676 -16.172 12.765 c -0.021 7.088 7.185 12.862 16.095 12.902 c 8.913 0.037 16.149 -5.676 16.173 -12.764 c 0 -0.105 -0.016 -0.208 -0.019 -0.313 C 136.652 90.083 131.148 91.764 127.538 92.163 Z" data-colored="false" data-filltype="gradient" data-stroketype="none" data-fromskin="true"/><path id="SvgjsPath3776" opacity="1" fill="url(#SvgjsRadialGradient3777)" d="M 138.048 84.523 c 0.506 -2.285 -5.191 -3.973 -12.711 -3.051 c -7.518 0.923 -12.738 5.524 -12.052 7.844 c 0.38 1.286 10.639 3.245 14.253 2.847 C 131.202 91.758 136.826 90.04 138.048 84.523 Z" data-colored="false" data-filltype="gradient" data-stroketype="none"/><path id="SvgjsPath3780" opacity="1" fill="#c5796d" stroke-width="none" d="M 137.651 79.417 c -4.208 -1.978 -9.35 -2.16 -13.838 -1.005 c -2.404 0.561 -4.965 1.285 -7.063 2.638 c -1.945 1.135 -3.525 2.5 -5.002 4.19 c 1.342 -1.701 2.773 -3.118 4.623 -4.27 c 2.276 -1.416 4.769 -2.294 7.364 -2.916 C 128.322 76.928 133.458 77.184 137.651 79.417 Z" data-colored="true" data-filltype="sd3" data-stroketype="none" data-fromskin="true"/><path id="SvgjsPath3781" opacity="1" fill="#000000" stroke-width="none" d="M 142.682 80.972 c 0 0 -2.328 0.881 -3.595 0.62 c 0.39 -0.459 1.096 -1.604 1.096 -1.604 s -1.853 0.551 -3.151 0.032 c -0.88 -0.352 -4.065 -1 -5.456 -1.066 c -1.687 -0.082 -5.073 0.125 -6.735 0.424 c -3.374 0.608 -8.985 2.63 -11.678 7.184 c -0.255 0.572 -1.407 0.921 -1.407 0.921 s 1.02 -0.215 1.149 0.042 c 0.282 0.561 -1.298 2.016 -1.496 2.197 c 0.161 -0.145 1.289 -1.135 1.722 -0.967 c 0.061 0.022 0.137 0.388 0.155 0.482 c -0.3 -2.426 4.838 -6.746 12.052 -7.604 c 7.52 -0.894 13.217 0.743 12.711 2.958 c -1.222 5.348 -6.846 7.013 -10.51 7.405 c -2.526 0.271 -8.298 -0.577 -11.675 -1.537 l -1.011 -0.317 c 1.999 1.009 7.524 2.195 9.767 2.403 c 0.744 0.07 2.24 0.104 2.986 0.085 c 5.949 -0.158 10.16 -3.179 11.729 -7.26 c 0.125 -0.328 0.494 -0.619 0.838 -0.696 c 1.604 -0.361 5.096 -1.811 5.096 -1.811 c -2.32 0.361 -3.483 0.674 -5.305 0.059 C 141.743 82.256 142.682 80.972 142.682 80.972 Z" data-colored="true" data-filltype="tone" data-stroketype="none"/></g></g><g id="svga-group-facehighlight-single" data-updown="0" data-leftright="0" data-dist="0" data-scaleX="1" data-scaleY="1" data-rotate="0"><path id="SvgjsPath2753" opacity="1" fill="url(#SvgjsRadialGradient2754)" d="M 140.204 113.007 c 0.035 22.275 -17.995 40.365 -40.273 40.396 c -22.274 0.036 -40.361 -17.993 -40.396 -40.272 C 59.501 90.857 77.53 72.77 99.808 72.735 C 122.083 72.701 140.171 90.73 140.204 113.007 Z" data-colored="false" data-filltype="gradient" data-stroketype="none" data-fromskin="true"/><path id="SvgjsPath2757" opacity="1" fill="url(#SvgjsRadialGradient2758)" d="M 135 55.999 c 0 19.329 -15.671 35 -35 35 c -19.329 0 -35 -15.671 -35 -35 s 15.671 -35 35 -35 C 119.329 20.999 135 36.67 135 55.999 Z" data-colored="false" data-filltype="gradient" data-stroketype="none" data-fromskin="true"/></g><g id="svga-group-eyebrows-left" data-updown="0" data-leftright="0" data-dist="0" data-scaleX="1" data-scaleY="1" data-rotate="0"><path id="SvgjsPath3802" opacity="1" fill="#6b4e40" stroke-width="none" d="M 74.799 69.068 c -4.425 -0.475 -21.252 3.714 -21.252 3.714 s 16.789 -6.74 23.757 -5.667 c 5.188 0.798 14.397 5.077 12.706 7.339 C 88.649 76.275 84.408 70.1 74.799 69.068 Z" data-colored="true" data-filltype="#000000" data-stroketype="none"/></g><g id="svga-group-eyebrows-right" data-updown="0" data-leftright="0" data-dist="0" data-scaleX="1" data-scaleY="1" data-rotate="0"><path id="SvgjsPath3803" opacity="1" fill="#6b4e40" stroke-width="none" d="M 109.731 74.187 c -1.713 -2.292 7.592 -6.31 13.546 -6.804 c 7.117 -0.59 22.914 4.085 22.914 4.085 s -15.9 -2.628 -20.377 -2.106 C 115.998 70.506 111.11 76.031 109.731 74.187 Z" data-colored="true" data-filltype="#000000" data-stroketype="none"/></g><g id="svga-group-nose-single" data-updown="0" data-leftright="0" data-dist="0" data-scaleX="1" data-scaleY="1" data-rotate="0"><path id="SvgjsPath2951" opacity="1" fill="#e4b3ab" stroke-width="none" d="M 92.281 116.235 c -0.745 2.063 5.028 4.289 7.218 4.426 c 2.374 0.147 9.024 -2.899 7.896 -4.991 c -1.185 -2.197 -5.63 -0.286 -7.547 -0.286 C 97.94 115.384 93.276 113.479 92.281 116.235 Z" data-colored="true" data-filltype="sd1" data-stroketype="none" data-fromskin="true"/><path id="SvgjsPath2952" opacity="1" fill="#c5796d" stroke-width="none" d="M 102.207 117.221 c -0.243 -0.522 1.194 -1.333 1.748 -1.493 c 0.777 -0.226 2.505 0.238 2.438 0.831 c -0.06 0.521 -1.603 -0.169 -2.105 -0.022 C 103.767 116.687 102.435 117.712 102.207 117.221 Z M 95.214 116.742 c 0.706 0 1.753 0.457 1.945 0.057 c 0.229 -0.479 -1.56 -1.065 -2.086 -1 c -0.434 0.052 -1.991 0.958 -1.777 1.338 C 93.496 117.49 94.284 116.742 95.214 116.742 Z" data-colored="true" data-filltype="sd3" data-stroketype="none" data-fromskin="true"/><path id="SvgjsPath2953" opacity="0.2" fill="#ffffff" stroke-width="none" d="M 99.857 113.479 c 0.669 0 1.807 -0.637 1.978 -1.9 c 0.754 -5.575 -0.521 -20.246 -1.978 -20.246 c -1.365 0 -2.508 15.024 -2.155 20.246 C 97.789 112.86 99.099 113.479 99.857 113.479" data-colored="true" data-filltype="hl2" data-stroketype="none" data-fromskin="true"/></g><g id="svga-group-hair-front" data-updown="0" data-leftright="0" data-dist="0" data-scaleX="1" data-scaleY="1" data-rotate="0"><path id="SvgjsPath3888" opacity="0.1" fill="#73625b" stroke-width="none" d="M 51.396 214.38 c -15.723 -25.105 -21.321 -14.91 -17.672 -42.457 c -5.209 -9.411 -9.375 -18.77 -12.191 -28.824 c -5.598 -21.481 0.132 -35.265 5.142 -50.948 C 21.889 26.813 59.341 -9.001 100.71 -9.001 c 32.28 0 67.16 23.47 67.471 75.221 c -0.514 9.459 -1.932 25.343 -3.003 32.165 c 17.769 55.029 2.501 50.649 -11.07 76.357 c -3.681 6.968 -8.012 17.267 -8.919 27.573 c -18.66 -33.246 -16.96 -38.325 -10.676 -53.39 c 7.504 -17.985 4.547 -4.07 -10.03 -2.422 c 13.563 -10.49 22.717 -10.462 23.003 -75.823 c 0.001 -0.039 -0.021 -0.075 -0.054 -0.091 c -12.352 -5.881 -24.037 -17.006 -31.256 -29.76 c -0.018 -0.031 -0.047 -0.05 -0.082 -0.05 c -0.001 0 -0.003 0 -0.003 0 c -0.037 0.001 -0.07 0.023 -0.085 0.057 c -8.335 17.787 -22.626 27.374 -46.336 31.084 c -4.629 2.417 -9.738 4.666 -16.104 7.085 c -0.037 0.014 -0.063 0.051 -0.063 0.092 c -0.428 25.658 5.466 43.881 20.327 65.193 c -7.085 -3.254 -12.746 -12.711 -12.746 -12.711 c -0.355 0 2.484 4.965 2.662 5.281 C 83.555 172.154 51.627 183.483 51.396 214.38 Z" data-colored="true" data-filltype="tone" data-stroketype="none"/><path id="SvgjsPath3889" opacity="1" fill="#73625b" stroke-width="none" d="M 50.101 212.286 c -16.177 -25.105 -21.937 -14.91 -18.182 -42.457 c -5.36 -9.411 -9.647 -18.77 -12.543 -28.824 c -5.76 -21.481 0.135 -35.265 5.29 -50.948 C 19.741 24.72 58.275 -11.095 100.841 -11.095 c 33.21 0 69.099 23.47 69.419 75.221 c -0.527 9.459 -1.984 25.343 -3.089 32.165 c 18.283 55.029 2.573 50.649 -11.39 76.357 c -3.789 6.968 -8.242 17.267 -9.175 27.573 c -19.202 -33.246 -17.451 -38.325 -10.984 -53.39 c 7.718 -17.985 2.953 -4.116 -10.321 -1.223 c 13.954 -10.49 23.373 -11.661 23.668 -77.022 c 0.001 -0.039 -0.022 -0.075 -0.058 -0.091 c -12.709 -5.881 -24.729 -17.006 -32.156 -29.76 c -0.018 -0.031 -0.051 -0.05 -0.086 -0.05 c -0.001 0 -0.003 0 -0.004 0 c -0.037 0.001 -0.07 0.023 -0.086 0.057 c -8.577 17.787 -23.281 27.374 -47.675 31.084 c -4.764 2.417 -10.02 4.666 -16.569 7.085 c -0.039 0.014 -0.064 0.051 -0.065 0.092 c -0.441 25.657 5.624 44.881 20.914 66.193 c -7.322 -5.419 -13.113 -13.711 -13.113 -13.711 c -0.366 0 2.556 4.965 2.738 5.281 C 83.189 170.061 50.338 181.39 50.101 212.286 Z" data-colored="true" data-filltype="tone" data-stroketype="none"/><path id="SvgjsPath3890" opacity="1" fill="#644e45" stroke-width="none" d="M 27.34 109.853 c -0.751 -7.729 -12.676 -57.451 16.781 -93.862 C 30.129 43.148 26.056 79.801 27.34 109.853 Z M 167.521 94.041 c 4.414 -30.432 5.609 -63.063 -19.443 -86.74 C 160.453 31.492 169.091 49.191 167.521 94.041 Z M 143.14 22.856 c -2.382 11.089 1.711 25.652 3.052 35.713 C 139.202 52.934 135.036 45 130.23 33.973 c 1.055 6.228 3.485 17.428 16.972 31.263 c -21.798 -19.468 -26.475 -29.291 -22.914 -52.455 c -0.198 0.877 -0.389 1.705 -0.573 2.49 C 124.192 12.729 124.628 9.983 125 7 c -3.201 18 -27.117 50.049 -47.061 56.902 c -3.01 3.013 -5.737 3.154 -8.993 5.917 c 27.231 -4.152 44.396 -19.706 48.078 -30.866 c 7.436 12.238 20.931 23.546 33.167 29.331 C 152.039 52.092 146.191 42.142 143.14 22.856 Z M 101.536 23.569 c -9 15 -14.354 24.5 -28.354 33.5 c 4.545 -3.637 7.687 -9.667 9.531 -14.927 C 77.203 50.297 68.565 55.381 61 62 c 7.516 -8.268 17.645 -19.858 24.036 -30.931 c -6.442 8.582 -16.813 15.337 -26.036 23 c 7.256 -6.029 13 -13.667 17 -21.667 c -2.775 3.7 -7.862 6.459 -14 12.598 c 8.972 -11.966 9.88 -17.484 12.419 -22.405 c -6.216 10.474 -11.655 14.106 -17.794 19.295 c -4.221 17.702 -4.461 25.388 -5.256 35.113 c -0.039 0.469 17.113 -6.963 17.535 -7.177 c 0.014 -0.002 0.028 -0.005 0.042 -0.007 C 84.938 56.249 91.502 42.094 101.536 23.569 Z M 60 137 c 2.788 11.151 1.226 21.095 -2.464 32.735 c -0.488 -10.761 -8.475 -21.806 -14.417 -31.462 c 1.364 20.726 3.566 30.364 0.083 46.129 c -1.866 -28.597 -7.833 -38.269 -16.583 -59.417 c -3.527 13.393 -2.659 30.866 5.299 44.844 c -3.755 27.547 2.005 17.352 18.182 42.457 c 0.238 -30.896 33.088 -42.226 12.707 -77.52 c -0.183 -0.316 -3.104 -5.281 -2.738 -5.281 c 0 0 5.792 8.292 13.113 13.711 c -22.233 -24.211 -28.063 -54.711 -28.7 -87.711 C 39.495 95.233 54 117 60 137 Z M 169.126 101.456 c 0.865 16.928 5.439 38.169 -9.257 51.947 c 6 -10 3.131 -23.403 0.131 -33.403 c 0.376 26.762 -10.812 42.834 -13.809 60.402 c -0.456 -8.086 -2.304 -17.859 1.473 -31.015 c -3.663 6.402 -7.795 13.848 -9.388 22.723 c -5.241 -9.827 -2.367 -17.266 -0.533 -26.834 c 7.778 -8.19 13.157 -23.839 14.294 -33.894 c -0.935 8.266 -6.287 20.703 -12.478 25.897 c -0.001 0.009 -0.536 1.809 -1.124 3.782 c 0.044 -0.333 0.086 -0.668 0.125 -1.008 c -8.928 21.01 -13.345 23.131 8.046 60.166 c 0.845 -9.357 4.724 -19.388 9.175 -27.573 C 169.236 147.874 184.401 150.477 169.126 101.456 Z" data-colored="true" data-filltype="sd1" data-stroketype="none"/><path id="SvgjsPath3891" opacity="1" fill="#827874" stroke-width="none" d="M 155.339 79.777 c 4.269 -17.414 -2.295 -44.215 -5.664 -49.444 C 154.928 38.481 161.974 60.465 155.339 79.777 Z M 159.441 87.699 c 0.458 -2.363 14.095 -28.735 -8.994 -65.914 C 171.332 59.802 159.905 85.303 159.441 87.699 Z M 34.086 55.382 c 1 -0.447 7.361 -47.259 48.429 -56.088 C 39.446 6.883 35.086 54.937 34.086 55.382 Z M 39.756 99.767 c -0.024 -1.003 -8.152 -47.383 14.691 -77.104 C 27.996 53.967 39.732 98.767 39.756 99.767 Z M 43.013 131.156 c -1.428 -1.897 -13.106 -33.317 -7.671 -69.134 C 25.286 99.584 42.261 130.156 43.013 131.156 Z M 153.395 30.807 c -1 -0.295 -13.057 -35.017 -37.847 -31.593 C 137.232 -2.015 152.395 30.509 153.395 30.807 Z M 132.763 48.797 c 0 0 -9.419 -14.771 -6.004 -39.082 C 123.607 24.555 123.938 34.813 132.763 48.797 Z M 135.424 37.302 c 2.568 7.16 8.104 14.888 9.026 15.499 c -1.001 -0.663 -9.66 -13.341 -11.684 -34.227 C 132.946 24.843 133.284 31.334 135.424 37.302 Z M 88.142 57.415 c 7.993 -7.77 25.836 -15.403 35.973 -52.374 C 113.238 39.193 96.597 49.196 88.142 57.415 Z M 88.167 27.009 c 6.991 -6.677 9.494 -13.522 9.407 -19.946 C 96.858 13.51 93.367 22.043 88.167 27.009 Z M 78.146 30.338 c 0.377 -0.013 1.333 -1.137 1.603 -1.373 c 7.977 -6.959 11.625 -12.581 12.388 -22.236 C 90.966 17.738 79.148 30.304 78.146 30.338 Z M 76.803 28.359 c 0 0 8.23 -9.662 11.186 -23.308 C 84.859 15.938 76.803 28.359 76.803 28.359 Z M 56.403 153.735 c 0.581 -1 1.925 -20.274 -7.62 -28.24 C 54.788 131.589 56.983 152.734 56.403 153.735 Z M 56.42 153.725 c -0.46 -7.765 -7.55 -13.918 -8.99 -23.647 C 47.966 142.486 55.625 146.906 56.42 153.725 Z M 41.095 160.402 c -0.959 -2.241 3.723 -12.528 -10.313 -34.283 C 42.215 146.698 40.633 159.322 41.095 160.402 Z M 41.115 159.081 c -1.186 -4.379 0.906 -13.748 -4.325 -28.989 C 39.524 140.203 39.581 153.409 41.115 159.081 Z M 150.024 131.289 c -4.108 8.074 -12.523 13.667 -10.338 33.775 c -0.201 -1.853 0.16 -3.941 0.305 -5.79 c 1.957 -24.953 8.672 -5.729 16.046 -52.242 C 154.253 114.17 152.895 125.648 150.024 131.289 Z M 147.729 167.729 c 0.371 -1.456 0.345 -3.097 0.603 -4.586 c 2.182 -12.614 6.991 -19.381 7.411 -39.744 C 154.781 139.88 147.521 153.505 147.729 167.729 Z M 165.107 141.027 c 0.469 -3.128 6.825 -7.942 1.996 -32.945 C 169.849 133.741 165.568 137.951 165.107 141.027 Z M 165.108 141.058 c 0.438 -1 3.109 -17.928 -3.651 -30.616 C 166.176 120.715 165.547 140.058 165.108 141.058 Z" data-colored="true" data-filltype="hl1" data-stroketype="none"/><path id="SvgjsPath3892" opacity="1" fill="#452c22" stroke-width="none" d="M 18.901 151.753 c 0.248 -2.574 0.649 -5.177 1.238 -7.817 c 2.5 7.838 5.503 15.074 11.68 25.88 c -3.773 27.679 2.116 17.422 18.38 42.81 c 0 -22.267 17.058 -34.558 19.03 -51.87 c 1.784 -15.764 -4.759 -22.359 -9.16 -31.17 c 3.666 5.108 8.469 10.416 13.56 14.061 c -14.507 -20.062 -21.735 -38.961 -21.26 -66.64 c 5.63 -2.08 11.2 -4.36 16.55 -7.08 c 21.469 -3.266 38.274 -11.49 47.75 -31.14 c 7.314 12.562 19.169 23.77 32.2 29.8 c -0.298 65.876 -9.77 66.413 -23.98 77.209 c 5.811 -1.109 12.751 -5.729 14.311 -7.93 c -9.068 23.75 -15.193 23.472 7.479 62.68 c 0.796 -9.556 4.586 -19.383 9.19 -27.85 c 13.917 -25.626 29.741 -22.284 11.45 -77.29 c 1.544 -9.539 2.827 -18.686 3 -27.83 c 0.175 3.245 0.276 6.377 0.367 9.425 c 0.214 0 0.428 0 0.641 0 c -0.257 -4.086 -0.525 -8.347 -0.968 -12.875 c -0.657 -106.408 -155.465 -102.179 -145.79 25.9 c -5.227 15.913 -11.063 29.484 -5.29 50.95 c -0.926 3.002 -1.626 5.909 -2.137 8.749 C 17.674 150.456 18.233 151.159 18.901 151.753 Z M 24.959 94.285 c 0.095 1 3.72 27.654 1.32 8.13 C 8.536 -41.931 192.536 -51.931 166.139 101.896 c -1.794 10.454 -0.768 5.549 0.961 -5.12 c 17.259 58.25 -3.75 45.563 -18.32 87.37 c -1.37 3.939 -2.34 9 -2.74 13.13 c -21.623 -38.089 -11.207 -41.533 -5.64 -60.7 c 6.599 -7.292 10.615 -15.871 11.71 -26.52 c -2.591 17.989 -14.384 30.05 -24.181 34.06 c 5.116 -3.371 10.438 -6.975 13.601 -12.39 c 2.034 -2.136 11.762 -26.173 8.12 -72.03 c -1.673 -20.141 -8.437 -26.107 -6.931 -34.66 c -1.396 6.717 2.429 11.257 4.71 25.08 c 1.055 6.458 1.431 15.847 1.431 17.57 c -10.923 -5.965 -24.91 -18.89 -31.76 -29.79 c 4.461 -9.145 6.782 -23.075 8.6 -31.87 c -5.416 22.088 -9.213 52.515 -53.76 62.3 c 7.232 -3.953 22.987 -12.243 39.25 -45.36 c 0.02 -0.01 0.029 -0.02 0.029 -0.04 c 8.711 -17.095 0.602 -2.034 -0.09 -0.8 c -0.013 -0.026 -0.01 -0.103 -0.01 0.01 c -20.156 36.093 -36.387 45.333 -58.75 54.6 c 0.01 -0.68 0.02 -1.36 0.05 -2.04 c 27.481 -8.941 44.618 -41.674 39.07 -33.58 c -8.877 13.02 -24.155 28.015 -39.06 33.34 c 0.017 -1 0.183 -4.32 0.46 -7.14 c 19.215 -13.644 23.448 -20.838 30.89 -33.8 c 0.556 -0.979 1.037 -1.813 1.454 -2.526 C 80.75 37.814 68.93 54.19 52.939 66.715 c 0.44 -4.62 1.1 -9.22 1.89 -13.79 c 0.921 -1.218 8.834 -7.552 15.32 -20.74 c 3.094 -6.249 4.27 -9.59 4.27 -9.59 c -0.871 1.578 -6.035 13.404 -19.31 28.78 c 2.19 -12.138 5.188 -23.076 8.57 -35.03 c -5.756 17.895 -11.357 37.272 -13.01 56.8 c -0.488 1 -1.416 37.987 17.235 63.969 c -28.77 -30.95 -24.066 -68.987 -23.885 -81.719 c -0.09 0 -0.75 10.35 -0.8 11.05 c -3.867 51.415 25.597 63.853 24 90.61 c -1.172 19.548 -17.347 30.422 -17.49 53.89 c -12.637 -21.956 -19.809 -15.55 -16.85 -39.3 c 0.077 -1 1.134 -8.253 0.08 -15.33 c -1.696 -11.256 -4.121 -14.498 -3.766 -16.86 c -0.269 1.428 0.351 2.886 1.417 6.7 c 1.909 6.668 2.163 15.704 1.33 22.73 C 15.417 136.337 17.729 119.042 24.959 94.285 Z" data-colored="true" data-filltype="sd3" data-stroketype="none"/></g><g id="svga-group-glasses-single" data-updown="0" data-leftright="0" data-dist="0" data-scaleX="1" data-scaleY="1" data-rotate="0"><path id="SvgjsPath3837" opacity="1" fill="#26120b" stroke-width="none" d="M 100 18.13 L 100 18.13 L 100 18.13 L 100 18.13 Z" data-colored="true" data-filltype="tone" data-stroketype="none"/></g></g></g><rect id="SvgjsRect1033" style="display:none;" opacity="0.5" fill="#ecf0f1" x="0" y="185" width="200" height="15"/><text id="SvgjsText1034" font-family="&quot;Roboto&quot;,&quot;Helvetica Neue&quot;,Helvetica,Arial,sans-serif" font-size="0.84em" font-weight="400" style="font-size:0.84em;font-family:&quot;Roboto&quot;, &quot;Helvetica Neue&quot;, Helvetica, Arial, sans-serif;text-anchor:middle;font-weight:400;display:none;" fill="#000000" text-anchor="middle" x="100" y="185"><tspan id="SvgjsTspan1035" style="font-size:0.84em;font-family:&quot;Roboto&quot;, &quot;Helvetica Neue&quot;, Helvetica, Arial, sans-serif;text-anchor:middle;font-weight:400;" x="100" dy="1.2em">Erstellt mit Avatars24.de</tspan></text></g><defs id="SvgjsDefs1001"><radialGradient class="svga-on-canvas-facehighlight-gradient-single-0" id="SvgjsRadialGradient2754" gradientUnits="userSpaceOnUse" cx="100" cy="113" r="40"><stop id="SvgjsStop2755" stop-color="rgb(255, 244, 243)" stop-opacity="0.5" offset="0" data-stoptype="hl1"/><stop id="SvgjsStop2756" stop-color="rgb(243, 212, 207)" stop-opacity="0" offset="0.9" data-stoptype="tone"/></radialGradient><radialGradient class="svga-on-canvas-facehighlight-gradient-single-1" id="SvgjsRadialGradient2758" gradientUnits="userSpaceOnUse" cx="100" cy="57" r="36"><stop id="SvgjsStop2759" stop-color="rgb(255, 244, 243)" stop-opacity="0.5" offset="0" data-stoptype="hl1"/><stop id="SvgjsStop2760" stop-color="rgb(243, 212, 207)" stop-opacity="0" offset="0.9" data-stoptype="tone"/></radialGradient><linearGradient class="svga-on-canvas-chinshadow-gradient-single-0" id="SvgjsLinearGradient2911" gradientUnits="userSpaceOnUse" x1="99.98" y1="171.27" x2="99.98" y2="136.351"><stop id="SvgjsStop2912" stop-color="rgb(228, 179, 171)" stop-opacity="0.8" offset="0" data-stoptype="sd1"/><stop id="SvgjsStop2913" stop-color="rgb(197, 121, 109)" stop-opacity="1" offset="0.7" data-stoptype="sd3"/></linearGradient><linearGradient class="svga-on-canvas-mouth-gradient-single-0" id="SvgjsLinearGradient2945" gradientUnits="userSpaceOnUse" x1="100" y1="142" x2="100" y2="139"><stop id="SvgjsStop2946" stop-color="rgb(235, 195, 189)" stop-opacity="1" offset="0.1" data-stoptype="sd05"/><stop id="SvgjsStop2947" stop-color="rgb(228, 179, 171)" stop-opacity="1" offset="1" data-stoptype="sd1"/></linearGradient><radialGradient class="svga-on-canvas-eyesiris-gradient-left-1" id="SvgjsRadialGradient3178" gradientUnits="userSpaceOnUse" gradientTransform="matrix(0.096, -0.0248, 0.0245, 0.0961, 140.548, 120.358)" cx="-558.588" cy="-490.918" r="84.646"><stop id="SvgjsStop3179" stop-color="rgb(255, 255, 255)" stop-opacity="0.8" offset="0" data-stoptype="#ffffff"/><stop id="SvgjsStop3180" stop-color="rgb(255, 255, 255)" stop-opacity="0" offset="1" data-stoptype="#ffffff"/></radialGradient><radialGradient class="svga-on-canvas-eyesiris-gradient-left-2" id="SvgjsRadialGradient3182" gradientUnits="userSpaceOnUse" gradientTransform="matrix(0.0991, 0.000885632, -0.0011, 0.0991, 130.377, 136.353)" cx="-565.337" cy="-492.691" r="84.644"><stop id="SvgjsStop3183" stop-color="rgb(255, 255, 255)" stop-opacity="0.8" offset="0" data-stoptype="#ffffff"/><stop id="SvgjsStop3184" stop-color="rgb(255, 255, 255)" stop-opacity="0" offset="1" data-stoptype="#ffffff"/></radialGradient><linearGradient class="svga-on-canvas-eyesiris-gradient-left-5" id="SvgjsLinearGradient3188" gradientUnits="userSpaceOnUse" gradientTransform="matrix(1, 0, 0, 1, -52, 0)" x1="122.283" y1="93.047" x2="123.61" y2="91.466"><stop id="SvgjsStop3189" stop-color="rgb(255, 255, 255)" stop-opacity="1" offset="0" data-stoptype="#ffffff"/><stop id="SvgjsStop3190" stop-color="rgb(255, 255, 255)" stop-opacity="0" offset="1" data-stoptype="#ffffff"/></linearGradient><linearGradient class="svga-on-canvas-eyesiris-gradient-left-7" id="SvgjsLinearGradient3196" gradientUnits="userSpaceOnUse" gradientTransform="matrix(1, 0, 0, 1, -50, 0)" x1="130" y1="81" x2="126" y2="85"><stop id="SvgjsStop3197" stop-color="rgb(255, 255, 255)" stop-opacity="1" offset="0" data-stoptype="#ffffff"/><stop id="SvgjsStop3198" stop-color="rgb(255, 255, 255)" stop-opacity="0" offset="1" data-stoptype="#ffffff"/></linearGradient><radialGradient class="svga-on-canvas-eyesiris-gradient-right-1" id="SvgjsRadialGradient3201" gradientUnits="userSpaceOnUse" gradientTransform="matrix(0.096, -0.0248, 0.0245, 0.0961, 192.479, 119.84)" cx="-578.76" cy="-490.73" r="84.646"><stop id="SvgjsStop3202" stop-color="rgb(255, 255, 255)" stop-opacity="0.8" offset="0" data-stoptype="#ffffff"/><stop id="SvgjsStop3203" stop-color="rgb(255, 255, 255)" stop-opacity="0" offset="1" data-stoptype="#ffffff"/></radialGradient><radialGradient class="svga-on-canvas-eyesiris-gradient-right-2" id="SvgjsRadialGradient3205" gradientUnits="userSpaceOnUse" gradientTransform="matrix(0.0991, 0.000885632, -0.0011, 0.0991, 182.31, 135.839)" cx="-584.778" cy="-487.329" r="84.644"><stop id="SvgjsStop3206" stop-color="rgb(255, 255, 255)" stop-opacity="0.8" offset="0" data-stoptype="#ffffff"/><stop id="SvgjsStop3207" stop-color="rgb(255, 255, 255)" stop-opacity="0" offset="1" data-stoptype="#ffffff"/></radialGradient><linearGradient class="svga-on-canvas-eyesiris-gradient-right-5" id="SvgjsLinearGradient3211" gradientUnits="userSpaceOnUse" x1="120.284" y1="93.047" x2="121.611" y2="91.467"><stop id="SvgjsStop3212" stop-color="rgb(255, 255, 255)" stop-opacity="1" offset="0" data-stoptype="#ffffff"/><stop id="SvgjsStop3213" stop-color="rgb(255, 255, 255)" stop-opacity="0" offset="1" data-stoptype="#ffffff"/></linearGradient><linearGradient class="svga-on-canvas-eyesiris-gradient-right-7" id="SvgjsLinearGradient3219" gradientUnits="userSpaceOnUse" x1="130" y1="81" x2="126" y2="85"><stop id="SvgjsStop3220" stop-color="rgb(255, 255, 255)" stop-opacity="1" offset="0" data-stoptype="#ffffff"/><stop id="SvgjsStop3221" stop-color="rgb(255, 255, 255)" stop-opacity="0" offset="1" data-stoptype="#ffffff"/></linearGradient><radialGradient class="svga-on-canvas-eyesback-gradient-left-0" id="SvgjsRadialGradient3729" gradientUnits="userSpaceOnUse" gradientTransform="matrix(-0.9945, 0.1042, 0.1042, 0.9945, 192.827, -12.4637)" cx="129.05" cy="85.956" r="15.117"><stop id="SvgjsStop3730" stop-color="rgb(255, 255, 255)" stop-opacity="1" offset="0" data-stoptype="#ffffff"/><stop id="SvgjsStop3731" stop-color="rgb(252, 253, 253)" stop-opacity="1" offset="0.316" data-stoptype="#fcfdfd"/><stop id="SvgjsStop3732" stop-color="rgb(244, 247, 248)" stop-opacity="1" offset="0.505" data-stoptype="#f4f7f8"/><stop id="SvgjsStop3733" stop-color="rgb(229, 236, 239)" stop-opacity="1" offset="0.661" data-stoptype="#e5ecef"/><stop id="SvgjsStop3734" stop-color="rgb(216, 226, 231)" stop-opacity="1" offset="0.76" data-stoptype="#d8e2e7"/></radialGradient><radialGradient class="svga-on-canvas-eyesback-gradient-right-0" id="SvgjsRadialGradient3736" gradientUnits="userSpaceOnUse" gradientTransform="matrix(0.9945, 0.1042, -0.1042, 0.9945, 7.1735, -12.4637)" cx="129.049" cy="85.956" r="15.117"><stop id="SvgjsStop3737" stop-color="rgb(255, 255, 255)" stop-opacity="1" offset="0" data-stoptype="#ffffff"/><stop id="SvgjsStop3738" stop-color="rgb(252, 253, 253)" stop-opacity="1" offset="0.316" data-stoptype="#fcfdfd"/><stop id="SvgjsStop3739" stop-color="rgb(244, 247, 248)" stop-opacity="1" offset="0.505" data-stoptype="#f4f7f8"/><stop id="SvgjsStop3740" stop-color="rgb(229, 236, 239)" stop-opacity="1" offset="0.661" data-stoptype="#e5ecef"/><stop id="SvgjsStop3741" stop-color="rgb(216, 226, 231)" stop-opacity="1" offset="0.76" data-stoptype="#d8e2e7"/></radialGradient><radialGradient class="svga-on-canvas-eyesfront-gradient-left-0" id="SvgjsRadialGradient3743" gradientUnits="userSpaceOnUse" gradientTransform="matrix(-0.9945, 0.1042, 0.1042, 0.9945, 192.827, -12.4637)" cx="129.05" cy="85.956" r="15.117"><stop id="SvgjsStop3744" stop-color="rgb(255, 255, 255)" stop-opacity="1" offset="0" data-stoptype="#ffffff"/><stop id="SvgjsStop3745" stop-color="rgb(252, 253, 253)" stop-opacity="1" offset="0.316" data-stoptype="#fcfdfd"/><stop id="SvgjsStop3746" stop-color="rgb(244, 247, 248)" stop-opacity="1" offset="0.505" data-stoptype="#f4f7f8"/><stop id="SvgjsStop3747" stop-color="rgb(229, 236, 239)" stop-opacity="1" offset="0.661" data-stoptype="#e5ecef"/><stop id="SvgjsStop3748" stop-color="rgb(216, 226, 231)" stop-opacity="1" offset="0.76" data-stoptype="#d8e2e7"/></radialGradient><radialGradient class="svga-on-canvas-eyesfront-gradient-left-3" id="SvgjsRadialGradient3752" gradientUnits="userSpaceOnUse" gradientTransform="matrix(0.9998, 0.0208, 0.0166, -0.7998, -44.9524, 149.543)" cx="121.786" cy="84.496" r="16.003" fx="133.039" fy="84.527"><stop id="SvgjsStop3753" stop-color="rgb(228, 179, 171)" stop-opacity="1" offset="0" data-stoptype="sd1"/><stop id="SvgjsStop3754" stop-color="rgb(228, 179, 171)" stop-opacity="0.3" offset="0.7" data-stoptype="sd1"/><stop id="SvgjsStop3755" stop-color="rgb(243, 212, 207)" stop-opacity="0" offset="1" data-stoptype="tone"/></radialGradient><radialGradient class="svga-on-canvas-eyesfront-gradient-left-4" id="SvgjsRadialGradient3757" gradientUnits="userSpaceOnUse" gradientTransform="matrix(1.0336, 0, 0, 1.0336, -1.6792, 1.7282)" cx="69.124" cy="107.529" r="29.525"><stop id="SvgjsStop3758" stop-color="rgb(0, 0, 0)" stop-opacity="0" offset="0.95" data-stoptype="#000000"/><stop id="SvgjsStop3759" stop-color="rgb(0, 0, 0)" stop-opacity="0.3" offset="1" data-stoptype="#000000"/></radialGradient><radialGradient class="svga-on-canvas-eyesfront-gradient-right-0" id="SvgjsRadialGradient3763" gradientUnits="userSpaceOnUse" gradientTransform="matrix(0.9945, 0.1042, -0.1042, 0.9945, 7.1735, -12.4637)" cx="129.049" cy="85.956" r="15.117"><stop id="SvgjsStop3764" stop-color="rgb(255, 255, 255)" stop-opacity="1" offset="0" data-stoptype="#ffffff"/><stop id="SvgjsStop3765" stop-color="rgb(252, 253, 253)" stop-opacity="1" offset="0.316" data-stoptype="#fcfdfd"/><stop id="SvgjsStop3766" stop-color="rgb(244, 247, 248)" stop-opacity="1" offset="0.505" data-stoptype="#f4f7f8"/><stop id="SvgjsStop3767" stop-color="rgb(229, 236, 239)" stop-opacity="1" offset="0.661" data-stoptype="#e5ecef"/><stop id="SvgjsStop3768" stop-color="rgb(216, 226, 231)" stop-opacity="1" offset="0.76" data-stoptype="#d8e2e7"/></radialGradient><radialGradient class="svga-on-canvas-eyesfront-gradient-right-3" id="SvgjsRadialGradient3772" gradientUnits="userSpaceOnUse" gradientTransform="matrix(-0.9998, 0.0208, -0.0166, -0.7998, 244.952, 149.543)" cx="121.786" cy="84.496" r="16.003" fx="133.039" fy="84.527"><stop id="SvgjsStop3773" stop-color="rgb(228, 179, 171)" stop-opacity="1" offset="0" data-stoptype="sd1"/><stop id="SvgjsStop3774" stop-color="rgb(228, 179, 171)" stop-opacity="0.3" offset="0.7" data-stoptype="sd1"/><stop id="SvgjsStop3775" stop-color="rgb(243, 212, 207)" stop-opacity="0" offset="1" data-stoptype="tone"/></radialGradient><radialGradient class="svga-on-canvas-eyesfront-gradient-right-4" id="SvgjsRadialGradient3777" gradientUnits="userSpaceOnUse" gradientTransform="matrix(-1.0336, 0, 0, 1.0336, 201.679, 1.7282)" cx="69.124" cy="107.529" r="29.525"><stop id="SvgjsStop3778" stop-color="rgb(0, 0, 0)" stop-opacity="0" offset="0.95" data-stoptype="#000000"/><stop id="SvgjsStop3779" stop-color="rgb(0, 0, 0)" stop-opacity="0.3" offset="1" data-stoptype="#000000"/></radialGradient><linearGradient class="svga-on-canvas-eyesiris-gradient-left-6" id="SvgjsLinearGradient3789" gradientUnits="userSpaceOnUse" gradientTransform="matrix(1, 0, 0, 1, -50, 0)" x1="130" y1="81" x2="126" y2="85"><stop id="SvgjsStop3790" stop-color="rgb(255, 255, 255)" stop-opacity="1" offset="0" data-stoptype="#ffffff"/><stop id="SvgjsStop3791" stop-color="rgb(255, 255, 255)" stop-opacity="0" offset="1" data-stoptype="#ffffff"/></linearGradient><linearGradient class="svga-on-canvas-eyesiris-gradient-right-6" id="SvgjsLinearGradient3799" gradientUnits="userSpaceOnUse" x1="130" y1="81" x2="126" y2="85"><stop id="SvgjsStop3800" stop-color="rgb(255, 255, 255)" stop-opacity="1" offset="0" data-stoptype="#ffffff"/><stop id="SvgjsStop3801" stop-color="rgb(255, 255, 255)" stop-opacity="0" offset="1" data-stoptype="#ffffff"/></linearGradient></defs></svg>