<svg xmlns="http://www.w3.org/2000/svg" class="svga-svg" id="svga-svgcanvas" style="position:relative;overflow:hidden;left:0px;top:0px;" viewBox="0 0 200 200" preserveAspectRatio="xMinYMin meet" xmlns:NS1="http://www.w3.org/2000/svg" NS1:xlink="http://www.w3.org/1999/xlink" version="1.1"><g id="svga-group-wrapper"><g id="svga-group-backs-single"/><g id="svga-group-subwrapper" transform="matrix(0.849999, 0, 0, 0.849999, 14.9793, 17.6579)" data-updown="0" data-leftright="0" data-dist="0" data-scaleX="0.84999937" data-scaleY="0.84999937" data-rotate="0"><g id="svga-group-hair-back" data-updown="0" data-leftright="0" data-dist="0" data-scaleX="1" data-scaleY="1" data-rotate="0"><path id="SvgjsPath3688" opacity="1" fill="#6b4e40" stroke-width="none" d="M 100.5 100.5 h -1 v -1 h 1 V 100.5 Z" data-colored="true" data-filltype="tone" data-stroketype="none"/></g><g id="svga-group-humanbody-single"><path id="SvgjsPath2893" opacity="1" fill="#f0c7b1" stroke="none" stroke-width="none" d="M 195.417 199.778 c -2.196 -4.746 -8.195 -11.779 -14.86 -13.722 c -8.239 -2.403 -26.837 -5.308 -33.733 -6.923 c -5.528 -1.296 -16.662 -11.294 -20.564 -14.65 c -0.7 -0.6 -1.273 -1.839 -1.287 -2.76 c -0.139 -10.864 4.195 -39.724 4.195 -39.724 H 100 H 70.833 c 0 0 4.334 28.859 4.193 39.724 c -0.011 0.921 -0.587 2.16 -1.285 2.76 c -3.902 3.356 -15.036 13.354 -20.564 14.65 c -6.897 1.615 -25.495 4.619 -33.733 7.022 c -6.667 1.942 -12.664 8.876 -14.86 13.622 c -3.708 8.008 -4.584 22.5 -4.584 35 h 100 h 100 C 200 222.278 199.123 207.786 195.417 199.778 Z" data-colored="true" data-filltype="tone" data-stroketype="none" data-fromskin="true"/><path id="SvgjsPath2894" opacity="1" fill="#ffe4d6" stroke="none" stroke-width="none" d="M 159.156 184.058 c 24.342 3.542 34.586 8.708 37.794 50.721 H 200 c 0 -12.5 -0.877 -26.992 -4.583 -35 c -2.196 -4.746 -8.195 -11.779 -14.86 -13.722 c -8.239 -2.403 -26.837 -5.308 -33.733 -6.923 c -5.528 -1.296 -18.242 -12.069 -21.643 -16.35 c 3.36 4.704 12.791 15.605 21.054 18.46 C 150.188 182.61 153.48 183.232 159.156 184.058 Z M 53.766 181.244 c 8.263 -2.854 17.693 -13.756 21.054 -18.46 c -3.4 4.28 -16.114 15.054 -21.643 16.35 c -6.896 1.615 -25.494 4.619 -33.733 7.022 c -6.665 1.942 -12.664 8.876 -14.86 13.622 c -3.706 8.008 -4.583 22.5 -4.583 35 h 3.05 c 3.188 -41.744 13.475 -47.183 37.794 -50.721 C 46.52 183.232 49.813 182.61 53.766 181.244 Z" data-colored="true" data-filltype="hl1" data-stroketype="none" data-fromskin="true"/><path id="SvgjsPath2895" opacity="1" fill="#e1ac8f" stroke="none" stroke-width="none" d="M 95.646 197.62 c 0 0 -5.074 -1.609 -7.083 -2.379 c -10.449 -4.009 -44.395 -6.607 -44.395 -6.607 s 35.754 1.419 43.644 2.779 c -0.458 -4.767 -3.017 -20.004 -3.017 -20.004 s 5.149 16.815 6.409 21.057 C 91.878 194.734 95.646 197.62 95.646 197.62 Z M 106.445 196.278 c -0.089 0.073 -0.191 0.168 -0.302 0.268 C 106.256 196.461 106.358 196.372 106.445 196.278 Z M 95.646 197.62 c 0 0 2.893 2.992 4.347 3.03 c 1.91 0.051 4.828 -2.899 6.151 -4.104 c -1.265 0.957 -4.159 1.391 -5.31 1.436 C 99.504 198.033 95.646 197.62 95.646 197.62 Z M 116.664 190.101 c -1.545 0.248 -4.386 0.789 -4.386 0.789 l 2.287 -14.89 c -0.646 3.071 -4.474 16.211 -8.12 20.278 c 1.91 -1.616 6.158 -2.391 8.324 -2.704 c 10.236 -1.484 10.232 -1.483 41.062 -4.94 C 155.831 188.634 126.76 188.479 116.664 190.101 Z" data-colored="true" data-filltype="sd1" data-stroketype="none" data-fromskin="true"/><path id="SvgjsPath2896" opacity="1" fill="none" stroke="#c27b55" stroke-width="1.5" d="M 195.417 199.778 c -2.196 -4.746 -8.195 -11.779 -14.86 -13.722 c -8.239 -2.403 -26.837 -5.308 -33.733 -6.923 c -5.528 -1.296 -16.662 -11.294 -20.564 -14.65 c -0.7 -0.6 -1.273 -1.839 -1.287 -2.76 c -0.139 -10.864 4.195 -39.724 4.195 -39.724 H 100 H 70.833 c 0 0 4.334 28.859 4.193 39.724 c -0.011 0.921 -0.587 2.16 -1.285 2.76 c -3.902 3.356 -15.036 13.354 -20.564 14.65 c -6.897 1.615 -25.495 4.619 -33.733 7.022 c -6.667 1.942 -12.664 8.876 -14.86 13.622 c -3.708 8.008 -4.584 22.5 -4.584 35 h 100 h 100 C 200 222.278 199.123 207.786 195.417 199.778 Z" data-colored="true" data-filltype="none" data-stroketype="sd3" data-fromskin="true"/></g><g id="svga-group-chinshadow-single"><path id="SvgjsPath3113" opacity="1" fill="url(#SvgjsLinearGradient3114)" d="M 100.021 171.866 c 8.183 0 16.871 -4.943 24.199 -10.675 c -0.001 -6.702 1.451 -19.105 2.652 -28.205 c -15.382 -2.247 -38.406 -2.279 -53.766 -0.152 c 1.184 8.96 2.625 21.206 2.671 28.02 C 83.119 166.767 91.822 171.866 100.021 171.866 Z" data-colored="false" data-filltype="gradient" data-stroketype="none" data-fromskin="true"/></g><g id="svga-group-clothes-single" data-updown="0" data-leftright="0" data-dist="0" data-scaleX="1" data-scaleY="1" data-rotate="0"><path id="SvgjsPath3472" opacity="1" fill="#f5f4f5" stroke-width="none" d="M 42.77 235.757 l 1.323 -60.852 c 0 0 10.194 -2.487 16.635 -6.313 c 17.496 21.953 69.451 17.333 78.336 -0.62 c 1.489 0.525 2.721 1.197 4.262 1.713 c 5 3.386 9.213 4.494 9.213 4.494 l 0.935 61.685 C 139.188 236.052 42.77 235.757 42.77 235.757 Z" data-colored="false" data-filltype="#f5f4f5" data-stroketype="none"/><path id="SvgjsPath3473" opacity="1" fill="#ffffff" stroke-width="none" d="M 154.014 177.705 c -4.236 -0.719 -7.611 -1.697 -9.452 -3.544 c -5.343 10.025 -26.763 16.378 -33.855 17.309 c 20.554 -6.276 29.188 -10.813 32.598 -21.583 c 1.99 2.383 6.522 3.549 12.313 4.538 L 154.014 177.705 Z M 52.67 174.381 c 1.454 -0.312 2.18 -1.234 3.623 -1.593 l -1.528 -1.867 c -3.114 2.234 -8.971 3.305 -15.9 4.424 l 0.188 3.738 c 3.956 -0.79 7.817 -1.788 11.429 -3.323 c 7.483 8.485 19.168 12.659 31.06 14.387 C 66.624 186.562 58.07 180.511 52.67 174.381 Z" data-colored="false" data-filltype="#ffffff" data-stroketype="none"/><path id="SvgjsPath3474" opacity="1" fill="#dfdde2" stroke-width="none" d="M 137.861 170.055 c -5.929 11.361 -50.74 24.595 -76.009 0.866 c -1.571 0.615 -6.271 2.085 -6.271 2.085 c 18.406 23.08 72.345 23.227 86.702 -0.112 C 142.221 172.87 139.321 170.737 137.861 170.055 Z" data-colored="false" data-filltype="#dfdde2" data-stroketype="none"/><path id="SvgjsPath3475" opacity="1" fill="#b8b6c9" stroke-width="none" d="M 139.008 167.841 c -10.087 18.575 -62.578 21.204 -78.239 0.625 c -5.72 1.556 -11.219 4.876 -16.756 5.707 l -1.243 61.584 l 110.703 0.107 l -0.855 -62.386 c -3.369 -0.707 -6.501 -2.737 -9.254 -3.894 C 141.842 168.945 140.55 168.37 139.008 167.841 Z M 60.39 169.087 c 13.903 23.086 68.817 18.455 79.419 0.099 c 1.286 0.499 1.615 0.696 3.106 1.183 c -10.982 21.208 -65.306 27.967 -87.525 1.147 C 55.546 171.476 58.823 169.629 60.39 169.087 Z M 54.287 172.418 c 17.963 27.046 77.26 22.856 89.583 -1.287 c 1.771 1.391 4.53 2.989 7.936 3.735 l 1.66 59.08 l -110.377 0.016 l 1.904 -58.299 C 47.777 174.264 52.247 173.232 54.287 172.418 Z" data-colored="false" data-filltype="#b8b6c9" data-stroketype="none"/><path id="SvgjsPath3476" opacity="1" fill="#386e77" stroke-width="none" d="M -4.529 235.566 c -2.574 -13.852 -2.292 -47.592 9.013 -47.521 c 13.136 -5.311 29.269 -11.404 42.802 -15.311 c 6.908 -7.246 13.436 -14.137 26.188 -21.314 c 0.389 2.599 1.874 8.541 0.011 11.773 c -1.355 2.352 -5.783 5.576 -9.554 8.368 c -2.029 2.72 -3.927 5.374 -6.599 9.089 c 5.168 22.301 9.601 33.78 10.097 53.123 c 0 0 -1.452 0.689 64.471 0.397 c 2.215 -22.339 4.993 -33.561 10.379 -54.098 c 0 0 -4.308 -5.014 -7.207 -8.87 c -2.054 -1.997 -8.36 -7.532 -8.84 -8.651 c -1.175 -2.741 -0.548 -6.188 0.11 -11.367 c 10.793 4.873 17 12.021 26.082 21.303 c 7.729 2.119 30.86 9.967 42.445 15.216 c 3.965 -0.11 6.203 1.999 7.872 5.466 c 5.405 11.195 4.126 27.297 2.18 42.789 C 185.83 235.989 49.887 238.17 -4.529 235.566 Z" data-colored="true" data-filltype="tone" data-stroketype="none"/><path id="SvgjsPath3477" opacity="1" fill="#265e68" stroke-width="none" d="M 73.875 154.081 c 0.16 1.07 0.304 2.085 0.411 3.041 c -0.218 0.266 -17.212 23.353 -17.336 23.525 C 61.126 171.148 67.1 161.305 73.875 154.081 Z M 126.053 154.081 c -0.159 1.07 -0.184 2.085 -0.291 3.041 c 0.218 0.266 16.931 22.469 17.054 22.642 C 138.391 170.914 132.828 161.305 126.053 154.081 Z M 165.008 185.154 c -4.28 6.231 -5.194 8.382 -9.879 14.557 c 1.071 0 2.799 0.166 3.87 0.166 C 162.663 193.592 162.67 190.393 165.008 185.154 Z M 169.394 230.379 c 3.793 -8.9 6.934 -16.711 10.739 -25.624 l -1.247 -2.014 C 175.717 211.896 172.354 221.199 169.394 230.379 Z M 41.048 199.877 c 1.071 0 2.799 -0.166 3.871 -0.166 c -4.685 -6.175 -5.599 -6.561 -9.878 -12.792 C 37.377 192.158 37.384 193.592 41.048 199.877 Z M 21.161 202.741 l -1.247 2.014 c 3.806 8.913 4.765 16.724 8.559 25.624 C 25.512 221.199 24.33 211.896 21.161 202.741 Z" data-colored="true" data-filltype="sd1" data-stroketype="none"/><path id="SvgjsPath3478" opacity="1" fill="#184f58" stroke-width="none" d="M 65.638 169.283 c 1.181 -1.646 5.237 -7.272 8.601 -12.561 C 75.227 162.179 73.413 165.416 65.638 169.283 Z M 125.74 156.36 c 2.553 4.396 5.562 8.772 8.664 12.803 C 126 165.336 125.435 161.423 125.74 156.36 Z" data-colored="true" data-filltype="sd2" data-stroketype="none"/><path id="SvgjsPath3479" opacity="1" fill="#4d7e86" stroke-width="none" d="M 126.318 151.359 c 0.008 -0.061 0.017 -0.118 0.023 -0.174 c 18.093 9.999 28.576 25.02 40.747 36.217 c -0.448 0.721 -1.228 1.193 -1.687 1.905 C 152.656 179.609 146.599 164.946 126.318 151.359 Z M 71.736 152.022 c -15.034 8.213 -36.242 33.357 -38.318 35.269 c 0.448 0.724 0.691 0.577 1.15 1.288 C 47.314 178.882 50.793 169.283 71.736 152.022 Z M 194.869 187.704 c -1 -0.799 -24.646 -10.039 -42.59 -14.969 c 33.698 16.299 45.587 18.545 51.471 24.321 C 203.367 196.057 202.586 187.489 194.869 187.704 Z M 47.458 172.555 c -13.524 3.914 -30.839 10.098 -42.975 15.491 c -5.364 0.106 -9.208 7.93 -10.031 16.084 C 1.914 187.317 -1.773 198.62 47.458 172.555 Z" data-colored="true" data-filltype="hl1" data-stroketype="none"/><path id="SvgjsPath3480" opacity="1" fill="#0c4049" stroke-width="none" d="M 206.6 210.062 c -0.34 -8.635 -3.055 -23.103 -11.691 -22.46 c -0.714 -0.61 -20.822 -9.767 -42.285 -15.611 c -7.353 -7.455 -16.515 -17.598 -26.371 -20.957 c -0.711 6.428 -1.477 10.622 0.216 12.714 c 2.241 2.439 4.93 4.879 7.568 6.522 c 4.616 6.136 8.139 9.778 8.139 9.778 c -5.43 20.703 -8.815 31.314 -10.973 53.688 H 68.798 c -2.157 -22.373 -5.543 -32.984 -10.973 -53.688 c 0 0 3.522 -3.643 8.139 -9.778 c 2.639 -1.644 5.327 -4.083 7.568 -6.522 c 1.692 -2.092 0.927 -6.286 0.216 -12.714 c -9.856 3.359 -19.019 13.502 -26.371 20.957 c -21.463 5.845 -41.571 15.001 -42.285 15.611 c -8.637 -0.643 -11.352 13.825 -11.691 22.46 c -0.411 10.487 1.435 24.938 1.585 25.938 h 210.029 C 205.165 234.999 207.011 220.549 206.6 210.062 Z M 72.984 163.194 c -2.258 2.233 -3.658 3.181 -6.473 5.282 c 4.829 -6.271 4.341 -5.433 7.708 -11.229 C 74.37 159.739 73.433 162.751 72.984 163.194 Z M -3.172 234.028 c -1.082 -12.844 -2.916 -24.41 0.43 -36.992 c 1.281 -4.827 2.484 -8.095 7.455 -8.509 c 1.067 5.538 8.132 28.724 14.298 44.533 c -6.226 -24.192 -5.311 -18.81 -8.219 -28.452 c -0.964 -3.235 -1.854 -6.486 -2.979 -9.672 c -0.783 -2.214 -1.65 -4.387 -2.262 -6.653 l 40.433 -14.865 c -0.279 0.283 -12.895 13.434 -13.199 13.804 c 1.847 3.021 7.816 7.222 10.845 11.758 c -12.436 1.174 -18.508 3.173 -23 3.84 c 0.331 0.919 9.061 25.353 9.976 27.656 c -1.479 -7.917 -4.816 -20.297 -8.637 -27.211 c 1.41 -0.179 18.077 -2.492 23.393 -3.477 c -1.476 -2.854 -8.043 -8.437 -11.559 -12.619 c 20.646 -18.162 25.422 -27.402 39.593 -35.454 c 0.15 1.509 0.443 3.011 0.55 4.519 c -15.795 23.533 -17.649 23.567 -17.649 23.567 c 4.585 17.81 10.532 35.824 10.532 54.073 L -3.172 234.028 Z M 127.016 163.194 c -0.448 -0.443 -1.386 -3.455 -1.235 -5.947 c 3.367 5.797 2.879 4.958 7.708 11.229 C 130.674 166.375 129.273 165.428 127.016 163.194 Z M 203.172 234.028 l -70 -0.154 c 0 -18.249 5.947 -36.264 10.532 -54.073 c 0 0 -1.854 -0.034 -17.649 -23.567 c 0.106 -1.508 0.399 -3.01 0.55 -4.519 c 14.171 8.052 18.946 17.292 39.593 35.454 c -3.516 4.183 -10.083 9.766 -11.559 12.619 c 5.315 0.984 21.982 3.298 23.393 3.477 c -3.82 6.914 -7.157 19.294 -8.637 27.211 c 0.915 -2.304 9.645 -26.737 9.976 -27.656 c -4.492 -0.667 -10.564 -2.666 -23 -3.84 c 3.028 -4.536 8.998 -8.736 10.845 -11.758 c -0.305 -0.37 -12.92 -13.521 -13.199 -13.804 c 0.001 0 40.433 14.865 40.433 14.865 c -0.611 2.267 -1.479 4.439 -2.262 6.653 c -1.125 3.186 -2.015 6.437 -2.979 9.672 c -2.908 9.643 -1.993 4.26 -8.219 28.452 c 6.166 -15.81 13.23 -38.995 14.298 -44.533 c 4.971 0.414 6.174 3.682 7.455 8.509 C 206.088 209.618 204.254 221.185 203.172 234.028 Z" data-colored="true" data-filltype="sd3" data-stroketype="none"/></g><g id="svga-group-head" data-updown="0" data-leftright="0" data-dist="0" data-scaleX="1" data-scaleY="1" data-rotate="0"><g id="svga-group-ears-left" data-updown="0" data-leftright="0" data-dist="0" data-scaleX="1" data-scaleY="1" data-rotate="0"><path id="SvgjsPath2906" opacity="1" fill="#f0c7b1" stroke="#c27b55" stroke-width="1.5" d="M 45.671 84.344 c -1.485 -2.462 -6.327 -9.199 -10.031 -8.254 c -3.012 0.772 -2.973 4.971 -3.206 7.455 c -0.34 3.644 -0.464 9.992 0.525 12.568 c 0.951 2.473 3.96 7.252 5.828 9.075 c 2.299 2.235 5.97 9.358 6.422 10.097 c 0.711 1.168 2.137 2.84 4.325 2.708 c 3.071 -0.185 5.724 -3.087 5.965 -4.485 C 56.8 105.918 49.536 90.75 45.671 84.344 Z" data-colored="true" data-filltype="tone" data-stroketype="sd3"/><path id="SvgjsPath2907" opacity="1" fill="#c27b55" stroke="none" stroke-width="none" d="M 44.2 99.341 c -0.143 -0.563 0.007 -1.513 0.154 -2.429 c 0.133 -0.835 0.258 -1.624 0.182 -2.182 c -0.289 -2.09 -1.915 -6.06 -2.976 -8.212 c -1.223 -2.476 -3.199 -5.595 -5.679 -6.399 c -1.024 -0.333 -1.699 0.065 -2.089 0.468 c -0.288 0.296 -0.353 0.645 -0.259 0.687 c 0.095 0.041 0.307 -0.248 0.617 -0.519 c 0.254 -0.222 -0.508 -0.04 0 0 c -0.205 1.04 -0.865 6.302 -0.41 10.143 c 0.358 3.022 1.05 5.279 1.263 5.617 c 0.031 0.356 0.083 0.705 0.16 1.043 c 1.002 4.41 7.518 10.177 9.034 11.82 c 0.28 0.303 0.574 0.483 0.646 0.409 s -0.101 -0.373 -0.379 -0.678 c -1.498 -1.632 -7.971 -7.381 -8.939 -11.635 c -1.027 -4.514 3.912 -11.207 4.699 -12.623 c 0.401 0.665 0.742 1.303 1.004 1.835 c 0.207 0.417 0.434 0.906 0.67 1.435 c -0.463 0.738 -5.118 6.127 -3.934 10.441 c 0.438 1.591 3.822 3.642 5.131 4.203 c 0.72 0.31 0.99 0.772 1.304 1.306 c 0.364 0.624 0.033 2.229 1.23 2.739 c 0.244 0.104 0.464 0.146 0.659 0.146 c 0.338 0 0.594 -0.13 0.783 -0.284 c 0.02 0.271 0.019 0.619 0.009 0.941 c -0.012 0.418 0.047 0.609 0.148 0.617 c 0.103 0.009 0.21 -0.174 0.223 -0.587 c 0.017 -0.51 0.014 -1.141 -0.077 -1.444 c -0.269 -0.889 -1.088 -1.894 -1.957 -2.957 C 44.563 102.197 44.422 100.213 44.2 99.341 Z M 34.969 95.432 c -2.348 -6.923 1.283 -13.229 1.81 -14.179 c 1.012 0.399 2.562 2.193 3.221 3.235 C 39.52 85.321 35.067 90.775 34.969 95.432 Z M 45.772 106.464 c -1.084 -0.462 -0.706 -1.984 -1.056 -2.584 c -0.318 -0.542 -0.646 -1.102 -1.479 -1.46 c -0.18 -0.078 -0.379 -0.196 -0.583 -0.332 c -2.682 -6.075 0.293 -8.73 1.039 -9.273 c 0.229 0.742 0.399 1.423 0.476 1.97 c 0.068 0.5 -0.059 1.298 -0.181 2.068 c -0.153 0.955 -0.31 1.944 -0.147 2.584 c 0.244 0.953 0.411 2.97 1.291 4.048 c 0.781 0.956 1.583 1.942 1.857 2.746 C 46.871 106.391 46.5 106.775 45.772 106.464 Z" data-colored="true" data-filltype="sd3" data-stroketype="none"/></g><g id="svga-group-ears-right" data-updown="0" data-leftright="0" data-dist="0" data-scaleX="1" data-scaleY="1" data-rotate="0"><path id="SvgjsPath2908" opacity="1" fill="#f0c7b1" stroke="#c27b55" stroke-width="1.5" d="M 154.066 84.344 c 1.486 -2.462 6.328 -9.199 10.031 -8.254 c 3.012 0.772 2.973 4.971 3.207 7.455 c 0.34 3.644 0.463 9.992 -0.525 12.568 c -0.951 2.473 -3.961 7.252 -5.828 9.075 c -2.299 2.235 -5.971 9.358 -6.422 10.097 c -0.711 1.168 -2.137 2.84 -4.326 2.708 c -3.07 -0.185 -5.723 -3.087 -5.965 -4.485 C 142.938 105.918 150.203 90.75 154.066 84.344 Z" data-colored="true" data-filltype="tone" data-stroketype="sd3"/><path id="SvgjsPath2909" opacity="1" fill="#c27b55" stroke="none" stroke-width="none" d="M 154.322 103.243 c -0.869 1.063 -1.688 2.068 -1.957 2.957 c -0.092 0.304 -0.094 0.935 -0.078 1.444 c 0.014 0.413 0.121 0.596 0.225 0.587 c 0.102 -0.008 0.16 -0.199 0.148 -0.617 c -0.01 -0.322 -0.012 -0.67 0.008 -0.941 c 0.189 0.154 0.445 0.284 0.783 0.284 c 0.195 0 0.416 -0.042 0.66 -0.146 c 1.195 -0.511 0.865 -2.116 1.229 -2.739 c 0.314 -0.534 0.584 -0.997 1.305 -1.306 c 1.309 -0.561 4.693 -2.611 5.131 -4.203 c 1.184 -4.314 -3.471 -9.704 -3.934 -10.441 c 0.234 -0.529 0.463 -1.018 0.668 -1.435 c 0.264 -0.532 0.604 -1.171 1.006 -1.835 c 0.787 1.416 5.725 8.108 4.699 12.623 c -0.969 4.254 -7.441 10.003 -8.939 11.635 c -0.279 0.305 -0.453 0.604 -0.381 0.678 c 0.074 0.074 0.367 -0.106 0.646 -0.409 c 1.516 -1.643 8.031 -7.41 9.033 -11.82 c 0.078 -0.338 0.131 -0.687 0.162 -1.043 c 0.211 -0.337 0.904 -2.594 1.262 -5.617 c 0.455 -3.841 -0.205 -9.103 -0.41 -10.143 c 0.508 -0.04 -0.254 -0.222 0 0 c 0.311 0.271 0.523 0.56 0.617 0.519 c 0.094 -0.042 0.029 -0.39 -0.258 -0.687 c -0.391 -0.403 -1.066 -0.801 -2.09 -0.468 c -2.48 0.804 -4.457 3.923 -5.68 6.399 c -1.061 2.152 -2.686 6.122 -2.975 8.212 c -0.076 0.558 0.049 1.347 0.182 2.182 c 0.146 0.916 0.297 1.866 0.154 2.429 C 155.316 100.213 155.176 102.197 154.322 103.243 Z M 159.738 84.488 c 0.66 -1.042 2.209 -2.835 3.221 -3.235 c 0.527 0.95 4.158 7.256 1.811 14.179 C 164.672 90.775 160.219 85.321 159.738 84.488 Z M 152.75 106.229 c 0.273 -0.804 1.076 -1.79 1.857 -2.746 c 0.879 -1.078 1.047 -3.095 1.291 -4.048 c 0.162 -0.64 0.006 -1.629 -0.146 -2.584 c -0.123 -0.77 -0.25 -1.568 -0.182 -2.068 c 0.076 -0.547 0.246 -1.228 0.475 -1.97 c 0.746 0.543 3.721 3.199 1.039 9.273 c -0.203 0.136 -0.402 0.254 -0.584 0.332 c -0.832 0.358 -1.16 0.918 -1.479 1.46 c -0.35 0.6 0.029 2.123 -1.055 2.584 C 153.238 106.775 152.867 106.391 152.75 106.229 Z" data-colored="true" data-filltype="sd3" data-stroketype="none"/></g><g id="svga-group-faceshape-wrap" data-updown="0" data-leftright="0" data-dist="0" data-scaleX="1" data-scaleY="1" data-rotate="0"><g id="svga-group-faceshape-single" data-updown="0" data-leftright="0" data-dist="0" data-scaleX="1" data-scaleY="1" data-rotate="0"><path id="SvgjsPath3110" opacity="1" fill="#f0c7b1" stroke-width="none" d="M 158.785 78.006 l -0.005 0 c -0.01 0.046 -12.197 40.27 -15.879 52.418 c -0.715 2.358 -1.931 4.551 -3.556 6.386 c -6.375 7.194 -23.768 25.057 -39.324 25.057 c -15.849 0 -33.591 -19.045 -39.708 -26.214 c -1.442 -1.688 -2.507 -3.633 -3.172 -5.765 c -3.607 -11.551 -16.126 -51.648 -16.137 -51.694 h -0.001 c -1.298 -4.992 -1.994 -10.231 -2.002 -15.634 C 38.949 28.536 66.155 0.92 99.773 0.867 c 33.621 -0.053 60.913 27.476 60.964 61.499 C 160.746 67.769 160.068 73.01 158.785 78.006 Z" data-colored="true" data-filltype="tone" data-stroketype="none"/><path id="SvgjsPath3111" opacity="1" fill="#e8b9a0" stroke-width="none" d="M 132.168 10.26 c 14.31 11.135 23.671 29.457 23.699 50.208 c 0.009 5.404 -0.615 10.645 -1.796 15.641 l -0.004 0 c -0.009 0.046 -11.223 40.27 -14.608 52.417 c -0.658 2.358 -1.776 4.551 -3.271 6.385 c -5.865 7.195 -21.866 25.059 -36.178 25.059 c -14.582 0 -30.904 -19.047 -36.531 -26.215 c -1.327 -1.689 -2.306 -3.633 -2.918 -5.764 c -3.318 -11.552 -14.836 -51.649 -14.846 -51.695 h -0.001 c -1.194 -4.992 -1.834 -10.231 -1.842 -15.634 c -0.029 -20.827 9.348 -39.239 23.713 -50.412 C 50.392 21.159 38.967 40.508 39.001 62.56 c 0.008 5.403 0.704 10.643 2.002 15.634 h 0.001 c 0.01 0.046 12.53 40.143 16.137 51.694 c 0.666 2.132 1.73 4.076 3.172 5.765 c 6.116 7.169 23.858 26.214 39.708 26.214 c 15.557 0 32.949 -17.862 39.324 -25.057 c 1.625 -1.835 2.841 -4.027 3.556 -6.386 c 3.682 -12.148 15.869 -52.372 15.879 -52.418 l 0.005 0 c 1.283 -4.997 1.961 -10.237 1.952 -15.641 C 160.704 40.389 149.297 21.135 132.168 10.26 Z" data-colored="true" data-filltype="sd05" data-stroketype="none"/><path id="SvgjsPath3112" opacity="1" fill="none" stroke="#c27b55" stroke-width="1.5" d="M 158.785 78.006 l -0.005 0 c -0.01 0.046 -12.197 40.27 -15.879 52.418 c -0.715 2.358 -1.931 4.551 -3.556 6.386 c -6.375 7.194 -23.768 25.057 -39.324 25.057 c -15.849 0 -33.591 -19.045 -39.708 -26.214 c -1.442 -1.688 -2.507 -3.633 -3.172 -5.765 c -3.607 -11.551 -16.126 -51.648 -16.137 -51.694 h -0.001 c -1.298 -4.992 -1.994 -10.231 -2.002 -15.634 C 38.949 28.536 66.155 0.92 99.773 0.867 c 33.621 -0.053 60.913 27.476 60.964 61.499 C 160.746 67.769 160.068 73.01 158.785 78.006 Z" data-colored="true" data-filltype="none" data-stroketype="sd3"/></g></g><g id="svga-group-mouth-single" data-updown="0" data-leftright="0" data-dist="0" data-scaleX="1" data-scaleY="1" data-rotate="0"><path id="SvgjsPath3535" opacity="1" fill="url(#SvgjsLinearGradient3536)" d="M 100.2 142.947 c -2.832 0.144 -3.644 -2.753 -3.644 -2.753 s 3.931 0.565 6.991 -0.353 C 103.548 139.842 102.692 142.822 100.2 142.947 Z" data-colored="false" data-filltype="gradient" data-stroketype="none" data-fromskin="true"/><path id="SvgjsPath3539" opacity="1" fill="#c27b55" stroke-width="none" d="M 100.488 140.76 c -1.984 0.1 -3.765 -0.077 -3.877 -0.089 c -0.138 -0.014 -0.238 -0.136 -0.224 -0.272 c 0.015 -0.138 0.143 -0.233 0.274 -0.224 c 0.041 0.003 4.096 0.405 6.738 -0.337 c 0.131 -0.032 0.271 0.041 0.309 0.174 s -0.04 0.27 -0.173 0.308 C 102.601 140.582 101.517 140.708 100.488 140.76 Z" data-colored="true" data-filltype="sd3" data-stroketype="none" data-fromskin="true"/><path id="SvgjsPath3540" opacity="1" fill="#ffffff" stroke-width="none" d="M 82.5 130.299 c 0 0 12.532 1.486 16.718 1.499 c 4.553 0.012 19.282 -1.499 19.282 -1.499 c -4.258 3.534 -8.943 6.932 -19.555 6.999 C 89.453 137.359 87.021 133.912 82.5 130.299 Z" data-colored="false" data-filltype="#ffffff" data-stroketype="none"/><path id="SvgjsPath3541" opacity="1" fill="none" stroke="#c27b55" stroke-width="0.75" d="M 82.5 130.299 c 0 0 12.532 1.486 16.718 1.499 c 4.553 0.012 19.282 -1.499 19.282 -1.499 c -4.258 3.534 -8.943 6.932 -19.555 6.999 C 89.453 137.359 87.021 133.912 82.5 130.299 Z" data-colored="true" data-filltype="none" data-stroketype="sd3" data-fromskin="true"/></g><g id="svga-group-eyes-left" data-updown="0" data-leftright="0" data-dist="0" data-scaleX="1" data-scaleY="1" data-rotate="0"><g id="svga-group-eyesback-left"><path id="SvgjsPath3606" opacity="1" fill="url(#SvgjsRadialGradient3607)" d="M 60.942 83.152 c -0.216 2.76 1.682 6.038 12.492 6.964 c 9.553 0.818 13.62 -0.758 13.903 -3.902 s -3.407 -6.987 -12.88 -7.482 C 66.026 78.292 61.188 80.005 60.942 83.152 Z" data-colored="false" data-filltype="gradient" data-stroketype="none"/></g><g id="svga-group-eyesiriswrapper-left" transform="translate(0.5 0.25)"><g id="svga-group-eyesiriscontrol-left" data-updown="0" data-leftright="0" data-dist="0" data-scaleX="1" data-scaleY="1" data-rotate="0"><g id="svga-group-eyesiris-left" data-updown="0" data-leftright="0" data-dist="0" data-scaleX="1" data-scaleY="1" data-rotate="0"><path id="SvgjsPath3664" opacity="1" fill="#8ab42d" stroke="#5c8600" stroke-width="0.5" d="M 79.788 85.588 c -0.869 3.192 -4.162 5.073 -7.361 4.196 c -3.197 -0.876 -5.084 -4.178 -4.214 -7.371 c 0.869 -3.195 4.168 -5.076 7.365 -4.198 C 78.772 79.09 80.659 82.392 79.788 85.588 Z" data-colored="true" data-filltype="tone" data-stroketype="sd3"/><path id="SvgjsPath3665" opacity="1" fill="#9cc344" stroke="none" stroke-width="none" d="M 78.855 85.662 c -0.849 2.452 -3.407 3.881 -5.899 3.199 c -2.3 -0.631 -3.752 -2.838 -3.563 -5.171 c 0.853 -0.067 1.787 -0.087 2.756 -0.04 c -0.01 0.033 -0.027 0.062 -0.036 0.096 c -0.306 1.125 0.407 2.305 1.592 2.63 c 1.189 0.326 2.401 -0.326 2.707 -1.451 c 0.039 -0.147 0.06 -0.294 0.065 -0.439 C 77.29 84.782 78.088 85.165 78.855 85.662 Z" data-colored="true" data-filltype="hl1" data-stroketype="none"/><path id="SvgjsPath3666" opacity="0.9" fill="#000000" stroke-width="none" d="M 74.813 82.21 c -1.203 -0.344 -2.429 0.342 -2.739 1.54 c -0.311 1.191 0.412 2.438 1.614 2.783 c 1.204 0.345 2.43 -0.342 2.741 -1.534 C 76.742 83.801 76.016 82.555 74.813 82.21 Z M 75.075 86.442 c -0.5 0.156 -1.017 -0.051 -1.154 -0.462 c -0.133 -0.411 0.163 -0.867 0.667 -1.019 c 0.503 -0.156 1.019 0.051 1.157 0.459 C 75.881 85.831 75.582 86.287 75.075 86.442 Z" data-colored="false" data-filltype="#000000" data-stroketype="none"/><path id="SvgjsPath3667" opacity="0.6" fill="#ffffff" stroke-width="none" d="M 70.811 87.159 c -0.37 0.222 -0.922 0.023 -1.238 -0.447 c -0.316 -0.466 -0.269 -1.024 0.102 -1.247 c 0.368 -0.219 0.925 -0.021 1.239 0.446 C 71.226 86.378 71.181 86.938 70.811 87.159 Z" data-colored="false" data-filltype="#ffffff" data-stroketype="none"/><path id="SvgjsPath3668" opacity="0.8" fill="#ffffff" stroke-width="none" d="M 78.71 83.74 c -0.846 0.507 -2.117 0.051 -2.837 -1.02 c -0.72 -1.072 -0.612 -2.352 0.234 -2.857 c 0.844 -0.509 2.118 -0.053 2.834 1.019 C 79.66 81.954 79.556 83.232 78.71 83.74 Z" data-colored="false" data-filltype="#ffffff" data-stroketype="none"/></g></g></g><g id="svga-group-eyesfront-left"><path id="SvgjsPath3631" opacity="1" fill="#f0c7b1" stroke-width="none" d="M 55.772 86.694 c 1.203 13.754 10.653 24.163 21.106 23.249 c 10.453 -0.915 17.952 -12.807 16.749 -26.561 c -1.203 -13.754 -10.653 -24.164 -21.106 -23.249 C 62.067 61.048 54.569 72.94 55.772 86.694 Z M 60.942 83.152 c 0.246 -3.146 5.084 -4.86 13.516 -4.419 c 9.473 0.495 13.163 4.338 12.88 7.482 s -4.351 4.72 -13.903 3.902 C 62.624 89.19 60.726 85.912 60.942 83.152 Z" data-colored="true" data-filltype="tone" data-stroketype="none" data-fromskin="true"/><path id="SvgjsPath3632" opacity="1" fill="url(#SvgjsRadialGradient3633)" d="M 57.798 85.194 c 0.596 7.711 10.263 13.338 19.882 12.458 c 9.616 -0.885 17.535 -6.722 16.834 -14.425 c -0.697 -7.699 -9.053 -13.224 -18.673 -12.342 C 66.221 71.771 56.98 74.647 57.798 85.194 Z M 60.942 83.152 c 0.246 -3.146 5.084 -4.86 13.516 -4.419 c 9.473 0.495 13.163 4.338 12.88 7.482 s -4.351 4.72 -13.903 3.902 C 62.624 89.19 60.726 85.912 60.942 83.152 Z" data-colored="false" data-filltype="gradient" data-stroketype="none" data-fromskin="true"/><path id="SvgjsPath3637" opacity="1" fill="url(#SvgjsRadialGradient3638)" d="M 60.942 83.152 c -0.216 2.76 1.682 6.038 12.492 6.964 c 9.553 0.818 13.62 -0.758 13.903 -3.902 s -3.407 -6.987 -12.88 -7.482 C 66.026 78.292 61.188 80.005 60.942 83.152 Z" data-colored="false" data-filltype="gradient" data-stroketype="none"/><path id="SvgjsPath3641" opacity="1" fill="#c27b55" stroke-width="none" d="M 85.569 79.486 c -1.025 -0.673 -3.285 -1.602 -3.285 -1.602 s 2.571 0.588 3.59 1.279 s 2.082 2.366 2.082 2.366 S 86.594 80.159 85.569 79.486 Z M 67.02 77.131 c 0 0 -2.657 -0.034 -4.546 1.136 c -1.734 1.074 -2.448 2.685 -2.448 2.685 s 1.649 -1.725 2.813 -2.501 C 63.927 77.725 67.02 77.131 67.02 77.131 Z" data-colored="true" data-filltype="sd3" data-stroketype="none" data-fromskin="true"/><path id="SvgjsPath3642" opacity="1" fill="#000000" stroke-width="none" d="M 74.758 78.929 c -6.156 -0.216 -15.613 0.376 -13.409 6.209 c -3.203 -1.934 -0.741 -8.81 13.992 -7.583 c 7.137 0.594 15.623 4.275 11.685 9.764 C 88.273 81.582 80.8 79.142 74.758 78.929 Z M 85.623 89.012 l -3.021 0.956 c -5.294 0.085 -8.251 -0.28 -13.196 -0.504 c -2.279 -0.104 -4.328 -1.226 -6.996 -2.467 c 1.537 1.698 4.094 3.061 6.943 3.226 c 4.789 0.278 8.032 0.342 13.408 0.382 L 85.623 89.012 Z" data-colored="true" data-filltype="tone" data-stroketype="none"/></g></g><g id="svga-group-eyes-right" data-updown="0" data-leftright="0" data-dist="0" data-scaleX="1" data-scaleY="1" data-rotate="0"><g id="svga-group-eyesback-right"><path id="SvgjsPath3614" opacity="1" fill="url(#SvgjsRadialGradient3615)" d="M 139.059 83.152 c 0.216 2.76 -1.682 6.038 -12.492 6.964 c -9.553 0.818 -13.62 -0.758 -13.903 -3.902 s 3.407 -6.987 12.88 -7.482 C 133.975 78.292 138.813 80.005 139.059 83.152 Z" data-colored="false" data-filltype="gradient" data-stroketype="none"/></g><g id="svga-group-eyesiriswrapper-right" transform="translate(-0.5 0.25)"><g id="svga-group-eyesiriscontrol-right" data-updown="0" data-leftright="0" data-dist="0" data-scaleX="1" data-scaleY="1" data-rotate="0"><g id="svga-group-eyesiris-right" data-updown="0" data-leftright="0" data-dist="0" data-scaleX="1" data-scaleY="1" data-rotate="0"><path id="SvgjsPath3669" opacity="1" fill="#8ab42d" stroke="#5c8600" stroke-width="0.5" d="M 131.788 85.588 c -0.869 3.192 -4.162 5.073 -7.362 4.196 c -3.196 -0.876 -5.084 -4.178 -4.214 -7.371 c 0.869 -3.195 4.169 -5.076 7.365 -4.198 C 130.772 79.09 132.658 82.392 131.788 85.588 Z" data-colored="true" data-filltype="tone" data-stroketype="sd3"/><path id="SvgjsPath3670" opacity="1" fill="#9cc344" stroke="none" stroke-width="none" d="M 130.855 85.662 c -0.849 2.452 -3.408 3.881 -5.899 3.199 c -2.3 -0.631 -3.753 -2.838 -3.563 -5.171 c 0.854 -0.067 1.787 -0.087 2.756 -0.04 c -0.01 0.033 -0.027 0.062 -0.036 0.096 c -0.306 1.125 0.407 2.305 1.593 2.63 c 1.189 0.326 2.401 -0.326 2.707 -1.451 c 0.038 -0.147 0.06 -0.294 0.065 -0.439 C 129.29 84.782 130.089 85.165 130.855 85.662 Z" data-colored="true" data-filltype="hl1" data-stroketype="none"/><path id="SvgjsPath3671" opacity="0.9" fill="#000000" stroke-width="none" d="M 126.813 82.21 c -1.202 -0.344 -2.429 0.342 -2.738 1.54 c -0.312 1.191 0.412 2.438 1.613 2.783 c 1.204 0.345 2.431 -0.342 2.742 -1.534 C 128.741 83.801 128.016 82.555 126.813 82.21 Z M 127.075 86.442 c -0.5 0.156 -1.018 -0.051 -1.154 -0.462 c -0.133 -0.411 0.163 -0.867 0.667 -1.019 c 0.503 -0.156 1.019 0.051 1.157 0.459 C 127.881 85.831 127.582 86.287 127.075 86.442 Z" data-colored="false" data-filltype="#000000" data-stroketype="none"/><path id="SvgjsPath3672" opacity="0.6" fill="#ffffff" stroke-width="none" d="M 122.812 87.159 c -0.37 0.222 -0.923 0.023 -1.238 -0.447 c -0.316 -0.466 -0.27 -1.024 0.102 -1.247 c 0.367 -0.219 0.926 -0.021 1.239 0.446 C 123.227 86.378 123.181 86.938 122.812 87.159 Z" data-colored="false" data-filltype="#ffffff" data-stroketype="none"/><path id="SvgjsPath3673" opacity="0.8" fill="#ffffff" stroke-width="none" d="M 130.71 83.74 c -0.846 0.507 -2.116 0.051 -2.837 -1.02 c -0.72 -1.072 -0.612 -2.352 0.234 -2.857 c 0.845 -0.509 2.117 -0.053 2.834 1.019 C 131.66 81.954 131.557 83.232 130.71 83.74 Z" data-colored="false" data-filltype="#ffffff" data-stroketype="none"/></g></g></g><g id="svga-group-eyesfront-right"><path id="SvgjsPath3652" opacity="1" fill="#f0c7b1" stroke-width="none" d="M 127.479 60.133 c -10.453 -0.915 -19.903 9.495 -21.106 23.249 c -1.203 13.754 6.296 25.646 16.749 26.561 c 10.453 0.914 19.903 -9.495 21.106 -23.249 C 145.432 72.94 137.934 61.048 127.479 60.133 Z M 126.566 90.116 c -9.553 0.818 -13.62 -0.758 -13.903 -3.902 s 3.407 -6.987 12.88 -7.482 c 8.432 -0.44 13.27 1.273 13.516 4.419 C 139.274 85.912 137.377 89.19 126.566 90.116 Z" data-colored="true" data-filltype="tone" data-stroketype="none" data-fromskin="true"/><path id="SvgjsPath3653" opacity="1" fill="url(#SvgjsRadialGradient3654)" d="M 124.159 70.885 c -9.62 -0.882 -17.976 4.643 -18.673 12.342 c -0.701 7.703 7.218 13.54 16.834 14.425 c 9.619 0.88 19.286 -4.747 19.882 -12.458 C 143.021 74.647 133.779 71.771 124.159 70.885 Z M 126.566 90.116 c -9.553 0.818 -13.62 -0.758 -13.903 -3.902 s 3.407 -6.987 12.88 -7.482 c 8.432 -0.44 13.27 1.273 13.516 4.419 C 139.274 85.912 137.377 89.19 126.566 90.116 Z" data-colored="false" data-filltype="gradient" data-stroketype="none" data-fromskin="true"/><path id="SvgjsPath3658" opacity="1" fill="url(#SvgjsRadialGradient3659)" d="M 139.059 83.152 c 0.216 2.76 -1.682 6.038 -12.492 6.964 c -9.553 0.818 -13.62 -0.758 -13.903 -3.902 s 3.407 -6.987 12.88 -7.482 C 133.975 78.292 138.813 80.005 139.059 83.152 Z" data-colored="false" data-filltype="gradient" data-stroketype="none"/><path id="SvgjsPath3662" opacity="1" fill="#c27b55" stroke-width="none" d="M 112.045 81.529 c 0 0 1.063 -1.675 2.082 -2.366 s 3.59 -1.279 3.59 -1.279 s -2.26 0.929 -3.285 1.602 S 112.045 81.529 112.045 81.529 Z M 137.161 78.451 c 1.164 0.776 2.813 2.501 2.813 2.501 s -0.714 -1.61 -2.448 -2.685 c -1.889 -1.169 -4.546 -1.136 -4.546 -1.136 S 136.073 77.725 137.161 78.451 Z" data-colored="true" data-filltype="sd3" data-stroketype="none" data-fromskin="true"/><path id="SvgjsPath3663" opacity="1" fill="#000000" stroke-width="none" d="M 112.975 87.32 c -3.938 -5.489 4.548 -9.17 11.685 -9.764 c 14.733 -1.227 17.195 5.648 13.992 7.583 c 2.204 -5.833 -7.253 -6.425 -13.409 -6.209 C 119.2 79.142 111.728 81.582 112.975 87.32 Z M 117.239 90.604 c 5.376 -0.04 8.619 -0.104 13.408 -0.382 c 2.85 -0.165 5.406 -1.528 6.943 -3.226 c -2.668 1.241 -4.717 2.363 -6.996 2.467 c -4.945 0.225 -7.902 0.589 -13.196 0.504 l -3.021 -0.956 L 117.239 90.604 Z" data-colored="true" data-filltype="tone" data-stroketype="none"/></g></g><g id="svga-group-facehighlight-single" data-updown="0" data-leftright="0" data-dist="0" data-scaleX="1" data-scaleY="1" data-rotate="0"><path id="SvgjsPath2885" opacity="1" fill="url(#SvgjsRadialGradient2886)" d="M 141 113.974 c 0.035 22.622 -18.292 40.994 -40.938 41.025 c -22.642 0.037 -41.028 -18.273 -41.063 -40.9 c -0.035 -22.62 18.292 -41.064 40.937 -41.1 C 122.579 72.964 140.967 91.349 141 113.974 Z" data-colored="false" data-filltype="gradient" data-stroketype="none" data-fromskin="true"/><path id="SvgjsPath2889" opacity="1" fill="url(#SvgjsRadialGradient2890)" d="M 137.5 53.999 c 0 20.711 -16.789 37.5 -37.499 37.5 c -20.711 0 -37.501 -16.789 -37.501 -37.5 s 16.79 -37.5 37.501 -37.5 C 120.711 16.499 137.5 33.288 137.5 53.999 Z" data-colored="false" data-filltype="gradient" data-stroketype="none" data-fromskin="true"/></g><g id="svga-group-eyebrows-left" data-updown="0" data-leftright="0" data-dist="0" data-scaleX="1" data-scaleY="1" data-rotate="0"><path id="SvgjsPath2910" opacity="1" fill="#2a232b" stroke-width="none" d="M 54 74.189 c 9.954 -9.974 16.761 -5.915 30.589 -3.264 c 0.845 0.162 6.32 1.539 5.31 3.469 c -0.483 0.924 -2.036 0.814 -2.903 0.798 C 73.308 74.936 66.652 65.197 54 74.189 Z" data-colored="true" data-filltype="#000000" data-stroketype="none"/></g><g id="svga-group-eyebrows-right" data-updown="0" data-leftright="0" data-dist="0" data-scaleX="1" data-scaleY="1" data-rotate="0"><path id="SvgjsPath2911" opacity="1" fill="#2a232b" stroke-width="none" d="M 146 74.189 c -9.953 -9.974 -16.761 -5.915 -30.589 -3.264 c -0.846 0.162 -6.32 1.539 -5.311 3.469 c 0.483 0.924 2.036 0.814 2.903 0.798 C 126.691 74.936 133.348 65.197 146 74.189 Z" data-colored="true" data-filltype="#000000" data-stroketype="none"/></g><g id="svga-group-nose-single" data-updown="0" data-leftright="0" data-dist="0" data-scaleX="1" data-scaleY="1" data-rotate="0"><path id="SvgjsPath3117" opacity="1" fill="#e1ac8f" stroke-width="none" d="M 91.115 115.499 c -0.878 2.064 5.934 4.292 8.519 4.429 c 2.8 0.147 10.646 -2.9 9.316 -4.992 c -1.399 -2.195 -6.643 -0.286 -8.906 -0.286 C 97.792 114.649 92.291 112.745 91.115 115.499 Z" data-colored="true" data-filltype="sd1" data-stroketype="none" data-fromskin="true"/><path id="SvgjsPath3118" opacity="1" fill="#c27b55" stroke-width="none" d="M 101.857 117.058 c -0.23 -0.759 1.876 -1.584 2.657 -1.694 c 1.101 -0.16 3.36 0.802 3.158 1.592 c -0.184 0.698 -2.148 -0.533 -2.86 -0.429 C 104.078 116.634 102.075 117.769 101.857 117.058 Z M 94.974 116.811 c 0.968 0 2.404 0.623 2.668 0.074 c 0.315 -0.655 -2.139 -1.461 -2.86 -1.372 c -0.596 0.07 -2.733 1.315 -2.439 1.839 C 92.617 117.833 93.698 116.811 94.974 116.811 Z" data-colored="true" data-filltype="sd3" data-stroketype="none" data-fromskin="true"/><path id="SvgjsPath3119" opacity="0.2" fill="#fff5ef" stroke-width="none" d="M 100.089 111.999 c 0.607 0 1.742 -0.74 1.792 -2.23 c 0.201 -6.008 -0.956 -23.833 -1.792 -23.77 c -0.78 0.059 -2.267 17.637 -1.948 23.77 C 98.22 111.271 99.404 111.999 100.089 111.999 Z" data-colored="true" data-filltype="hl2" data-stroketype="none" data-fromskin="true"/></g><g id="svga-group-beardwrap" data-updown="0" data-leftright="0" data-dist="0" data-scaleX="1" data-scaleY="1" data-rotate="0"><g id="svga-group-beard-single" data-updown="0" data-leftright="0" data-dist="0" data-scaleX="1" data-scaleY="1" data-rotate="0"><path id="SvgjsPath3021" opacity="1" fill="#2a232b" stroke-width="none" d="M 100 18.13 L 100 18.13 L 100 18.13 L 100 18.13 Z" data-colored="true" data-filltype="tone" data-stroketype="none"/></g></g><g id="svga-group-mustache-single" data-updown="0" data-leftright="0" data-dist="0" data-scaleX="1" data-scaleY="1" data-rotate="0"><path id="SvgjsPath3019" opacity="1" fill="#2a232b" stroke-width="none" d="M 100 18.13 L 100 18.13 L 100 18.13 L 100 18.13 Z" data-colored="true" data-filltype="tone" data-stroketype="none"/></g><g id="svga-group-hair-front" data-updown="0" data-leftright="0" data-dist="0" data-scaleX="1" data-scaleY="1" data-rotate="0"><path id="SvgjsPath3690" opacity="1" fill="#6b4e40" stroke-width="none" d="M 152.176 96.021 c -4.33 -11.451 -2.396 -20.042 -3.227 -37.21 c -1.283 -26.428 -7.483 -23.179 -21.749 -24.214 C 105.156 33 97.497 22.794 81.063 22.794 c -8.887 0 -19.24 4.048 -27.173 11.001 c -6.378 43.485 2.638 39.87 -6.744 61.845 c -5.953 -6.247 -6.721 -15.865 -11.134 -28.495 c -3.519 -10.451 -2.658 -11.011 -6.527 -16.049 c 2.484 0.449 2.734 0.429 3.842 0.429 c -1.97 -4.306 -4.479 -11.951 -5.429 -15.273 c 2.329 -1.116 4.839 -3.909 6.47 -5.919 c -0.931 -2.128 -1.646 -4.554 -2.079 -6.625 c 0.077 -0.026 0.438 -0.16 0.438 -0.16 l 0.004 -0.017 c 5.681 -2.417 6.84 -15.944 10.785 -19.389 c 1.941 -1.814 3.806 -2.531 5.534 -3.446 c 0.204 -1.895 0.295 -2.277 0.575 -3.63 c 9.402 -2.521 12.254 -1.199 25.53 -4.893 c 4.564 -1.27 7.709 -2.153 17.317 -1.75 c 3.525 1.779 16.06 10.479 25.484 1.602 c 7.254 4.527 13.574 5.105 22.624 10.252 c 15.179 8.89 17.244 15.147 16.352 29.56 c 10.493 13.965 8.167 30.567 3.577 47.23 C 157.639 89.383 154.886 92.761 152.176 96.021 Z" data-colored="true" data-filltype="tone" data-stroketype="none"/><path id="SvgjsPath3691" opacity="1" fill="#4c2d1e" stroke-width="none" d="M 152 82 c -1 -8 3 -15 4 -22 c -1 2 -3 3 -3 5 c 0 -7 3 -13 2 -20 c -1 2 -2 3 -4 4 c 3 -7 0 -15 -5 -21 c 1 3 2 5 2 8 c -6 -9 -20 -10 -30 -15 c 2 3 6 5 9 7 c -14 -5 -27 -11 -40 -17 c 2.206 2.206 3.875 6.024 6.589 7.499 c 1.143 0.163 0.978 0.531 0 0 C 81.581 16.79 68.958 15.479 58 10 c 0 4 3 7 6 9 c -3 0 -6 -3 -8 -2 c -3 2 3 4 2 6 c -3 2 -6 -1 -9 -1 c 2 3 0 8 2 11 c -2 -1 -4 -3 -4 -2 c -1 4 -3 5 -3 8 c 0 5 3 10 3 15 c 0 -1.608 -1.938 -1.279 -2.697 -2.127 c 5.009 13.975 4.782 28.692 2.606 43.497 c 0.082 0.089 0.154 0.184 0.237 0.271 c 9.382 -21.975 0.366 -18.36 6.744 -61.845 c 7.933 -6.953 18.286 -11.001 27.173 -11.001 c 16.435 0 24.094 10.207 46.138 11.802 c 14.266 1.036 20.466 -2.214 21.749 24.214 c 0.83 17.168 -1.104 25.759 3.227 37.21 c 0.005 -0.005 0.009 -0.011 0.014 -0.016 C 152.841 88.595 155 81.796 155 75 C 154 77 153 79 152 82 Z" data-colored="true" data-filltype="sd2" data-stroketype="none"/><path id="SvgjsPath3692" opacity="1" fill="#5c3d2e" stroke-width="none" d="M 159.263 71.488 C 158.954 72.145 157 72.343 157 73 c 0 -3 3.516 -5.243 2.924 -10.264 c 0 0.396 -3.158 2.95 -3.475 3.346 c -0.206 1 4.288 -10.681 4.288 -14.542 C 159.263 53.999 158 54 158 56 c 0 -4 -0.006 -9.854 -0.006 -13.854 c 0 2 -1.994 4.949 -1.994 6.949 c 0.933 -7.464 -3.404 -16.095 -4.28 -23.501 c -0.511 1.795 -1.479 3.889 -0.72 5.406 c -3 -4 -2 -11 -7 -14 c -1 2 -1 4 -2 6 c -3 -4 -7 -7 -9 -11 c 0 2 0 3 0 5 c -5 -4 -12 -6 -15 -12 c 0 2 0 5 0 7 c -4 -1 -10.495 -4.596 -12.495 -7.596 C 105.505 7.404 109 12 109 15 c -8 -4 -14 -10 -22 -14 c 0 2 2 4 1 6 c -4 -2 -11.771 -2 -13.771 -6 c 0 3 3.11 6 3.11 9 c -9 -1 -11.009 -3.822 -19.242 -7.596 C 57.097 4.404 56 7 55 9 c -2 -2 -3 -4 -6 -4 c 0 3 3 7 1 10 c -1 1 -5 -3 -5 -2 c -2 4 0 10 -2 14 c 0 1 -3 -2 -5 -1 c 3.872 5.807 1.202 12.548 3.745 18.416 C 41.843 44.598 41.93 44.79 42 45 c -0.096 -0.193 -0.17 -0.389 -0.255 -0.584 C 40.452 41.988 36.93 41.79 36 39 c 0 7.303 4.157 13.774 5.645 20.932 C 42.15 60.233 42.404 60.788 42 62 c -0.087 -0.697 -0.214 -1.385 -0.355 -2.068 C 40.897 59.486 39.596 59.596 39 59 c 4.728 9.455 6.191 25.673 7.909 36.369 c 3.545 -15.374 1.709 -31.456 -2.606 -43.497 C 44.118 51.666 44 51.392 44 51 c 0.109 0.29 0.198 0.582 0.303 0.873 C 45.063 52.721 47 52.392 47 54 c 0 -5 -3 -10 -3 -15 c 0 -3 2 -4 3 -8 c 0 -1 2 1 4 2 c -2 -3 0 -8 -2 -11 c 3 0 6 3 9 1 c 1 -2 -5 -4 -2 -6 c 2 -1 5 2 8 2 c -3 -2 -6 -5 -6 -9 c 10.958 5.479 23.581 6.79 35.589 8.499 C 90.875 17.024 89.206 13.206 87 11 c 13 6 26 12 40 17 c -3 -2 -7 -4 -9 -7 c 10 5 24 6 30 15 c 0 -3 -1 -5 -2 -8 c 5 6 8 14 5 21 c 2 -1 3 -2 4 -4 c 1 7 -2 13 -2 20 c 0 -2 2 -3 3 -5 c -1 7 -5 14 -4 22 c 1 -3 2 -5 3 -7 c 0 6.796 -2.159 13.595 -2.811 21.004 c 0.814 -0.979 1.633 -1.975 2.457 -3.163 C 154.545 85.429 157.479 79.338 159.263 71.488 Z" data-colored="true" data-filltype="sd1" data-stroketype="none"/><path id="SvgjsPath3693" opacity="1" fill="#6b4e40" stroke-width="none" d="M 93.119 18.235 c -1.128 0.089 -2.468 0.279 -4.94 -0.096 c -6.698 -0.927 -28.617 -1.793 -29.81 -8.654 c 1.055 3.353 7.405 4.299 12.204 5.198 c 0 0 3.382 0.651 8.723 1.251 C 89.291 17.101 87.179 17.888 93.119 18.235 Z M 115.897 23.746 C 92 13.389 93.7 14.531 88.119 10.985 c 7.333 6.156 9.839 6.172 22.619 12.018 c 5.921 2.667 7.078 2.561 15.131 4.482 C 120.224 25.241 119.559 25.287 115.897 23.746 Z M 118.619 20.735 c 9.914 8.153 22.008 6.125 29.75 15 C 142.164 25.918 128.518 26.908 118.619 20.735 Z M 59.905 17.331 c -2.668 -0.805 -3.997 -0.43 -5.286 0.404 c 4.225 -1.989 8.651 2.923 13.75 1.5 C 66.006 19.523 59.905 17.53 59.905 17.331 Z M 57.051 23.932 c -2.328 -0.734 -5.203 -1.979 -7.151 -1.927 c -1.03 0.024 -1.281 0.48 -1.281 0.48 c 0.975 -1.139 5.609 1.099 8.396 1.626 c 0.766 0.16 1.354 0.123 1.354 0.123 S 57.783 24.176 57.051 23.932 Z M 45.652 35.678 c 0.687 -1.892 1.461 -3.751 1.256 -5.482 c -0.104 -0.627 -0.309 -0.955 -0.289 -0.96 c 0.464 1.973 -0.313 3.175 -1.68 6.136 c -3.015 6.453 0.924 11.484 2.43 18.364 C 46.86 45.866 43.166 42.389 45.652 35.678 Z M 154.369 45.985 c 0.32 2.168 0.225 3.63 -0.154 7.075 c 0 0 -0.695 5.779 -2.096 11.425 C 154.198 59.638 155.94 51.389 154.369 45.985 Z M 155.869 61.485 c -3.387 9.387 -3.936 12.846 -4.5 20.25 C 155.099 64.497 153.284 73.154 155.869 61.485 Z" data-colored="true" data-filltype="tone" data-stroketype="none"/><path id="SvgjsPath3694" opacity="1" fill="#7a6155" stroke-width="none" d="M 114.869 -1.765 c -6.126 0.965 -12.52 1.734 -24 -5.25 C 101.949 -1.999 107.334 -1.517 114.869 -1.765 Z M 128.401 0.19 c -6.076 -2.194 -6.475 -4.768 -11.032 -6.205 c 4.159 1.884 4.127 4.303 9.559 6.761 c 2.642 1.249 11.822 3.782 17.441 7.439 C 139.405 3.794 136.066 3.059 128.401 0.19 Z M 60.619 -2.015 c 11.593 0.241 13.441 -2.719 26.75 -4.25 C 75.403 -6.414 74.136 -3.561 60.619 -2.015 Z M 90.869 -1.765 c 4.669 0.559 11.405 4.746 13.5 9.5 C 102.84 2.405 96.201 -1.735 90.869 -1.765 Z M 116.869 -0.265 c 4.652 2.475 6.308 7.699 12 8.75 C 123.284 6.637 122.178 1.803 116.869 -0.265 Z M 108.869 0.735 c 1.193 2.033 2.93 4.107 7.5 7 C 111.036 3.353 110.121 2.431 108.869 0.735 Z M 132.119 5.485 c 5.115 0.627 10.451 5.663 11 11.25 C 143.375 11.229 138.428 5.581 132.119 5.485 Z M 149.458 14.007 c -2.307 -2.946 -4.339 -3.642 -5.339 -4.022 c 1.428 0.741 2.997 1.725 4.866 4.386 c 0 0 3.437 4.57 4.884 9.614 C 152.871 17.907 149.458 14.007 149.458 14.007 Z M 54.369 -0.265 c 0.185 -0.391 5.324 1.866 5.73 2.03 c 1.229 0.479 7.383 2.967 9.52 3.22 C 68.618 4.717 54.423 -1.414 54.369 -0.265 Z M 45.869 5.985 c 0.682 0.896 1.458 2.263 2.01 3.245 c 0 0 0.296 0.523 0.571 1.059 c 0.27 0.537 0.51 1.086 0.51 1.086 C 49.634 12.912 49.955 13.861 50 15 C 50.252 12.019 47.702 7.872 45.869 5.985 Z M 42.869 8.985 c -2.517 6.149 -2.489 9.708 0 16 C 41.306 18.681 40.986 15.697 42.869 8.985 Z" data-colored="true" data-filltype="hl1" data-stroketype="none"/><path id="SvgjsPath3695" opacity="1" fill="#3d2012" stroke-width="none" d="M 157.239 31.745 c 0.228 -3.5 0.323 -5.684 0.02 -9.14 c -1.138 -10.129 -7.217 -15.136 -16.529 -20.59 c -9.158 -5.208 -15.513 -5.751 -22.811 -10.37 c -9.334 9.042 -21.935 0.184 -25.37 -1.52 c -16.776 -0.716 -14.191 2.518 -32.75 4.78 c -6.844 0.773 -9.67 1.72 -9.67 1.72 c -0.26 0.07 -0.52 0.13 -0.76 0.2 c -0.2 1 -0.381 1.616 -0.6 3.68 c -1.516 0.801 -3.484 1.572 -5.45 3.41 c -4.048 3.536 -5.212 17.195 -10.83 19.39 v 0.01 c -0.118 0.043 -0.428 0.163 -0.55 0.18 c 0.419 2.096 1.188 4.75 2.08 6.79 c -1.594 1.959 -4.17 4.807 -6.48 5.8 c 0.546 1.98 3.313 10.751 5.32 15.14 c -1.1 0 -2.003 -0.194 -4.09 -0.56 c 4.388 5.578 3.281 5.653 6.96 16.58 c 4.481 12.826 5.208 22.595 11.49 28.9 c 5.633 -10.646 5.146 -15.583 5.19 -19.41 c 0.123 -5.265 -2.433 -18.462 1.935 -42.798 c 9.262 -8.105 22.378 -12.754 34.815 -9.932 c 13.001 2.94 19.525 9.551 38.02 10.89 c 14.399 1.046 20.201 -2.213 21.471 23.93 c 0.841 17.373 -1.163 26.023 3.43 37.78 c 2.669 -3.22 5.645 -6.408 8.72 -17.46 C 165.299 62.807 167.816 45.939 157.239 31.745 Z M 161.02 70.726 c -3.468 16.597 -5.491 19.609 -9.061 24.96 c -2.882 -8.88 -2.093 -17.47 -1.8 -26.59 c 1.486 -39.246 -8.424 -34.825 -22.86 -35.92 c -17.688 -1.192 -24.622 -7.896 -37.76 -10.54 c -11.972 -2.45 -25.25 0.755 -36.35 11.16 c -6.045 27.128 0.578 41.608 -4.78 55.37 c -1.162 2.943 -0.429 3.694 -1.28 5.84 c -4.636 -6.978 -5.874 -16.832 -7.41 -21.79 c -4.784 -12.176 -4.632 -16.171 -9.84 -21.97 c 1.271 0.277 2.91 0.457 4.21 0.24 c -0.01 -0.01 -0.01 -0.01 -0.01 -0.02 c -0.332 -1.001 -4.524 -12.47 -5.75 -15.33 c 2.387 -1.152 4.729 -3.746 6.35 -5.83 c -1.292 -4.088 0.314 1.902 -2.1 -6.66 c 7.366 -2.215 6.6 -16.125 14.11 -21.21 c 0.997 -0.665 1.88 -1.213 2.86 -1.83 c 0.221 -1.879 0.071 -0.771 0.52 -3.63 c 8.803 -1.813 12.4 -0.024 25.18 -4.05 c 9.681 -2.356 16.636 -2.269 17.64 -2.16 c 6.167 3.862 9.656 6.038 16.91 5.53 c 3.323 -0.272 5.966 -1.878 8.28 -4.24 c 4.01 3.008 8.485 4.831 13.99 7.35 c 22.244 10.181 24.229 18.459 24.229 32.18 c 1.398 1.975 2.938 5.099 3.7 7.19 C 164.593 50.117 163.096 61.037 161.02 70.726 Z" data-colored="true" data-filltype="sd3" data-stroketype="none"/></g><g id="svga-group-glasses-single" data-updown="0" data-leftright="0" data-dist="0" data-scaleX="1" data-scaleY="1" data-rotate="0"><path id="SvgjsPath3012" opacity="1" fill="#26120b" stroke-width="none" d="M 100 18.13 L 100 18.13 L 100 18.13 L 100 18.13 Z" data-colored="true" data-filltype="tone" data-stroketype="none"/></g></g></g><rect id="SvgjsRect1036" style="display:none;" opacity="0.5" fill="#ecf0f1" x="0" y="185" width="200" height="15"/><text id="SvgjsText1037" font-family="&quot;Roboto&quot;,&quot;Helvetica Neue&quot;,Helvetica,Arial,sans-serif" font-size="0.84em" font-weight="400" style="font-size:0.84em;font-family:&quot;Roboto&quot;, &quot;Helvetica Neue&quot;, Helvetica, Arial, sans-serif;text-anchor:middle;font-weight:400;display:none;" fill="#000000" text-anchor="middle" x="100" y="185"><tspan id="SvgjsTspan1038" style="font-size:0.84em;font-family:&quot;Roboto&quot;, &quot;Helvetica Neue&quot;, Helvetica, Arial, sans-serif;text-anchor:middle;font-weight:400;" x="100" dy="1.2em">Erstellt mit Avatars24.de</tspan></text></g><defs id="SvgjsDefs1001"><radialGradient class="svga-on-canvas-facehighlight-gradient-single-0" id="SvgjsRadialGradient2886" gradientUnits="userSpaceOnUse" cx="100" cy="114" r="41"><stop id="SvgjsStop2887" stop-color="rgb(255, 228, 214)" stop-opacity="0.5" offset="0" data-stoptype="hl1"/><stop id="SvgjsStop2888" stop-color="rgb(240, 199, 177)" stop-opacity="0" offset="0.9" data-stoptype="tone"/></radialGradient><radialGradient class="svga-on-canvas-facehighlight-gradient-single-1" id="SvgjsRadialGradient2890" gradientUnits="userSpaceOnUse" cx="100" cy="54" r="37"><stop id="SvgjsStop2891" stop-color="rgb(255, 228, 214)" stop-opacity="0.5" offset="0" data-stoptype="hl1"/><stop id="SvgjsStop2892" stop-color="rgb(240, 199, 177)" stop-opacity="0" offset="0.9" data-stoptype="tone"/></radialGradient><linearGradient class="svga-on-canvas-chinshadow-gradient-single-0" id="SvgjsLinearGradient3114" gradientUnits="userSpaceOnUse" x1="100" y1="171" x2="100" y2="131"><stop id="SvgjsStop3115" stop-color="rgb(225, 172, 143)" stop-opacity="0.8" offset="0" data-stoptype="sd1"/><stop id="SvgjsStop3116" stop-color="rgb(194, 123, 85)" stop-opacity="1" offset="0.7" data-stoptype="sd3"/></linearGradient><radialGradient class="svga-on-canvas-eyesiris-gradient-left-1" id="SvgjsRadialGradient3400" gradientUnits="userSpaceOnUse" gradientTransform="matrix(0.096, -0.0248, 0.0245, 0.0961, 141.281, 119.989)" cx="-568.659" cy="-521.042" r="59.751"><stop id="SvgjsStop3401" stop-color="rgb(255, 255, 255)" stop-opacity="1" offset="0" data-stoptype="#ffffff"/><stop id="SvgjsStop3402" stop-color="rgb(255, 255, 255)" stop-opacity="0" offset="1" data-stoptype="#ffffff"/></radialGradient><radialGradient class="svga-on-canvas-eyesiris-gradient-left-2" id="SvgjsRadialGradient3404" gradientUnits="userSpaceOnUse" gradientTransform="matrix(0.0991, 0.000885632, -0.0011, 0.0991, 131.113, 135.986)" cx="-582.838" cy="-519.099" r="59.745"><stop id="SvgjsStop3405" stop-color="rgb(255, 255, 255)" stop-opacity="1" offset="0" data-stoptype="#ffffff"/><stop id="SvgjsStop3406" stop-color="rgb(255, 255, 255)" stop-opacity="0" offset="1" data-stoptype="#ffffff"/></radialGradient><linearGradient class="svga-on-canvas-eyesiris-gradient-left-5" id="SvgjsLinearGradient3410" gradientUnits="userSpaceOnUse" gradientTransform="matrix(1, 0, 0, 1, -52, 0)" x1="122.67" y1="88.268" x2="123.606" y2="87.152"><stop id="SvgjsStop3411" stop-color="rgb(255, 255, 255)" stop-opacity="1" offset="0" data-stoptype="#ffffff"/><stop id="SvgjsStop3412" stop-color="rgb(255, 255, 255)" stop-opacity="0" offset="1" data-stoptype="#ffffff"/></linearGradient><linearGradient class="svga-on-canvas-eyesiris-gradient-left-6" id="SvgjsLinearGradient3414" gradientUnits="userSpaceOnUse" gradientTransform="matrix(1, 0, 0, 1, -52, 0)" x1="127.212" y1="82.296" x2="126.463" y2="83.189"><stop id="SvgjsStop3415" stop-color="rgb(255, 255, 255)" stop-opacity="1" offset="0" data-stoptype="#ffffff"/><stop id="SvgjsStop3416" stop-color="rgb(255, 255, 255)" stop-opacity="0" offset="1" data-stoptype="#ffffff"/></linearGradient><linearGradient class="svga-on-canvas-eyesiris-gradient-left-7" id="SvgjsLinearGradient3418" gradientUnits="userSpaceOnUse" gradientTransform="matrix(1, 0, 0, 1, -52, 0)" x1="129.636" y1="79.822" x2="127.91" y2="81.879"><stop id="SvgjsStop3419" stop-color="rgb(255, 255, 255)" stop-opacity="1" offset="0" data-stoptype="#ffffff"/><stop id="SvgjsStop3420" stop-color="rgb(255, 255, 255)" stop-opacity="0" offset="1" data-stoptype="#ffffff"/></linearGradient><radialGradient class="svga-on-canvas-eyesiris-gradient-right-1" id="SvgjsRadialGradient3423" gradientUnits="userSpaceOnUse" gradientTransform="matrix(0.096, -0.0248, 0.0245, 0.0961, 193.28, 119.989)" cx="-568.654" cy="-521.042" r="59.752"><stop id="SvgjsStop3424" stop-color="rgb(255, 255, 255)" stop-opacity="1" offset="0" data-stoptype="#ffffff"/><stop id="SvgjsStop3425" stop-color="rgb(255, 255, 255)" stop-opacity="0" offset="1" data-stoptype="#ffffff"/></radialGradient><radialGradient class="svga-on-canvas-eyesiris-gradient-right-2" id="SvgjsRadialGradient3427" gradientUnits="userSpaceOnUse" gradientTransform="matrix(0.0991, 0.000885632, -0.0011, 0.0991, 183.113, 135.986)" cx="-582.833" cy="-519.102" r="59.747"><stop id="SvgjsStop3428" stop-color="rgb(255, 255, 255)" stop-opacity="1" offset="0" data-stoptype="#ffffff"/><stop id="SvgjsStop3429" stop-color="rgb(255, 255, 255)" stop-opacity="0" offset="1" data-stoptype="#ffffff"/></radialGradient><linearGradient class="svga-on-canvas-eyesiris-gradient-right-5" id="SvgjsLinearGradient3433" gradientUnits="userSpaceOnUse" x1="122.67" y1="88.268" x2="123.606" y2="87.152"><stop id="SvgjsStop3434" stop-color="rgb(255, 255, 255)" stop-opacity="1" offset="0" data-stoptype="#ffffff"/><stop id="SvgjsStop3435" stop-color="rgb(255, 255, 255)" stop-opacity="0" offset="1" data-stoptype="#ffffff"/></linearGradient><linearGradient class="svga-on-canvas-eyesiris-gradient-right-6" id="SvgjsLinearGradient3437" gradientUnits="userSpaceOnUse" x1="127.212" y1="82.296" x2="126.463" y2="83.189"><stop id="SvgjsStop3438" stop-color="rgb(255, 255, 255)" stop-opacity="1" offset="0" data-stoptype="#ffffff"/><stop id="SvgjsStop3439" stop-color="rgb(255, 255, 255)" stop-opacity="0" offset="1" data-stoptype="#ffffff"/></linearGradient><linearGradient class="svga-on-canvas-eyesiris-gradient-right-7" id="SvgjsLinearGradient3441" gradientUnits="userSpaceOnUse" x1="129.636" y1="79.822" x2="127.91" y2="81.879"><stop id="SvgjsStop3442" stop-color="rgb(255, 255, 255)" stop-opacity="1" offset="0" data-stoptype="#ffffff"/><stop id="SvgjsStop3443" stop-color="rgb(255, 255, 255)" stop-opacity="0" offset="1" data-stoptype="#ffffff"/></linearGradient><linearGradient class="svga-on-canvas-mouth-gradient-single-0" id="SvgjsLinearGradient3536" gradientUnits="userSpaceOnUse" x1="100" y1="142" x2="100" y2="139"><stop id="SvgjsStop3537" stop-color="rgb(232, 185, 160)" stop-opacity="1" offset="0.1" data-stoptype="sd05"/><stop id="SvgjsStop3538" stop-color="rgb(225, 172, 143)" stop-opacity="1" offset="1" data-stoptype="sd1"/></linearGradient><radialGradient class="svga-on-canvas-eyesback-gradient-left-0" id="SvgjsRadialGradient3607" gradientUnits="userSpaceOnUse" gradientTransform="matrix(-1, 0, 0, 1, 200, 0)" cx="125.861" cy="84.497" r="10.213"><stop id="SvgjsStop3608" stop-color="rgb(255, 255, 255)" stop-opacity="1" offset="0" data-stoptype="#ffffff"/><stop id="SvgjsStop3609" stop-color="rgb(253, 254, 254)" stop-opacity="1" offset="0.544" data-stoptype="#fdfefe"/><stop id="SvgjsStop3610" stop-color="rgb(246, 248, 249)" stop-opacity="1" offset="0.74" data-stoptype="#f6f8f9"/><stop id="SvgjsStop3611" stop-color="rgb(234, 239, 242)" stop-opacity="1" offset="0.879" data-stoptype="#eaeff2"/><stop id="SvgjsStop3612" stop-color="rgb(217, 227, 232)" stop-opacity="1" offset="0.992" data-stoptype="#d9e3e8"/><stop id="SvgjsStop3613" stop-color="rgb(216, 226, 231)" stop-opacity="1" offset="1" data-stoptype="#d8e2e7"/></radialGradient><radialGradient class="svga-on-canvas-eyesback-gradient-right-0" id="SvgjsRadialGradient3615" gradientUnits="userSpaceOnUse" cx="125.861" cy="84.497" r="10.213"><stop id="SvgjsStop3616" stop-color="rgb(255, 255, 255)" stop-opacity="1" offset="0" data-stoptype="#ffffff"/><stop id="SvgjsStop3617" stop-color="rgb(253, 254, 254)" stop-opacity="1" offset="0.544" data-stoptype="#fdfefe"/><stop id="SvgjsStop3618" stop-color="rgb(246, 248, 249)" stop-opacity="1" offset="0.74" data-stoptype="#f6f8f9"/><stop id="SvgjsStop3619" stop-color="rgb(234, 239, 242)" stop-opacity="1" offset="0.879" data-stoptype="#eaeff2"/><stop id="SvgjsStop3620" stop-color="rgb(217, 227, 232)" stop-opacity="1" offset="0.992" data-stoptype="#d9e3e8"/><stop id="SvgjsStop3621" stop-color="rgb(216, 226, 231)" stop-opacity="1" offset="1" data-stoptype="#d8e2e7"/></radialGradient><radialGradient class="svga-on-canvas-eyesfront-gradient-left-0" id="SvgjsRadialGradient3623" gradientUnits="userSpaceOnUse" gradientTransform="matrix(-1, 0, 0, 1, 200, 0)" cx="125.861" cy="84.497" r="10.213"><stop id="SvgjsStop3624" stop-color="rgb(255, 255, 255)" stop-opacity="1" offset="0" data-stoptype="#ffffff"/><stop id="SvgjsStop3625" stop-color="rgb(253, 254, 254)" stop-opacity="1" offset="0.544" data-stoptype="#fdfefe"/><stop id="SvgjsStop3626" stop-color="rgb(246, 248, 249)" stop-opacity="1" offset="0.74" data-stoptype="#f6f8f9"/><stop id="SvgjsStop3627" stop-color="rgb(234, 239, 242)" stop-opacity="1" offset="0.879" data-stoptype="#eaeff2"/><stop id="SvgjsStop3628" stop-color="rgb(217, 227, 232)" stop-opacity="1" offset="0.992" data-stoptype="#d9e3e8"/><stop id="SvgjsStop3629" stop-color="rgb(216, 226, 231)" stop-opacity="1" offset="1" data-stoptype="#d8e2e7"/></radialGradient><radialGradient class="svga-on-canvas-eyesfront-gradient-left-3" id="SvgjsRadialGradient3633" gradientUnits="userSpaceOnUse" gradientTransform="matrix(0.9998, 0.0208, 0.0166, -0.7998, -48.8769, 148.139)" cx="123.755" cy="83.738" r="17.684" fx="136.189" fy="83.773"><stop id="SvgjsStop3634" stop-color="rgb(225, 172, 143)" stop-opacity="1" offset="0" data-stoptype="sd1"/><stop id="SvgjsStop3635" stop-color="rgb(225, 172, 143)" stop-opacity="0.3" offset="0.7" data-stoptype="sd1"/><stop id="SvgjsStop3636" stop-color="rgb(240, 199, 177)" stop-opacity="0" offset="1" data-stoptype="tone"/></radialGradient><radialGradient class="svga-on-canvas-eyesfront-gradient-left-4" id="SvgjsRadialGradient3638" gradientUnits="userSpaceOnUse" gradientTransform="matrix(-0.8746, -0.4848, -0.3636, 0.656, 221.333, 94.1879)" cx="122.636" cy="100.958" r="25.824"><stop id="SvgjsStop3639" stop-color="rgb(0, 0, 0)" stop-opacity="0" offset="0.94" data-stoptype="#000000"/><stop id="SvgjsStop3640" stop-color="rgb(0, 0, 0)" stop-opacity="0.2" offset="1" data-stoptype="#000000"/></radialGradient><radialGradient class="svga-on-canvas-eyesfront-gradient-right-0" id="SvgjsRadialGradient3644" gradientUnits="userSpaceOnUse" cx="125.861" cy="84.497" r="10.213"><stop id="SvgjsStop3645" stop-color="rgb(255, 255, 255)" stop-opacity="1" offset="0" data-stoptype="#ffffff"/><stop id="SvgjsStop3646" stop-color="rgb(253, 254, 254)" stop-opacity="1" offset="0.544" data-stoptype="#fdfefe"/><stop id="SvgjsStop3647" stop-color="rgb(246, 248, 249)" stop-opacity="1" offset="0.74" data-stoptype="#f6f8f9"/><stop id="SvgjsStop3648" stop-color="rgb(234, 239, 242)" stop-opacity="1" offset="0.879" data-stoptype="#eaeff2"/><stop id="SvgjsStop3649" stop-color="rgb(217, 227, 232)" stop-opacity="1" offset="0.992" data-stoptype="#d9e3e8"/><stop id="SvgjsStop3650" stop-color="rgb(216, 226, 231)" stop-opacity="1" offset="1" data-stoptype="#d8e2e7"/></radialGradient><radialGradient class="svga-on-canvas-eyesfront-gradient-right-3" id="SvgjsRadialGradient3654" gradientUnits="userSpaceOnUse" gradientTransform="matrix(-0.9998, 0.0208, -0.0166, -0.7998, 248.877, 148.139)" cx="123.755" cy="83.738" r="17.685" fx="136.19" fy="83.773"><stop id="SvgjsStop3655" stop-color="rgb(225, 172, 143)" stop-opacity="1" offset="0" data-stoptype="sd1"/><stop id="SvgjsStop3656" stop-color="rgb(225, 172, 143)" stop-opacity="0.3" offset="0.7" data-stoptype="sd1"/><stop id="SvgjsStop3657" stop-color="rgb(240, 199, 177)" stop-opacity="0" offset="1" data-stoptype="tone"/></radialGradient><radialGradient class="svga-on-canvas-eyesfront-gradient-right-4" id="SvgjsRadialGradient3659" gradientUnits="userSpaceOnUse" gradientTransform="matrix(0.8746, -0.4848, 0.3636, 0.656, -21.3328, 94.1879)" cx="122.636" cy="100.958" r="25.824"><stop id="SvgjsStop3660" stop-color="rgb(0, 0, 0)" stop-opacity="0" offset="0.94" data-stoptype="#000000"/><stop id="SvgjsStop3661" stop-color="rgb(0, 0, 0)" stop-opacity="0.2" offset="1" data-stoptype="#000000"/></radialGradient></defs></svg>