<svg xmlns="http://www.w3.org/2000/svg" class="svga-svg" id="svga-svgcanvas" style="position:relative;overflow:hidden;left:0px;top:0px;" viewBox="0 0 200 200" preserveAspectRatio="xMinYMin meet" xmlns:NS1="http://www.w3.org/2000/svg" NS1:xlink="http://www.w3.org/1999/xlink" version="1.1"><g id="svga-group-wrapper"><g id="svga-group-backs-single"/><g id="svga-group-subwrapper" transform="matrix(0.849999, 0, 0, 0.849999, 14.9793, 17.6579)" data-updown="0" data-leftright="0" data-dist="0" data-scaleX="0.84999937" data-scaleY="0.84999937" data-rotate="0"><g id="svga-group-hair-back" data-updown="0" data-leftright="0" data-dist="0" data-scaleX="1" data-scaleY="1" data-rotate="0"><path id="SvgjsPath3896" opacity="1" fill="#4c2d1e" stroke-width="none" d="M 146.969 104.885 c -46.51 -1.001 -92.949 0.02 -93.95 0.02 c -2.675 4.014 -4.176 11.498 -3.28 15.61 c 0.934 4.212 4.441 8.009 5.66 16.46 c 0.07 0.83 -0.04 1.71 0.3 2.76 c 0.35 1.001 2.022 3.206 3.34 3.44 c 0.129 -0.016 0.381 -0.046 0.5 -0.061 c 0.523 0.935 1.48 1.218 2.11 0.91 c 1.516 2.89 3.099 -0.453 5.14 1.32 c 3.383 2.757 3.832 0.049 6.58 -0.931 c 2.146 -0.04 5.034 3.43 7.71 0.761 c 5.499 -5.354 8.082 4.5 12.97 1.869 c 1 -0.506 3.922 -2.7 5.96 -1.42 c 3.889 -2.455 5.717 5.161 11.56 -0.05 c 5.623 -5.015 6.653 1.352 10.72 0.51 c 1.852 -0.43 2.478 -1.777 4.35 -1.67 c 2.654 1.003 3.25 3.637 6.57 0.931 c 2.014 -1.75 3.577 1.521 5.141 -1.32 c 0.62 0.311 1.589 0.028 2.109 -0.91 c 0.12 0.015 0.38 0.045 0.51 0.061 c 1.243 -0.235 2.975 -2.42 3.341 -3.44 c 0.488 -1.559 -0.315 -5.524 3.609 -13.46 C 151.914 118.111 151.265 110.834 146.969 104.885 Z" data-colored="true" data-filltype="sd2" data-stroketype="none"/><path id="SvgjsPath3897" opacity="1" fill="#3d2012" stroke-width="none" d="M 146.969 104.885 c -46.51 -1.001 -92.949 0.02 -93.95 0.02 c -2.675 4.014 -4.176 11.498 -3.28 15.61 c 0.934 4.212 4.441 8.009 5.66 16.46 c 0.07 0.83 -0.04 1.71 0.3 2.76 c 0.35 1.001 2.022 3.206 3.34 3.44 c 0.129 -0.016 0.381 -0.046 0.5 -0.061 c 0.523 0.935 1.48 1.218 2.11 0.91 c 1.516 2.89 3.099 -0.453 5.14 1.32 c 3.383 2.757 3.832 0.049 6.58 -0.931 c 2.146 -0.04 5.034 3.43 7.71 0.761 c 5.499 -5.354 8.082 4.5 12.97 1.869 c 1 -0.506 3.922 -2.7 5.96 -1.42 c 3.889 -2.455 5.717 5.161 11.56 -0.05 c 5.623 -5.015 6.653 1.352 10.72 0.51 c 1.852 -0.43 2.478 -1.777 4.35 -1.67 c 2.654 1.003 3.25 3.637 6.57 0.931 c 2.014 -1.75 3.577 1.521 5.141 -1.32 c 0.62 0.311 1.589 0.028 2.109 -0.91 c 0.12 0.015 0.38 0.045 0.51 0.061 c 1.243 -0.235 2.975 -2.42 3.341 -3.44 c 0.488 -1.559 -0.315 -5.524 3.609 -13.46 C 151.914 118.111 151.265 110.834 146.969 104.885 Z M 147.039 125.775 c -5.513 10.228 -2.238 14.543 -6.01 16.14 c -0.05 0 -0.09 0.011 -0.141 0.03 c -0.312 -0.07 -0.85 -0.322 -1.14 -0.46 c -0.006 0.015 -0.19 0.59 -0.36 1.04 c -0.058 0.078 -0.041 0.102 -0.199 0.26 c -0.051 0.021 -0.09 0.05 -0.13 0.08 c -0.37 0.084 -0.932 -0.389 -1.28 -0.63 c -0.951 2.268 -1.016 1.841 -1.86 1.57 c -2.987 -0.938 -3.279 0.839 -4.62 1.39 c -1.356 0.511 -2.175 -1.354 -4.46 -2.03 c -2.538 -0.171 -3.387 1.449 -4.89 1.75 c -2.598 0.548 -5.365 -5.445 -11.05 0.08 c -5.063 4.924 -6.429 -2.163 -10.91 0.24 c -4.396 -2.515 -5.807 4.695 -10.95 -0.3 c -5.512 -5.221 -8.704 -0.136 -9.84 0.01 c -1.911 0.413 -2.582 -1.3 -5.19 -1.8 c -2.841 0 -3.702 2.653 -5.31 2.05 c -1.344 -0.553 -1.628 -2.329 -4.62 -1.39 c -1 0.32 -1.005 0.471 -1.86 -1.57 c -0.344 0.238 -0.908 0.715 -1.28 0.63 c -0.04 -0.03 -0.08 -0.06 -0.13 -0.08 c -0.379 -0.509 -0.325 -0.681 -0.56 -1.3 c 0.191 -0.098 -0.692 0.358 -1.14 0.46 c -0.04 -0.02 -0.09 -0.03 -0.13 -0.03 c -0.2 -0.08 -0.47 -0.35 -0.73 -0.67 c -1.661 -2.134 -1.418 -1.179 -1.63 -4.35 c -1.82 -12.19 -11.412 -17.353 -3.55 -31.81 c 30.144 0.618 62.703 0.696 93.88 0.02 C 151.487 113.794 150.327 119.547 147.039 125.775 Z" data-colored="true" data-filltype="sd3" data-stroketype="none"/></g><g id="svga-group-humanbody-single"><path id="SvgjsPath2893" opacity="1" fill="#f0c7b1" stroke="none" stroke-width="none" d="M 195.417 199.778 c -2.196 -4.746 -8.195 -11.779 -14.86 -13.722 c -8.239 -2.403 -26.837 -5.308 -33.733 -6.923 c -5.528 -1.296 -16.662 -11.294 -20.564 -14.65 c -0.7 -0.6 -1.273 -1.839 -1.287 -2.76 c -0.139 -10.864 4.195 -39.724 4.195 -39.724 H 100 H 70.833 c 0 0 4.334 28.859 4.193 39.724 c -0.011 0.921 -0.587 2.16 -1.285 2.76 c -3.902 3.356 -15.036 13.354 -20.564 14.65 c -6.897 1.615 -25.495 4.619 -33.733 7.022 c -6.667 1.942 -12.664 8.876 -14.86 13.622 c -3.708 8.008 -4.584 22.5 -4.584 35 h 100 h 100 C 200 222.278 199.123 207.786 195.417 199.778 Z" data-colored="true" data-filltype="tone" data-stroketype="none" data-fromskin="true"/><path id="SvgjsPath2894" opacity="1" fill="#ffe4d6" stroke="none" stroke-width="none" d="M 159.156 184.058 c 24.342 3.542 34.586 8.708 37.794 50.721 H 200 c 0 -12.5 -0.877 -26.992 -4.583 -35 c -2.196 -4.746 -8.195 -11.779 -14.86 -13.722 c -8.239 -2.403 -26.837 -5.308 -33.733 -6.923 c -5.528 -1.296 -18.242 -12.069 -21.643 -16.35 c 3.36 4.704 12.791 15.605 21.054 18.46 C 150.188 182.61 153.48 183.232 159.156 184.058 Z M 53.766 181.244 c 8.263 -2.854 17.693 -13.756 21.054 -18.46 c -3.4 4.28 -16.114 15.054 -21.643 16.35 c -6.896 1.615 -25.494 4.619 -33.733 7.022 c -6.665 1.942 -12.664 8.876 -14.86 13.622 c -3.706 8.008 -4.583 22.5 -4.583 35 h 3.05 c 3.188 -41.744 13.475 -47.183 37.794 -50.721 C 46.52 183.232 49.813 182.61 53.766 181.244 Z" data-colored="true" data-filltype="hl1" data-stroketype="none" data-fromskin="true"/><path id="SvgjsPath2895" opacity="1" fill="#e1ac8f" stroke="none" stroke-width="none" d="M 95.646 197.62 c 0 0 -5.074 -1.609 -7.083 -2.379 c -10.449 -4.009 -44.395 -6.607 -44.395 -6.607 s 35.754 1.419 43.644 2.779 c -0.458 -4.767 -3.017 -20.004 -3.017 -20.004 s 5.149 16.815 6.409 21.057 C 91.878 194.734 95.646 197.62 95.646 197.62 Z M 106.445 196.278 c -0.089 0.073 -0.191 0.168 -0.302 0.268 C 106.256 196.461 106.358 196.372 106.445 196.278 Z M 95.646 197.62 c 0 0 2.893 2.992 4.347 3.03 c 1.91 0.051 4.828 -2.899 6.151 -4.104 c -1.265 0.957 -4.159 1.391 -5.31 1.436 C 99.504 198.033 95.646 197.62 95.646 197.62 Z M 116.664 190.101 c -1.545 0.248 -4.386 0.789 -4.386 0.789 l 2.287 -14.89 c -0.646 3.071 -4.474 16.211 -8.12 20.278 c 1.91 -1.616 6.158 -2.391 8.324 -2.704 c 10.236 -1.484 10.232 -1.483 41.062 -4.94 C 155.831 188.634 126.76 188.479 116.664 190.101 Z" data-colored="true" data-filltype="sd1" data-stroketype="none" data-fromskin="true"/><path id="SvgjsPath2896" opacity="1" fill="none" stroke="#c27b55" stroke-width="1.5" d="M 195.417 199.778 c -2.196 -4.746 -8.195 -11.779 -14.86 -13.722 c -8.239 -2.403 -26.837 -5.308 -33.733 -6.923 c -5.528 -1.296 -16.662 -11.294 -20.564 -14.65 c -0.7 -0.6 -1.273 -1.839 -1.287 -2.76 c -0.139 -10.864 4.195 -39.724 4.195 -39.724 H 100 H 70.833 c 0 0 4.334 28.859 4.193 39.724 c -0.011 0.921 -0.587 2.16 -1.285 2.76 c -3.902 3.356 -15.036 13.354 -20.564 14.65 c -6.897 1.615 -25.495 4.619 -33.733 7.022 c -6.667 1.942 -12.664 8.876 -14.86 13.622 c -3.708 8.008 -4.584 22.5 -4.584 35 h 100 h 100 C 200 222.278 199.123 207.786 195.417 199.778 Z" data-colored="true" data-filltype="none" data-stroketype="sd3" data-fromskin="true"/></g><g id="svga-group-chinshadow-single"><path id="SvgjsPath3113" opacity="1" fill="url(#SvgjsLinearGradient3114)" d="M 100.021 171.866 c 8.183 0 16.871 -4.943 24.199 -10.675 c -0.001 -6.702 1.451 -19.105 2.652 -28.205 c -15.382 -2.247 -38.406 -2.279 -53.766 -0.152 c 1.184 8.96 2.625 21.206 2.671 28.02 C 83.119 166.767 91.822 171.866 100.021 171.866 Z" data-colored="false" data-filltype="gradient" data-stroketype="none" data-fromskin="true"/></g><g id="svga-group-clothes-single" data-updown="0" data-leftright="0" data-dist="0" data-scaleX="1" data-scaleY="1" data-rotate="0"><path id="SvgjsPath3472" opacity="1" fill="#f5f4f5" stroke-width="none" d="M 42.77 235.757 l 1.323 -60.852 c 0 0 10.194 -2.487 16.635 -6.313 c 17.496 21.953 69.451 17.333 78.336 -0.62 c 1.489 0.525 2.721 1.197 4.262 1.713 c 5 3.386 9.213 4.494 9.213 4.494 l 0.935 61.685 C 139.188 236.052 42.77 235.757 42.77 235.757 Z" data-colored="false" data-filltype="#f5f4f5" data-stroketype="none"/><path id="SvgjsPath3473" opacity="1" fill="#ffffff" stroke-width="none" d="M 154.014 177.705 c -4.236 -0.719 -7.611 -1.697 -9.452 -3.544 c -5.343 10.025 -26.763 16.378 -33.855 17.309 c 20.554 -6.276 29.188 -10.813 32.598 -21.583 c 1.99 2.383 6.522 3.549 12.313 4.538 L 154.014 177.705 Z M 52.67 174.381 c 1.454 -0.312 2.18 -1.234 3.623 -1.593 l -1.528 -1.867 c -3.114 2.234 -8.971 3.305 -15.9 4.424 l 0.188 3.738 c 3.956 -0.79 7.817 -1.788 11.429 -3.323 c 7.483 8.485 19.168 12.659 31.06 14.387 C 66.624 186.562 58.07 180.511 52.67 174.381 Z" data-colored="false" data-filltype="#ffffff" data-stroketype="none"/><path id="SvgjsPath3474" opacity="1" fill="#dfdde2" stroke-width="none" d="M 137.861 170.055 c -5.929 11.361 -50.74 24.595 -76.009 0.866 c -1.571 0.615 -6.271 2.085 -6.271 2.085 c 18.406 23.08 72.345 23.227 86.702 -0.112 C 142.221 172.87 139.321 170.737 137.861 170.055 Z" data-colored="false" data-filltype="#dfdde2" data-stroketype="none"/><path id="SvgjsPath3475" opacity="1" fill="#b8b6c9" stroke-width="none" d="M 139.008 167.841 c -10.087 18.575 -62.578 21.204 -78.239 0.625 c -5.72 1.556 -11.219 4.876 -16.756 5.707 l -1.243 61.584 l 110.703 0.107 l -0.855 -62.386 c -3.369 -0.707 -6.501 -2.737 -9.254 -3.894 C 141.842 168.945 140.55 168.37 139.008 167.841 Z M 60.39 169.087 c 13.903 23.086 68.817 18.455 79.419 0.099 c 1.286 0.499 1.615 0.696 3.106 1.183 c -10.982 21.208 -65.306 27.967 -87.525 1.147 C 55.546 171.476 58.823 169.629 60.39 169.087 Z M 54.287 172.418 c 17.963 27.046 77.26 22.856 89.583 -1.287 c 1.771 1.391 4.53 2.989 7.936 3.735 l 1.66 59.08 l -110.377 0.016 l 1.904 -58.299 C 47.777 174.264 52.247 173.232 54.287 172.418 Z" data-colored="false" data-filltype="#b8b6c9" data-stroketype="none"/><path id="SvgjsPath3476" opacity="1" fill="#386e77" stroke-width="none" d="M -4.529 235.566 c -2.574 -13.852 -2.292 -47.592 9.013 -47.521 c 13.136 -5.311 29.269 -11.404 42.802 -15.311 c 6.908 -7.246 13.436 -14.137 26.188 -21.314 c 0.389 2.599 1.874 8.541 0.011 11.773 c -1.355 2.352 -5.783 5.576 -9.554 8.368 c -2.029 2.72 -3.927 5.374 -6.599 9.089 c 5.168 22.301 9.601 33.78 10.097 53.123 c 0 0 -1.452 0.689 64.471 0.397 c 2.215 -22.339 4.993 -33.561 10.379 -54.098 c 0 0 -4.308 -5.014 -7.207 -8.87 c -2.054 -1.997 -8.36 -7.532 -8.84 -8.651 c -1.175 -2.741 -0.548 -6.188 0.11 -11.367 c 10.793 4.873 17 12.021 26.082 21.303 c 7.729 2.119 30.86 9.967 42.445 15.216 c 3.965 -0.11 6.203 1.999 7.872 5.466 c 5.405 11.195 4.126 27.297 2.18 42.789 C 185.83 235.989 49.887 238.17 -4.529 235.566 Z" data-colored="true" data-filltype="tone" data-stroketype="none"/><path id="SvgjsPath3477" opacity="1" fill="#265e68" stroke-width="none" d="M 73.875 154.081 c 0.16 1.07 0.304 2.085 0.411 3.041 c -0.218 0.266 -17.212 23.353 -17.336 23.525 C 61.126 171.148 67.1 161.305 73.875 154.081 Z M 126.053 154.081 c -0.159 1.07 -0.184 2.085 -0.291 3.041 c 0.218 0.266 16.931 22.469 17.054 22.642 C 138.391 170.914 132.828 161.305 126.053 154.081 Z M 165.008 185.154 c -4.28 6.231 -5.194 8.382 -9.879 14.557 c 1.071 0 2.799 0.166 3.87 0.166 C 162.663 193.592 162.67 190.393 165.008 185.154 Z M 169.394 230.379 c 3.793 -8.9 6.934 -16.711 10.739 -25.624 l -1.247 -2.014 C 175.717 211.896 172.354 221.199 169.394 230.379 Z M 41.048 199.877 c 1.071 0 2.799 -0.166 3.871 -0.166 c -4.685 -6.175 -5.599 -6.561 -9.878 -12.792 C 37.377 192.158 37.384 193.592 41.048 199.877 Z M 21.161 202.741 l -1.247 2.014 c 3.806 8.913 4.765 16.724 8.559 25.624 C 25.512 221.199 24.33 211.896 21.161 202.741 Z" data-colored="true" data-filltype="sd1" data-stroketype="none"/><path id="SvgjsPath3478" opacity="1" fill="#184f58" stroke-width="none" d="M 65.638 169.283 c 1.181 -1.646 5.237 -7.272 8.601 -12.561 C 75.227 162.179 73.413 165.416 65.638 169.283 Z M 125.74 156.36 c 2.553 4.396 5.562 8.772 8.664 12.803 C 126 165.336 125.435 161.423 125.74 156.36 Z" data-colored="true" data-filltype="sd2" data-stroketype="none"/><path id="SvgjsPath3479" opacity="1" fill="#4d7e86" stroke-width="none" d="M 126.318 151.359 c 0.008 -0.061 0.017 -0.118 0.023 -0.174 c 18.093 9.999 28.576 25.02 40.747 36.217 c -0.448 0.721 -1.228 1.193 -1.687 1.905 C 152.656 179.609 146.599 164.946 126.318 151.359 Z M 71.736 152.022 c -15.034 8.213 -36.242 33.357 -38.318 35.269 c 0.448 0.724 0.691 0.577 1.15 1.288 C 47.314 178.882 50.793 169.283 71.736 152.022 Z M 194.869 187.704 c -1 -0.799 -24.646 -10.039 -42.59 -14.969 c 33.698 16.299 45.587 18.545 51.471 24.321 C 203.367 196.057 202.586 187.489 194.869 187.704 Z M 47.458 172.555 c -13.524 3.914 -30.839 10.098 -42.975 15.491 c -5.364 0.106 -9.208 7.93 -10.031 16.084 C 1.914 187.317 -1.773 198.62 47.458 172.555 Z" data-colored="true" data-filltype="hl1" data-stroketype="none"/><path id="SvgjsPath3480" opacity="1" fill="#0c4049" stroke-width="none" d="M 206.6 210.062 c -0.34 -8.635 -3.055 -23.103 -11.691 -22.46 c -0.714 -0.61 -20.822 -9.767 -42.285 -15.611 c -7.353 -7.455 -16.515 -17.598 -26.371 -20.957 c -0.711 6.428 -1.477 10.622 0.216 12.714 c 2.241 2.439 4.93 4.879 7.568 6.522 c 4.616 6.136 8.139 9.778 8.139 9.778 c -5.43 20.703 -8.815 31.314 -10.973 53.688 H 68.798 c -2.157 -22.373 -5.543 -32.984 -10.973 -53.688 c 0 0 3.522 -3.643 8.139 -9.778 c 2.639 -1.644 5.327 -4.083 7.568 -6.522 c 1.692 -2.092 0.927 -6.286 0.216 -12.714 c -9.856 3.359 -19.019 13.502 -26.371 20.957 c -21.463 5.845 -41.571 15.001 -42.285 15.611 c -8.637 -0.643 -11.352 13.825 -11.691 22.46 c -0.411 10.487 1.435 24.938 1.585 25.938 h 210.029 C 205.165 234.999 207.011 220.549 206.6 210.062 Z M 72.984 163.194 c -2.258 2.233 -3.658 3.181 -6.473 5.282 c 4.829 -6.271 4.341 -5.433 7.708 -11.229 C 74.37 159.739 73.433 162.751 72.984 163.194 Z M -3.172 234.028 c -1.082 -12.844 -2.916 -24.41 0.43 -36.992 c 1.281 -4.827 2.484 -8.095 7.455 -8.509 c 1.067 5.538 8.132 28.724 14.298 44.533 c -6.226 -24.192 -5.311 -18.81 -8.219 -28.452 c -0.964 -3.235 -1.854 -6.486 -2.979 -9.672 c -0.783 -2.214 -1.65 -4.387 -2.262 -6.653 l 40.433 -14.865 c -0.279 0.283 -12.895 13.434 -13.199 13.804 c 1.847 3.021 7.816 7.222 10.845 11.758 c -12.436 1.174 -18.508 3.173 -23 3.84 c 0.331 0.919 9.061 25.353 9.976 27.656 c -1.479 -7.917 -4.816 -20.297 -8.637 -27.211 c 1.41 -0.179 18.077 -2.492 23.393 -3.477 c -1.476 -2.854 -8.043 -8.437 -11.559 -12.619 c 20.646 -18.162 25.422 -27.402 39.593 -35.454 c 0.15 1.509 0.443 3.011 0.55 4.519 c -15.795 23.533 -17.649 23.567 -17.649 23.567 c 4.585 17.81 10.532 35.824 10.532 54.073 L -3.172 234.028 Z M 127.016 163.194 c -0.448 -0.443 -1.386 -3.455 -1.235 -5.947 c 3.367 5.797 2.879 4.958 7.708 11.229 C 130.674 166.375 129.273 165.428 127.016 163.194 Z M 203.172 234.028 l -70 -0.154 c 0 -18.249 5.947 -36.264 10.532 -54.073 c 0 0 -1.854 -0.034 -17.649 -23.567 c 0.106 -1.508 0.399 -3.01 0.55 -4.519 c 14.171 8.052 18.946 17.292 39.593 35.454 c -3.516 4.183 -10.083 9.766 -11.559 12.619 c 5.315 0.984 21.982 3.298 23.393 3.477 c -3.82 6.914 -7.157 19.294 -8.637 27.211 c 0.915 -2.304 9.645 -26.737 9.976 -27.656 c -4.492 -0.667 -10.564 -2.666 -23 -3.84 c 3.028 -4.536 8.998 -8.736 10.845 -11.758 c -0.305 -0.37 -12.92 -13.521 -13.199 -13.804 c 0.001 0 40.433 14.865 40.433 14.865 c -0.611 2.267 -1.479 4.439 -2.262 6.653 c -1.125 3.186 -2.015 6.437 -2.979 9.672 c -2.908 9.643 -1.993 4.26 -8.219 28.452 c 6.166 -15.81 13.23 -38.995 14.298 -44.533 c 4.971 0.414 6.174 3.682 7.455 8.509 C 206.088 209.618 204.254 221.185 203.172 234.028 Z" data-colored="true" data-filltype="sd3" data-stroketype="none"/></g><g id="svga-group-head" data-updown="0" data-leftright="0" data-dist="0" data-scaleX="1" data-scaleY="1" data-rotate="0"><g id="svga-group-ears-left" data-updown="0" data-leftright="0" data-dist="0" data-scaleX="1" data-scaleY="1" data-rotate="0"><path id="SvgjsPath2906" opacity="1" fill="#f0c7b1" stroke="#c27b55" stroke-width="1.5" d="M 45.671 84.344 c -1.485 -2.462 -6.327 -9.199 -10.031 -8.254 c -3.012 0.772 -2.973 4.971 -3.206 7.455 c -0.34 3.644 -0.464 9.992 0.525 12.568 c 0.951 2.473 3.96 7.252 5.828 9.075 c 2.299 2.235 5.97 9.358 6.422 10.097 c 0.711 1.168 2.137 2.84 4.325 2.708 c 3.071 -0.185 5.724 -3.087 5.965 -4.485 C 56.8 105.918 49.536 90.75 45.671 84.344 Z" data-colored="true" data-filltype="tone" data-stroketype="sd3"/><path id="SvgjsPath2907" opacity="1" fill="#c27b55" stroke="none" stroke-width="none" d="M 44.2 99.341 c -0.143 -0.563 0.007 -1.513 0.154 -2.429 c 0.133 -0.835 0.258 -1.624 0.182 -2.182 c -0.289 -2.09 -1.915 -6.06 -2.976 -8.212 c -1.223 -2.476 -3.199 -5.595 -5.679 -6.399 c -1.024 -0.333 -1.699 0.065 -2.089 0.468 c -0.288 0.296 -0.353 0.645 -0.259 0.687 c 0.095 0.041 0.307 -0.248 0.617 -0.519 c 0.254 -0.222 -0.508 -0.04 0 0 c -0.205 1.04 -0.865 6.302 -0.41 10.143 c 0.358 3.022 1.05 5.279 1.263 5.617 c 0.031 0.356 0.083 0.705 0.16 1.043 c 1.002 4.41 7.518 10.177 9.034 11.82 c 0.28 0.303 0.574 0.483 0.646 0.409 s -0.101 -0.373 -0.379 -0.678 c -1.498 -1.632 -7.971 -7.381 -8.939 -11.635 c -1.027 -4.514 3.912 -11.207 4.699 -12.623 c 0.401 0.665 0.742 1.303 1.004 1.835 c 0.207 0.417 0.434 0.906 0.67 1.435 c -0.463 0.738 -5.118 6.127 -3.934 10.441 c 0.438 1.591 3.822 3.642 5.131 4.203 c 0.72 0.31 0.99 0.772 1.304 1.306 c 0.364 0.624 0.033 2.229 1.23 2.739 c 0.244 0.104 0.464 0.146 0.659 0.146 c 0.338 0 0.594 -0.13 0.783 -0.284 c 0.02 0.271 0.019 0.619 0.009 0.941 c -0.012 0.418 0.047 0.609 0.148 0.617 c 0.103 0.009 0.21 -0.174 0.223 -0.587 c 0.017 -0.51 0.014 -1.141 -0.077 -1.444 c -0.269 -0.889 -1.088 -1.894 -1.957 -2.957 C 44.563 102.197 44.422 100.213 44.2 99.341 Z M 34.969 95.432 c -2.348 -6.923 1.283 -13.229 1.81 -14.179 c 1.012 0.399 2.562 2.193 3.221 3.235 C 39.52 85.321 35.067 90.775 34.969 95.432 Z M 45.772 106.464 c -1.084 -0.462 -0.706 -1.984 -1.056 -2.584 c -0.318 -0.542 -0.646 -1.102 -1.479 -1.46 c -0.18 -0.078 -0.379 -0.196 -0.583 -0.332 c -2.682 -6.075 0.293 -8.73 1.039 -9.273 c 0.229 0.742 0.399 1.423 0.476 1.97 c 0.068 0.5 -0.059 1.298 -0.181 2.068 c -0.153 0.955 -0.31 1.944 -0.147 2.584 c 0.244 0.953 0.411 2.97 1.291 4.048 c 0.781 0.956 1.583 1.942 1.857 2.746 C 46.871 106.391 46.5 106.775 45.772 106.464 Z" data-colored="true" data-filltype="sd3" data-stroketype="none"/></g><g id="svga-group-ears-right" data-updown="0" data-leftright="0" data-dist="0" data-scaleX="1" data-scaleY="1" data-rotate="0"><path id="SvgjsPath2908" opacity="1" fill="#f0c7b1" stroke="#c27b55" stroke-width="1.5" d="M 154.066 84.344 c 1.486 -2.462 6.328 -9.199 10.031 -8.254 c 3.012 0.772 2.973 4.971 3.207 7.455 c 0.34 3.644 0.463 9.992 -0.525 12.568 c -0.951 2.473 -3.961 7.252 -5.828 9.075 c -2.299 2.235 -5.971 9.358 -6.422 10.097 c -0.711 1.168 -2.137 2.84 -4.326 2.708 c -3.07 -0.185 -5.723 -3.087 -5.965 -4.485 C 142.938 105.918 150.203 90.75 154.066 84.344 Z" data-colored="true" data-filltype="tone" data-stroketype="sd3"/><path id="SvgjsPath2909" opacity="1" fill="#c27b55" stroke="none" stroke-width="none" d="M 154.322 103.243 c -0.869 1.063 -1.688 2.068 -1.957 2.957 c -0.092 0.304 -0.094 0.935 -0.078 1.444 c 0.014 0.413 0.121 0.596 0.225 0.587 c 0.102 -0.008 0.16 -0.199 0.148 -0.617 c -0.01 -0.322 -0.012 -0.67 0.008 -0.941 c 0.189 0.154 0.445 0.284 0.783 0.284 c 0.195 0 0.416 -0.042 0.66 -0.146 c 1.195 -0.511 0.865 -2.116 1.229 -2.739 c 0.314 -0.534 0.584 -0.997 1.305 -1.306 c 1.309 -0.561 4.693 -2.611 5.131 -4.203 c 1.184 -4.314 -3.471 -9.704 -3.934 -10.441 c 0.234 -0.529 0.463 -1.018 0.668 -1.435 c 0.264 -0.532 0.604 -1.171 1.006 -1.835 c 0.787 1.416 5.725 8.108 4.699 12.623 c -0.969 4.254 -7.441 10.003 -8.939 11.635 c -0.279 0.305 -0.453 0.604 -0.381 0.678 c 0.074 0.074 0.367 -0.106 0.646 -0.409 c 1.516 -1.643 8.031 -7.41 9.033 -11.82 c 0.078 -0.338 0.131 -0.687 0.162 -1.043 c 0.211 -0.337 0.904 -2.594 1.262 -5.617 c 0.455 -3.841 -0.205 -9.103 -0.41 -10.143 c 0.508 -0.04 -0.254 -0.222 0 0 c 0.311 0.271 0.523 0.56 0.617 0.519 c 0.094 -0.042 0.029 -0.39 -0.258 -0.687 c -0.391 -0.403 -1.066 -0.801 -2.09 -0.468 c -2.48 0.804 -4.457 3.923 -5.68 6.399 c -1.061 2.152 -2.686 6.122 -2.975 8.212 c -0.076 0.558 0.049 1.347 0.182 2.182 c 0.146 0.916 0.297 1.866 0.154 2.429 C 155.316 100.213 155.176 102.197 154.322 103.243 Z M 159.738 84.488 c 0.66 -1.042 2.209 -2.835 3.221 -3.235 c 0.527 0.95 4.158 7.256 1.811 14.179 C 164.672 90.775 160.219 85.321 159.738 84.488 Z M 152.75 106.229 c 0.273 -0.804 1.076 -1.79 1.857 -2.746 c 0.879 -1.078 1.047 -3.095 1.291 -4.048 c 0.162 -0.64 0.006 -1.629 -0.146 -2.584 c -0.123 -0.77 -0.25 -1.568 -0.182 -2.068 c 0.076 -0.547 0.246 -1.228 0.475 -1.97 c 0.746 0.543 3.721 3.199 1.039 9.273 c -0.203 0.136 -0.402 0.254 -0.584 0.332 c -0.832 0.358 -1.16 0.918 -1.479 1.46 c -0.35 0.6 0.029 2.123 -1.055 2.584 C 153.238 106.775 152.867 106.391 152.75 106.229 Z" data-colored="true" data-filltype="sd3" data-stroketype="none"/></g><g id="svga-group-faceshape-wrap" data-updown="0" data-leftright="0" data-dist="0" data-scaleX="1" data-scaleY="1" data-rotate="0"><g id="svga-group-faceshape-single" data-updown="0" data-leftright="0" data-dist="0" data-scaleX="1" data-scaleY="1" data-rotate="0"><path id="SvgjsPath3110" opacity="1" fill="#f0c7b1" stroke-width="none" d="M 158.785 78.006 l -0.005 0 c -0.01 0.046 -12.197 40.27 -15.879 52.418 c -0.715 2.358 -1.931 4.551 -3.556 6.386 c -6.375 7.194 -23.768 25.057 -39.324 25.057 c -15.849 0 -33.591 -19.045 -39.708 -26.214 c -1.442 -1.688 -2.507 -3.633 -3.172 -5.765 c -3.607 -11.551 -16.126 -51.648 -16.137 -51.694 h -0.001 c -1.298 -4.992 -1.994 -10.231 -2.002 -15.634 C 38.949 28.536 66.155 0.92 99.773 0.867 c 33.621 -0.053 60.913 27.476 60.964 61.499 C 160.746 67.769 160.068 73.01 158.785 78.006 Z" data-colored="true" data-filltype="tone" data-stroketype="none"/><path id="SvgjsPath3111" opacity="1" fill="#e8b9a0" stroke-width="none" d="M 132.168 10.26 c 14.31 11.135 23.671 29.457 23.699 50.208 c 0.009 5.404 -0.615 10.645 -1.796 15.641 l -0.004 0 c -0.009 0.046 -11.223 40.27 -14.608 52.417 c -0.658 2.358 -1.776 4.551 -3.271 6.385 c -5.865 7.195 -21.866 25.059 -36.178 25.059 c -14.582 0 -30.904 -19.047 -36.531 -26.215 c -1.327 -1.689 -2.306 -3.633 -2.918 -5.764 c -3.318 -11.552 -14.836 -51.649 -14.846 -51.695 h -0.001 c -1.194 -4.992 -1.834 -10.231 -1.842 -15.634 c -0.029 -20.827 9.348 -39.239 23.713 -50.412 C 50.392 21.159 38.967 40.508 39.001 62.56 c 0.008 5.403 0.704 10.643 2.002 15.634 h 0.001 c 0.01 0.046 12.53 40.143 16.137 51.694 c 0.666 2.132 1.73 4.076 3.172 5.765 c 6.116 7.169 23.858 26.214 39.708 26.214 c 15.557 0 32.949 -17.862 39.324 -25.057 c 1.625 -1.835 2.841 -4.027 3.556 -6.386 c 3.682 -12.148 15.869 -52.372 15.879 -52.418 l 0.005 0 c 1.283 -4.997 1.961 -10.237 1.952 -15.641 C 160.704 40.389 149.297 21.135 132.168 10.26 Z" data-colored="true" data-filltype="sd05" data-stroketype="none"/><path id="SvgjsPath3112" opacity="1" fill="none" stroke="#c27b55" stroke-width="1.5" d="M 158.785 78.006 l -0.005 0 c -0.01 0.046 -12.197 40.27 -15.879 52.418 c -0.715 2.358 -1.931 4.551 -3.556 6.386 c -6.375 7.194 -23.768 25.057 -39.324 25.057 c -15.849 0 -33.591 -19.045 -39.708 -26.214 c -1.442 -1.688 -2.507 -3.633 -3.172 -5.765 c -3.607 -11.551 -16.126 -51.648 -16.137 -51.694 h -0.001 c -1.298 -4.992 -1.994 -10.231 -2.002 -15.634 C 38.949 28.536 66.155 0.92 99.773 0.867 c 33.621 -0.053 60.913 27.476 60.964 61.499 C 160.746 67.769 160.068 73.01 158.785 78.006 Z" data-colored="true" data-filltype="none" data-stroketype="sd3"/></g></g><g id="svga-group-mouth-single" data-updown="0" data-leftright="0" data-dist="0" data-scaleX="1" data-scaleY="1" data-rotate="0"><path id="SvgjsPath3741" opacity="1" fill="url(#SvgjsLinearGradient3742)" d="M 100.389 141.808 c -3.458 0 -4.907 -2.678 -4.907 -2.678 l 9.74 -0.188 C 105.222 138.941 103.433 141.808 100.389 141.808 Z" data-colored="false" data-filltype="gradient" data-stroketype="none" data-fromskin="true"/><path id="SvgjsPath3745" opacity="1" fill="#c27b55" stroke-width="none" d="M 98.82 139.206 c -1.781 0 -3.136 -0.171 -3.231 -0.184 c -0.146 -0.02 -0.248 -0.146 -0.228 -0.282 c 0.02 -0.138 0.157 -0.227 0.301 -0.214 c 0.04 0.006 6.084 0.5 9.357 -0.195 c 0.156 -0.03 0.289 0.057 0.321 0.189 c 0.031 0.135 -0.06 0.269 -0.202 0.299 C 103.729 139.118 100.096 139.206 98.82 139.206 Z M 84.391 133.824 c -0.365 -0.663 4.097 0.111 6.79 -0.551 c 2.98 -0.732 6.101 0.208 9.133 0.479 c 2.382 0.213 4.838 -0.975 7.191 -0.436 c 3.261 0.747 8.236 -0.196 7.843 0.594 c -0.273 0.548 -4.893 1.05 -7.524 0.604 c -2.301 -0.39 -4.683 0.556 -7.006 0.73 c -2.885 0.217 -5.767 -1.385 -8.614 -0.933 C 88.922 134.832 84.701 134.388 84.391 133.824 Z" data-colored="true" data-filltype="sd3" data-stroketype="none" data-fromskin="true"/></g><g id="svga-group-eyes-left" data-updown="0" data-leftright="0" data-dist="0" data-scaleX="1" data-scaleY="1" data-rotate="0"><g id="svga-group-eyesback-left"><path id="SvgjsPath3814" opacity="1" fill="url(#SvgjsRadialGradient3815)" d="M 61.752 82.523 c -0.506 -2.285 5.191 -3.973 12.711 -3.051 c 7.518 0.923 12.738 5.524 12.052 7.844 c -0.38 1.286 -10.639 3.245 -14.253 2.847 C 68.598 89.758 62.974 88.04 61.752 82.523 Z" data-colored="false" data-filltype="gradient" data-stroketype="none"/></g><g id="svga-group-eyesiriswrapper-left" transform="translate(0.25 0.25)"><g id="svga-group-eyesiriscontrol-left" data-updown="0" data-leftright="0" data-dist="0" data-scaleX="1" data-scaleY="1" data-rotate="0"><g id="svga-group-eyesiris-left" data-updown="0" data-leftright="0" data-dist="0" data-scaleX="1" data-scaleY="1" data-rotate="0"><path id="SvgjsPath3878" opacity="1" fill="#4e60a3" stroke="#152975" stroke-width="0.5" d="M 79.788 85.588 c -0.869 3.192 -4.162 5.073 -7.361 4.196 c -3.197 -0.876 -5.084 -4.178 -4.214 -7.371 c 0.869 -3.195 4.168 -5.076 7.365 -4.198 C 78.772 79.09 80.659 82.392 79.788 85.588 Z" data-colored="true" data-filltype="tone" data-stroketype="sd3"/><path id="SvgjsPath3879" opacity="1" fill="#6777b2" stroke="none" stroke-width="none" d="M 78.855 85.662 c -0.849 2.452 -3.407 3.881 -5.899 3.199 c -2.3 -0.631 -3.752 -2.838 -3.563 -5.171 c 0.853 -0.067 1.787 -0.087 2.756 -0.04 c -0.01 0.033 -0.027 0.062 -0.036 0.096 c -0.306 1.125 0.407 2.305 1.592 2.63 c 1.189 0.326 2.401 -0.326 2.707 -1.451 c 0.039 -0.147 0.06 -0.294 0.065 -0.439 C 77.29 84.782 78.088 85.165 78.855 85.662 Z" data-colored="true" data-filltype="hl1" data-stroketype="none"/><path id="SvgjsPath3880" opacity="0.9" fill="#000000" stroke-width="none" d="M 74.813 82.21 c -1.203 -0.344 -2.429 0.342 -2.739 1.54 c -0.311 1.191 0.412 2.438 1.614 2.783 c 1.204 0.345 2.43 -0.342 2.741 -1.534 C 76.742 83.801 76.016 82.555 74.813 82.21 Z M 75.075 86.442 c -0.5 0.156 -1.017 -0.051 -1.154 -0.462 c -0.133 -0.411 0.163 -0.867 0.667 -1.019 c 0.503 -0.156 1.019 0.051 1.157 0.459 C 75.881 85.831 75.582 86.287 75.075 86.442 Z" data-colored="false" data-filltype="#000000" data-stroketype="none"/><path id="SvgjsPath3881" opacity="0.6" fill="#ffffff" stroke-width="none" d="M 70.811 87.159 c -0.37 0.222 -0.922 0.023 -1.238 -0.447 c -0.316 -0.466 -0.269 -1.024 0.102 -1.247 c 0.368 -0.219 0.925 -0.021 1.239 0.446 C 71.226 86.378 71.181 86.938 70.811 87.159 Z" data-colored="false" data-filltype="#ffffff" data-stroketype="none"/><path id="SvgjsPath3882" opacity="0.8" fill="#ffffff" stroke-width="none" d="M 78.71 83.74 c -0.846 0.507 -2.117 0.051 -2.837 -1.02 c -0.72 -1.072 -0.612 -2.352 0.234 -2.857 c 0.844 -0.509 2.118 -0.053 2.834 1.019 C 79.66 81.954 79.556 83.232 78.71 83.74 Z" data-colored="false" data-filltype="#ffffff" data-stroketype="none"/></g></g></g><g id="svga-group-eyesfront-left"><path id="SvgjsPath3836" opacity="1" fill="#f0c7b1" stroke-width="none" d="M 53.294 83 c 0.809 10.899 11.637 23.583 20.506 22.236 c 10.498 0.106 20.864 -7.868 20.864 -22.305 s -5.087 -26.528 -21.127 -26.528 C 62.037 56.402 53.294 68.563 53.294 83 Z M 61.752 82.523 c -0.506 -2.285 5.191 -3.973 12.711 -3.051 c 7.518 0.923 12.738 5.524 12.052 7.844 c -0.38 1.286 -10.639 3.245 -14.253 2.847 C 68.598 89.758 62.974 88.04 61.752 82.523 Z" data-colored="true" data-filltype="tone" data-stroketype="none" data-fromskin="true"/><path id="SvgjsPath3837" opacity="1" fill="url(#SvgjsRadialGradient3838)" d="M 72.262 90.163 c 3.614 0.398 13.873 -1.561 14.253 -2.847 c 0.687 -2.32 -4.534 -6.921 -12.052 -7.844 C 68.003 78.68 62.9 79.816 61.907 81.6 c 0.898 -6.4 7.7 -11.397 15.987 -11.434 c 8.911 -0.037 16.148 5.676 16.172 12.765 c 0.021 7.088 -7.185 12.862 -16.095 12.902 c -8.913 0.037 -16.149 -5.676 -16.173 -12.764 c 0 -0.105 0.016 -0.208 0.019 -0.313 C 63.147 88.083 68.651 89.764 72.262 90.163 Z" data-colored="false" data-filltype="gradient" data-stroketype="none" data-fromskin="true"/><path id="SvgjsPath3842" opacity="1" fill="url(#SvgjsRadialGradient3843)" d="M 61.752 82.523 c -0.506 -2.285 5.191 -3.973 12.711 -3.051 c 7.518 0.923 12.738 5.524 12.052 7.844 c -0.38 1.286 -10.639 3.245 -14.253 2.847 C 68.598 89.758 62.974 88.04 61.752 82.523 Z" data-colored="false" data-filltype="gradient" data-stroketype="none"/><path id="SvgjsPath3846" opacity="1" fill="#c27b55" stroke-width="none" d="M 62.148 77.417 c 4.208 -1.978 9.35 -2.16 13.838 -1.005 c 2.404 0.561 4.965 1.285 7.063 2.638 c 1.945 1.135 3.525 2.5 5.002 4.19 c -1.342 -1.701 -2.773 -3.118 -4.623 -4.27 c -2.276 -1.416 -4.769 -2.294 -7.364 -2.916 C 71.478 74.928 66.342 75.184 62.148 77.417 Z" data-colored="true" data-filltype="sd3" data-stroketype="none" data-fromskin="true"/><path id="SvgjsPath3847" opacity="1" fill="#000000" stroke-width="none" d="M 62.769 78.02 c 0.88 -0.352 4.065 -1 5.456 -1.066 c 1.687 -0.082 5.073 0.125 6.735 0.424 c 3.374 0.608 9.251 2.483 11.678 7.184 c 0.746 1.445 0.074 2.456 -0.123 2.675 c 0.3 -2.426 -4.838 -6.746 -12.052 -7.604 c -7.52 -0.894 -13.217 0.743 -12.711 2.958 c 1.222 5.348 6.846 7.013 10.51 7.405 c 4.099 0.439 11.684 -1.539 12.686 -1.753 c -1.999 1.009 -7.524 2.095 -9.767 2.303 c -0.744 0.07 -2.24 0.104 -2.986 0.085 c -5.949 -0.158 -10.169 -3.175 -11.729 -7.26 C 59.464 80.745 60.56 78.902 62.769 78.02 Z" data-colored="true" data-filltype="tone" data-stroketype="none"/></g></g><g id="svga-group-eyes-right" data-updown="0" data-leftright="0" data-dist="0" data-scaleX="1" data-scaleY="1" data-rotate="0"><g id="svga-group-eyesback-right"><path id="SvgjsPath3821" opacity="1" fill="url(#SvgjsRadialGradient3822)" d="M 137.849 82.523 c 0.506 -2.285 -5.191 -3.973 -12.711 -3.051 c -7.518 0.923 -12.738 5.524 -12.052 7.844 c 0.38 1.286 10.639 3.245 14.253 2.847 C 131.003 89.758 136.627 88.04 137.849 82.523 Z" data-colored="false" data-filltype="gradient" data-stroketype="none"/></g><g id="svga-group-eyesiriswrapper-right" transform="translate(-0.25 0.25)"><g id="svga-group-eyesiriscontrol-right" data-updown="0" data-leftright="0" data-dist="0" data-scaleX="1" data-scaleY="1" data-rotate="0"><g id="svga-group-eyesiris-right" data-updown="0" data-leftright="0" data-dist="0" data-scaleX="1" data-scaleY="1" data-rotate="0"><path id="SvgjsPath3883" opacity="1" fill="#4e60a3" stroke="#152975" stroke-width="0.5" d="M 131.788 85.588 c -0.869 3.192 -4.162 5.073 -7.362 4.196 c -3.196 -0.876 -5.084 -4.178 -4.214 -7.371 c 0.869 -3.195 4.169 -5.076 7.365 -4.198 C 130.772 79.09 132.658 82.392 131.788 85.588 Z" data-colored="true" data-filltype="tone" data-stroketype="sd3"/><path id="SvgjsPath3884" opacity="1" fill="#6777b2" stroke="none" stroke-width="none" d="M 130.855 85.662 c -0.849 2.452 -3.408 3.881 -5.899 3.199 c -2.3 -0.631 -3.753 -2.838 -3.563 -5.171 c 0.854 -0.067 1.787 -0.087 2.756 -0.04 c -0.01 0.033 -0.027 0.062 -0.036 0.096 c -0.306 1.125 0.407 2.305 1.593 2.63 c 1.189 0.326 2.401 -0.326 2.707 -1.451 c 0.038 -0.147 0.06 -0.294 0.065 -0.439 C 129.29 84.782 130.089 85.165 130.855 85.662 Z" data-colored="true" data-filltype="hl1" data-stroketype="none"/><path id="SvgjsPath3885" opacity="0.9" fill="#000000" stroke-width="none" d="M 126.813 82.21 c -1.202 -0.344 -2.429 0.342 -2.738 1.54 c -0.312 1.191 0.412 2.438 1.613 2.783 c 1.204 0.345 2.431 -0.342 2.742 -1.534 C 128.741 83.801 128.016 82.555 126.813 82.21 Z M 127.075 86.442 c -0.5 0.156 -1.018 -0.051 -1.154 -0.462 c -0.133 -0.411 0.163 -0.867 0.667 -1.019 c 0.503 -0.156 1.019 0.051 1.157 0.459 C 127.881 85.831 127.582 86.287 127.075 86.442 Z" data-colored="false" data-filltype="#000000" data-stroketype="none"/><path id="SvgjsPath3886" opacity="0.6" fill="#ffffff" stroke-width="none" d="M 122.812 87.159 c -0.37 0.222 -0.923 0.023 -1.238 -0.447 c -0.316 -0.466 -0.27 -1.024 0.102 -1.247 c 0.367 -0.219 0.926 -0.021 1.239 0.446 C 123.227 86.378 123.181 86.938 122.812 87.159 Z" data-colored="false" data-filltype="#ffffff" data-stroketype="none"/><path id="SvgjsPath3887" opacity="0.8" fill="#ffffff" stroke-width="none" d="M 130.71 83.74 c -0.846 0.507 -2.116 0.051 -2.837 -1.02 c -0.72 -1.072 -0.612 -2.352 0.234 -2.857 c 0.845 -0.509 2.117 -0.053 2.834 1.019 C 131.66 81.954 131.557 83.232 130.71 83.74 Z" data-colored="false" data-filltype="#ffffff" data-stroketype="none"/></g></g></g><g id="svga-group-eyesfront-right"><path id="SvgjsPath3856" opacity="1" fill="#f0c7b1" stroke-width="none" d="M 126.063 56.402 c -16.04 0 -21.127 12.091 -21.127 26.528 s 10.366 22.412 20.864 22.305 c 8.869 1.347 19.697 -11.337 20.506 -22.236 C 146.307 68.563 137.563 56.402 126.063 56.402 Z M 127.339 90.163 c -3.614 0.398 -13.873 -1.561 -14.253 -2.847 c -0.687 -2.32 4.534 -6.921 12.052 -7.844 c 7.52 -0.922 13.217 0.767 12.711 3.051 C 136.627 88.04 131.003 89.758 127.339 90.163 Z" data-colored="true" data-filltype="tone" data-stroketype="none" data-fromskin="true"/><path id="SvgjsPath3857" opacity="1" fill="url(#SvgjsRadialGradient3858)" d="M 127.339 90.163 c -3.614 0.398 -13.873 -1.561 -14.253 -2.847 c -0.687 -2.32 4.534 -6.921 12.052 -7.844 c 6.46 -0.792 11.563 0.345 12.556 2.128 c -0.898 -6.4 -7.7 -11.397 -15.987 -11.434 c -8.911 -0.037 -16.148 5.676 -16.172 12.765 c -0.021 7.088 7.185 12.862 16.095 12.902 c 8.913 0.037 16.149 -5.676 16.173 -12.764 c 0 -0.105 -0.016 -0.208 -0.019 -0.313 C 136.453 88.083 130.949 89.764 127.339 90.163 Z" data-colored="false" data-filltype="gradient" data-stroketype="none" data-fromskin="true"/><path id="SvgjsPath3862" opacity="1" fill="url(#SvgjsRadialGradient3863)" d="M 137.849 82.523 c 0.506 -2.285 -5.191 -3.973 -12.711 -3.051 c -7.518 0.923 -12.738 5.524 -12.052 7.844 c 0.38 1.286 10.639 3.245 14.253 2.847 C 131.003 89.758 136.627 88.04 137.849 82.523 Z" data-colored="false" data-filltype="gradient" data-stroketype="none"/><path id="SvgjsPath3866" opacity="1" fill="#c27b55" stroke-width="none" d="M 137.452 77.417 c -4.208 -1.978 -9.35 -2.16 -13.838 -1.005 c -2.404 0.561 -4.965 1.285 -7.063 2.638 c -1.945 1.135 -3.525 2.5 -5.002 4.19 c 1.342 -1.701 2.773 -3.118 4.623 -4.27 c 2.276 -1.416 4.769 -2.294 7.364 -2.916 C 128.123 74.928 133.259 75.184 137.452 77.417 Z" data-colored="true" data-filltype="sd3" data-stroketype="none" data-fromskin="true"/><path id="SvgjsPath3867" opacity="1" fill="#000000" stroke-width="none" d="M 136.832 78.02 c -0.88 -0.352 -4.065 -1 -5.456 -1.066 c -1.687 -0.082 -5.073 0.125 -6.735 0.424 c -3.374 0.608 -9.251 2.483 -11.678 7.184 c -0.746 1.445 -0.074 2.456 0.123 2.675 c -0.3 -2.426 4.838 -6.746 12.052 -7.604 c 7.52 -0.894 13.217 0.743 12.711 2.958 c -1.222 5.348 -6.846 7.013 -10.51 7.405 c -4.099 0.439 -11.684 -1.539 -12.686 -1.753 c 1.999 1.009 7.524 2.095 9.767 2.303 c 0.744 0.07 2.24 0.104 2.986 0.085 c 5.949 -0.158 10.169 -3.175 11.729 -7.26 C 140.137 80.745 139.041 78.902 136.832 78.02 Z" data-colored="true" data-filltype="tone" data-stroketype="none"/></g></g><g id="svga-group-facehighlight-single" data-updown="0" data-leftright="0" data-dist="0" data-scaleX="1" data-scaleY="1" data-rotate="0"><path id="SvgjsPath2885" opacity="1" fill="url(#SvgjsRadialGradient2886)" d="M 141 113.974 c 0.035 22.622 -18.292 40.994 -40.938 41.025 c -22.642 0.037 -41.028 -18.273 -41.063 -40.9 c -0.035 -22.62 18.292 -41.064 40.937 -41.1 C 122.579 72.964 140.967 91.349 141 113.974 Z" data-colored="false" data-filltype="gradient" data-stroketype="none" data-fromskin="true"/><path id="SvgjsPath2889" opacity="1" fill="url(#SvgjsRadialGradient2890)" d="M 137.5 53.999 c 0 20.711 -16.789 37.5 -37.499 37.5 c -20.711 0 -37.501 -16.789 -37.501 -37.5 s 16.79 -37.5 37.501 -37.5 C 120.711 16.499 137.5 33.288 137.5 53.999 Z" data-colored="false" data-filltype="gradient" data-stroketype="none" data-fromskin="true"/></g><g id="svga-group-eyebrows-left" data-updown="0" data-leftright="0" data-dist="0" data-scaleX="1" data-scaleY="1" data-rotate="0"><path id="SvgjsPath2910" opacity="1" fill="#2a232b" stroke-width="none" d="M 54 74.189 c 9.954 -9.974 16.761 -5.915 30.589 -3.264 c 0.845 0.162 6.32 1.539 5.31 3.469 c -0.483 0.924 -2.036 0.814 -2.903 0.798 C 73.308 74.936 66.652 65.197 54 74.189 Z" data-colored="true" data-filltype="#000000" data-stroketype="none"/></g><g id="svga-group-eyebrows-right" data-updown="0" data-leftright="0" data-dist="0" data-scaleX="1" data-scaleY="1" data-rotate="0"><path id="SvgjsPath2911" opacity="1" fill="#2a232b" stroke-width="none" d="M 146 74.189 c -9.953 -9.974 -16.761 -5.915 -30.589 -3.264 c -0.846 0.162 -6.32 1.539 -5.311 3.469 c 0.483 0.924 2.036 0.814 2.903 0.798 C 126.691 74.936 133.348 65.197 146 74.189 Z" data-colored="true" data-filltype="#000000" data-stroketype="none"/></g><g id="svga-group-nose-single" data-updown="0" data-leftright="0" data-dist="0" data-scaleX="1" data-scaleY="1" data-rotate="0"><path id="SvgjsPath3117" opacity="1" fill="#e1ac8f" stroke-width="none" d="M 91.115 115.499 c -0.878 2.064 5.934 4.292 8.519 4.429 c 2.8 0.147 10.646 -2.9 9.316 -4.992 c -1.399 -2.195 -6.643 -0.286 -8.906 -0.286 C 97.792 114.649 92.291 112.745 91.115 115.499 Z" data-colored="true" data-filltype="sd1" data-stroketype="none" data-fromskin="true"/><path id="SvgjsPath3118" opacity="1" fill="#c27b55" stroke-width="none" d="M 101.857 117.058 c -0.23 -0.759 1.876 -1.584 2.657 -1.694 c 1.101 -0.16 3.36 0.802 3.158 1.592 c -0.184 0.698 -2.148 -0.533 -2.86 -0.429 C 104.078 116.634 102.075 117.769 101.857 117.058 Z M 94.974 116.811 c 0.968 0 2.404 0.623 2.668 0.074 c 0.315 -0.655 -2.139 -1.461 -2.86 -1.372 c -0.596 0.07 -2.733 1.315 -2.439 1.839 C 92.617 117.833 93.698 116.811 94.974 116.811 Z" data-colored="true" data-filltype="sd3" data-stroketype="none" data-fromskin="true"/><path id="SvgjsPath3119" opacity="0.2" fill="#fff5ef" stroke-width="none" d="M 100.089 111.999 c 0.607 0 1.742 -0.74 1.792 -2.23 c 0.201 -6.008 -0.956 -23.833 -1.792 -23.77 c -0.78 0.059 -2.267 17.637 -1.948 23.77 C 98.22 111.271 99.404 111.999 100.089 111.999 Z" data-colored="true" data-filltype="hl2" data-stroketype="none" data-fromskin="true"/></g><g id="svga-group-beardwrap" data-updown="0" data-leftright="0" data-dist="0" data-scaleX="1" data-scaleY="1" data-rotate="0"><g id="svga-group-beard-single" data-updown="0" data-leftright="0" data-dist="0" data-scaleX="1" data-scaleY="1" data-rotate="0"><path id="SvgjsPath3021" opacity="1" fill="#2a232b" stroke-width="none" d="M 100 18.13 L 100 18.13 L 100 18.13 L 100 18.13 Z" data-colored="true" data-filltype="tone" data-stroketype="none"/></g></g><g id="svga-group-mustache-single" data-updown="0" data-leftright="0" data-dist="0" data-scaleX="1" data-scaleY="1" data-rotate="0"><path id="SvgjsPath3019" opacity="1" fill="#2a232b" stroke-width="none" d="M 100 18.13 L 100 18.13 L 100 18.13 L 100 18.13 Z" data-colored="true" data-filltype="tone" data-stroketype="none"/></g><g id="svga-group-hair-front" data-updown="0" data-leftright="0" data-dist="0" data-scaleX="1" data-scaleY="1" data-rotate="0"><path id="SvgjsPath3899" opacity="1" fill="#6b4e40" stroke-width="none" d="M 45.066 90.479 c -1.663 -4.941 -4.339 -12.356 -8.735 -15.286 c -2.688 -14.785 -7.848 -34.075 7.836 -52.385 c 3.342 -3.917 7.695 -7.354 12.827 -8.128 C 69.672 -4.083 84.836 -12.747 119.576 -1.432 c 52.479 15.34 43.691 53.39 41.853 76.293 c -2.476 2.597 -4.824 9.932 -6.139 14.359 c -1.17 -25.195 -10.647 -60.91 -38.688 -60.91 c -14.208 0 -17.067 5.674 -37.26 3.394 C 42.051 28.826 48.983 73.242 45.066 90.479 Z" data-colored="true" data-filltype="tone" data-stroketype="none"/><path id="SvgjsPath3900" opacity="1" fill="#4c2d1e" stroke-width="none" d="M 102.566 19.442 C 88.011 22.011 80 16 83 5 c -5.661 3.59 -7.699 9.31 -6.903 14.442 C 72.65 15.482 72.796 8.737 74.843 1 c -8.02 8.578 -9.465 16.139 -7.549 23.801 c -5.012 -5.458 -8.708 -12.687 -3.697 -18.978 c -2.321 2.513 -4.498 5.343 -6.603 8.459 c -0.479 0.072 -4.142 2.217 -4.142 2.217 c 2.935 0 9.319 2.98 13.005 9.154 c -4.542 -1.424 -10.958 0.219 -13.534 2.379 c -9.399 7.885 -14.204 20.903 -7.164 61.423 c 2.253 -11.969 1.543 -23.55 3.268 -33.198 c 2.885 -16.144 10.068 -26.874 30.916 -24.951 c 20.192 2.28 23.052 -3.394 37.26 -3.394 c 28.04 0 37.518 35.715 38.688 60.91 c 1.314 -4.427 3.663 -11.762 6.139 -14.359 c 0.302 -3.759 0.416 -3.52 0.79 -7.927 C 153.869 28.485 133.09 14.055 102.566 19.442 Z" data-colored="true" data-filltype="sd2" data-stroketype="none"/><path id="SvgjsPath3901" opacity="1" fill="#5c3d2e" stroke-width="none" d="M 39.369 61.985 c -3.731 -41.197 18.025 -41.045 21 -38.75 C 56.222 22.745 42.114 19.045 39.369 61.985 Z M 86.619 9.485 c 1.66 4.085 4.553 6.995 10.868 7.394 c 0 0 1.125 0.776 17.403 -2.094 c 2.292 -0.411 3.952 -0.545 4.729 -0.549 C 107.662 13.148 93.121 20.9 86.619 9.485 Z M 150.391 26.592 c 0 0 -0.389 -0.601 -1.072 -1.436 c -9.444 -11.944 -25.151 -12.229 -24.199 -11.171 c -0.937 -1.19 19.347 2.377 26.987 18.344 c 4.835 8.836 1.414 2.542 5.513 10.656 C 154.017 31.66 152.175 29.292 150.391 26.592 Z M 130.182 17.505 c 0 0 -1.276 -0.383 -2.578 -0.662 c -1.301 -0.277 -2.615 -0.469 -2.614 -0.469 c -3.583 -0.505 -6.562 -0.275 -8.37 -0.138 c 6.199 0.063 15.622 1.509 20.75 5.5 C 135.201 19.539 132.727 18.172 130.182 17.505 Z M 37.369 44.735 c -1.341 9.794 -1.69 21.234 3.25 29.75 C 37.33 66.374 37.256 53.492 37.369 44.735 Z M 73.543 28.958 c 0.823 0.173 1.125 0.078 1.125 0.078 s -0.278 0.029 -1.063 -0.253 c -6.856 -2.076 -9.987 -15.147 1.013 -27.297 C 61.436 11.777 64.929 27.814 73.543 28.958 Z M 82.619 5.235 C 78.885 8.15 76.356 11.463 75.917 16 c -0.636 7.067 3.239 12.869 10.953 13.485 C 74.702 26.658 75.11 13.108 82.619 5.235 Z M 109.42 10.36 c 0 0 -8.481 0.526 -16.551 -2.875 c 8.332 4.85 17.038 4.377 27 2.5 C 115.675 10.167 113.511 10.273 109.42 10.36 Z" data-colored="true" data-filltype="sd1" data-stroketype="none"/><path id="SvgjsPath3902" opacity="1" fill="#7a6155" stroke-width="none" d="M 122.869 8.069 c -10.39 0.727 -12.784 0.221 -17.333 -2.333 C 111.313 8.266 113.479 7.609 122.869 8.069 Z M 86.367 16.514 c -5.562 -5.748 -3.748 -8.528 -3.748 -8.528 s -2.659 7.062 6.636 11.581 c 5.177 2.818 14.232 0.009 16.864 -0.331 C 102.686 19.224 91.563 21.687 86.367 16.514 Z M 59.369 25.235 c -18.715 0.179 -19.006 29.31 -16.603 47.764 C 43.266 55.375 42.898 27.77 59.369 25.235 Z M 160.737 62.366 c -2.301 -13.429 -7.88 -28.915 -19.618 -35.88 C 150.653 34.103 157.559 51.017 160.737 62.366 Z M 159.619 44.235 c -0.742 -13.17 -7.966 -23.253 -18.114 -30.338 C 150.438 22.187 157.423 32.042 159.619 44.235 Z M 133.869 8.735 c -11.854 -6.716 -22.503 -11.642 -36.5 -7.5 C 110.17 -0.881 120.844 3.054 133.869 8.735 Z M 82.869 -2.015 c -10.119 0.956 -17.762 5.85 -18.528 15.99 C 65.948 3.828 73.604 -0.092 82.869 -2.015 Z M 75.254 13.19 C 77.523 1.846 85.291 -0.489 94.426 -2.125 C 84.84 -1.67 75.651 1.79 75.254 13.19 Z" data-colored="true" data-filltype="hl1" data-stroketype="none"/><path id="SvgjsPath3903" opacity="1" fill="#3d2012" stroke-width="none" d="M 119.669 -2.115 c -35.293 -11.496 -50.395 -2.204 -62.85 16.12 c -5.104 0.782 -9.536 4.29 -12.88 8.21 c -15.82 18.468 -10.556 38.009 -7.88 52.76 c 4.675 3.016 7.39 11.212 9.05 16.18 c 4.515 -16.777 -3.539 -62.465 34.2 -59.55 c 20.792 2.347 23.297 -3.704 38.46 -3.38 c 25.709 -1.096 36.541 36.643 37.29 62.45 c 1.127 -3.874 3.839 -13.236 6.659 -16.08 C 163.233 55.411 174.156 13.812 119.669 -2.115 Z M 160.739 74.995 c -2.396 2.86 -4.208 7.944 -5.22 11.51 c 0.247 -23.89 -10.323 -61.938 -37.74 -61.06 c -15.95 -0.254 -17.956 5.64 -38.19 3.59 c -18.563 -1.35 -28.966 9.705 -32.23 26.71 c -1.966 9.824 -0.408 22.838 -2.2 33.51 c -1.491 -4.808 -4.014 -11.26 -8.21 -14.08 c -1.698 -18.831 -5.956 -33.256 8.28 -51.85 c 3.022 -3.928 8.035 -7.64 12.89 -8.72 c 6.947 -7.295 15.002 -29.315 60.86 -14.46 C 167.916 14.516 162.6 50.069 160.739 74.995 Z" data-colored="true" data-filltype="sd3" data-stroketype="none"/></g><g id="svga-group-glasses-single" data-updown="0" data-leftright="0" data-dist="0" data-scaleX="1" data-scaleY="1" data-rotate="0"><path id="SvgjsPath3012" opacity="1" fill="#26120b" stroke-width="none" d="M 100 18.13 L 100 18.13 L 100 18.13 L 100 18.13 Z" data-colored="true" data-filltype="tone" data-stroketype="none"/></g></g></g><rect id="SvgjsRect1036" style="display:none;" opacity="0.5" fill="#ecf0f1" x="0" y="185" width="200" height="15"/><text id="SvgjsText1037" font-family="&quot;Roboto&quot;,&quot;Helvetica Neue&quot;,Helvetica,Arial,sans-serif" font-size="0.84em" font-weight="400" style="font-size:0.84em;font-family:&quot;Roboto&quot;, &quot;Helvetica Neue&quot;, Helvetica, Arial, sans-serif;text-anchor:middle;font-weight:400;display:none;" fill="#000000" text-anchor="middle" x="100" y="185"><tspan id="SvgjsTspan1038" style="font-size:0.84em;font-family:&quot;Roboto&quot;, &quot;Helvetica Neue&quot;, Helvetica, Arial, sans-serif;text-anchor:middle;font-weight:400;" x="100" dy="1.2em">Erstellt mit Avatars24.de</tspan></text></g><defs id="SvgjsDefs1001"><radialGradient class="svga-on-canvas-facehighlight-gradient-single-0" id="SvgjsRadialGradient2886" gradientUnits="userSpaceOnUse" cx="100" cy="114" r="41"><stop id="SvgjsStop2887" stop-color="rgb(255, 228, 214)" stop-opacity="0.5" offset="0" data-stoptype="hl1"/><stop id="SvgjsStop2888" stop-color="rgb(240, 199, 177)" stop-opacity="0" offset="0.9" data-stoptype="tone"/></radialGradient><radialGradient class="svga-on-canvas-facehighlight-gradient-single-1" id="SvgjsRadialGradient2890" gradientUnits="userSpaceOnUse" cx="100" cy="54" r="37"><stop id="SvgjsStop2891" stop-color="rgb(255, 228, 214)" stop-opacity="0.5" offset="0" data-stoptype="hl1"/><stop id="SvgjsStop2892" stop-color="rgb(240, 199, 177)" stop-opacity="0" offset="0.9" data-stoptype="tone"/></radialGradient><linearGradient class="svga-on-canvas-chinshadow-gradient-single-0" id="SvgjsLinearGradient3114" gradientUnits="userSpaceOnUse" x1="100" y1="171" x2="100" y2="131"><stop id="SvgjsStop3115" stop-color="rgb(225, 172, 143)" stop-opacity="0.8" offset="0" data-stoptype="sd1"/><stop id="SvgjsStop3116" stop-color="rgb(194, 123, 85)" stop-opacity="1" offset="0.7" data-stoptype="sd3"/></linearGradient><radialGradient class="svga-on-canvas-eyesiris-gradient-left-1" id="SvgjsRadialGradient3400" gradientUnits="userSpaceOnUse" gradientTransform="matrix(0.096, -0.0248, 0.0245, 0.0961, 141.281, 119.989)" cx="-568.659" cy="-521.042" r="59.751"><stop id="SvgjsStop3401" stop-color="rgb(255, 255, 255)" stop-opacity="1" offset="0" data-stoptype="#ffffff"/><stop id="SvgjsStop3402" stop-color="rgb(255, 255, 255)" stop-opacity="0" offset="1" data-stoptype="#ffffff"/></radialGradient><radialGradient class="svga-on-canvas-eyesiris-gradient-left-2" id="SvgjsRadialGradient3404" gradientUnits="userSpaceOnUse" gradientTransform="matrix(0.0991, 0.000885632, -0.0011, 0.0991, 131.113, 135.986)" cx="-582.838" cy="-519.099" r="59.745"><stop id="SvgjsStop3405" stop-color="rgb(255, 255, 255)" stop-opacity="1" offset="0" data-stoptype="#ffffff"/><stop id="SvgjsStop3406" stop-color="rgb(255, 255, 255)" stop-opacity="0" offset="1" data-stoptype="#ffffff"/></radialGradient><linearGradient class="svga-on-canvas-eyesiris-gradient-left-5" id="SvgjsLinearGradient3410" gradientUnits="userSpaceOnUse" gradientTransform="matrix(1, 0, 0, 1, -52, 0)" x1="122.67" y1="88.268" x2="123.606" y2="87.152"><stop id="SvgjsStop3411" stop-color="rgb(255, 255, 255)" stop-opacity="1" offset="0" data-stoptype="#ffffff"/><stop id="SvgjsStop3412" stop-color="rgb(255, 255, 255)" stop-opacity="0" offset="1" data-stoptype="#ffffff"/></linearGradient><linearGradient class="svga-on-canvas-eyesiris-gradient-left-6" id="SvgjsLinearGradient3414" gradientUnits="userSpaceOnUse" gradientTransform="matrix(1, 0, 0, 1, -52, 0)" x1="127.212" y1="82.296" x2="126.463" y2="83.189"><stop id="SvgjsStop3415" stop-color="rgb(255, 255, 255)" stop-opacity="1" offset="0" data-stoptype="#ffffff"/><stop id="SvgjsStop3416" stop-color="rgb(255, 255, 255)" stop-opacity="0" offset="1" data-stoptype="#ffffff"/></linearGradient><linearGradient class="svga-on-canvas-eyesiris-gradient-left-7" id="SvgjsLinearGradient3418" gradientUnits="userSpaceOnUse" gradientTransform="matrix(1, 0, 0, 1, -52, 0)" x1="129.636" y1="79.822" x2="127.91" y2="81.879"><stop id="SvgjsStop3419" stop-color="rgb(255, 255, 255)" stop-opacity="1" offset="0" data-stoptype="#ffffff"/><stop id="SvgjsStop3420" stop-color="rgb(255, 255, 255)" stop-opacity="0" offset="1" data-stoptype="#ffffff"/></linearGradient><radialGradient class="svga-on-canvas-eyesiris-gradient-right-1" id="SvgjsRadialGradient3423" gradientUnits="userSpaceOnUse" gradientTransform="matrix(0.096, -0.0248, 0.0245, 0.0961, 193.28, 119.989)" cx="-568.654" cy="-521.042" r="59.752"><stop id="SvgjsStop3424" stop-color="rgb(255, 255, 255)" stop-opacity="1" offset="0" data-stoptype="#ffffff"/><stop id="SvgjsStop3425" stop-color="rgb(255, 255, 255)" stop-opacity="0" offset="1" data-stoptype="#ffffff"/></radialGradient><radialGradient class="svga-on-canvas-eyesiris-gradient-right-2" id="SvgjsRadialGradient3427" gradientUnits="userSpaceOnUse" gradientTransform="matrix(0.0991, 0.000885632, -0.0011, 0.0991, 183.113, 135.986)" cx="-582.833" cy="-519.102" r="59.747"><stop id="SvgjsStop3428" stop-color="rgb(255, 255, 255)" stop-opacity="1" offset="0" data-stoptype="#ffffff"/><stop id="SvgjsStop3429" stop-color="rgb(255, 255, 255)" stop-opacity="0" offset="1" data-stoptype="#ffffff"/></radialGradient><linearGradient class="svga-on-canvas-eyesiris-gradient-right-5" id="SvgjsLinearGradient3433" gradientUnits="userSpaceOnUse" x1="122.67" y1="88.268" x2="123.606" y2="87.152"><stop id="SvgjsStop3434" stop-color="rgb(255, 255, 255)" stop-opacity="1" offset="0" data-stoptype="#ffffff"/><stop id="SvgjsStop3435" stop-color="rgb(255, 255, 255)" stop-opacity="0" offset="1" data-stoptype="#ffffff"/></linearGradient><linearGradient class="svga-on-canvas-eyesiris-gradient-right-6" id="SvgjsLinearGradient3437" gradientUnits="userSpaceOnUse" x1="127.212" y1="82.296" x2="126.463" y2="83.189"><stop id="SvgjsStop3438" stop-color="rgb(255, 255, 255)" stop-opacity="1" offset="0" data-stoptype="#ffffff"/><stop id="SvgjsStop3439" stop-color="rgb(255, 255, 255)" stop-opacity="0" offset="1" data-stoptype="#ffffff"/></linearGradient><linearGradient class="svga-on-canvas-eyesiris-gradient-right-7" id="SvgjsLinearGradient3441" gradientUnits="userSpaceOnUse" x1="129.636" y1="79.822" x2="127.91" y2="81.879"><stop id="SvgjsStop3442" stop-color="rgb(255, 255, 255)" stop-opacity="1" offset="0" data-stoptype="#ffffff"/><stop id="SvgjsStop3443" stop-color="rgb(255, 255, 255)" stop-opacity="0" offset="1" data-stoptype="#ffffff"/></linearGradient><linearGradient class="svga-on-canvas-mouth-gradient-single-0" id="SvgjsLinearGradient3742" gradientUnits="userSpaceOnUse" x1="100" y1="142" x2="100" y2="139"><stop id="SvgjsStop3743" stop-color="rgb(232, 185, 160)" stop-opacity="1" offset="0.1" data-stoptype="sd05"/><stop id="SvgjsStop3744" stop-color="rgb(225, 172, 143)" stop-opacity="1" offset="1" data-stoptype="sd1"/></linearGradient><radialGradient class="svga-on-canvas-eyesback-gradient-left-0" id="SvgjsRadialGradient3815" gradientUnits="userSpaceOnUse" gradientTransform="matrix(-0.9945, 0.1042, 0.1042, 0.9945, 192.828, -12.4633)" cx="129.041" cy="83.945" r="15.117"><stop id="SvgjsStop3816" stop-color="rgb(255, 255, 255)" stop-opacity="1" offset="0" data-stoptype="#ffffff"/><stop id="SvgjsStop3817" stop-color="rgb(252, 253, 253)" stop-opacity="1" offset="0.315" data-stoptype="#fcfdfd"/><stop id="SvgjsStop3818" stop-color="rgb(244, 247, 248)" stop-opacity="1" offset="0.504" data-stoptype="#f4f7f8"/><stop id="SvgjsStop3819" stop-color="rgb(229, 236, 239)" stop-opacity="1" offset="0.66" data-stoptype="#e5ecef"/><stop id="SvgjsStop3820" stop-color="rgb(216, 226, 231)" stop-opacity="1" offset="0.76" data-stoptype="#d8e2e7"/></radialGradient><radialGradient class="svga-on-canvas-eyesback-gradient-right-0" id="SvgjsRadialGradient3822" gradientUnits="userSpaceOnUse" gradientTransform="matrix(0.9945, 0.1042, -0.1042, 0.9945, 7.1738, -12.4633)" cx="128.643" cy="83.986" r="15.116"><stop id="SvgjsStop3823" stop-color="rgb(255, 255, 255)" stop-opacity="1" offset="0" data-stoptype="#ffffff"/><stop id="SvgjsStop3824" stop-color="rgb(252, 253, 253)" stop-opacity="1" offset="0.316" data-stoptype="#fcfdfd"/><stop id="SvgjsStop3825" stop-color="rgb(244, 247, 248)" stop-opacity="1" offset="0.505" data-stoptype="#f4f7f8"/><stop id="SvgjsStop3826" stop-color="rgb(229, 236, 239)" stop-opacity="1" offset="0.661" data-stoptype="#e5ecef"/><stop id="SvgjsStop3827" stop-color="rgb(216, 226, 231)" stop-opacity="1" offset="0.76" data-stoptype="#d8e2e7"/></radialGradient><radialGradient class="svga-on-canvas-eyesfront-gradient-left-0" id="SvgjsRadialGradient3829" gradientUnits="userSpaceOnUse" gradientTransform="matrix(-0.9945, 0.1042, 0.1042, 0.9945, 192.828, -12.4633)" cx="129.041" cy="83.945" r="15.117"><stop id="SvgjsStop3830" stop-color="rgb(255, 255, 255)" stop-opacity="1" offset="0" data-stoptype="#ffffff"/><stop id="SvgjsStop3831" stop-color="rgb(252, 253, 253)" stop-opacity="1" offset="0.316" data-stoptype="#fcfdfd"/><stop id="SvgjsStop3832" stop-color="rgb(244, 247, 248)" stop-opacity="1" offset="0.505" data-stoptype="#f4f7f8"/><stop id="SvgjsStop3833" stop-color="rgb(229, 236, 239)" stop-opacity="1" offset="0.661" data-stoptype="#e5ecef"/><stop id="SvgjsStop3834" stop-color="rgb(216, 226, 231)" stop-opacity="1" offset="0.76" data-stoptype="#d8e2e7"/></radialGradient><radialGradient class="svga-on-canvas-eyesfront-gradient-left-3" id="SvgjsRadialGradient3838" gradientUnits="userSpaceOnUse" gradientTransform="matrix(0.9998, 0.0208, 0.0166, -0.7998, -45.3195, 145.939)" cx="121.986" cy="82.496" r="16.003" fx="133.239" fy="82.527"><stop id="SvgjsStop3839" stop-color="rgb(225, 172, 143)" stop-opacity="1" offset="0" data-stoptype="sd1"/><stop id="SvgjsStop3840" stop-color="rgb(225, 172, 143)" stop-opacity="0.3" offset="0.7" data-stoptype="sd1"/><stop id="SvgjsStop3841" stop-color="rgb(240, 199, 177)" stop-opacity="0" offset="1" data-stoptype="tone"/></radialGradient><radialGradient class="svga-on-canvas-eyesfront-gradient-left-4" id="SvgjsRadialGradient3843" gradientUnits="userSpaceOnUse" gradientTransform="matrix(1.0336, 0, 0, 1.0336, -1.6796, 1.3127)" cx="68.931" cy="105.995" r="29.524"><stop id="SvgjsStop3844" stop-color="rgb(0, 0, 0)" stop-opacity="0" offset="0.95" data-stoptype="#000000"/><stop id="SvgjsStop3845" stop-color="rgb(0, 0, 0)" stop-opacity="0.2" offset="1" data-stoptype="#000000"/></radialGradient><radialGradient class="svga-on-canvas-eyesfront-gradient-right-0" id="SvgjsRadialGradient3849" gradientUnits="userSpaceOnUse" gradientTransform="matrix(0.9945, 0.1042, -0.1042, 0.9945, 7.1738, -12.4633)" cx="128.643" cy="83.986" r="15.116"><stop id="SvgjsStop3850" stop-color="rgb(255, 255, 255)" stop-opacity="1" offset="0" data-stoptype="#ffffff"/><stop id="SvgjsStop3851" stop-color="rgb(252, 253, 253)" stop-opacity="1" offset="0.316" data-stoptype="#fcfdfd"/><stop id="SvgjsStop3852" stop-color="rgb(244, 247, 248)" stop-opacity="1" offset="0.505" data-stoptype="#f4f7f8"/><stop id="SvgjsStop3853" stop-color="rgb(229, 236, 239)" stop-opacity="1" offset="0.661" data-stoptype="#e5ecef"/><stop id="SvgjsStop3854" stop-color="rgb(216, 226, 231)" stop-opacity="1" offset="0.76" data-stoptype="#d8e2e7"/></radialGradient><radialGradient class="svga-on-canvas-eyesfront-gradient-right-3" id="SvgjsRadialGradient3858" gradientUnits="userSpaceOnUse" gradientTransform="matrix(-0.9998, 0.0208, -0.0166, -0.7998, 244.521, 145.948)" cx="121.587" cy="82.496" r="16.003" fx="132.839" fy="82.527"><stop id="SvgjsStop3859" stop-color="rgb(225, 172, 143)" stop-opacity="1" offset="0" data-stoptype="sd1"/><stop id="SvgjsStop3860" stop-color="rgb(225, 172, 143)" stop-opacity="0.3" offset="0.7" data-stoptype="sd1"/><stop id="SvgjsStop3861" stop-color="rgb(240, 199, 177)" stop-opacity="0" offset="1" data-stoptype="tone"/></radialGradient><radialGradient class="svga-on-canvas-eyesfront-gradient-right-4" id="SvgjsRadialGradient3863" gradientUnits="userSpaceOnUse" gradientTransform="matrix(-1.0336, 0, 0, 1.0336, 201.68, 1.3127)" cx="69.316" cy="105.995" r="29.524"><stop id="SvgjsStop3864" stop-color="rgb(0, 0, 0)" stop-opacity="0" offset="0.95" data-stoptype="#000000"/><stop id="SvgjsStop3865" stop-color="rgb(0, 0, 0)" stop-opacity="0.2" offset="1" data-stoptype="#000000"/></radialGradient></defs></svg>