<svg xmlns="http://www.w3.org/2000/svg" class="svga-svg" id="svga-svgcanvas" style="position:relative;overflow:hidden;left:0px;top:0px;" viewBox="0 0 200 200" preserveAspectRatio="xMinYMin meet" xmlns:NS1="http://www.w3.org/2000/svg" NS1:xlink="http://www.w3.org/1999/xlink" version="1.1"><g id="svga-group-wrapper"><g id="svga-group-backs-single"/><g id="svga-group-subwrapper" transform="matrix(0.849999, 0, 0, 0.849999, 15.0077, 16.8437)" data-updown="0" data-leftright="0" data-dist="0" data-scaleX="0.84999937" data-scaleY="0.84999937" data-rotate="0"><g id="svga-group-hair-back" data-updown="0" data-leftright="0" data-dist="0" data-scaleX="1" data-scaleY="1" data-rotate="0"><path id="SvgjsPath3113" opacity="1" fill="#6b4e40" stroke-width="none" d="M 100.5 100.5 h -1 v -1 h 1 V 100.5 Z" data-colored="true" data-filltype="tone" data-stroketype="none"/></g><g id="svga-group-humanbody-single"><path id="SvgjsPath2761" opacity="1" fill="#f3d4cf" stroke="none" stroke-width="none" d="M 190.858 199.866 c -6.008 -10.158 -13.474 -11.973 -19.628 -13.936 c -6.323 -2.016 -19.346 -3.178 -26.449 -4.6 c -6.86 -1.373 -23.153 -5.789 -23.339 -13.488 c -0.192 -8.066 4.291 -40.09 4.291 -40.09 H 74.005 c 0 0 4.487 32.023 4.294 40.09 c -0.184 7.699 -16.48 12.115 -23.341 13.488 c -7.104 1.422 -20.125 2.584 -26.448 4.6 c -6.156 1.963 -13.624 3.777 -19.632 13.936 c -3.644 6.16 -6.008 16.133 -6.008 27.133 h 194 C 196.869 215.999 194.509 206.026 190.858 199.866 Z" data-colored="true" data-filltype="tone" data-stroketype="none" data-fromskin="true"/><path id="SvgjsPath2762" opacity="1" fill="#fff4f3" stroke="none" stroke-width="none" d="M 121.442 167.843 c 2.495 10.929 18.165 13.698 26.293 15.325 c 21.909 4.379 33.772 5.134 42.297 19.539 c 2.903 4.916 5.459 15.864 5.962 24.153 c 1.835 0.291 0.531 -17.432 -5.136 -26.994 c -9.742 -16.472 -29.089 -15.135 -46.077 -18.535 C 137.921 179.958 121.628 175.542 121.442 167.843 L 121.442 167.843 Z M 78.558 167.843 c -0.186 7.699 -16.479 12.115 -23.339 13.488 c -16.988 3.4 -36.335 2.063 -46.077 18.535 c -5.667 9.563 -6.971 27.285 -5.136 26.994 c 0.503 -8.289 3.059 -19.237 5.962 -24.153 c 8.524 -14.405 20.388 -15.16 42.297 -19.539 C 60.393 181.541 76.063 178.771 78.558 167.843 L 78.558 167.843 Z" data-colored="true" data-filltype="hl1" data-stroketype="none" data-fromskin="true"/><path id="SvgjsPath2763" opacity="1" fill="#e4b3ab" stroke="none" stroke-width="none" d="M 51.206 189.513 c 0 0 28.641 0.299 33.473 1.885 c 2.314 0.758 8.372 5.633 8.372 5.633 s -6.556 -3.17 -8.658 -3.758 C 79.51 191.909 51.206 189.513 51.206 189.513 Z M 99.795 199.999 c 2.053 -0.041 7.887 -3.799 7.887 -3.799 s -5.574 2.059 -7.342 2.16 c -1.491 0.086 -6.366 -1.238 -6.366 -1.238 S 98.112 200.032 99.795 199.999 Z M 117.008 192.757 c 6.75 -1.818 29.786 -3.23 29.786 -3.23 s -23.791 -0.516 -30.51 1.725 c -2.252 0.752 -7.562 5.16 -7.562 5.16 S 114.786 193.354 117.008 192.757 Z" data-colored="true" data-filltype="sd1" data-stroketype="none" data-fromskin="true"/><path id="SvgjsPath2764" opacity="1" fill="none" stroke="#c5796d" stroke-width="1.5" d="M 190.858 199.866 c -9.741 -16.471 -29.122 -15.142 -46.077 -18.535 c -6.86 -1.373 -23.153 -5.789 -23.339 -13.488 c -0.192 -8.066 4.291 -40.09 4.291 -40.09 H 74.005 c 0 0 4.487 32.023 4.294 40.09 c -0.184 7.699 -16.48 12.115 -23.341 13.488 c -7.104 1.422 -20.125 2.584 -26.448 4.6 c -6.156 1.963 -13.624 3.777 -19.632 13.936 c -3.644 6.16 -6.008 16.133 -6.008 27.133 h 194 C 196.869 215.999 194.509 206.026 190.858 199.866 Z" data-colored="true" data-filltype="none" data-stroketype="sd3" data-fromskin="true"/></g><g id="svga-group-chinshadow-single"><path id="SvgjsPath3075" opacity="1" fill="url(#SvgjsLinearGradient3076)" d="M 100.021 171.27 c 5.607 -0.009 13.53 -3.627 20.967 -8.478 c 0.485 -6.84 1.756 -17.341 2.758 -25.098 c -13.972 -1.825 -33.828 -1.785 -47.741 0.101 c 0.995 7.702 2.249 18.065 2.739 24.877 C 86.278 167.593 94.344 171.279 100.021 171.27 Z" data-colored="false" data-filltype="gradient" data-stroketype="none" data-fromskin="true"/></g><g id="svga-group-clothes-single" data-updown="0" data-leftright="0" data-dist="0" data-scaleX="1" data-scaleY="1" data-rotate="0"><path id="SvgjsPath3109" opacity="1" fill="#09aac5" stroke-width="none" d="M 110.139 228.889 c -17.864 0 -38.7 -0.069 -63.699 -0.213 l -22.105 -0.12 c -13.348 -0.072 -16.001 -0.087 -17.631 -0.087 l -4.573 0.006 c 0.032 -40.523 20.015 -43.334 41.17 -46.313 c 7.271 -1.023 14.789 -2.082 21.584 -4.733 c 8.525 11.975 21.924 13.591 33.912 13.591 c 0.667 0 1.341 -0.006 2.016 -0.017 c 12.668 -0.285 27.552 -4.774 32.317 -14.161 c 0.614 0.234 1.186 0.504 1.738 0.766 c 0.621 0.293 1.263 0.597 1.974 0.854 c 4.65 1.684 10.432 2.48 16.552 3.324 c 20.011 2.76 44.916 6.193 44.578 45.069 c 0.003 0.154 0.004 1.097 -0.012 1.392 c -11.682 0 -19.607 0.113 -28.782 0.244 c -12.445 0.178 -27.935 0.398 -59.027 0.398 C 110.145 228.889 110.142 228.889 110.139 228.889 Z" data-colored="true" data-filltype="tone" data-stroketype="none"/><path id="SvgjsPath3110" opacity="1" fill="#1fbad4" stroke-width="none" d="M 197.869 226.999 c -2.027 -5.485 -0.96 -15.439 -6.837 -24.292 c -11.653 -17.556 -33.322 -15.948 -53.227 -21.639 c -4.204 8.565 -12.24 13.539 -21.429 16.39 l -0.016 -0.047 c 9.016 -3.198 16.683 -8.066 21.003 -16.475 c -0.501 -0.146 -1.001 -0.292 -1.499 -0.448 l 0.956 -1.836 c 24.187 7.439 43.709 2.062 55.037 21.214 C 195.509 206.026 197.869 215.999 197.869 226.999 Z M 57.233 182.344 c 1.267 -0.294 2.53 -0.607 3.788 -0.948 l -1.332 -1.765 c -23.343 6.027 -40.887 2.21 -51.548 20.235 c -3.65 6.16 -6.011 16.133 -6.011 27.133 c 2.027 -5.485 0.96 -15.439 6.837 -24.292 c 10.571 -15.926 29.385 -16.085 47.646 -20.225 c 6.519 8.028 16.042 13.7 26.402 15.333 C 70.02 194.425 61.938 188.143 57.233 182.344 Z" data-colored="true" data-filltype="hl1" data-stroketype="none"/><path id="SvgjsPath3111" opacity="1" fill="#009cb6" stroke-width="none" d="M 132.08 178.811 c -4.996 7.702 -18.542 12.955 -33.907 12.955 c -15.182 0 -27.706 -5.206 -33.5 -13.926 l -0.044 -0.065 l 1.235 1.856 c -1.369 0.581 -4.817 1.748 -4.817 1.748 l -1.446 -1.86 l 0.089 0.117 c 0.271 0.354 0.553 0.736 0.851 1.14 c 4.359 5.904 11.656 15.785 36.296 15.785 c 2.162 0 4.443 -0.079 6.78 -0.235 c 16.303 -1.168 26.873 -6.359 32.244 -15.839 C 135.806 180.464 133.352 179.456 132.08 178.811 Z" data-colored="true" data-filltype="sd1" data-stroketype="none"/><path id="SvgjsPath3112" opacity="1" fill="#008197" stroke-width="none" d="M 133.079 176.717 c -5.041 10.081 -21.03 13.934 -32.27 14.187 c -14.635 0.228 -27.563 -1.841 -35.89 -13.597 c -26.368 10.344 -62.89 -3.587 -62.89 51.269 c 9.28 0 -4.304 -0.062 44.41 0.2 c 115.375 0.663 115.16 -0.43 151.61 -0.43 c 0.027 -0.131 0.023 -1.356 0.021 -1.49 c 0.44 -50.604 -41.021 -41.186 -61.195 -48.488 C 135.504 177.871 134.422 177.218 133.079 176.717 Z M 64.589 177.896 c 13.809 20.776 60.199 16.511 68.44 -0.561 c 1.12 0.471 2.34 0.94 3.64 1.4 c -3.904 8.186 -12.275 16.001 -33.06 17.49 c -32.014 2.134 -39.41 -10.844 -43.84 -16.65 C 59.905 179.537 63.225 178.407 64.589 177.896 Z M 2.169 228.405 c 2.5 -22.877 4.756 -39.219 32.69 -44.068 c 9.593 -1.77 14.509 -1.939 24.83 -4.731 c 7.873 10.792 15.739 18.518 44.7 17.3 c 21.37 -2.377 28.569 -9.619 32.461 -18.1 c 26.52 8.347 59.285 -0.172 60.88 49.38 C 147.265 227.529 98.51 226.216 2.169 228.405 Z" data-colored="true" data-filltype="sd3" data-stroketype="none"/></g><g id="svga-group-head" data-updown="0" data-leftright="0" data-dist="0" data-scaleX="1" data-scaleY="1" data-rotate="0"><g id="svga-group-ears-left" style="display:none;" data-updown="0" data-leftright="0" data-dist="0" data-scaleX="1" data-scaleY="1" data-rotate="0"><path id="SvgjsPath2774" opacity="1" fill="#f3d4cf" stroke="#c5796d" stroke-width="1.5" d="M 47.001 83.974 c -1.376 -2.313 -5.638 -7.997 -9.98 -6.603 c -2.749 0.882 -3.293 3.765 -3.735 6.311 c -0.588 3.386 0.471 10.083 1.389 12.503 c 0.881 2.325 3.533 6.816 5.264 8.527 c 2.13 2.1 4.775 8.793 5.194 9.487 c 0.66 1.097 1.536 2.745 4.122 2.538 c 2.853 -0.229 4.584 -1.742 5.856 -1.999 C 58.253 114.109 50.582 89.995 47.001 83.974 Z" data-colored="true" data-filltype="tone" data-stroketype="sd3"/><path id="SvgjsPath2775" opacity="1" fill="#c5796d" stroke="none" stroke-width="none" d="M 44.197 97.997 c -0.132 -0.548 0.007 -1.47 0.142 -2.362 c 0.124 -0.812 0.24 -1.579 0.169 -2.121 c -0.267 -2.032 -1.773 -5.893 -2.757 -7.985 c -1.132 -2.407 -2.963 -5.439 -5.262 -6.221 c -0.95 -0.324 -1.575 0.063 -1.938 0.456 c -0.266 0.289 -0.325 0.627 -0.238 0.667 c 0.086 0.04 0.285 -0.24 0.572 -0.504 c 0.235 -0.216 0.579 -0.402 1.051 -0.363 c -0.19 1.011 -1.167 6.49 -0.744 10.225 c 0.333 2.938 1.593 5.131 1.79 5.46 c 0.029 0.346 0.077 0.685 0.148 1.014 c 0.929 4.287 4.971 9.163 6.378 10.758 c 0.259 0.295 0.531 0.47 0.598 0.398 c 0.066 -0.072 -0.094 -0.364 -0.353 -0.66 c -1.388 -1.585 -5.391 -6.442 -6.289 -10.579 c -0.952 -4.389 2.318 -10.896 3.048 -12.272 c 0.371 0.646 0.687 1.267 0.93 1.785 c 0.19 0.406 0.402 0.881 0.619 1.395 c -0.429 0.718 -3.434 5.958 -2.338 10.153 c 0.406 1.546 2.235 3.54 3.447 4.086 c 0.667 0.301 0.919 0.75 1.209 1.271 c 0.336 0.604 0.718 1.288 1.828 1.784 c 0.225 0.102 0.429 0.142 0.61 0.142 c 0.313 0 0.551 -0.126 0.725 -0.276 c 0.018 0.266 0.017 0.604 0.009 0.917 c -0.012 0.404 0.042 0.737 0.137 0.745 c 0.094 0.008 0.196 -0.313 0.207 -0.717 c 0.016 -0.496 0.013 -1.11 -0.072 -1.403 c -0.248 -0.865 -1.008 -1.841 -1.813 -2.875 C 45.221 99.896 44.403 98.844 44.197 97.997 Z M 36.95 94.196 c -2.177 -6.731 0.656 -12.54 1.144 -13.464 c 0.85 0.775 1.6 1.811 2.21 2.824 C 39.86 84.365 37.041 89.669 36.95 94.196 Z M 46.341 104.042 c -1.004 -0.447 -1.339 -1.051 -1.666 -1.633 c -0.293 -0.527 -0.598 -1.072 -1.369 -1.42 c -0.168 -0.075 -0.352 -0.191 -0.542 -0.323 c -2.486 -5.906 0.272 -8.488 0.963 -9.017 c 0.211 0.722 0.369 1.384 0.439 1.915 c 0.063 0.488 -0.052 1.263 -0.167 2.012 c -0.142 0.929 -0.286 1.89 -0.137 2.512 c 0.226 0.926 1.069 2.009 1.884 3.057 c 0.723 0.929 1.466 1.888 1.721 2.67 C 47.359 103.972 47.017 104.345 46.341 104.042 Z" data-colored="true" data-filltype="sd3" data-stroketype="none"/></g><g id="svga-group-ears-right" style="display:none;" data-updown="0" data-leftright="0" data-dist="0" data-scaleX="1" data-scaleY="1" data-rotate="0"><path id="SvgjsPath2776" opacity="1" fill="#f3d4cf" stroke="#c5796d" stroke-width="1.5" d="M 152.736 83.974 c 1.377 -2.313 5.639 -7.997 9.98 -6.603 c 2.75 0.882 3.293 3.765 3.736 6.311 c 0.588 3.386 -0.471 10.083 -1.389 12.503 c -0.881 2.325 -3.533 6.816 -5.266 8.527 c -2.129 2.1 -4.775 8.793 -5.193 9.487 c -0.658 1.097 -1.535 2.745 -4.121 2.538 c -2.854 -0.229 -4.584 -1.742 -5.857 -1.999 C 141.484 114.109 149.156 89.995 152.736 83.974 Z" data-colored="true" data-filltype="tone" data-stroketype="sd3"/><path id="SvgjsPath2777" opacity="1" fill="#c5796d" stroke="none" stroke-width="none" d="M 153.727 100.913 c -0.805 1.033 -1.564 2.009 -1.813 2.875 c -0.086 0.293 -0.088 0.907 -0.072 1.403 c 0.012 0.404 0.113 0.725 0.207 0.717 s 0.148 -0.341 0.137 -0.745 c -0.008 -0.313 -0.008 -0.651 0.01 -0.917 c 0.174 0.15 0.412 0.276 0.725 0.276 c 0.182 0 0.385 -0.04 0.609 -0.142 c 1.109 -0.496 1.492 -1.18 1.828 -1.784 c 0.289 -0.52 0.543 -0.969 1.209 -1.271 c 1.213 -0.546 3.041 -2.54 3.447 -4.086 c 1.096 -4.194 -1.908 -9.435 -2.338 -10.153 c 0.217 -0.513 0.43 -0.988 0.619 -1.395 c 0.244 -0.518 0.559 -1.139 0.93 -1.785 c 0.73 1.377 4 7.883 3.049 12.272 c -0.896 4.137 -4.9 8.994 -6.289 10.579 c -0.258 0.296 -0.418 0.588 -0.352 0.66 c 0.066 0.071 0.338 -0.104 0.598 -0.398 c 1.406 -1.596 5.449 -6.471 6.379 -10.758 c 0.07 -0.329 0.117 -0.668 0.146 -1.014 c 0.197 -0.329 1.459 -2.523 1.791 -5.46 c 0.422 -3.735 -0.555 -9.214 -0.744 -10.225 c 0.473 -0.039 0.814 0.146 1.051 0.363 c 0.287 0.264 0.486 0.544 0.572 0.504 s 0.027 -0.378 -0.238 -0.667 c -0.363 -0.393 -0.988 -0.779 -1.938 -0.456 c -2.299 0.782 -4.131 3.814 -5.262 6.221 c -0.984 2.093 -2.49 5.953 -2.758 7.985 c -0.072 0.542 0.045 1.309 0.17 2.121 c 0.135 0.892 0.273 1.814 0.141 2.362 C 155.336 98.844 154.518 99.896 153.727 100.913 Z M 159.434 83.555 c 0.611 -1.013 1.361 -2.049 2.211 -2.824 c 0.488 0.925 3.32 6.733 1.145 13.464 C 162.697 89.669 159.879 84.365 159.434 83.555 Z M 152.27 103.816 c 0.254 -0.782 0.998 -1.741 1.721 -2.67 c 0.816 -1.048 1.658 -2.131 1.885 -3.057 c 0.148 -0.622 0.004 -1.583 -0.137 -2.512 c -0.115 -0.749 -0.23 -1.524 -0.166 -2.012 c 0.068 -0.531 0.227 -1.193 0.438 -1.915 c 0.691 0.529 3.449 3.111 0.965 9.017 c -0.191 0.132 -0.375 0.248 -0.543 0.323 c -0.771 0.348 -1.074 0.893 -1.369 1.42 c -0.326 0.582 -0.662 1.186 -1.666 1.633 C 152.721 104.345 152.379 103.972 152.27 103.816 Z" data-colored="true" data-filltype="sd3" data-stroketype="none"/></g><g id="svga-group-faceshape-wrap" data-updown="0" data-leftright="0" data-dist="0" data-scaleX="1" data-scaleY="1" data-rotate="0"><g id="svga-group-faceshape-single" data-updown="0" data-leftright="0" data-dist="0" data-scaleX="1" data-scaleY="1" data-rotate="0"><path id="SvgjsPath3072" opacity="1" fill="#f3d4cf" stroke-width="none" d="M 158.785 76.762 l -0.005 0 c -0.012 0.053 -10.717 44.373 -18.919 56.95 c -6.452 9.895 -28.166 25.54 -39.84 25.558 c -11.671 0.02 -33.437 -15.559 -39.918 -25.433 C 51.861 121.285 41.017 77 41.005 76.946 h -0.001 c -1.298 -4.911 -1.994 -10.066 -2.002 -15.382 C 38.949 28.09 66.155 0.919 99.773 0.867 c 33.621 -0.052 60.913 27.033 60.964 60.507 C 160.746 66.69 160.068 71.846 158.785 76.762 Z" data-colored="true" data-filltype="tone" data-stroketype="none"/><path id="SvgjsPath3073" opacity="1" fill="#ebc3bd" stroke-width="none" d="M 125.766 6.622 c 19.104 10.248 32.075 30.355 32.039 53.476 c -0.009 5.316 -0.704 10.471 -2.003 15.382 h -0.001 c -0.012 0.053 -10.856 44.339 -19.099 56.891 c -5.946 9.061 -24.555 25.121 -36.833 25.121 c -12.279 0 -30.886 -16.061 -36.833 -25.121 c -8.242 -12.552 -19.086 -56.837 -19.098 -56.891 h -0.001 c -1.298 -4.911 -1.994 -10.066 -2.002 -15.382 C 41.898 36.977 54.87 16.87 73.972 6.622 C 53.277 16.324 38.963 37.28 39.001 61.564 c 0.008 5.316 0.704 10.471 2.002 15.382 h 0.001 c 0.012 0.053 10.856 44.339 19.098 56.891 c 4.416 6.728 15.922 16.095 26.5 21.382 c -0.529 -0.226 -1.062 -0.466 -1.599 -0.717 c 5.408 2.875 10.664 4.763 14.713 4.768 c 0.049 0 0.103 -0.005 0.152 -0.005 s 0.103 0.005 0.152 0.005 c 4.049 -0.005 9.305 -1.893 14.714 -4.768 c -0.538 0.253 -1.071 0.491 -1.601 0.718 c 10.577 -5.287 22.085 -14.655 26.501 -21.383 c 8.242 -12.552 19.087 -56.837 19.098 -56.891 h 0.002 c 1.298 -4.911 1.994 -10.066 2.002 -15.382 C 160.775 37.28 146.462 16.324 125.766 6.622 Z" data-colored="true" data-filltype="sd05" data-stroketype="none"/><path id="SvgjsPath3074" opacity="1" fill="none" stroke="#c5796d" stroke-width="1.5" d="M 158.785 76.762 l -0.005 0 c -0.012 0.053 -10.717 44.373 -18.919 56.95 c -6.452 9.895 -28.166 25.54 -39.84 25.558 c -11.671 0.02 -33.437 -15.559 -39.918 -25.433 C 51.861 121.285 41.017 77 41.005 76.946 h -0.001 c -1.298 -4.911 -1.994 -10.066 -2.002 -15.382 C 38.949 28.09 66.155 0.919 99.773 0.867 c 33.621 -0.052 60.913 27.033 60.964 60.507 C 160.746 66.69 160.068 71.846 158.785 76.762 Z" data-colored="true" data-filltype="none" data-stroketype="sd3"/></g></g><g id="svga-group-mouth-single" data-updown="0" data-leftright="0" data-dist="0" data-scaleX="1" data-scaleY="1" data-rotate="0"><path id="SvgjsPath3087" opacity="1" fill="url(#SvgjsLinearGradient3088)" d="M 100.457 141.651 c -3.24 0 -3.697 -2.678 -3.697 -2.678 l 7.125 -0.188 C 103.884 138.785 103.307 141.651 100.457 141.651 Z" data-colored="false" data-filltype="gradient" data-stroketype="none" data-fromskin="true"/><path id="SvgjsPath3091" opacity="1" fill="#c5796d" stroke-width="none" d="M 99.886 139.415 c -1.668 0 -2.938 -0.171 -3.027 -0.184 c -0.137 -0.02 -0.232 -0.146 -0.213 -0.282 c 0.019 -0.138 0.147 -0.227 0.282 -0.214 c 0.037 0.006 3.7 0.5 6.766 -0.195 c 0.146 -0.03 0.27 0.057 0.3 0.189 c 0.03 0.135 -0.055 0.269 -0.188 0.299 C 102.485 139.327 101.082 139.415 99.886 139.415 Z M 100.071 134.142 c -1.291 0 -2.542 -0.477 -3.8 -0.71 c -1.408 -0.262 -2.812 -0.038 -4.221 0.096 c -1.202 0.114 -2.384 0.097 -3.574 -0.118 c -0.566 -0.103 -1.409 -0.165 -1.893 -0.491 c -0.496 -0.335 -0.404 -1.114 0.155 -1.324 c 0.528 -0.2 1.35 0.216 1.882 0.317 c 0.608 0.116 1.225 0.189 1.845 0.198 c 1.366 0.018 2.719 -0.258 4.083 -0.306 c 1.445 -0.048 2.835 0.352 4.231 0.658 c 1.247 0.273 2.325 0.09 3.553 -0.174 c 2.13 -0.459 4.259 -0.573 6.429 -0.67 c 1.073 -0.049 2.167 -0.256 3.19 -0.583 c 0.436 -0.141 0.953 -0.512 1.411 -0.261 c 0.528 0.29 0.503 1.082 -0.042 1.337 c -1.781 0.837 -3.78 0.972 -5.715 1.061 c -1.235 0.056 -2.475 0.117 -3.694 0.334 C 102.64 133.731 101.371 134.142 100.071 134.142 Z" data-colored="true" data-filltype="sd3" data-stroketype="none" data-fromskin="true"/></g><g id="svga-group-eyes-left" data-updown="0" data-leftright="0" data-dist="0" data-scaleX="1" data-scaleY="1" data-rotate="0"><g id="svga-group-eyesback-left"><path id="SvgjsPath2914" opacity="1" fill="url(#SvgjsRadialGradient2915)" d="M 61.952 84.523 c -0.506 -2.285 5.191 -3.973 12.711 -3.051 c 7.518 0.923 12.738 5.524 12.052 7.844 c -0.38 1.286 -10.639 3.245 -14.253 2.847 C 68.798 91.758 63.174 90.04 61.952 84.523 Z" data-colored="false" data-filltype="gradient" data-stroketype="none"/></g><g id="svga-group-eyesiriswrapper-left" transform="translate(-0.75 -0.5)"><g id="svga-group-eyesiriscontrol-left" data-updown="0" data-leftright="0" data-dist="0" data-scaleX="1" data-scaleY="1" data-rotate="0"><g id="svga-group-eyesiris-left" data-updown="0" data-leftright="0" data-dist="0" data-scaleX="1" data-scaleY="1" data-rotate="0"><path id="SvgjsPath3169" opacity="1" fill="#3c8d8e" stroke="#0c5f60" stroke-width="0.5" d="M 83.199 89.25 c -1.231 4.522 -5.896 7.187 -10.429 5.944 c -4.528 -1.241 -7.203 -5.918 -5.97 -10.442 c 1.23 -4.526 5.905 -7.19 10.434 -5.947 C 81.761 80.045 84.433 84.723 83.199 89.25 Z" data-colored="true" data-filltype="tone" data-stroketype="sd3"/><path id="SvgjsPath3170" opacity="1" fill="#529c9d" stroke-width="none" d="M 81.878 89.354 c -1.202 3.473 -4.827 5.499 -8.357 4.531 c -3.258 -0.894 -5.315 -4.02 -5.048 -7.325 c 1.209 -0.096 2.532 -0.124 3.904 -0.056 c -0.014 0.047 -0.039 0.087 -0.051 0.136 c -0.434 1.594 0.576 3.265 2.256 3.726 c 1.685 0.461 3.401 -0.462 3.835 -2.056 c 0.055 -0.208 0.085 -0.417 0.093 -0.623 C 79.66 88.108 80.792 88.651 81.878 89.354 Z" data-colored="true" data-filltype="hl1" data-stroketype="none"/><path id="SvgjsPath3171" opacity="0.9" fill="#000000" stroke-width="none" d="M 76.151 84.464 c -1.703 -0.487 -3.44 0.485 -3.88 2.181 c -0.44 1.687 0.584 3.454 2.286 3.942 c 1.705 0.489 3.443 -0.484 3.884 -2.173 C 78.884 86.719 77.855 84.953 76.151 84.464 Z M 76.523 90.46 c -0.708 0.22 -1.441 -0.072 -1.636 -0.655 c -0.188 -0.582 0.231 -1.228 0.945 -1.443 c 0.712 -0.22 1.442 0.073 1.639 0.651 C 77.665 89.593 77.241 90.24 76.523 90.46 Z" data-colored="false" data-filltype="#000000" data-stroketype="none"/><path id="SvgjsPath3172" opacity="0.6" fill="#ffffff" stroke-width="none" d="M 70.482 91.476 c -0.523 0.314 -1.307 0.034 -1.754 -0.633 c -0.448 -0.66 -0.381 -1.451 0.145 -1.767 c 0.521 -0.311 1.311 -0.03 1.755 0.632 C 71.07 90.37 71.006 91.162 70.482 91.476 Z" data-colored="false" data-filltype="#ffffff" data-stroketype="none"/><path id="SvgjsPath3173" opacity="0.9" fill="#ffffff" stroke-width="none" d="M 81.673 86.632 c -1.198 0.718 -2.999 0.072 -4.02 -1.445 c -1.02 -1.518 -0.867 -3.331 0.332 -4.047 c 1.196 -0.721 3 -0.074 4.015 1.444 C 83.019 84.101 82.871 85.913 81.673 86.632 Z" data-colored="false" data-filltype="#ffffff" data-stroketype="none"/></g></g></g><g id="svga-group-eyesfront-left"><path id="SvgjsPath2936" opacity="1" fill="#f3d4cf" stroke-width="none" d="M 55.5 88 c 0 13.807 8.06 24.999 18 24.999 s 18 -11.192 18 -24.999 c 0 -13.808 -8.06 -25 -18 -25 S 55.5 74.192 55.5 88 Z M 61.952 84.523 c -0.506 -2.285 5.191 -3.973 12.711 -3.051 c 7.518 0.923 12.738 5.524 12.052 7.844 c -0.38 1.286 -10.639 3.245 -14.253 2.847 C 68.798 91.758 63.174 90.04 61.952 84.523 Z" data-colored="true" data-filltype="tone" data-stroketype="none" data-fromskin="true"/><path id="SvgjsPath2937" opacity="1" fill="url(#SvgjsRadialGradient2938)" d="M 72.462 92.163 c 3.614 0.398 13.873 -1.561 14.253 -2.847 c 0.687 -2.32 -4.534 -6.921 -12.052 -7.844 c -6.46 -0.792 -11.563 0.345 -12.556 2.128 c 0.898 -6.4 7.7 -11.397 15.987 -11.434 c 8.911 -0.037 16.148 5.676 16.172 12.765 c 0.021 7.088 -7.185 12.862 -16.095 12.902 c -8.913 0.037 -16.149 -5.676 -16.173 -12.764 c 0 -0.105 0.016 -0.208 0.019 -0.313 C 63.348 90.083 68.852 91.764 72.462 92.163 Z" data-colored="false" data-filltype="gradient" data-stroketype="none" data-fromskin="true"/><path id="SvgjsPath2942" opacity="1" fill="url(#SvgjsRadialGradient2943)" d="M 61.952 84.523 c -0.506 -2.285 5.191 -3.973 12.711 -3.051 c 7.518 0.923 12.738 5.524 12.052 7.844 c -0.38 1.286 -10.639 3.245 -14.253 2.847 C 68.798 91.758 63.174 90.04 61.952 84.523 Z" data-colored="false" data-filltype="gradient" data-stroketype="none"/><path id="SvgjsPath2946" opacity="1" fill="#c5796d" stroke-width="none" d="M 62.349 79.417 c 4.208 -1.978 9.35 -2.16 13.838 -1.005 c 2.404 0.561 4.965 1.285 7.063 2.638 c 1.945 1.135 3.525 2.5 5.002 4.19 c -1.342 -1.701 -2.773 -3.118 -4.623 -4.27 c -2.276 -1.416 -4.769 -2.294 -7.364 -2.916 C 71.678 76.928 66.542 77.184 62.349 79.417 Z" data-colored="true" data-filltype="sd3" data-stroketype="none" data-fromskin="true"/><path id="SvgjsPath2947" opacity="1" fill="#000000" stroke-width="none" d="M 57.318 80.972 c 0 0 2.328 0.881 3.595 0.62 c -0.39 -0.459 -1.096 -1.604 -1.096 -1.604 s 1.853 0.551 3.151 0.032 c 0.88 -0.352 4.065 -1 5.456 -1.066 c 1.687 -0.082 5.073 0.125 6.735 0.424 c 3.374 0.608 8.985 2.63 11.678 7.184 c 0.255 0.572 1.407 0.921 1.407 0.921 s -1.02 -0.215 -1.149 0.042 c -0.282 0.561 1.298 2.016 1.496 2.197 c -0.161 -0.145 -1.289 -1.135 -1.722 -0.967 c -0.061 0.022 -0.137 0.388 -0.155 0.482 c 0.3 -2.426 -4.838 -6.746 -12.052 -7.604 c -7.52 -0.894 -13.217 0.743 -12.711 2.958 c 1.222 5.348 6.846 7.013 10.51 7.405 c 2.526 0.271 8.298 -0.577 11.675 -1.537 l 1.011 -0.317 c -1.999 1.009 -7.524 2.195 -9.767 2.403 c -0.744 0.07 -2.24 0.104 -2.986 0.085 c -5.949 -0.158 -10.16 -3.179 -11.729 -7.26 c -0.125 -0.328 -0.494 -0.619 -0.838 -0.696 c -1.604 -0.361 -5.096 -1.811 -5.096 -1.811 c 2.32 0.361 3.483 0.674 5.305 0.059 C 58.257 82.256 57.318 80.972 57.318 80.972 Z" data-colored="true" data-filltype="tone" data-stroketype="none"/></g></g><g id="svga-group-eyes-right" data-updown="0" data-leftright="0" data-dist="0" data-scaleX="1" data-scaleY="1" data-rotate="0"><g id="svga-group-eyesback-right"><path id="SvgjsPath2921" opacity="1" fill="url(#SvgjsRadialGradient2922)" d="M 138.048 84.523 c 0.506 -2.285 -5.191 -3.973 -12.711 -3.051 c -7.518 0.923 -12.738 5.524 -12.052 7.844 c 0.38 1.286 10.639 3.245 14.253 2.847 C 131.202 91.758 136.826 90.04 138.048 84.523 Z" data-colored="false" data-filltype="gradient" data-stroketype="none"/></g><g id="svga-group-eyesiriswrapper-right" transform="translate(0.75 -0.5)"><g id="svga-group-eyesiriscontrol-right" data-updown="0" data-leftright="0" data-dist="0" data-scaleX="1" data-scaleY="1" data-rotate="0"><g id="svga-group-eyesiris-right" data-updown="0" data-leftright="0" data-dist="0" data-scaleX="1" data-scaleY="1" data-rotate="0"><path id="SvgjsPath3174" opacity="1" fill="#3c8d8e" stroke="#0c5f60" stroke-width="0.5" d="M 133.199 89.25 c -1.231 4.522 -5.896 7.187 -10.429 5.944 c -4.528 -1.241 -7.203 -5.918 -5.97 -10.442 c 1.23 -4.526 5.905 -7.19 10.434 -5.947 C 131.761 80.045 134.433 84.723 133.199 89.25 Z" data-colored="true" data-filltype="tone" data-stroketype="sd3"/><path id="SvgjsPath3175" opacity="1" fill="#529c9d" stroke-width="none" d="M 131.878 89.354 c -1.202 3.473 -4.827 5.499 -8.357 4.531 c -3.258 -0.894 -5.315 -4.02 -5.048 -7.325 c 1.209 -0.096 2.532 -0.124 3.904 -0.056 c -0.014 0.047 -0.039 0.087 -0.051 0.136 c -0.434 1.594 0.576 3.265 2.256 3.726 c 1.685 0.461 3.401 -0.462 3.835 -2.056 c 0.055 -0.208 0.085 -0.417 0.093 -0.623 C 129.66 88.108 130.792 88.651 131.878 89.354 Z" data-colored="true" data-filltype="hl1" data-stroketype="none"/><path id="SvgjsPath3176" opacity="0.9" fill="#000000" stroke-width="none" d="M 126.151 84.464 c -1.703 -0.487 -3.44 0.485 -3.88 2.181 c -0.44 1.687 0.584 3.454 2.286 3.942 c 1.705 0.489 3.443 -0.484 3.884 -2.173 C 128.884 86.719 127.855 84.953 126.151 84.464 Z M 126.523 90.46 c -0.708 0.22 -1.441 -0.072 -1.636 -0.655 c -0.188 -0.582 0.231 -1.228 0.945 -1.443 c 0.712 -0.22 1.442 0.073 1.639 0.651 C 127.665 89.593 127.241 90.24 126.523 90.46 Z" data-colored="false" data-filltype="#000000" data-stroketype="none"/><path id="SvgjsPath3177" opacity="0.6" fill="#ffffff" stroke-width="none" d="M 120.482 91.476 c -0.523 0.314 -1.307 0.034 -1.754 -0.633 c -0.448 -0.66 -0.381 -1.451 0.145 -1.767 c 0.521 -0.311 1.311 -0.03 1.755 0.632 C 121.07 90.37 121.006 91.162 120.482 91.476 Z" data-colored="false" data-filltype="#ffffff" data-stroketype="none"/><path id="SvgjsPath3178" opacity="0.9" fill="#ffffff" stroke-width="none" d="M 131.673 86.632 c -1.198 0.718 -2.999 0.072 -4.02 -1.445 c -1.02 -1.518 -0.867 -3.331 0.332 -4.047 c 1.196 -0.721 3 -0.074 4.015 1.444 C 133.019 84.101 132.871 85.913 131.673 86.632 Z" data-colored="false" data-filltype="#ffffff" data-stroketype="none"/></g></g></g><g id="svga-group-eyesfront-right"><path id="SvgjsPath2956" opacity="1" fill="#f3d4cf" stroke-width="none" d="M 126.5 63 c -9.94 0 -18 11.192 -18 25 c 0 13.807 8.06 24.999 18 24.999 s 18 -11.192 18 -24.999 C 144.5 74.192 136.44 63 126.5 63 Z M 127.538 92.163 c -3.614 0.398 -13.873 -1.561 -14.253 -2.847 c -0.687 -2.32 4.534 -6.921 12.052 -7.844 c 7.52 -0.922 13.217 0.767 12.711 3.051 C 136.826 90.04 131.202 91.758 127.538 92.163 Z" data-colored="true" data-filltype="tone" data-stroketype="none" data-fromskin="true"/><path id="SvgjsPath2957" opacity="1" fill="url(#SvgjsRadialGradient2958)" d="M 127.538 92.163 c -3.614 0.398 -13.873 -1.561 -14.253 -2.847 c -0.687 -2.32 4.534 -6.921 12.052 -7.844 c 6.46 -0.792 11.563 0.345 12.556 2.128 c -0.898 -6.4 -7.7 -11.397 -15.987 -11.434 c -8.911 -0.037 -16.148 5.676 -16.172 12.765 c -0.021 7.088 7.185 12.862 16.095 12.902 c 8.913 0.037 16.149 -5.676 16.173 -12.764 c 0 -0.105 -0.016 -0.208 -0.019 -0.313 C 136.652 90.083 131.148 91.764 127.538 92.163 Z" data-colored="false" data-filltype="gradient" data-stroketype="none" data-fromskin="true"/><path id="SvgjsPath2962" opacity="1" fill="url(#SvgjsRadialGradient2963)" d="M 138.048 84.523 c 0.506 -2.285 -5.191 -3.973 -12.711 -3.051 c -7.518 0.923 -12.738 5.524 -12.052 7.844 c 0.38 1.286 10.639 3.245 14.253 2.847 C 131.202 91.758 136.826 90.04 138.048 84.523 Z" data-colored="false" data-filltype="gradient" data-stroketype="none"/><path id="SvgjsPath2966" opacity="1" fill="#c5796d" stroke-width="none" d="M 137.651 79.417 c -4.208 -1.978 -9.35 -2.16 -13.838 -1.005 c -2.404 0.561 -4.965 1.285 -7.063 2.638 c -1.945 1.135 -3.525 2.5 -5.002 4.19 c 1.342 -1.701 2.773 -3.118 4.623 -4.27 c 2.276 -1.416 4.769 -2.294 7.364 -2.916 C 128.322 76.928 133.458 77.184 137.651 79.417 Z" data-colored="true" data-filltype="sd3" data-stroketype="none" data-fromskin="true"/><path id="SvgjsPath2967" opacity="1" fill="#000000" stroke-width="none" d="M 142.682 80.972 c 0 0 -2.328 0.881 -3.595 0.62 c 0.39 -0.459 1.096 -1.604 1.096 -1.604 s -1.853 0.551 -3.151 0.032 c -0.88 -0.352 -4.065 -1 -5.456 -1.066 c -1.687 -0.082 -5.073 0.125 -6.735 0.424 c -3.374 0.608 -8.985 2.63 -11.678 7.184 c -0.255 0.572 -1.407 0.921 -1.407 0.921 s 1.02 -0.215 1.149 0.042 c 0.282 0.561 -1.298 2.016 -1.496 2.197 c 0.161 -0.145 1.289 -1.135 1.722 -0.967 c 0.061 0.022 0.137 0.388 0.155 0.482 c -0.3 -2.426 4.838 -6.746 12.052 -7.604 c 7.52 -0.894 13.217 0.743 12.711 2.958 c -1.222 5.348 -6.846 7.013 -10.51 7.405 c -2.526 0.271 -8.298 -0.577 -11.675 -1.537 l -1.011 -0.317 c 1.999 1.009 7.524 2.195 9.767 2.403 c 0.744 0.07 2.24 0.104 2.986 0.085 c 5.949 -0.158 10.16 -3.179 11.729 -7.26 c 0.125 -0.328 0.494 -0.619 0.838 -0.696 c 1.604 -0.361 5.096 -1.811 5.096 -1.811 c -2.32 0.361 -3.483 0.674 -5.305 0.059 C 141.743 82.256 142.682 80.972 142.682 80.972 Z" data-colored="true" data-filltype="tone" data-stroketype="none"/></g></g><g id="svga-group-facehighlight-single" data-updown="0" data-leftright="0" data-dist="0" data-scaleX="1" data-scaleY="1" data-rotate="0"><path id="SvgjsPath2753" opacity="1" fill="url(#SvgjsRadialGradient2754)" d="M 140.204 113.007 c 0.035 22.275 -17.995 40.365 -40.273 40.396 c -22.274 0.036 -40.361 -17.993 -40.396 -40.272 C 59.501 90.857 77.53 72.77 99.808 72.735 C 122.083 72.701 140.171 90.73 140.204 113.007 Z" data-colored="false" data-filltype="gradient" data-stroketype="none" data-fromskin="true"/><path id="SvgjsPath2757" opacity="1" fill="url(#SvgjsRadialGradient2758)" d="M 135 55.999 c 0 19.329 -15.671 35 -35 35 c -19.329 0 -35 -15.671 -35 -35 s 15.671 -35 35 -35 C 119.329 20.999 135 36.67 135 55.999 Z" data-colored="false" data-filltype="gradient" data-stroketype="none" data-fromskin="true"/></g><g id="svga-group-eyebrows-left" transform="rotate(7.5 71.8807 70.8935)" data-updown="0" data-leftright="0" data-dist="0" data-scaleX="1" data-scaleY="1" data-rotate="7.5000001"><path id="SvgjsPath3199" opacity="1" fill="#2a232b" stroke-width="none" d="M 93.3 76.245 c -9.176 -3.089 -12.813 -6.054 -20.729 -8.735 c -6.51 -2.206 -13.342 -2.613 -20.071 -1.34 c 8.225 0.782 11.916 0.809 20.316 3.833 C 79.624 72.455 85.97 75.91 93.3 76.245 Z" data-colored="true" data-filltype="#000000" data-stroketype="none"/></g><g id="svga-group-eyebrows-right" transform="rotate(-7.5 127.857 70.946)" data-updown="0" data-leftright="0" data-dist="0" data-scaleX="1" data-scaleY="1" data-rotate="-7.4999999"><path id="SvgjsPath3200" opacity="1" fill="#2a232b" stroke-width="none" d="M 106.5 76.545 c 9.176 -3.089 13.013 -6.354 20.929 -9.035 c 6.51 -2.206 13.342 -2.613 20.071 -1.34 c -8.225 0.782 -11.916 0.809 -20.316 3.833 C 120.376 72.455 113.83 76.21 106.5 76.545 Z" data-colored="true" data-filltype="#000000" data-stroketype="none"/></g><g id="svga-group-nose-single" data-updown="0" data-leftright="0" data-dist="0" data-scaleX="1" data-scaleY="1" data-rotate="0"><path id="SvgjsPath2890" opacity="1" fill="#e4b3ab" stroke="none" stroke-width="none" d="M 92.281 116.235 c -0.745 2.063 5.028 4.289 7.218 4.426 c 2.374 0.147 9.024 -2.899 7.896 -4.991 c -1.185 -2.197 -5.63 -0.286 -7.547 -0.286 C 97.94 115.384 93.276 113.479 92.281 116.235 Z" data-colored="true" data-filltype="sd1" data-stroketype="none" data-fromskin="true"/><path id="SvgjsPath2891" opacity="1" fill="#c5796d" stroke="none" stroke-width="none" d="M 102.207 117.221 c -0.243 -0.522 1.194 -1.333 1.748 -1.493 c 0.777 -0.226 2.505 0.238 2.438 0.831 c -0.06 0.521 -1.603 -0.169 -2.105 -0.022 C 103.767 116.687 102.435 117.712 102.207 117.221 Z M 95.214 116.742 c 0.706 0 1.753 0.457 1.945 0.057 c 0.229 -0.479 -1.56 -1.065 -2.086 -1 c -0.434 0.052 -1.991 0.958 -1.777 1.338 C 93.496 117.49 94.284 116.742 95.214 116.742 Z" data-colored="true" data-filltype="sd3" data-stroketype="none" data-fromskin="true"/><path id="SvgjsPath2892" opacity="0.2" fill="#ffffff" stroke="none" stroke-width="none" d="M 99.857 113.479 c 0.669 0 1.807 -0.637 1.978 -1.9 c 0.754 -5.575 -0.521 -20.246 -1.978 -20.246 c -1.365 0 -2.508 15.024 -2.155 20.246 C 97.789 112.86 99.099 113.479 99.857 113.479" data-colored="true" data-filltype="hl2" data-stroketype="none" data-fromskin="true"/></g><g id="svga-group-hair-front" data-updown="0" data-leftright="0" data-dist="0" data-scaleX="1" data-scaleY="1" data-rotate="0"><path id="SvgjsPath3115" opacity="0.1" fill="#6b4e40" stroke-width="none" d="M 47.869 62.985 c 3.513 -27.218 48.858 -44.766 54.189 -42.089 c 3.002 -1.44 59.328 41.036 59.561 62.839 c 0 0 -22.007 19.356 -22.043 12.485 c -0.167 -6.713 -13.667 -24.08 -19.264 -31.097 c -5.428 -6.805 -11.027 -15.225 -14.647 -23.392 c -4.578 8.854 -19.762 23.128 -25.737 27.531 C 67.71 78.266 61 97.833 57.482 108.704 c -0.619 1.911 -4.764 11.061 -5.409 13.031 C 47.527 110.639 44.016 90.357 47.869 62.985 Z" data-colored="true" data-filltype="tone" data-stroketype="none"/><path id="SvgjsPath3116" opacity="1" fill="#6b4e40" stroke-width="none" d="M 168.612 36.164 c -11.808 -25.213 -46.156 -48.481 -67.878 -36.371 C 56.411 -23.993 -12.496 66.971 47.647 132.54 c 0.04 0.039 0.068 0.08 0.106 0.117 c 6.074 6.596 13.227 12.621 20.452 17.504 c -7.228 -9.984 -13.803 -23.407 -15.666 -35.879 c 5.939 -18.021 9.266 -33.725 25.459 -47.317 c 11.026 -9.255 24.281 -19.122 26.669 -31.375 c 8.063 19.831 29.816 38.467 34.742 52.624 c 0.175 14.627 -3.735 28.098 -4.854 32.623 c 0.078 -0.156 0.164 -0.309 0.252 -0.461 c 2.984 -5.375 5.861 -10.77 7.771 -16.451 c 0.83 17.059 -5.808 30.435 -9.904 39.925 c -0.024 0.074 -0.057 0.152 -0.096 0.229 c 0.096 -0.055 0.184 -0.117 0.277 -0.174 c 10.322 -6.818 20.082 -19.361 26.105 -31.27 c -0.029 6.242 -0.487 14.134 -0.654 16.42 c 12.835 -17.958 14.087 -34.884 15.084 -37.911 c 1.148 5.97 3.297 11.975 4.45 14.41 C 177.24 88.977 179.117 61.413 168.612 36.164 Z" data-colored="true" data-filltype="tone" data-stroketype="none"/><path id="SvgjsPath3117" opacity="1" fill="#5c3d2e" stroke-width="none" d="M 51.208 109.438 c 0 -6.093 5.659 -15.235 9.328 -19.373 c -2.775 5.59 -9.544 23.984 -12.005 36.941 c -10.121 -26.649 -12.492 -60.43 1.831 -85.612 c -7.582 20.698 -12.034 42.867 -4.909 64.212 c -0.282 -10.386 -3.378 -28.761 11.511 -52.691 C 52.404 70.117 49.348 88.952 51.208 109.438 Z M 132.976 143.647 c 7.391 -16.72 11.956 -30.775 10.782 -43.793 c -2.152 -25.444 -27.056 -37.068 -38.985 -64.839 c 0.318 -1.777 0.471 -3.621 0.444 -5.539 c 9.521 17.034 19.978 32.215 32.325 47.389 c 8.24 11.171 9.617 24.143 9.675 37.368 c 8.372 -21.988 6.938 -47.563 -1.999 -68.982 c 10.55 22.035 11.512 45.986 7.673 69.938 c 9.591 -21.079 15.347 -44.071 9.591 -67.063 c 7.674 15.328 6.716 32.574 4.798 49.817 c 4.887 -15.444 4.245 -31.577 4.527 -47.23 c 4.599 17.244 5.055 34.973 5.669 53.032 c -1.95 -5.682 -2.966 -10.747 -3.828 -15.828 c -0.933 7.967 -8.212 29.021 -13.68 36.627 c 0.328 -4.131 1.277 -12.111 0.624 -15.301 c 7.063 -15.559 9.48 -33.147 4.829 -48.237 c 5.855 21.703 -3.052 49.26 -18.405 68.239 C 140.26 137.597 132.976 143.647 132.976 143.647 Z M 31.064 89.32 c -6.8 -45.275 9.097 -58.79 13.522 -70.31 c -29.467 43.476 -22.078 83.66 4.453 113.845 c -4.957 -12.771 -8.754 -27.238 -9.195 -40.821 c -2.356 -23.177 2.663 -43.048 16.813 -60.129 C 36.466 39.67 32.89 69.26 31.064 89.32 Z M 61.507 71.393 c 0.009 -0.046 0.054 -0.11 0.073 -0.151 c 6.306 -13.188 36.734 -34.118 34.307 -50.216 C 95.953 36.276 64.273 57.929 61.507 71.393 Z M 144.898 70.541 c -6.164 -26.016 -21.354 -29.824 -28.256 -47.629 C 121.069 39.346 141.615 56.636 144.898 70.541 Z M 156.993 57.518 c -0.429 -1 -2.813 -44.361 -41.932 -52.052 C 147.991 14.834 155.178 53.282 156.993 57.518 Z M 54.609 48.921 c 2.004 -8.177 19.884 -29.726 44.862 -36.666 C 66.938 18.025 56.496 41.245 54.609 48.921 Z" data-colored="true" data-filltype="sd1" data-stroketype="none"/><path id="SvgjsPath3118" opacity="1" fill="#4c2d1e" stroke-width="none" d="M 139.866 89.507 c 1.416 4.177 2.241 8.354 2.585 12.531 c -1.793 5.488 -4.423 10.873 -7.097 16.119 C 138.077 106.88 139.948 98.58 139.866 89.507 Z M 66.029 147.937 c -6.774 -9.178 -12.443 -20.299 -14.15 -31.596 c -1.161 3.689 -2.178 7.482 -3.069 11.373 c -0.164 1 -7.26 -16.94 -9.166 -35.68 c 0.441 13.583 3.739 27.053 8.696 39.825 C 53.527 137.663 59.466 143.026 66.029 147.937 Z" data-colored="true" data-filltype="sd2" data-stroketype="none"/><path id="SvgjsPath3119" opacity="1" fill="#7a6155" stroke-width="none" d="M 99.492 21.262 c 6.403 27.793 -34.873 40.474 -47.226 76.474 C 58.369 65.985 105.136 46.985 99.492 21.262 Z M 61.565 55.39 c 7.799 -16.374 20.656 -28.475 35.459 -38.564 C 80.005 25.778 68.787 37.707 61.565 55.39 Z M 44.976 31.335 C 57.328 16.982 73.192 2.764 93.413 6.039 C 71.708 -0.369 56.906 15.907 44.976 31.335 Z M 144.42 40.044 c -7.511 -14.379 -11.145 -24.352 -28.859 -28.113 C 128.931 15.938 138.894 27.608 144.42 40.044 Z M 160.831 41.313 c -8.623 -20.082 -15.026 -37.805 -40.267 -40.29 C 140.522 4.832 153.31 23.794 160.831 41.313 Z M 148.999 87.979 c -6.548 -25.538 -31.097 -43.208 -37.737 -69.219 C 117.109 44.848 140.279 62.557 148.999 87.979 Z" data-colored="true" data-filltype="hl1" data-stroketype="none"/><path id="SvgjsPath3120" opacity="1" fill="#3d2012" stroke-width="none" d="M 68.099 150.319 c -0.357 -0.24 -0.713 -0.482 -1.071 -0.742 c -7.286 -5.061 -13.82 -10.709 -19.416 -16.789 l -0.105 -0.117 c -18.576 -20.25 -26.419 -44.969 -22.688 -71.48 C 28.485 32.793 56.267 -4.408 85.672 -4.408 c 5.168 0 10.234 1.339 15.061 3.98 c 3.049 -1.681 6.354 -2.657 9.824 -2.902 c 0.989 -0.11 2.008 -0.165 3.02 -0.165 c 22.907 0 46.485 20.957 55.21 39.577 c 10.676 25.664 8.609 53.598 9.244 69.465 c -1.773 0.431 -4.38 -14.611 -4.7 -13.611 c -2.573 15.701 -7.636 27.015 -15.258 37.785 c 0.342 -5.056 0.642 -11.302 0.69 -16.279 c -5.813 11.226 -16.08 24.686 -26.651 31.145 c 0.644 -1.295 5.088 -11.688 6.555 -15.709 c 2.759 -8.625 3.989 -16.467 3.762 -23.93 c -1.189 3.328 -7.057 16.209 -8.058 15.842 c 1.29 -5.103 5.015 -18.297 4.849 -32.574 c -2.741 -7.384 -12.181 -19.162 -16.715 -24.847 c -6.644 -8.33 -13.507 -16.938 -17.777 -27.128 c -2.516 11.593 -15.759 20.462 -25.535 29.844 l -1.06 1.019 C 62.619 79.735 58.88 95.656 52.723 114.343 c 1.617 10.686 6.855 22.955 14.758 34.453 l 0.317 0.453 c 0.187 0.271 0.373 0.535 0.563 0.799 L 68.099 150.319 Z M 85.601 -3.042 c -27.724 0 -51.227 30.485 -57.536 57.25 c -8.282 38.193 6.515 69.453 37.047 92.8 c -5.138 -7.166 -11.279 -17.813 -13.293 -29.828 c -1.255 4.081 -2.127 7.559 -2.953 11.145 c -0.874 -1.174 -11.19 -25.575 -9.863 -52.053 c 1.522 -30.324 18.792 -47.229 19.792 -46.254 C 34.57 56.681 38.052 98.385 48.472 126.302 c 8.589 -43.809 21.73 -53.742 30.996 -62.736 c 9.346 -9.079 22.174 -17.653 24.512 -29.297 c 0.84 -3.792 0.87 -8.88 -0.459 -14.422 c 1 -0.263 2.621 8.516 1.45 15.145 c 4.28 9.938 11.15 18.077 17.798 25.946 c 11.641 13.784 20.032 24.737 21.18 38.901 c 1.676 18.497 -6.649 34.395 -10.519 43.248 c 9.021 -7.685 19.341 -20.076 25.357 -33.021 c 12.789 -27.033 6.814 -49.114 6.814 -49.114 c 4.394 14.256 2.641 31.864 -4.81 48.315 c 0.605 3.115 -0.233 10.563 -0.574 14.588 c 4.892 -7.168 12.303 -27.878 13.241 -35.958 c 0.15 -0.004 3.665 14.189 3.777 14.535 c -0.797 -25.368 -1.724 -48.296 -12.615 -70.531 c -7.655 -16.931 -31.764 -34.917 -52.126 -34.917 c -5.002 0 -10.735 1.879 -15.997 6.018 l -0.243 -0.296 c 1.055 -0.911 2.188 -1.744 3.368 -2.48 C 95.049 -1.944 90.333 -3.042 85.601 -3.042 Z M 136.789 112.726 c -0.259 1.234 -0.548 2.518 -0.87 3.895 c 2.262 -4.479 4.684 -9.54 6.353 -14.64 c -0.331 -3.818 -1.073 -7.623 -2.217 -11.269 C 139.975 98.485 138.447 105.874 136.789 112.726 Z" data-colored="true" data-filltype="sd3" data-stroketype="none"/></g><g id="svga-group-glasses-single" data-updown="0" data-leftright="0" data-dist="0" data-scaleX="1" data-scaleY="1" data-rotate="0"><path id="SvgjsPath2880" opacity="1" fill="#26120b" stroke-width="none" d="M 100 18.13 L 100 18.13 L 100 18.13 L 100 18.13 Z" data-colored="true" data-filltype="tone" data-stroketype="none"/></g></g></g><rect id="SvgjsRect1033" style="display:none;" opacity="0.5" fill="#ecf0f1" x="0" y="185" width="200" height="15"/><text id="SvgjsText1034" font-family="&quot;Roboto&quot;,&quot;Helvetica Neue&quot;,Helvetica,Arial,sans-serif" font-size="0.84em" font-weight="400" style="font-size:0.84em;font-family:&quot;Roboto&quot;, &quot;Helvetica Neue&quot;, Helvetica, Arial, sans-serif;text-anchor:middle;font-weight:400;display:none;" fill="#000000" text-anchor="middle" x="100" y="185"><tspan id="SvgjsTspan1035" style="font-size:0.84em;font-family:&quot;Roboto&quot;, &quot;Helvetica Neue&quot;, Helvetica, Arial, sans-serif;text-anchor:middle;font-weight:400;" x="100" dy="1.2em">Erstellt mit Avatars24.de</tspan></text></g><defs id="SvgjsDefs1001"><radialGradient class="svga-on-canvas-facehighlight-gradient-single-0" id="SvgjsRadialGradient2754" gradientUnits="userSpaceOnUse" cx="100" cy="113" r="40"><stop id="SvgjsStop2755" stop-color="rgb(255, 244, 243)" stop-opacity="0.5" offset="0" data-stoptype="hl1"/><stop id="SvgjsStop2756" stop-color="rgb(243, 212, 207)" stop-opacity="0" offset="0.9" data-stoptype="tone"/></radialGradient><radialGradient class="svga-on-canvas-facehighlight-gradient-single-1" id="SvgjsRadialGradient2758" gradientUnits="userSpaceOnUse" cx="100" cy="57" r="36"><stop id="SvgjsStop2759" stop-color="rgb(255, 244, 243)" stop-opacity="0.5" offset="0" data-stoptype="hl1"/><stop id="SvgjsStop2760" stop-color="rgb(243, 212, 207)" stop-opacity="0" offset="0.9" data-stoptype="tone"/></radialGradient><radialGradient class="svga-on-canvas-eyesback-gradient-left-0" id="SvgjsRadialGradient2915" gradientUnits="userSpaceOnUse" gradientTransform="matrix(-0.9945, 0.1042, 0.1042, 0.9945, 192.827, -12.4637)" cx="129.05" cy="85.956" r="15.117"><stop id="SvgjsStop2916" stop-color="rgb(255, 255, 255)" stop-opacity="1" offset="0" data-stoptype="#ffffff"/><stop id="SvgjsStop2917" stop-color="rgb(252, 253, 253)" stop-opacity="1" offset="0.316" data-stoptype="#fcfdfd"/><stop id="SvgjsStop2918" stop-color="rgb(244, 247, 248)" stop-opacity="1" offset="0.505" data-stoptype="#f4f7f8"/><stop id="SvgjsStop2919" stop-color="rgb(229, 236, 239)" stop-opacity="1" offset="0.661" data-stoptype="#e5ecef"/><stop id="SvgjsStop2920" stop-color="rgb(216, 226, 231)" stop-opacity="1" offset="0.76" data-stoptype="#d8e2e7"/></radialGradient><radialGradient class="svga-on-canvas-eyesback-gradient-right-0" id="SvgjsRadialGradient2922" gradientUnits="userSpaceOnUse" gradientTransform="matrix(0.9945, 0.1042, -0.1042, 0.9945, 7.1735, -12.4637)" cx="129.049" cy="85.956" r="15.117"><stop id="SvgjsStop2923" stop-color="rgb(255, 255, 255)" stop-opacity="1" offset="0" data-stoptype="#ffffff"/><stop id="SvgjsStop2924" stop-color="rgb(252, 253, 253)" stop-opacity="1" offset="0.316" data-stoptype="#fcfdfd"/><stop id="SvgjsStop2925" stop-color="rgb(244, 247, 248)" stop-opacity="1" offset="0.505" data-stoptype="#f4f7f8"/><stop id="SvgjsStop2926" stop-color="rgb(229, 236, 239)" stop-opacity="1" offset="0.661" data-stoptype="#e5ecef"/><stop id="SvgjsStop2927" stop-color="rgb(216, 226, 231)" stop-opacity="1" offset="0.76" data-stoptype="#d8e2e7"/></radialGradient><radialGradient class="svga-on-canvas-eyesfront-gradient-left-0" id="SvgjsRadialGradient2929" gradientUnits="userSpaceOnUse" gradientTransform="matrix(-0.9945, 0.1042, 0.1042, 0.9945, 192.827, -12.4637)" cx="129.05" cy="85.956" r="15.117"><stop id="SvgjsStop2930" stop-color="rgb(255, 255, 255)" stop-opacity="1" offset="0" data-stoptype="#ffffff"/><stop id="SvgjsStop2931" stop-color="rgb(252, 253, 253)" stop-opacity="1" offset="0.316" data-stoptype="#fcfdfd"/><stop id="SvgjsStop2932" stop-color="rgb(244, 247, 248)" stop-opacity="1" offset="0.505" data-stoptype="#f4f7f8"/><stop id="SvgjsStop2933" stop-color="rgb(229, 236, 239)" stop-opacity="1" offset="0.661" data-stoptype="#e5ecef"/><stop id="SvgjsStop2934" stop-color="rgb(216, 226, 231)" stop-opacity="1" offset="0.76" data-stoptype="#d8e2e7"/></radialGradient><radialGradient class="svga-on-canvas-eyesfront-gradient-left-3" id="SvgjsRadialGradient2938" gradientUnits="userSpaceOnUse" gradientTransform="matrix(0.9998, 0.0208, 0.0166, -0.7998, -44.9524, 149.543)" cx="121.786" cy="84.496" r="16.003" fx="133.039" fy="84.527"><stop id="SvgjsStop2939" stop-color="rgb(228, 179, 171)" stop-opacity="1" offset="0" data-stoptype="sd1"/><stop id="SvgjsStop2940" stop-color="rgb(228, 179, 171)" stop-opacity="0.3" offset="0.7" data-stoptype="sd1"/><stop id="SvgjsStop2941" stop-color="rgb(243, 212, 207)" stop-opacity="0" offset="1" data-stoptype="tone"/></radialGradient><radialGradient class="svga-on-canvas-eyesfront-gradient-left-4" id="SvgjsRadialGradient2943" gradientUnits="userSpaceOnUse" gradientTransform="matrix(1.0336, 0, 0, 1.0336, -1.6792, 1.7282)" cx="69.124" cy="107.529" r="29.525"><stop id="SvgjsStop2944" stop-color="rgb(0, 0, 0)" stop-opacity="0" offset="0.95" data-stoptype="#000000"/><stop id="SvgjsStop2945" stop-color="rgb(0, 0, 0)" stop-opacity="0.3" offset="1" data-stoptype="#000000"/></radialGradient><radialGradient class="svga-on-canvas-eyesfront-gradient-right-0" id="SvgjsRadialGradient2949" gradientUnits="userSpaceOnUse" gradientTransform="matrix(0.9945, 0.1042, -0.1042, 0.9945, 7.1735, -12.4637)" cx="129.049" cy="85.956" r="15.117"><stop id="SvgjsStop2950" stop-color="rgb(255, 255, 255)" stop-opacity="1" offset="0" data-stoptype="#ffffff"/><stop id="SvgjsStop2951" stop-color="rgb(252, 253, 253)" stop-opacity="1" offset="0.316" data-stoptype="#fcfdfd"/><stop id="SvgjsStop2952" stop-color="rgb(244, 247, 248)" stop-opacity="1" offset="0.505" data-stoptype="#f4f7f8"/><stop id="SvgjsStop2953" stop-color="rgb(229, 236, 239)" stop-opacity="1" offset="0.661" data-stoptype="#e5ecef"/><stop id="SvgjsStop2954" stop-color="rgb(216, 226, 231)" stop-opacity="1" offset="0.76" data-stoptype="#d8e2e7"/></radialGradient><radialGradient class="svga-on-canvas-eyesfront-gradient-right-3" id="SvgjsRadialGradient2958" gradientUnits="userSpaceOnUse" gradientTransform="matrix(-0.9998, 0.0208, -0.0166, -0.7998, 244.952, 149.543)" cx="121.786" cy="84.496" r="16.003" fx="133.039" fy="84.527"><stop id="SvgjsStop2959" stop-color="rgb(228, 179, 171)" stop-opacity="1" offset="0" data-stoptype="sd1"/><stop id="SvgjsStop2960" stop-color="rgb(228, 179, 171)" stop-opacity="0.3" offset="0.7" data-stoptype="sd1"/><stop id="SvgjsStop2961" stop-color="rgb(243, 212, 207)" stop-opacity="0" offset="1" data-stoptype="tone"/></radialGradient><radialGradient class="svga-on-canvas-eyesfront-gradient-right-4" id="SvgjsRadialGradient2963" gradientUnits="userSpaceOnUse" gradientTransform="matrix(-1.0336, 0, 0, 1.0336, 201.679, 1.7282)" cx="69.124" cy="107.529" r="29.525"><stop id="SvgjsStop2964" stop-color="rgb(0, 0, 0)" stop-opacity="0" offset="0.95" data-stoptype="#000000"/><stop id="SvgjsStop2965" stop-color="rgb(0, 0, 0)" stop-opacity="0.3" offset="1" data-stoptype="#000000"/></radialGradient><linearGradient class="svga-on-canvas-chinshadow-gradient-single-0" id="SvgjsLinearGradient3076" gradientUnits="userSpaceOnUse" x1="99.98" y1="171.27" x2="99.98" y2="136.351"><stop id="SvgjsStop3077" stop-color="rgb(228, 179, 171)" stop-opacity="0.8" offset="0" data-stoptype="sd1"/><stop id="SvgjsStop3078" stop-color="rgb(197, 121, 109)" stop-opacity="1" offset="0.7" data-stoptype="sd3"/></linearGradient><linearGradient class="svga-on-canvas-mouth-gradient-single-0" id="SvgjsLinearGradient3088" gradientUnits="userSpaceOnUse" x1="100" y1="142" x2="100" y2="139"><stop id="SvgjsStop3089" stop-color="rgb(235, 195, 189)" stop-opacity="1" offset="0.1" data-stoptype="sd05"/><stop id="SvgjsStop3090" stop-color="rgb(228, 179, 171)" stop-opacity="1" offset="1" data-stoptype="sd1"/></linearGradient><radialGradient class="svga-on-canvas-eyesiris-gradient-left-1" id="SvgjsRadialGradient3125" gradientUnits="userSpaceOnUse" gradientTransform="matrix(0.096, -0.0248, 0.0245, 0.0961, 140.548, 120.358)" cx="-558.588" cy="-490.918" r="84.646"><stop id="SvgjsStop3126" stop-color="rgb(255, 255, 255)" stop-opacity="0.8" offset="0" data-stoptype="#ffffff"/><stop id="SvgjsStop3127" stop-color="rgb(255, 255, 255)" stop-opacity="0" offset="1" data-stoptype="#ffffff"/></radialGradient><radialGradient class="svga-on-canvas-eyesiris-gradient-left-2" id="SvgjsRadialGradient3129" gradientUnits="userSpaceOnUse" gradientTransform="matrix(0.0991, 0.000885632, -0.0011, 0.0991, 130.377, 136.353)" cx="-565.337" cy="-492.691" r="84.644"><stop id="SvgjsStop3130" stop-color="rgb(255, 255, 255)" stop-opacity="0.8" offset="0" data-stoptype="#ffffff"/><stop id="SvgjsStop3131" stop-color="rgb(255, 255, 255)" stop-opacity="0" offset="1" data-stoptype="#ffffff"/></radialGradient><linearGradient class="svga-on-canvas-eyesiris-gradient-left-5" id="SvgjsLinearGradient3135" gradientUnits="userSpaceOnUse" gradientTransform="matrix(1, 0, 0, 1, -52, 0)" x1="122.283" y1="93.047" x2="123.61" y2="91.466"><stop id="SvgjsStop3136" stop-color="rgb(255, 255, 255)" stop-opacity="1" offset="0" data-stoptype="#ffffff"/><stop id="SvgjsStop3137" stop-color="rgb(255, 255, 255)" stop-opacity="0" offset="1" data-stoptype="#ffffff"/></linearGradient><linearGradient class="svga-on-canvas-eyesiris-gradient-left-6" id="SvgjsLinearGradient3139" gradientUnits="userSpaceOnUse" gradientTransform="matrix(1, 0, 0, 1, -50, 0)" x1="127" y1="85" x2="125" y2="87"><stop id="SvgjsStop3140" stop-color="rgb(255, 255, 255)" stop-opacity="1" offset="0" data-stoptype="#ffffff"/><stop id="SvgjsStop3141" stop-color="rgb(255, 255, 255)" stop-opacity="0" offset="1" data-stoptype="#ffffff"/></linearGradient><linearGradient class="svga-on-canvas-eyesiris-gradient-left-7" id="SvgjsLinearGradient3143" gradientUnits="userSpaceOnUse" gradientTransform="matrix(1, 0, 0, 1, -50, 0)" x1="130" y1="81" x2="126" y2="85"><stop id="SvgjsStop3144" stop-color="rgb(255, 255, 255)" stop-opacity="1" offset="0" data-stoptype="#ffffff"/><stop id="SvgjsStop3145" stop-color="rgb(255, 255, 255)" stop-opacity="0" offset="1" data-stoptype="#ffffff"/></linearGradient><radialGradient class="svga-on-canvas-eyesiris-gradient-right-1" id="SvgjsRadialGradient3148" gradientUnits="userSpaceOnUse" gradientTransform="matrix(0.096, -0.0248, 0.0245, 0.0961, 192.479, 119.84)" cx="-578.76" cy="-490.73" r="84.646"><stop id="SvgjsStop3149" stop-color="rgb(255, 255, 255)" stop-opacity="0.8" offset="0" data-stoptype="#ffffff"/><stop id="SvgjsStop3150" stop-color="rgb(255, 255, 255)" stop-opacity="0" offset="1" data-stoptype="#ffffff"/></radialGradient><radialGradient class="svga-on-canvas-eyesiris-gradient-right-2" id="SvgjsRadialGradient3152" gradientUnits="userSpaceOnUse" gradientTransform="matrix(0.0991, 0.000885632, -0.0011, 0.0991, 182.31, 135.839)" cx="-584.778" cy="-487.329" r="84.644"><stop id="SvgjsStop3153" stop-color="rgb(255, 255, 255)" stop-opacity="0.8" offset="0" data-stoptype="#ffffff"/><stop id="SvgjsStop3154" stop-color="rgb(255, 255, 255)" stop-opacity="0" offset="1" data-stoptype="#ffffff"/></radialGradient><linearGradient class="svga-on-canvas-eyesiris-gradient-right-5" id="SvgjsLinearGradient3158" gradientUnits="userSpaceOnUse" x1="120.284" y1="93.047" x2="121.611" y2="91.467"><stop id="SvgjsStop3159" stop-color="rgb(255, 255, 255)" stop-opacity="1" offset="0" data-stoptype="#ffffff"/><stop id="SvgjsStop3160" stop-color="rgb(255, 255, 255)" stop-opacity="0" offset="1" data-stoptype="#ffffff"/></linearGradient><linearGradient class="svga-on-canvas-eyesiris-gradient-right-6" id="SvgjsLinearGradient3162" gradientUnits="userSpaceOnUse" x1="127" y1="85" x2="125" y2="87"><stop id="SvgjsStop3163" stop-color="rgb(255, 255, 255)" stop-opacity="1" offset="0" data-stoptype="#ffffff"/><stop id="SvgjsStop3164" stop-color="rgb(255, 255, 255)" stop-opacity="0" offset="1" data-stoptype="#ffffff"/></linearGradient><linearGradient class="svga-on-canvas-eyesiris-gradient-right-7" id="SvgjsLinearGradient3166" gradientUnits="userSpaceOnUse" x1="130" y1="81" x2="126" y2="85"><stop id="SvgjsStop3167" stop-color="rgb(255, 255, 255)" stop-opacity="1" offset="0" data-stoptype="#ffffff"/><stop id="SvgjsStop3168" stop-color="rgb(255, 255, 255)" stop-opacity="0" offset="1" data-stoptype="#ffffff"/></linearGradient></defs></svg>