<svg xmlns="http://www.w3.org/2000/svg" class="svga-svg" id="svga-svgcanvas" style="position:relative;overflow:hidden;left:0px;top:0px;" viewBox="0 0 200 200" preserveAspectRatio="xMinYMin meet" version="1.1" xmlns:NS1="http://www.w3.org/2000/svg" NS1:xlink="http://www.w3.org/1999/xlink"><g id="svga-group-wrapper"><g id="svga-group-backs-single"/><g id="svga-group-subwrapper" transform="matrix(0.849999, 0, 0, 0.849999, 15.0077, 17.2003)" data-updown="0" data-leftright="0" data-dist="0" data-scaleX="0.84999937" data-scaleY="0.84999937" data-rotate="0"><g id="svga-group-hair-back" data-updown="0" data-leftright="0" data-dist="0" data-scaleX="1" data-scaleY="1" data-rotate="0"><path id="SvgjsPath3157" opacity="1" fill="#4c2d1e" stroke-width="none" d="M 160.527 108.896 c -0.826 32.13 -5.272 102.953 -58.469 102.589 c -80.381 -0.551 -60.969 -69.5 -61.767 -102.589 c -1.15 -47.67 26.917 -86.339 60.118 -86.339 C 133.611 22.558 161.753 61.229 160.527 108.896 Z" data-colored="true" data-filltype="sd2" data-stroketype="none"/></g><g id="svga-group-humanbody-single"><path id="SvgjsPath2761" opacity="1" fill="#f3d4cf" stroke="none" stroke-width="none" d="M 190.858 199.866 c -6.008 -10.158 -13.474 -11.973 -19.628 -13.936 c -6.323 -2.016 -19.346 -3.178 -26.449 -4.6 c -6.86 -1.373 -23.153 -5.789 -23.339 -13.488 c -0.192 -8.066 4.291 -40.09 4.291 -40.09 H 74.005 c 0 0 4.487 32.023 4.294 40.09 c -0.184 7.699 -16.48 12.115 -23.341 13.488 c -7.104 1.422 -20.125 2.584 -26.448 4.6 c -6.156 1.963 -13.624 3.777 -19.632 13.936 c -3.644 6.16 -6.008 16.133 -6.008 27.133 h 194 C 196.869 215.999 194.509 206.026 190.858 199.866 Z" data-colored="true" data-filltype="tone" data-stroketype="none" data-fromskin="true"/><path id="SvgjsPath2762" opacity="1" fill="#fff4f3" stroke="none" stroke-width="none" d="M 121.442 167.843 c 2.495 10.929 18.165 13.698 26.293 15.325 c 21.909 4.379 33.772 5.134 42.297 19.539 c 2.903 4.916 5.459 15.864 5.962 24.153 c 1.835 0.291 0.531 -17.432 -5.136 -26.994 c -9.742 -16.472 -29.089 -15.135 -46.077 -18.535 C 137.921 179.958 121.628 175.542 121.442 167.843 L 121.442 167.843 Z M 78.558 167.843 c -0.186 7.699 -16.479 12.115 -23.339 13.488 c -16.988 3.4 -36.335 2.063 -46.077 18.535 c -5.667 9.563 -6.971 27.285 -5.136 26.994 c 0.503 -8.289 3.059 -19.237 5.962 -24.153 c 8.524 -14.405 20.388 -15.16 42.297 -19.539 C 60.393 181.541 76.063 178.771 78.558 167.843 L 78.558 167.843 Z" data-colored="true" data-filltype="hl1" data-stroketype="none" data-fromskin="true"/><path id="SvgjsPath2763" opacity="1" fill="#e4b3ab" stroke="none" stroke-width="none" d="M 51.206 189.513 c 0 0 28.641 0.299 33.473 1.885 c 2.314 0.758 8.372 5.633 8.372 5.633 s -6.556 -3.17 -8.658 -3.758 C 79.51 191.909 51.206 189.513 51.206 189.513 Z M 99.795 199.999 c 2.053 -0.041 7.887 -3.799 7.887 -3.799 s -5.574 2.059 -7.342 2.16 c -1.491 0.086 -6.366 -1.238 -6.366 -1.238 S 98.112 200.032 99.795 199.999 Z M 117.008 192.757 c 6.75 -1.818 29.786 -3.23 29.786 -3.23 s -23.791 -0.516 -30.51 1.725 c -2.252 0.752 -7.562 5.16 -7.562 5.16 S 114.786 193.354 117.008 192.757 Z" data-colored="true" data-filltype="sd1" data-stroketype="none" data-fromskin="true"/><path id="SvgjsPath2764" opacity="1" fill="none" stroke="#c5796d" stroke-width="1.5" d="M 190.858 199.866 c -9.741 -16.471 -29.122 -15.142 -46.077 -18.535 c -6.86 -1.373 -23.153 -5.789 -23.339 -13.488 c -0.192 -8.066 4.291 -40.09 4.291 -40.09 H 74.005 c 0 0 4.487 32.023 4.294 40.09 c -0.184 7.699 -16.48 12.115 -23.341 13.488 c -7.104 1.422 -20.125 2.584 -26.448 4.6 c -6.156 1.963 -13.624 3.777 -19.632 13.936 c -3.644 6.16 -6.008 16.133 -6.008 27.133 h 194 C 196.869 215.999 194.509 206.026 190.858 199.866 Z" data-colored="true" data-filltype="none" data-stroketype="sd3" data-fromskin="true"/></g><g id="svga-group-chinshadow-single"><path id="SvgjsPath2910" opacity="1" fill="url(#SvgjsLinearGradient2911)" d="M 100.021 171.27 c 5.607 -0.009 13.53 -3.627 20.967 -8.478 c 0.485 -6.84 1.756 -17.341 2.758 -25.098 c -13.972 -1.825 -33.828 -1.785 -47.741 0.101 c 0.995 7.702 2.249 18.065 2.739 24.877 C 86.278 167.593 94.344 171.279 100.021 171.27 Z" data-colored="false" data-filltype="gradient" data-stroketype="none" data-fromskin="true"/></g><g id="svga-group-clothes-single" data-updown="0" data-leftright="0" data-dist="0" data-scaleX="1" data-scaleY="1" data-rotate="0"><path id="SvgjsPath3143" opacity="1" fill="#09aac5" stroke-width="none" d="M 110.139 228.889 c -17.864 0 -38.7 -0.069 -63.699 -0.213 l -22.105 -0.12 c -13.348 -0.072 -16.001 -0.087 -17.631 -0.087 l -4.573 0.006 c 0.032 -40.523 20.015 -43.334 41.17 -46.313 c 7.271 -1.023 14.789 -2.082 21.584 -4.733 c 8.525 11.975 21.924 13.591 33.912 13.591 c 0.667 0 1.341 -0.006 2.016 -0.017 c 12.668 -0.285 27.552 -4.774 32.317 -14.161 c 0.614 0.234 1.186 0.504 1.738 0.766 c 0.621 0.293 1.263 0.597 1.974 0.854 c 4.65 1.684 10.432 2.48 16.552 3.324 c 20.011 2.76 44.916 6.193 44.578 45.069 c 0.003 0.154 0.004 1.097 -0.012 1.392 c -11.682 0 -19.607 0.113 -28.782 0.244 c -12.445 0.178 -27.935 0.398 -59.027 0.398 C 110.145 228.889 110.142 228.889 110.139 228.889 Z" data-colored="true" data-filltype="tone" data-stroketype="none"/><path id="SvgjsPath3144" opacity="1" fill="#1fbad4" stroke-width="none" d="M 197.869 226.999 c -2.027 -5.485 -0.96 -15.439 -6.837 -24.292 c -11.653 -17.556 -33.322 -15.948 -53.227 -21.639 c -4.204 8.565 -12.24 13.539 -21.429 16.39 l -0.016 -0.047 c 9.016 -3.198 16.683 -8.066 21.003 -16.475 c -0.501 -0.146 -1.001 -0.292 -1.499 -0.448 l 0.956 -1.836 c 24.187 7.439 43.709 2.062 55.037 21.214 C 195.509 206.026 197.869 215.999 197.869 226.999 Z M 57.233 182.344 c 1.267 -0.294 2.53 -0.607 3.788 -0.948 l -1.332 -1.765 c -23.343 6.027 -40.887 2.21 -51.548 20.235 c -3.65 6.16 -6.011 16.133 -6.011 27.133 c 2.027 -5.485 0.96 -15.439 6.837 -24.292 c 10.571 -15.926 29.385 -16.085 47.646 -20.225 c 6.519 8.028 16.042 13.7 26.402 15.333 C 70.02 194.425 61.938 188.143 57.233 182.344 Z" data-colored="true" data-filltype="hl1" data-stroketype="none"/><path id="SvgjsPath3145" opacity="1" fill="#009cb6" stroke-width="none" d="M 132.08 178.811 c -4.996 7.702 -18.542 12.955 -33.907 12.955 c -15.182 0 -27.706 -5.206 -33.5 -13.926 l -0.044 -0.065 l 1.235 1.856 c -1.369 0.581 -4.817 1.748 -4.817 1.748 l -1.446 -1.86 l 0.089 0.117 c 0.271 0.354 0.553 0.736 0.851 1.14 c 4.359 5.904 11.656 15.785 36.296 15.785 c 2.162 0 4.443 -0.079 6.78 -0.235 c 16.303 -1.168 26.873 -6.359 32.244 -15.839 C 135.806 180.464 133.352 179.456 132.08 178.811 Z" data-colored="true" data-filltype="sd1" data-stroketype="none"/><path id="SvgjsPath3146" opacity="1" fill="#008197" stroke-width="none" d="M 133.079 176.717 c -5.041 10.081 -21.03 13.934 -32.27 14.187 c -14.635 0.228 -27.563 -1.841 -35.89 -13.597 c -26.368 10.344 -62.89 -3.587 -62.89 51.269 c 9.28 0 -4.304 -0.062 44.41 0.2 c 115.375 0.663 115.16 -0.43 151.61 -0.43 c 0.027 -0.131 0.023 -1.356 0.021 -1.49 c 0.44 -50.604 -41.021 -41.186 -61.195 -48.488 C 135.504 177.871 134.422 177.218 133.079 176.717 Z M 64.589 177.896 c 13.809 20.776 60.199 16.511 68.44 -0.561 c 1.12 0.471 2.34 0.94 3.64 1.4 c -3.904 8.186 -12.275 16.001 -33.06 17.49 c -32.014 2.134 -39.41 -10.844 -43.84 -16.65 C 59.905 179.537 63.225 178.407 64.589 177.896 Z M 2.169 228.405 c 2.5 -22.877 4.756 -39.219 32.69 -44.068 c 9.593 -1.77 14.509 -1.939 24.83 -4.731 c 7.873 10.792 15.739 18.518 44.7 17.3 c 21.37 -2.377 28.569 -9.619 32.461 -18.1 c 26.52 8.347 59.285 -0.172 60.88 49.38 C 147.265 227.529 98.51 226.216 2.169 228.405 Z" data-colored="true" data-filltype="sd3" data-stroketype="none"/></g><g id="svga-group-head" data-updown="0" data-leftright="0" data-dist="0" data-scaleX="1" data-scaleY="1" data-rotate="0"><g id="svga-group-ears-left" style="display:none;" data-updown="0" data-leftright="0" data-dist="0" data-scaleX="1" data-scaleY="1" data-rotate="0"><path id="SvgjsPath2774" opacity="1" fill="#f3d4cf" stroke="#c5796d" stroke-width="1.5" d="M 47.001 83.974 c -1.376 -2.313 -5.638 -7.997 -9.98 -6.603 c -2.749 0.882 -3.293 3.765 -3.735 6.311 c -0.588 3.386 0.471 10.083 1.389 12.503 c 0.881 2.325 3.533 6.816 5.264 8.527 c 2.13 2.1 4.775 8.793 5.194 9.487 c 0.66 1.097 1.536 2.745 4.122 2.538 c 2.853 -0.229 4.584 -1.742 5.856 -1.999 C 58.253 114.109 50.582 89.995 47.001 83.974 Z" data-colored="true" data-filltype="tone" data-stroketype="sd3"/><path id="SvgjsPath2775" opacity="1" fill="#c5796d" stroke="none" stroke-width="none" d="M 44.197 97.997 c -0.132 -0.548 0.007 -1.47 0.142 -2.362 c 0.124 -0.812 0.24 -1.579 0.169 -2.121 c -0.267 -2.032 -1.773 -5.893 -2.757 -7.985 c -1.132 -2.407 -2.963 -5.439 -5.262 -6.221 c -0.95 -0.324 -1.575 0.063 -1.938 0.456 c -0.266 0.289 -0.325 0.627 -0.238 0.667 c 0.086 0.04 0.285 -0.24 0.572 -0.504 c 0.235 -0.216 0.579 -0.402 1.051 -0.363 c -0.19 1.011 -1.167 6.49 -0.744 10.225 c 0.333 2.938 1.593 5.131 1.79 5.46 c 0.029 0.346 0.077 0.685 0.148 1.014 c 0.929 4.287 4.971 9.163 6.378 10.758 c 0.259 0.295 0.531 0.47 0.598 0.398 c 0.066 -0.072 -0.094 -0.364 -0.353 -0.66 c -1.388 -1.585 -5.391 -6.442 -6.289 -10.579 c -0.952 -4.389 2.318 -10.896 3.048 -12.272 c 0.371 0.646 0.687 1.267 0.93 1.785 c 0.19 0.406 0.402 0.881 0.619 1.395 c -0.429 0.718 -3.434 5.958 -2.338 10.153 c 0.406 1.546 2.235 3.54 3.447 4.086 c 0.667 0.301 0.919 0.75 1.209 1.271 c 0.336 0.604 0.718 1.288 1.828 1.784 c 0.225 0.102 0.429 0.142 0.61 0.142 c 0.313 0 0.551 -0.126 0.725 -0.276 c 0.018 0.266 0.017 0.604 0.009 0.917 c -0.012 0.404 0.042 0.737 0.137 0.745 c 0.094 0.008 0.196 -0.313 0.207 -0.717 c 0.016 -0.496 0.013 -1.11 -0.072 -1.403 c -0.248 -0.865 -1.008 -1.841 -1.813 -2.875 C 45.221 99.896 44.403 98.844 44.197 97.997 Z M 36.95 94.196 c -2.177 -6.731 0.656 -12.54 1.144 -13.464 c 0.85 0.775 1.6 1.811 2.21 2.824 C 39.86 84.365 37.041 89.669 36.95 94.196 Z M 46.341 104.042 c -1.004 -0.447 -1.339 -1.051 -1.666 -1.633 c -0.293 -0.527 -0.598 -1.072 -1.369 -1.42 c -0.168 -0.075 -0.352 -0.191 -0.542 -0.323 c -2.486 -5.906 0.272 -8.488 0.963 -9.017 c 0.211 0.722 0.369 1.384 0.439 1.915 c 0.063 0.488 -0.052 1.263 -0.167 2.012 c -0.142 0.929 -0.286 1.89 -0.137 2.512 c 0.226 0.926 1.069 2.009 1.884 3.057 c 0.723 0.929 1.466 1.888 1.721 2.67 C 47.359 103.972 47.017 104.345 46.341 104.042 Z" data-colored="true" data-filltype="sd3" data-stroketype="none"/></g><g id="svga-group-ears-right" style="display:none;" data-updown="0" data-leftright="0" data-dist="0" data-scaleX="1" data-scaleY="1" data-rotate="0"><path id="SvgjsPath2776" opacity="1" fill="#f3d4cf" stroke="#c5796d" stroke-width="1.5" d="M 152.736 83.974 c 1.377 -2.313 5.639 -7.997 9.98 -6.603 c 2.75 0.882 3.293 3.765 3.736 6.311 c 0.588 3.386 -0.471 10.083 -1.389 12.503 c -0.881 2.325 -3.533 6.816 -5.266 8.527 c -2.129 2.1 -4.775 8.793 -5.193 9.487 c -0.658 1.097 -1.535 2.745 -4.121 2.538 c -2.854 -0.229 -4.584 -1.742 -5.857 -1.999 C 141.484 114.109 149.156 89.995 152.736 83.974 Z" data-colored="true" data-filltype="tone" data-stroketype="sd3"/><path id="SvgjsPath2777" opacity="1" fill="#c5796d" stroke="none" stroke-width="none" d="M 153.727 100.913 c -0.805 1.033 -1.564 2.009 -1.813 2.875 c -0.086 0.293 -0.088 0.907 -0.072 1.403 c 0.012 0.404 0.113 0.725 0.207 0.717 s 0.148 -0.341 0.137 -0.745 c -0.008 -0.313 -0.008 -0.651 0.01 -0.917 c 0.174 0.15 0.412 0.276 0.725 0.276 c 0.182 0 0.385 -0.04 0.609 -0.142 c 1.109 -0.496 1.492 -1.18 1.828 -1.784 c 0.289 -0.52 0.543 -0.969 1.209 -1.271 c 1.213 -0.546 3.041 -2.54 3.447 -4.086 c 1.096 -4.194 -1.908 -9.435 -2.338 -10.153 c 0.217 -0.513 0.43 -0.988 0.619 -1.395 c 0.244 -0.518 0.559 -1.139 0.93 -1.785 c 0.73 1.377 4 7.883 3.049 12.272 c -0.896 4.137 -4.9 8.994 -6.289 10.579 c -0.258 0.296 -0.418 0.588 -0.352 0.66 c 0.066 0.071 0.338 -0.104 0.598 -0.398 c 1.406 -1.596 5.449 -6.471 6.379 -10.758 c 0.07 -0.329 0.117 -0.668 0.146 -1.014 c 0.197 -0.329 1.459 -2.523 1.791 -5.46 c 0.422 -3.735 -0.555 -9.214 -0.744 -10.225 c 0.473 -0.039 0.814 0.146 1.051 0.363 c 0.287 0.264 0.486 0.544 0.572 0.504 s 0.027 -0.378 -0.238 -0.667 c -0.363 -0.393 -0.988 -0.779 -1.938 -0.456 c -2.299 0.782 -4.131 3.814 -5.262 6.221 c -0.984 2.093 -2.49 5.953 -2.758 7.985 c -0.072 0.542 0.045 1.309 0.17 2.121 c 0.135 0.892 0.273 1.814 0.141 2.362 C 155.336 98.844 154.518 99.896 153.727 100.913 Z M 159.434 83.555 c 0.611 -1.013 1.361 -2.049 2.211 -2.824 c 0.488 0.925 3.32 6.733 1.145 13.464 C 162.697 89.669 159.879 84.365 159.434 83.555 Z M 152.27 103.816 c 0.254 -0.782 0.998 -1.741 1.721 -2.67 c 0.816 -1.048 1.658 -2.131 1.885 -3.057 c 0.148 -0.622 0.004 -1.583 -0.137 -2.512 c -0.115 -0.749 -0.23 -1.524 -0.166 -2.012 c 0.068 -0.531 0.227 -1.193 0.438 -1.915 c 0.691 0.529 3.449 3.111 0.965 9.017 c -0.191 0.132 -0.375 0.248 -0.543 0.323 c -0.771 0.348 -1.074 0.893 -1.369 1.42 c -0.326 0.582 -0.662 1.186 -1.666 1.633 C 152.721 104.345 152.379 103.972 152.27 103.816 Z" data-colored="true" data-filltype="sd3" data-stroketype="none"/></g><g id="svga-group-faceshape-wrap" data-updown="0" data-leftright="0" data-dist="0" data-scaleX="1" data-scaleY="1" data-rotate="0"><g id="svga-group-faceshape-single" data-updown="0" data-leftright="0" data-dist="0" data-scaleX="1" data-scaleY="1" data-rotate="0"><path id="SvgjsPath2907" opacity="1" fill="#f3d4cf" stroke="none" stroke-width="none" d="M 158.785 76.762 l -0.005 0 c -0.012 0.053 -10.717 44.373 -18.919 56.95 c -6.452 9.895 -28.166 25.54 -39.84 25.558 c -11.671 0.02 -33.437 -15.559 -39.918 -25.433 C 51.861 121.285 41.017 77 41.005 76.946 h -0.001 c -1.298 -4.911 -1.994 -10.066 -2.002 -15.382 C 38.949 28.09 66.155 0.919 99.773 0.867 c 33.621 -0.052 60.913 27.033 60.964 60.507 C 160.746 66.69 160.068 71.846 158.785 76.762 Z" data-colored="true" data-filltype="tone" data-stroketype="none"/><path id="SvgjsPath2908" opacity="1" fill="#ebc3bd" stroke="none" stroke-width="none" d="M 125.766 6.622 c 19.104 10.248 32.075 30.355 32.039 53.476 c -0.009 5.316 -0.704 10.471 -2.003 15.382 h -0.001 c -0.012 0.053 -10.856 44.339 -19.099 56.891 c -5.946 9.061 -24.555 25.121 -36.833 25.121 c -12.279 0 -30.886 -16.061 -36.833 -25.121 c -8.242 -12.552 -19.086 -56.837 -19.098 -56.891 h -0.001 c -1.298 -4.911 -1.994 -10.066 -2.002 -15.382 C 41.898 36.977 54.87 16.87 73.972 6.622 C 53.277 16.324 38.963 37.28 39.001 61.564 c 0.008 5.316 0.704 10.471 2.002 15.382 h 0.001 c 0.012 0.053 10.856 44.339 19.098 56.891 c 4.416 6.728 15.922 16.095 26.5 21.382 c -0.529 -0.226 -1.062 -0.466 -1.599 -0.717 c 5.408 2.875 10.664 4.763 14.713 4.768 c 0.049 0 0.103 -0.005 0.152 -0.005 s 0.103 0.005 0.152 0.005 c 4.049 -0.005 9.305 -1.893 14.714 -4.768 c -0.538 0.253 -1.071 0.491 -1.601 0.718 c 10.577 -5.287 22.085 -14.655 26.501 -21.383 c 8.242 -12.552 19.087 -56.837 19.098 -56.891 h 0.002 c 1.298 -4.911 1.994 -10.066 2.002 -15.382 C 160.775 37.28 146.462 16.324 125.766 6.622 Z" data-colored="true" data-filltype="sd05" data-stroketype="none"/><path id="SvgjsPath2909" opacity="1" fill="none" stroke="#c5796d" stroke-width="1.5" d="M 158.785 76.762 l -0.005 0 c -0.012 0.053 -10.717 44.373 -18.919 56.95 c -6.452 9.895 -28.166 25.54 -39.84 25.558 c -11.671 0.02 -33.437 -15.559 -39.918 -25.433 C 51.861 121.285 41.017 77 41.005 76.946 h -0.001 c -1.298 -4.911 -1.994 -10.066 -2.002 -15.382 C 38.949 28.09 66.155 0.919 99.773 0.867 c 33.621 -0.052 60.913 27.033 60.964 60.507 C 160.746 66.69 160.068 71.846 158.785 76.762 Z" data-colored="true" data-filltype="none" data-stroketype="sd3"/></g></g><g id="svga-group-mouth-single" data-updown="0" data-leftright="0" data-dist="0" data-scaleX="1" data-scaleY="1" data-rotate="0"><path id="SvgjsPath3176" opacity="1" fill="url(#SvgjsLinearGradient3177)" d="M 100.356 140.602 c -3.24 0 -4.597 -2.678 -4.597 -2.678 l 9.125 -0.188 C 104.884 137.735 103.207 140.602 100.356 140.602 Z" data-colored="false" data-filltype="gradient" data-stroketype="none" data-fromskin="true"/><path id="SvgjsPath3180" opacity="1" fill="#c5796d" stroke-width="none" d="M 98.886 138 c -1.668 0 -2.938 -0.171 -3.027 -0.184 c -0.137 -0.02 -0.232 -0.146 -0.213 -0.282 c 0.019 -0.138 0.147 -0.227 0.282 -0.214 c 0.037 0.006 5.699 0.5 8.766 -0.195 c 0.146 -0.03 0.27 0.057 0.3 0.189 c 0.03 0.135 -0.055 0.269 -0.188 0.299 C 103.485 137.912 100.082 138 98.886 138 Z M 85.369 133.556 c -0.341 -0.663 4.217 -1.252 6.361 -1.551 c 2.848 -0.396 5.715 0.208 8.556 0.479 c 2.232 0.213 4.496 -0.74 6.736 -0.436 c 2.484 0.338 7.716 0.804 7.347 1.594 c -0.256 0.548 -4.696 -0.308 -7.049 -0.396 c -2.183 -0.084 -4.387 0.556 -6.563 0.73 c -2.703 0.217 -5.375 -1.096 -8.07 -0.933 C 90.247 133.19 85.659 134.119 85.369 133.556 Z" data-colored="true" data-filltype="sd3" data-stroketype="none" data-fromskin="true"/></g><g id="svga-group-eyes-left" data-updown="0" data-leftright="0" data-dist="0" data-scaleX="1" data-scaleY="1" data-rotate="0"><g id="svga-group-eyesback-left"><path id="SvgjsPath3023" opacity="1" fill="url(#SvgjsRadialGradient3024)" d="M 61.952 84.523 c -0.506 -2.285 5.191 -3.973 12.711 -3.051 c 7.518 0.923 12.738 5.524 12.052 7.844 c -0.38 1.286 -10.639 3.245 -14.253 2.847 C 68.798 91.758 63.174 90.04 61.952 84.523 Z" data-colored="false" data-filltype="gradient" data-stroketype="none"/></g><g id="svga-group-eyesiriswrapper-left" transform="translate(-0.75 -0.5)"><g id="svga-group-eyesiriscontrol-left" data-updown="0" data-leftright="0" data-dist="0" data-scaleX="1" data-scaleY="1" data-rotate="0"><g id="svga-group-eyesiris-left" data-updown="0" data-leftright="0" data-dist="0" data-scaleX="1" data-scaleY="1" data-rotate="0"><path id="SvgjsPath3166" opacity="1" fill="#8ab42d" stroke="#5c8600" stroke-width="0.5" d="M 83.199 89.25 c -1.231 4.522 -5.896 7.187 -10.429 5.944 c -4.528 -1.241 -7.203 -5.918 -5.97 -10.442 c 1.23 -4.526 5.905 -7.19 10.434 -5.947 C 81.761 80.045 84.433 84.723 83.199 89.25 Z" data-colored="true" data-filltype="tone" data-stroketype="sd3"/><path id="SvgjsPath3167" opacity="1" fill="#9cc344" stroke-width="none" d="M 81.878 89.354 c -1.202 3.473 -4.827 5.499 -8.357 4.531 c -3.258 -0.894 -5.315 -4.02 -5.048 -7.325 c 1.209 -0.096 2.532 -0.124 3.904 -0.056 c -0.014 0.047 -0.039 0.087 -0.051 0.136 c -0.434 1.594 0.576 3.265 2.256 3.726 c 1.685 0.461 3.401 -0.462 3.835 -2.056 c 0.055 -0.208 0.085 -0.417 0.093 -0.623 C 79.66 88.108 80.792 88.651 81.878 89.354 Z" data-colored="true" data-filltype="hl1" data-stroketype="none"/><path id="SvgjsPath3168" opacity="0.9" fill="#000000" stroke-width="none" d="M 76.151 84.464 c -1.703 -0.487 -3.44 0.485 -3.88 2.181 c -0.44 1.687 0.584 3.454 2.286 3.942 c 1.705 0.489 3.443 -0.484 3.884 -2.173 C 78.884 86.719 77.855 84.953 76.151 84.464 Z M 76.523 90.46 c -0.708 0.22 -1.441 -0.072 -1.636 -0.655 c -0.188 -0.582 0.231 -1.228 0.945 -1.443 c 0.712 -0.22 1.442 0.073 1.639 0.651 C 77.665 89.593 77.241 90.24 76.523 90.46 Z" data-colored="false" data-filltype="#000000" data-stroketype="none"/><path id="SvgjsPath3169" opacity="0.6" fill="#ffffff" stroke-width="none" d="M 70.482 91.476 c -0.523 0.314 -1.307 0.034 -1.754 -0.633 c -0.448 -0.66 -0.381 -1.451 0.145 -1.767 c 0.521 -0.311 1.311 -0.03 1.755 0.632 C 71.07 90.37 71.006 91.162 70.482 91.476 Z" data-colored="false" data-filltype="#ffffff" data-stroketype="none"/><path id="SvgjsPath3170" opacity="0.9" fill="#ffffff" stroke-width="none" d="M 81.673 86.632 c -1.198 0.718 -2.999 0.072 -4.02 -1.445 c -1.02 -1.518 -0.867 -3.331 0.332 -4.047 c 1.196 -0.721 3 -0.074 4.015 1.444 C 83.019 84.101 82.871 85.913 81.673 86.632 Z" data-colored="false" data-filltype="#ffffff" data-stroketype="none"/></g></g></g><g id="svga-group-eyesfront-left"><path id="SvgjsPath3045" opacity="1" fill="#f3d4cf" stroke-width="none" d="M 55.5 88 c 0 13.807 8.06 24.999 18 24.999 s 18 -11.192 18 -24.999 c 0 -13.808 -8.06 -25 -18 -25 S 55.5 74.192 55.5 88 Z M 61.952 84.523 c -0.506 -2.285 5.191 -3.973 12.711 -3.051 c 7.518 0.923 12.738 5.524 12.052 7.844 c -0.38 1.286 -10.639 3.245 -14.253 2.847 C 68.798 91.758 63.174 90.04 61.952 84.523 Z" data-colored="true" data-filltype="tone" data-stroketype="none" data-fromskin="true"/><path id="SvgjsPath3046" opacity="1" fill="url(#SvgjsRadialGradient3047)" d="M 72.462 92.163 c 3.614 0.398 13.873 -1.561 14.253 -2.847 c 0.687 -2.32 -4.534 -6.921 -12.052 -7.844 c -6.46 -0.792 -11.563 0.345 -12.556 2.128 c 0.898 -6.4 7.7 -11.397 15.987 -11.434 c 8.911 -0.037 16.148 5.676 16.172 12.765 c 0.021 7.088 -7.185 12.862 -16.095 12.902 c -8.913 0.037 -16.149 -5.676 -16.173 -12.764 c 0 -0.105 0.016 -0.208 0.019 -0.313 C 63.348 90.083 68.852 91.764 72.462 92.163 Z" data-colored="false" data-filltype="gradient" data-stroketype="none" data-fromskin="true"/><path id="SvgjsPath3051" opacity="1" fill="url(#SvgjsRadialGradient3052)" d="M 61.952 84.523 c -0.506 -2.285 5.191 -3.973 12.711 -3.051 c 7.518 0.923 12.738 5.524 12.052 7.844 c -0.38 1.286 -10.639 3.245 -14.253 2.847 C 68.798 91.758 63.174 90.04 61.952 84.523 Z" data-colored="false" data-filltype="gradient" data-stroketype="none"/><path id="SvgjsPath3055" opacity="1" fill="#c5796d" stroke-width="none" d="M 62.349 79.417 c 4.208 -1.978 9.35 -2.16 13.838 -1.005 c 2.404 0.561 4.965 1.285 7.063 2.638 c 1.945 1.135 3.525 2.5 5.002 4.19 c -1.342 -1.701 -2.773 -3.118 -4.623 -4.27 c -2.276 -1.416 -4.769 -2.294 -7.364 -2.916 C 71.678 76.928 66.542 77.184 62.349 79.417 Z" data-colored="true" data-filltype="sd3" data-stroketype="none" data-fromskin="true"/><path id="SvgjsPath3056" opacity="1" fill="#000000" stroke-width="none" d="M 57.318 80.972 c 0 0 2.328 0.881 3.595 0.62 c -0.39 -0.459 -1.096 -1.604 -1.096 -1.604 s 1.853 0.551 3.151 0.032 c 0.88 -0.352 4.065 -1 5.456 -1.066 c 1.687 -0.082 5.073 0.125 6.735 0.424 c 3.374 0.608 8.985 2.63 11.678 7.184 c 0.255 0.572 1.407 0.921 1.407 0.921 s -1.02 -0.215 -1.149 0.042 c -0.282 0.561 1.298 2.016 1.496 2.197 c -0.161 -0.145 -1.289 -1.135 -1.722 -0.967 c -0.061 0.022 -0.137 0.388 -0.155 0.482 c 0.3 -2.426 -4.838 -6.746 -12.052 -7.604 c -7.52 -0.894 -13.217 0.743 -12.711 2.958 c 1.222 5.348 6.846 7.013 10.51 7.405 c 2.526 0.271 8.298 -0.577 11.675 -1.537 l 1.011 -0.317 c -1.999 1.009 -7.524 2.195 -9.767 2.403 c -0.744 0.07 -2.24 0.104 -2.986 0.085 c -5.949 -0.158 -10.16 -3.179 -11.729 -7.26 c -0.125 -0.328 -0.494 -0.619 -0.838 -0.696 c -1.604 -0.361 -5.096 -1.811 -5.096 -1.811 c 2.32 0.361 3.483 0.674 5.305 0.059 C 58.257 82.256 57.318 80.972 57.318 80.972 Z" data-colored="true" data-filltype="tone" data-stroketype="none"/></g></g><g id="svga-group-eyes-right" data-updown="0" data-leftright="0" data-dist="0" data-scaleX="1" data-scaleY="1" data-rotate="0"><g id="svga-group-eyesback-right"><path id="SvgjsPath3030" opacity="1" fill="url(#SvgjsRadialGradient3031)" d="M 138.048 84.523 c 0.506 -2.285 -5.191 -3.973 -12.711 -3.051 c -7.518 0.923 -12.738 5.524 -12.052 7.844 c 0.38 1.286 10.639 3.245 14.253 2.847 C 131.202 91.758 136.826 90.04 138.048 84.523 Z" data-colored="false" data-filltype="gradient" data-stroketype="none"/></g><g id="svga-group-eyesiriswrapper-right" transform="translate(0.75 -0.5)"><g id="svga-group-eyesiriscontrol-right" data-updown="0" data-leftright="0" data-dist="0" data-scaleX="1" data-scaleY="1" data-rotate="0"><g id="svga-group-eyesiris-right" data-updown="0" data-leftright="0" data-dist="0" data-scaleX="1" data-scaleY="1" data-rotate="0"><path id="SvgjsPath3171" opacity="1" fill="#8ab42d" stroke="#5c8600" stroke-width="0.5" d="M 133.199 89.25 c -1.231 4.522 -5.896 7.187 -10.429 5.944 c -4.528 -1.241 -7.203 -5.918 -5.97 -10.442 c 1.23 -4.526 5.905 -7.19 10.434 -5.947 C 131.761 80.045 134.433 84.723 133.199 89.25 Z" data-colored="true" data-filltype="tone" data-stroketype="sd3"/><path id="SvgjsPath3172" opacity="1" fill="#9cc344" stroke-width="none" d="M 131.878 89.354 c -1.202 3.473 -4.827 5.499 -8.357 4.531 c -3.258 -0.894 -5.315 -4.02 -5.048 -7.325 c 1.209 -0.096 2.532 -0.124 3.904 -0.056 c -0.014 0.047 -0.039 0.087 -0.051 0.136 c -0.434 1.594 0.576 3.265 2.256 3.726 c 1.685 0.461 3.401 -0.462 3.835 -2.056 c 0.055 -0.208 0.085 -0.417 0.093 -0.623 C 129.66 88.108 130.792 88.651 131.878 89.354 Z" data-colored="true" data-filltype="hl1" data-stroketype="none"/><path id="SvgjsPath3173" opacity="0.9" fill="#000000" stroke-width="none" d="M 126.151 84.464 c -1.703 -0.487 -3.44 0.485 -3.88 2.181 c -0.44 1.687 0.584 3.454 2.286 3.942 c 1.705 0.489 3.443 -0.484 3.884 -2.173 C 128.884 86.719 127.855 84.953 126.151 84.464 Z M 126.523 90.46 c -0.708 0.22 -1.441 -0.072 -1.636 -0.655 c -0.188 -0.582 0.231 -1.228 0.945 -1.443 c 0.712 -0.22 1.442 0.073 1.639 0.651 C 127.665 89.593 127.241 90.24 126.523 90.46 Z" data-colored="false" data-filltype="#000000" data-stroketype="none"/><path id="SvgjsPath3174" opacity="0.6" fill="#ffffff" stroke-width="none" d="M 120.482 91.476 c -0.523 0.314 -1.307 0.034 -1.754 -0.633 c -0.448 -0.66 -0.381 -1.451 0.145 -1.767 c 0.521 -0.311 1.311 -0.03 1.755 0.632 C 121.07 90.37 121.006 91.162 120.482 91.476 Z" data-colored="false" data-filltype="#ffffff" data-stroketype="none"/><path id="SvgjsPath3175" opacity="0.9" fill="#ffffff" stroke-width="none" d="M 131.673 86.632 c -1.198 0.718 -2.999 0.072 -4.02 -1.445 c -1.02 -1.518 -0.867 -3.331 0.332 -4.047 c 1.196 -0.721 3 -0.074 4.015 1.444 C 133.019 84.101 132.871 85.913 131.673 86.632 Z" data-colored="false" data-filltype="#ffffff" data-stroketype="none"/></g></g></g><g id="svga-group-eyesfront-right"><path id="SvgjsPath3065" opacity="1" fill="#f3d4cf" stroke-width="none" d="M 126.5 63 c -9.94 0 -18 11.192 -18 25 c 0 13.807 8.06 24.999 18 24.999 s 18 -11.192 18 -24.999 C 144.5 74.192 136.44 63 126.5 63 Z M 127.538 92.163 c -3.614 0.398 -13.873 -1.561 -14.253 -2.847 c -0.687 -2.32 4.534 -6.921 12.052 -7.844 c 7.52 -0.922 13.217 0.767 12.711 3.051 C 136.826 90.04 131.202 91.758 127.538 92.163 Z" data-colored="true" data-filltype="tone" data-stroketype="none" data-fromskin="true"/><path id="SvgjsPath3066" opacity="1" fill="url(#SvgjsRadialGradient3067)" d="M 127.538 92.163 c -3.614 0.398 -13.873 -1.561 -14.253 -2.847 c -0.687 -2.32 4.534 -6.921 12.052 -7.844 c 6.46 -0.792 11.563 0.345 12.556 2.128 c -0.898 -6.4 -7.7 -11.397 -15.987 -11.434 c -8.911 -0.037 -16.148 5.676 -16.172 12.765 c -0.021 7.088 7.185 12.862 16.095 12.902 c 8.913 0.037 16.149 -5.676 16.173 -12.764 c 0 -0.105 -0.016 -0.208 -0.019 -0.313 C 136.652 90.083 131.148 91.764 127.538 92.163 Z" data-colored="false" data-filltype="gradient" data-stroketype="none" data-fromskin="true"/><path id="SvgjsPath3071" opacity="1" fill="url(#SvgjsRadialGradient3072)" d="M 138.048 84.523 c 0.506 -2.285 -5.191 -3.973 -12.711 -3.051 c -7.518 0.923 -12.738 5.524 -12.052 7.844 c 0.38 1.286 10.639 3.245 14.253 2.847 C 131.202 91.758 136.826 90.04 138.048 84.523 Z" data-colored="false" data-filltype="gradient" data-stroketype="none"/><path id="SvgjsPath3075" opacity="1" fill="#c5796d" stroke-width="none" d="M 137.651 79.417 c -4.208 -1.978 -9.35 -2.16 -13.838 -1.005 c -2.404 0.561 -4.965 1.285 -7.063 2.638 c -1.945 1.135 -3.525 2.5 -5.002 4.19 c 1.342 -1.701 2.773 -3.118 4.623 -4.27 c 2.276 -1.416 4.769 -2.294 7.364 -2.916 C 128.322 76.928 133.458 77.184 137.651 79.417 Z" data-colored="true" data-filltype="sd3" data-stroketype="none" data-fromskin="true"/><path id="SvgjsPath3076" opacity="1" fill="#000000" stroke-width="none" d="M 142.682 80.972 c 0 0 -2.328 0.881 -3.595 0.62 c 0.39 -0.459 1.096 -1.604 1.096 -1.604 s -1.853 0.551 -3.151 0.032 c -0.88 -0.352 -4.065 -1 -5.456 -1.066 c -1.687 -0.082 -5.073 0.125 -6.735 0.424 c -3.374 0.608 -8.985 2.63 -11.678 7.184 c -0.255 0.572 -1.407 0.921 -1.407 0.921 s 1.02 -0.215 1.149 0.042 c 0.282 0.561 -1.298 2.016 -1.496 2.197 c 0.161 -0.145 1.289 -1.135 1.722 -0.967 c 0.061 0.022 0.137 0.388 0.155 0.482 c -0.3 -2.426 4.838 -6.746 12.052 -7.604 c 7.52 -0.894 13.217 0.743 12.711 2.958 c -1.222 5.348 -6.846 7.013 -10.51 7.405 c -2.526 0.271 -8.298 -0.577 -11.675 -1.537 l -1.011 -0.317 c 1.999 1.009 7.524 2.195 9.767 2.403 c 0.744 0.07 2.24 0.104 2.986 0.085 c 5.949 -0.158 10.16 -3.179 11.729 -7.26 c 0.125 -0.328 0.494 -0.619 0.838 -0.696 c 1.604 -0.361 5.096 -1.811 5.096 -1.811 c -2.32 0.361 -3.483 0.674 -5.305 0.059 C 141.743 82.256 142.682 80.972 142.682 80.972 Z" data-colored="true" data-filltype="tone" data-stroketype="none"/></g></g><g id="svga-group-facehighlight-single" data-updown="0" data-leftright="0" data-dist="0" data-scaleX="1" data-scaleY="1" data-rotate="0"><path id="SvgjsPath2753" opacity="1" fill="url(#SvgjsRadialGradient2754)" d="M 140.204 113.007 c 0.035 22.275 -17.995 40.365 -40.273 40.396 c -22.274 0.036 -40.361 -17.993 -40.396 -40.272 C 59.501 90.857 77.53 72.77 99.808 72.735 C 122.083 72.701 140.171 90.73 140.204 113.007 Z" data-colored="false" data-filltype="gradient" data-stroketype="none" data-fromskin="true"/><path id="SvgjsPath2757" opacity="1" fill="url(#SvgjsRadialGradient2758)" d="M 135 55.999 c 0 19.329 -15.671 35 -35 35 c -19.329 0 -35 -15.671 -35 -35 s 15.671 -35 35 -35 C 119.329 20.999 135 36.67 135 55.999 Z" data-colored="false" data-filltype="gradient" data-stroketype="none" data-fromskin="true"/></g><g id="svga-group-eyebrows-left" data-updown="0" data-leftright="0" data-dist="0" data-scaleX="1" data-scaleY="1" data-rotate="0"><path id="SvgjsPath2778" opacity="1" fill="#2a232b" stroke-width="none" d="M 74.799 69.068 c -4.425 -0.475 -21.252 3.714 -21.252 3.714 s 16.789 -6.74 23.757 -5.667 c 5.188 0.798 14.397 5.077 12.706 7.339 C 88.649 76.275 84.408 70.1 74.799 69.068 Z" data-colored="true" data-filltype="#000000" data-stroketype="none"/></g><g id="svga-group-eyebrows-right" data-updown="0" data-leftright="0" data-dist="0" data-scaleX="1" data-scaleY="1" data-rotate="0"><path id="SvgjsPath2779" opacity="1" fill="#2a232b" stroke-width="none" d="M 109.731 74.187 c -1.713 -2.292 7.592 -6.31 13.546 -6.804 c 7.117 -0.59 22.914 4.085 22.914 4.085 s -15.9 -2.628 -20.377 -2.106 C 115.998 70.506 111.11 76.031 109.731 74.187 Z" data-colored="true" data-filltype="#000000" data-stroketype="none"/></g><g id="svga-group-nose-single" data-updown="0" data-leftright="0" data-dist="0" data-scaleX="1" data-scaleY="1" data-rotate="0"><path id="SvgjsPath2890" opacity="1" fill="#e4b3ab" stroke="none" stroke-width="none" d="M 92.281 116.235 c -0.745 2.063 5.028 4.289 7.218 4.426 c 2.374 0.147 9.024 -2.899 7.896 -4.991 c -1.185 -2.197 -5.63 -0.286 -7.547 -0.286 C 97.94 115.384 93.276 113.479 92.281 116.235 Z" data-colored="true" data-filltype="sd1" data-stroketype="none" data-fromskin="true"/><path id="SvgjsPath2891" opacity="1" fill="#c5796d" stroke="none" stroke-width="none" d="M 102.207 117.221 c -0.243 -0.522 1.194 -1.333 1.748 -1.493 c 0.777 -0.226 2.505 0.238 2.438 0.831 c -0.06 0.521 -1.603 -0.169 -2.105 -0.022 C 103.767 116.687 102.435 117.712 102.207 117.221 Z M 95.214 116.742 c 0.706 0 1.753 0.457 1.945 0.057 c 0.229 -0.479 -1.56 -1.065 -2.086 -1 c -0.434 0.052 -1.991 0.958 -1.777 1.338 C 93.496 117.49 94.284 116.742 95.214 116.742 Z" data-colored="true" data-filltype="sd3" data-stroketype="none" data-fromskin="true"/><path id="SvgjsPath2892" opacity="0.2" fill="#ffffff" stroke="none" stroke-width="none" d="M 99.857 113.479 c 0.669 0 1.807 -0.637 1.978 -1.9 c 0.754 -5.575 -0.521 -20.246 -1.978 -20.246 c -1.365 0 -2.508 15.024 -2.155 20.246 C 97.789 112.86 99.099 113.479 99.857 113.479" data-colored="true" data-filltype="hl2" data-stroketype="none" data-fromskin="true"/></g><g id="svga-group-hair-front" data-updown="0" data-leftright="0" data-dist="0" data-scaleX="1" data-scaleY="1" data-rotate="0"><path id="SvgjsPath3159" opacity="0.1" fill="#6b4e40" stroke-width="none" d="M 137.933 141.731 c 16.512 -55.946 -2.844 -86.784 -5.085 -96.474 c -0.461 -1.994 -2.839 -7.675 -2.839 -7.675 c -8.857 -4.884 -13.91 -5.96 -24.344 -5.96 c -7.02 0 -10.784 0.161 -17.606 2.384 c -7.164 7.132 -27.936 32.674 -36.394 51.778 c 4.185 15.866 6.826 68.128 4.833 72.716 c -15.408 0.498 -9.962 -129.099 -9.962 -129.099 c 5.36 0 103.2 -4.161 108.719 -4.161 C 155.255 25.241 161.143 139.85 137.933 141.731 Z" data-colored="true" data-filltype="tone" data-stroketype="none"/><path id="SvgjsPath3160" opacity="1" fill="#6b4e40" stroke-width="none" d="M 129.421 235.813 c 7.562 -15.873 5.54 -26.495 3.584 -36.774 c -1.463 -7.688 -2.978 -15.637 -0.401 -25.709 c -0.845 -13.438 2.629 -24.662 6.307 -36.547 c 7.017 -22.68 14.97 -48.384 -6.036 -96.463 l -0.026 -0.062 l -0.061 -0.033 c -8.857 -4.884 -19.055 -7.465 -29.488 -7.465 c -7.02 0 -14.039 1.127 -20.861 3.351 c -7.164 7.132 -24.063 29.375 -32.521 48.479 c 0.245 3.976 0.862 8.197 1.927 13.381 c 4.34 21.321 4.5 38.71 4.654 55.53 c 0.23 25.185 0.45 48.987 15.491 81.027 c -1.855 -1.622 -3.654 -3.18 -5.397 -4.688 c -18.63 -16.117 -30.938 -26.765 -34.354 -51.049 l -0.398 0.021 c 0 0 -0.33 9.248 -0.47 13.14 C 21.141 141.693 19.924 101.158 25.877 60.5 C 30.869 26.402 62.752 -6.334 88.302 -6.334 c 5.36 0 10.53 0.952 15.365 2.83 l 0.073 0.028 l 0.072 -0.029 c 6.084 -2.401 11.969 -3.619 17.488 -3.619 c 16.125 0 29.904 7.554 39.849 27.521 c 11.614 23.322 17.796 59.631 16.534 97.126 c -1.229 36.535 -9.174 68.096 -21.295 84.732 c 0.656 -3.462 0.867 -5.002 1.26 -8.908 l -0.388 -0.089 c -7.468 20.085 -17.243 30.866 -26.698 41.292 C 130.182 234.974 129.8 235.394 129.421 235.813 Z" data-colored="true" data-filltype="tone" data-stroketype="none"/><path id="SvgjsPath3161" opacity="1" fill="#5c3d2e" stroke-width="none" d="M 50.023 86.038 c 0.295 3.558 0.885 7.374 1.822 11.934 c 4.341 21.321 4.5 38.712 4.654 55.53 c 0.231 25.185 0.45 48.987 15.491 81.027 c -1.855 -1.623 -3.654 -3.18 -5.397 -4.688 c -9.569 -8.279 -17.466 -15.118 -23.351 -23.1 c -9.281 -17.978 -12.373 -31.131 -12.373 -60.673 c 4.5 24.167 5.667 36.329 23.74 60.667 C 36.699 171.857 29.855 120.033 50.023 86.038 Z M 175.502 121.842 C 173.57 134.101 170.613 161.006 166 173 c 2.684 -17.925 2.144 -23.32 2 -41 c -4 23 -9.352 50.397 -20 68 c 3.834 -15.765 7.255 -28.928 7.255 -48.595 C 150.202 170.072 141.482 173.074 140 187 c 3.888 -36.515 20.87 -75.267 3.842 -113.642 c 5.986 28.08 0.275 46.59 -4.933 63.424 c -3.679 11.885 -7.15 23.11 -6.308 36.547 c -2.574 10.071 -1.061 18.021 0.402 25.709 c 1.956 10.28 3.979 20.901 -3.584 36.773 c 0.379 -0.419 0.76 -0.839 1.143 -1.261 c 9.455 -10.426 19.23 -21.207 26.698 -41.292 l 0.388 0.089 c -0.393 3.906 -0.604 5.446 -1.26 8.908 C 168.029 186.278 173.814 156.535 175.502 121.842 Z M 37.27 72.427 c -2.445 5.423 -6.514 62.265 -3.284 74.552 c 0.046 0.17 -0.056 -0.172 -0.268 -0.912 C 28.817 130.232 34.444 77.602 37.27 72.427 Z M 28.995 149.658 c 0.151 1.726 0.322 2.77 0.297 2.562 c -0.132 -0.51 -1.95 -44.056 -1.492 -44.315 c 0.1 -0.021 0.069 0.018 0.102 0.025 C 26.832 108.215 27.775 136.716 28.995 149.658 Z M 161.813 133.315 c -1.464 16.704 -5.294 35.469 -2.028 18.988 c 5.737 -27.943 7.126 -52.795 0.201 -80.288 C 162.865 85.764 164.776 96.6 161.813 133.315 Z" data-colored="true" data-filltype="sd1" data-stroketype="none"/><path id="SvgjsPath3162" opacity="1" fill="#73574a" stroke-width="none" d="M 127 29 c 16.888 6.402 32 75 26 115 c 10.155 -44 7.566 -81.265 -11 -119 c 16.968 27.907 24.125 38.909 26.371 82.435 c 3.32 -19.596 2.846 -43.368 -0.37 -69.895 c -2.007 -6.258 -4.298 -12.015 -6.852 -17.143 C 151.206 0.43 137.427 -7.124 121.302 -7.124 c -5.521 0 -11.403 1.218 -17.489 3.619 l -0.071 0.029 l -0.073 -0.028 c -4.835 -1.878 -10.005 -2.83 -15.365 -2.83 c -12.584 0 -27.104 8.274 -39.002 20.577 C 32.418 39.738 27.122 71.139 28 101 c 1 -24 13 -48 28 -66 c -11 26 -19 53 -20 81 c 6 -39 35.469 -88.265 58 -96 c 6.9 -2.369 15.467 -1.286 17.615 6.42 c 1.188 1.846 1.794 4.125 1.385 6.58 c 1.407 -1.126 2.791 -1.964 4.165 -2.536 C 120.504 27.823 124.108 27.904 127 29 Z" data-colored="true" data-filltype="hl05" data-stroketype="none"/><path id="SvgjsPath3163" opacity="1" fill="#4c2d1e" stroke-width="none" d="M 113 33 c 1 -6 -5 -11.6 -10 -11.6 c -8.118 0 -16.148 7.781 -21.182 15.339 c 0.212 -0.22 0.42 -0.433 0.619 -0.63 c 6.822 -2.224 13.841 -3.351 20.861 -3.351 c 10.435 0 20.63 2.582 29.488 7.465 l 0.06 0.033 l 0.027 0.062 c 0.054 0.123 0.102 0.24 0.152 0.362 c -0.271 -3.492 -4.157 -7.681 -6.063 -9.05 C 121.964 28.63 117.881 28.408 113 33 Z" data-colored="true" data-filltype="sd2" data-stroketype="none"/><path id="SvgjsPath3164" opacity="1" fill="#6b4e40" stroke-width="none" d="M 123.605 15.551 c 14.693 2.885 21.418 18.935 25.36 33.284 C 149.686 51.544 142.26 19.955 123.605 15.551 Z M 167.8 60.71 c -2.621 -21.61 -11.549 -43.651 -30.488 -54.378 C 163.85 22.934 168.197 63.544 167.8 60.71 Z M 91.438 18.545 c 1.918 -0.426 -12.385 1.221 -23.378 15.036 c -7.164 8.71 -13.558 21.986 -16.138 27.16 C 59.841 44.582 73.947 22.662 91.438 18.545 Z M 75.803 6.583 C 59.858 11.72 49.913 23.31 44.498 37.629 C 55.194 12.346 80.312 5.185 75.803 6.583 Z M 111.399 5.315 C 107.242 -3.4 99.008 -7.734 86.591 -6.171 c 12.168 -0.83 20.242 4.56 23.477 11.712 c -6.828 -7.43 -19.214 1.181 -18.223 0.847 c 0.978 -0.692 13.933 -4.741 18.745 0.193 c 2.196 4.651 3.396 10.396 3.765 16.96 c 0.41 8.729 0.354 -4.552 -0.186 -8.375 c -0.458 -3.457 -1.292 -6.551 -2.495 -9.251 c 4.005 -5.099 11.348 -5.508 17.675 -2.897 l 0.041 -0.091 C 123.153 -0.222 114.057 -0.279 111.399 5.315 Z" data-colored="true" data-filltype="tone" data-stroketype="none"/><path id="SvgjsPath3165" opacity="1" fill="#3d2012" stroke-width="none" d="M 114.04 32.379 c 5.321 -4.434 12.993 -3.73 18.039 6.7 l 0.61 1.32 c 31.857 72.917 -2.776 93.617 -0.28 132.88 c -6.107 23.896 10.536 35.066 -3.79 63.72 c 9.811 -10.893 20.781 -22.021 28.83 -43.67 c -0.429 4.271 -0.652 5.762 -1.42 9.75 c 38.854 -51.466 30.84 -240.344 -52.29 -206.77 c -26.87 -12.574 -69.464 14.093 -78.06 64.16 c -7.504 43.708 -3.863 86.184 5.83 133.16 c 0.025 -0.661 0.53 -14.811 0.53 -14.811 c 3.785 26.906 18.251 36.949 40.54 56.49 c -25.454 -53.516 -9.508 -83.19 -20.54 -137.379 c -0.9 -4.38 -1.64 -8.8 -1.94 -13.26 c 8.343 -18.843 25.079 -41.048 32.4 -48.37 l 1.21 -1.21 c 0.099 -0.095 5.39 -5.147 5.63 -5.37 c 8.201 -3.25 17.274 -4.018 22.341 3.593 c -3.037 -7.992 -13.058 -8.04 -20.73 -5.043 c 8.445 -7.445 18.682 -10.292 22.191 4.081 c 0.103 0.419 0.082 1.196 0.082 1.196 S 113.665 32.692 114.04 32.379 Z M 175.077 118.061 c -0.38 12.364 -2.541 54.771 -17.658 82.27 c 1.066 -4.51 1.76 -8.328 2.021 -12.801 c 4.745 -14.82 5.854 -26.1 6.028 -27.1 c -5.55 27.37 -15.529 51.351 -34.619 73.569 c 13.535 -29.831 -2.641 -35.97 1.67 -59.33 c 0.967 11.022 4.291 21.701 7.739 32.05 c 0.49 -9.871 2.533 -21.996 7.271 -30.71 c -1.799 2.479 -7.063 14.054 -7.93 26.21 c -14.464 -50.55 5.344 -49.98 8.17 -108.66 c 2.604 21.148 -0.119 28.44 -0.119 28.44 c 5.72 -19.17 0.543 -32.426 -0.826 -43.12 c -1.693 -13.216 -10.355 -34.177 -11.654 -36.99 c -4.865 -10.169 -12.197 -16.503 -21.13 -10.39 c -8.374 -24.158 -29.294 -0.563 -35.459 6.21 c -8.888 9.765 -22.52 28.087 -29.211 44.29 c 0 0.01 -0.01 0.02 -0.01 0.03 c -4.833 11.717 -6.102 20.844 -7.32 28.84 c 2.306 -11.387 4.596 -18.222 7.43 -24.77 c 0.18 3.31 0.57 6.61 1.08 9.87 c 8.997 57.645 -6.818 82.899 20.06 136.78 c -34.449 -32.043 -38.365 -41.664 -39.7 -80.58 c -0.238 24.988 0.937 10.513 -0.14 30.7 c -5.768 -39.082 -10.682 -67.553 -2.5 -118.52 c 9.267 -57.727 52.276 -77.212 75.43 -67.42 c 30.296 -12.349 48.97 5.949 61.2 35.04 c 2.775 6.604 10.469 37.291 5.6 62.41 c 0 0 2.195 -6.328 3.66 -18.7 C 175.565 89.307 175.505 104.127 175.077 118.061 Z" data-colored="true" data-filltype="sd3" data-stroketype="none"/></g><g id="svga-group-glasses-single" data-updown="0" data-leftright="0" data-dist="0" data-scaleX="1" data-scaleY="1" data-rotate="0"><path id="SvgjsPath2880" opacity="1" fill="#26120b" stroke-width="none" d="M 100 18.13 L 100 18.13 L 100 18.13 L 100 18.13 Z" data-colored="true" data-filltype="tone" data-stroketype="none"/></g></g></g><rect id="SvgjsRect1033" style="display:none;" opacity="0.5" fill="#ecf0f1" x="0" y="185" width="200" height="15"/><text id="SvgjsText1034" font-family="&quot;Roboto&quot;,&quot;Helvetica Neue&quot;,Helvetica,Arial,sans-serif" font-size="0.84em" font-weight="400" style="font-size:0.84em;font-family:&quot;Roboto&quot;, &quot;Helvetica Neue&quot;, Helvetica, Arial, sans-serif;text-anchor:middle;font-weight:400;display:none;" fill="#000000" text-anchor="middle" x="100" y="185"><tspan id="SvgjsTspan1035" style="font-size:0.84em;font-family:&quot;Roboto&quot;, &quot;Helvetica Neue&quot;, Helvetica, Arial, sans-serif;text-anchor:middle;font-weight:400;" x="100" dy="1.2em">Erstellt mit Avatars24.de</tspan></text></g><defs id="SvgjsDefs1001"><radialGradient class="svga-on-canvas-facehighlight-gradient-single-0" id="SvgjsRadialGradient2754" gradientUnits="userSpaceOnUse" cx="100" cy="113" r="40"><stop id="SvgjsStop2755" stop-color="rgb(255, 244, 243)" stop-opacity="0.5" offset="0" data-stoptype="hl1"/><stop id="SvgjsStop2756" stop-color="rgb(243, 212, 207)" stop-opacity="0" offset="0.9" data-stoptype="tone"/></radialGradient><radialGradient class="svga-on-canvas-facehighlight-gradient-single-1" id="SvgjsRadialGradient2758" gradientUnits="userSpaceOnUse" cx="100" cy="57" r="36"><stop id="SvgjsStop2759" stop-color="rgb(255, 244, 243)" stop-opacity="0.5" offset="0" data-stoptype="hl1"/><stop id="SvgjsStop2760" stop-color="rgb(243, 212, 207)" stop-opacity="0" offset="0.9" data-stoptype="tone"/></radialGradient><linearGradient class="svga-on-canvas-chinshadow-gradient-single-0" id="SvgjsLinearGradient2911" gradientUnits="userSpaceOnUse" x1="99.98" y1="171.27" x2="99.98" y2="136.351"><stop id="SvgjsStop2912" stop-color="rgb(228, 179, 171)" stop-opacity="0.8" offset="0" data-stoptype="sd1"/><stop id="SvgjsStop2913" stop-color="rgb(197, 121, 109)" stop-opacity="1" offset="0.7" data-stoptype="sd3"/></linearGradient><radialGradient class="svga-on-canvas-eyesback-gradient-left-0" id="SvgjsRadialGradient3024" gradientUnits="userSpaceOnUse" gradientTransform="matrix(-0.9945, 0.1042, 0.1042, 0.9945, 192.827, -12.4637)" cx="129.05" cy="85.956" r="15.117"><stop id="SvgjsStop3025" stop-color="rgb(255, 255, 255)" stop-opacity="1" offset="0" data-stoptype="#ffffff"/><stop id="SvgjsStop3026" stop-color="rgb(252, 253, 253)" stop-opacity="1" offset="0.316" data-stoptype="#fcfdfd"/><stop id="SvgjsStop3027" stop-color="rgb(244, 247, 248)" stop-opacity="1" offset="0.505" data-stoptype="#f4f7f8"/><stop id="SvgjsStop3028" stop-color="rgb(229, 236, 239)" stop-opacity="1" offset="0.661" data-stoptype="#e5ecef"/><stop id="SvgjsStop3029" stop-color="rgb(216, 226, 231)" stop-opacity="1" offset="0.76" data-stoptype="#d8e2e7"/></radialGradient><radialGradient class="svga-on-canvas-eyesback-gradient-right-0" id="SvgjsRadialGradient3031" gradientUnits="userSpaceOnUse" gradientTransform="matrix(0.9945, 0.1042, -0.1042, 0.9945, 7.1735, -12.4637)" cx="129.049" cy="85.956" r="15.117"><stop id="SvgjsStop3032" stop-color="rgb(255, 255, 255)" stop-opacity="1" offset="0" data-stoptype="#ffffff"/><stop id="SvgjsStop3033" stop-color="rgb(252, 253, 253)" stop-opacity="1" offset="0.316" data-stoptype="#fcfdfd"/><stop id="SvgjsStop3034" stop-color="rgb(244, 247, 248)" stop-opacity="1" offset="0.505" data-stoptype="#f4f7f8"/><stop id="SvgjsStop3035" stop-color="rgb(229, 236, 239)" stop-opacity="1" offset="0.661" data-stoptype="#e5ecef"/><stop id="SvgjsStop3036" stop-color="rgb(216, 226, 231)" stop-opacity="1" offset="0.76" data-stoptype="#d8e2e7"/></radialGradient><radialGradient class="svga-on-canvas-eyesfront-gradient-left-0" id="SvgjsRadialGradient3038" gradientUnits="userSpaceOnUse" gradientTransform="matrix(-0.9945, 0.1042, 0.1042, 0.9945, 192.827, -12.4637)" cx="129.05" cy="85.956" r="15.117"><stop id="SvgjsStop3039" stop-color="rgb(255, 255, 255)" stop-opacity="1" offset="0" data-stoptype="#ffffff"/><stop id="SvgjsStop3040" stop-color="rgb(252, 253, 253)" stop-opacity="1" offset="0.316" data-stoptype="#fcfdfd"/><stop id="SvgjsStop3041" stop-color="rgb(244, 247, 248)" stop-opacity="1" offset="0.505" data-stoptype="#f4f7f8"/><stop id="SvgjsStop3042" stop-color="rgb(229, 236, 239)" stop-opacity="1" offset="0.661" data-stoptype="#e5ecef"/><stop id="SvgjsStop3043" stop-color="rgb(216, 226, 231)" stop-opacity="1" offset="0.76" data-stoptype="#d8e2e7"/></radialGradient><radialGradient class="svga-on-canvas-eyesfront-gradient-left-3" id="SvgjsRadialGradient3047" gradientUnits="userSpaceOnUse" gradientTransform="matrix(0.9998, 0.0208, 0.0166, -0.7998, -44.9524, 149.543)" cx="121.786" cy="84.496" r="16.003" fx="133.039" fy="84.527"><stop id="SvgjsStop3048" stop-color="rgb(228, 179, 171)" stop-opacity="1" offset="0" data-stoptype="sd1"/><stop id="SvgjsStop3049" stop-color="rgb(228, 179, 171)" stop-opacity="0.3" offset="0.7" data-stoptype="sd1"/><stop id="SvgjsStop3050" stop-color="rgb(243, 212, 207)" stop-opacity="0" offset="1" data-stoptype="tone"/></radialGradient><radialGradient class="svga-on-canvas-eyesfront-gradient-left-4" id="SvgjsRadialGradient3052" gradientUnits="userSpaceOnUse" gradientTransform="matrix(1.0336, 0, 0, 1.0336, -1.6792, 1.7282)" cx="69.124" cy="107.529" r="29.525"><stop id="SvgjsStop3053" stop-color="rgb(0, 0, 0)" stop-opacity="0" offset="0.95" data-stoptype="#000000"/><stop id="SvgjsStop3054" stop-color="rgb(0, 0, 0)" stop-opacity="0.3" offset="1" data-stoptype="#000000"/></radialGradient><radialGradient class="svga-on-canvas-eyesfront-gradient-right-0" id="SvgjsRadialGradient3058" gradientUnits="userSpaceOnUse" gradientTransform="matrix(0.9945, 0.1042, -0.1042, 0.9945, 7.1735, -12.4637)" cx="129.049" cy="85.956" r="15.117"><stop id="SvgjsStop3059" stop-color="rgb(255, 255, 255)" stop-opacity="1" offset="0" data-stoptype="#ffffff"/><stop id="SvgjsStop3060" stop-color="rgb(252, 253, 253)" stop-opacity="1" offset="0.316" data-stoptype="#fcfdfd"/><stop id="SvgjsStop3061" stop-color="rgb(244, 247, 248)" stop-opacity="1" offset="0.505" data-stoptype="#f4f7f8"/><stop id="SvgjsStop3062" stop-color="rgb(229, 236, 239)" stop-opacity="1" offset="0.661" data-stoptype="#e5ecef"/><stop id="SvgjsStop3063" stop-color="rgb(216, 226, 231)" stop-opacity="1" offset="0.76" data-stoptype="#d8e2e7"/></radialGradient><radialGradient class="svga-on-canvas-eyesfront-gradient-right-3" id="SvgjsRadialGradient3067" gradientUnits="userSpaceOnUse" gradientTransform="matrix(-0.9998, 0.0208, -0.0166, -0.7998, 244.952, 149.543)" cx="121.786" cy="84.496" r="16.003" fx="133.039" fy="84.527"><stop id="SvgjsStop3068" stop-color="rgb(228, 179, 171)" stop-opacity="1" offset="0" data-stoptype="sd1"/><stop id="SvgjsStop3069" stop-color="rgb(228, 179, 171)" stop-opacity="0.3" offset="0.7" data-stoptype="sd1"/><stop id="SvgjsStop3070" stop-color="rgb(243, 212, 207)" stop-opacity="0" offset="1" data-stoptype="tone"/></radialGradient><radialGradient class="svga-on-canvas-eyesfront-gradient-right-4" id="SvgjsRadialGradient3072" gradientUnits="userSpaceOnUse" gradientTransform="matrix(-1.0336, 0, 0, 1.0336, 201.679, 1.7282)" cx="69.124" cy="107.529" r="29.525"><stop id="SvgjsStop3073" stop-color="rgb(0, 0, 0)" stop-opacity="0" offset="0.95" data-stoptype="#000000"/><stop id="SvgjsStop3074" stop-color="rgb(0, 0, 0)" stop-opacity="0.3" offset="1" data-stoptype="#000000"/></radialGradient><radialGradient class="svga-on-canvas-eyesiris-gradient-left-1" id="SvgjsRadialGradient3079" gradientUnits="userSpaceOnUse" gradientTransform="matrix(0.096, -0.0248, 0.0245, 0.0961, 140.548, 120.358)" cx="-558.588" cy="-490.918" r="84.646"><stop id="SvgjsStop3080" stop-color="rgb(255, 255, 255)" stop-opacity="0.8" offset="0" data-stoptype="#ffffff"/><stop id="SvgjsStop3081" stop-color="rgb(255, 255, 255)" stop-opacity="0" offset="1" data-stoptype="#ffffff"/></radialGradient><radialGradient class="svga-on-canvas-eyesiris-gradient-left-2" id="SvgjsRadialGradient3083" gradientUnits="userSpaceOnUse" gradientTransform="matrix(0.0991, 0.000885632, -0.0011, 0.0991, 130.377, 136.353)" cx="-565.337" cy="-492.691" r="84.644"><stop id="SvgjsStop3084" stop-color="rgb(255, 255, 255)" stop-opacity="0.8" offset="0" data-stoptype="#ffffff"/><stop id="SvgjsStop3085" stop-color="rgb(255, 255, 255)" stop-opacity="0" offset="1" data-stoptype="#ffffff"/></radialGradient><linearGradient class="svga-on-canvas-eyesiris-gradient-left-5" id="SvgjsLinearGradient3089" gradientUnits="userSpaceOnUse" gradientTransform="matrix(1, 0, 0, 1, -52, 0)" x1="122.283" y1="93.047" x2="123.61" y2="91.466"><stop id="SvgjsStop3090" stop-color="rgb(255, 255, 255)" stop-opacity="1" offset="0" data-stoptype="#ffffff"/><stop id="SvgjsStop3091" stop-color="rgb(255, 255, 255)" stop-opacity="0" offset="1" data-stoptype="#ffffff"/></linearGradient><linearGradient class="svga-on-canvas-eyesiris-gradient-left-6" id="SvgjsLinearGradient3093" gradientUnits="userSpaceOnUse" gradientTransform="matrix(1, 0, 0, 1, -50, 0)" x1="127" y1="85" x2="125" y2="87"><stop id="SvgjsStop3094" stop-color="rgb(255, 255, 255)" stop-opacity="1" offset="0" data-stoptype="#ffffff"/><stop id="SvgjsStop3095" stop-color="rgb(255, 255, 255)" stop-opacity="0" offset="1" data-stoptype="#ffffff"/></linearGradient><linearGradient class="svga-on-canvas-eyesiris-gradient-left-7" id="SvgjsLinearGradient3097" gradientUnits="userSpaceOnUse" gradientTransform="matrix(1, 0, 0, 1, -50, 0)" x1="130" y1="81" x2="126" y2="85"><stop id="SvgjsStop3098" stop-color="rgb(255, 255, 255)" stop-opacity="1" offset="0" data-stoptype="#ffffff"/><stop id="SvgjsStop3099" stop-color="rgb(255, 255, 255)" stop-opacity="0" offset="1" data-stoptype="#ffffff"/></linearGradient><radialGradient class="svga-on-canvas-eyesiris-gradient-right-1" id="SvgjsRadialGradient3102" gradientUnits="userSpaceOnUse" gradientTransform="matrix(0.096, -0.0248, 0.0245, 0.0961, 192.479, 119.84)" cx="-578.76" cy="-490.73" r="84.646"><stop id="SvgjsStop3103" stop-color="rgb(255, 255, 255)" stop-opacity="0.8" offset="0" data-stoptype="#ffffff"/><stop id="SvgjsStop3104" stop-color="rgb(255, 255, 255)" stop-opacity="0" offset="1" data-stoptype="#ffffff"/></radialGradient><radialGradient class="svga-on-canvas-eyesiris-gradient-right-2" id="SvgjsRadialGradient3106" gradientUnits="userSpaceOnUse" gradientTransform="matrix(0.0991, 0.000885632, -0.0011, 0.0991, 182.31, 135.839)" cx="-584.778" cy="-487.329" r="84.644"><stop id="SvgjsStop3107" stop-color="rgb(255, 255, 255)" stop-opacity="0.8" offset="0" data-stoptype="#ffffff"/><stop id="SvgjsStop3108" stop-color="rgb(255, 255, 255)" stop-opacity="0" offset="1" data-stoptype="#ffffff"/></radialGradient><linearGradient class="svga-on-canvas-eyesiris-gradient-right-5" id="SvgjsLinearGradient3112" gradientUnits="userSpaceOnUse" x1="120.284" y1="93.047" x2="121.611" y2="91.467"><stop id="SvgjsStop3113" stop-color="rgb(255, 255, 255)" stop-opacity="1" offset="0" data-stoptype="#ffffff"/><stop id="SvgjsStop3114" stop-color="rgb(255, 255, 255)" stop-opacity="0" offset="1" data-stoptype="#ffffff"/></linearGradient><linearGradient class="svga-on-canvas-eyesiris-gradient-right-6" id="SvgjsLinearGradient3116" gradientUnits="userSpaceOnUse" x1="127" y1="85" x2="125" y2="87"><stop id="SvgjsStop3117" stop-color="rgb(255, 255, 255)" stop-opacity="1" offset="0" data-stoptype="#ffffff"/><stop id="SvgjsStop3118" stop-color="rgb(255, 255, 255)" stop-opacity="0" offset="1" data-stoptype="#ffffff"/></linearGradient><linearGradient class="svga-on-canvas-eyesiris-gradient-right-7" id="SvgjsLinearGradient3120" gradientUnits="userSpaceOnUse" x1="130" y1="81" x2="126" y2="85"><stop id="SvgjsStop3121" stop-color="rgb(255, 255, 255)" stop-opacity="1" offset="0" data-stoptype="#ffffff"/><stop id="SvgjsStop3122" stop-color="rgb(255, 255, 255)" stop-opacity="0" offset="1" data-stoptype="#ffffff"/></linearGradient><linearGradient class="svga-on-canvas-mouth-gradient-single-0" id="SvgjsLinearGradient3177" gradientUnits="userSpaceOnUse" x1="100" y1="142" x2="100" y2="138"><stop id="SvgjsStop3178" stop-color="rgb(235, 195, 189)" stop-opacity="1" offset="0.1" data-stoptype="sd05"/><stop id="SvgjsStop3179" stop-color="rgb(228, 179, 171)" stop-opacity="1" offset="1" data-stoptype="sd1"/></linearGradient></defs></svg>