<svg xmlns="http://www.w3.org/2000/svg" class="svga-svg" id="svga-svgcanvas" style="position:relative;overflow:hidden;left:0px;top:0px;" viewBox="0 0 200 200" preserveAspectRatio="xMinYMin meet" version="1.1" xmlns:NS1="http://www.w3.org/2000/svg" NS1:xlink="http://www.w3.org/1999/xlink"><g id="svga-group-wrapper"><g id="svga-group-backs-single"/><g id="svga-group-subwrapper" transform="matrix(0.849999, 0, 0, 0.849999, 15.0077, 17.2003)" data-updown="0" data-leftright="0" data-dist="0" data-scaleX="0.84999937" data-scaleY="0.84999937" data-rotate="0"><g id="svga-group-hair-back" data-updown="0" data-leftright="0" data-dist="0" data-scaleX="1" data-scaleY="1" data-rotate="0"><path id="SvgjsPath5703" opacity="1" fill="#6b4e40" stroke-width="none" d="M 100.5 100.5 h -1 v -1 h 1 V 100.5 Z" data-colored="true" data-filltype="tone" data-stroketype="none"/></g><g id="svga-group-humanbody-single"><path id="SvgjsPath2761" opacity="1" fill="#f3d4cf" stroke="none" stroke-width="none" d="M 190.858 199.866 c -6.008 -10.158 -13.474 -11.973 -19.628 -13.936 c -6.323 -2.016 -19.346 -3.178 -26.449 -4.6 c -6.86 -1.373 -23.153 -5.789 -23.339 -13.488 c -0.192 -8.066 4.291 -40.09 4.291 -40.09 H 74.005 c 0 0 4.487 32.023 4.294 40.09 c -0.184 7.699 -16.48 12.115 -23.341 13.488 c -7.104 1.422 -20.125 2.584 -26.448 4.6 c -6.156 1.963 -13.624 3.777 -19.632 13.936 c -3.644 6.16 -6.008 16.133 -6.008 27.133 h 194 C 196.869 215.999 194.509 206.026 190.858 199.866 Z" data-colored="true" data-filltype="tone" data-stroketype="none" data-fromskin="true"/><path id="SvgjsPath2762" opacity="1" fill="#fff4f3" stroke="none" stroke-width="none" d="M 121.442 167.843 c 2.495 10.929 18.165 13.698 26.293 15.325 c 21.909 4.379 33.772 5.134 42.297 19.539 c 2.903 4.916 5.459 15.864 5.962 24.153 c 1.835 0.291 0.531 -17.432 -5.136 -26.994 c -9.742 -16.472 -29.089 -15.135 -46.077 -18.535 C 137.921 179.958 121.628 175.542 121.442 167.843 L 121.442 167.843 Z M 78.558 167.843 c -0.186 7.699 -16.479 12.115 -23.339 13.488 c -16.988 3.4 -36.335 2.063 -46.077 18.535 c -5.667 9.563 -6.971 27.285 -5.136 26.994 c 0.503 -8.289 3.059 -19.237 5.962 -24.153 c 8.524 -14.405 20.388 -15.16 42.297 -19.539 C 60.393 181.541 76.063 178.771 78.558 167.843 L 78.558 167.843 Z" data-colored="true" data-filltype="hl1" data-stroketype="none" data-fromskin="true"/><path id="SvgjsPath2763" opacity="1" fill="#e4b3ab" stroke="none" stroke-width="none" d="M 51.206 189.513 c 0 0 28.641 0.299 33.473 1.885 c 2.314 0.758 8.372 5.633 8.372 5.633 s -6.556 -3.17 -8.658 -3.758 C 79.51 191.909 51.206 189.513 51.206 189.513 Z M 99.795 199.999 c 2.053 -0.041 7.887 -3.799 7.887 -3.799 s -5.574 2.059 -7.342 2.16 c -1.491 0.086 -6.366 -1.238 -6.366 -1.238 S 98.112 200.032 99.795 199.999 Z M 117.008 192.757 c 6.75 -1.818 29.786 -3.23 29.786 -3.23 s -23.791 -0.516 -30.51 1.725 c -2.252 0.752 -7.562 5.16 -7.562 5.16 S 114.786 193.354 117.008 192.757 Z" data-colored="true" data-filltype="sd1" data-stroketype="none" data-fromskin="true"/><path id="SvgjsPath2764" opacity="1" fill="none" stroke="#c5796d" stroke-width="1.5" d="M 190.858 199.866 c -9.741 -16.471 -29.122 -15.142 -46.077 -18.535 c -6.86 -1.373 -23.153 -5.789 -23.339 -13.488 c -0.192 -8.066 4.291 -40.09 4.291 -40.09 H 74.005 c 0 0 4.487 32.023 4.294 40.09 c -0.184 7.699 -16.48 12.115 -23.341 13.488 c -7.104 1.422 -20.125 2.584 -26.448 4.6 c -6.156 1.963 -13.624 3.777 -19.632 13.936 c -3.644 6.16 -6.008 16.133 -6.008 27.133 h 194 C 196.869 215.999 194.509 206.026 190.858 199.866 Z" data-colored="true" data-filltype="none" data-stroketype="sd3" data-fromskin="true"/></g><g id="svga-group-chinshadow-single"><path id="SvgjsPath2910" opacity="1" fill="url(#SvgjsLinearGradient2911)" d="M 100.021 171.27 c 5.607 -0.009 13.53 -3.627 20.967 -8.478 c 0.485 -6.84 1.756 -17.341 2.758 -25.098 c -13.972 -1.825 -33.828 -1.785 -47.741 0.101 c 0.995 7.702 2.249 18.065 2.739 24.877 C 86.278 167.593 94.344 171.279 100.021 171.27 Z" data-colored="false" data-filltype="gradient" data-stroketype="none" data-fromskin="true"/></g><g id="svga-group-clothes-single" data-updown="0" data-leftright="0" data-dist="0" data-scaleX="1" data-scaleY="1" data-rotate="0"><path id="SvgjsPath5342" opacity="1" fill="#09aac5" stroke-width="none" d="M 110.139 228.889 c -17.864 0 -38.7 -0.069 -63.699 -0.213 l -22.105 -0.12 c -13.348 -0.072 -16.001 -0.087 -17.631 -0.087 l -4.573 0.006 c 0.032 -40.523 20.015 -43.334 41.17 -46.313 c 7.271 -1.023 14.789 -2.082 21.584 -4.733 c 8.525 11.975 21.924 13.591 33.912 13.591 c 0.667 0 1.341 -0.006 2.016 -0.017 c 12.668 -0.285 27.552 -4.774 32.317 -14.161 c 0.614 0.234 1.186 0.504 1.738 0.766 c 0.621 0.293 1.263 0.597 1.974 0.854 c 4.65 1.684 10.432 2.48 16.552 3.324 c 20.011 2.76 44.916 6.193 44.578 45.069 c 0.003 0.154 0.004 1.097 -0.012 1.392 c -11.682 0 -19.607 0.113 -28.782 0.244 c -12.445 0.178 -27.935 0.398 -59.027 0.398 C 110.145 228.889 110.142 228.889 110.139 228.889 Z" data-colored="true" data-filltype="tone" data-stroketype="none"/><path id="SvgjsPath5343" opacity="1" fill="#1fbad4" stroke-width="none" d="M 197.869 226.999 c -2.027 -5.485 -0.96 -15.439 -6.837 -24.292 c -11.653 -17.556 -33.322 -15.948 -53.227 -21.639 c -4.204 8.565 -12.24 13.539 -21.429 16.39 l -0.016 -0.047 c 9.016 -3.198 16.683 -8.066 21.003 -16.475 c -0.501 -0.146 -1.001 -0.292 -1.499 -0.448 l 0.956 -1.836 c 24.187 7.439 43.709 2.062 55.037 21.214 C 195.509 206.026 197.869 215.999 197.869 226.999 Z M 57.233 182.344 c 1.267 -0.294 2.53 -0.607 3.788 -0.948 l -1.332 -1.765 c -23.343 6.027 -40.887 2.21 -51.548 20.235 c -3.65 6.16 -6.011 16.133 -6.011 27.133 c 2.027 -5.485 0.96 -15.439 6.837 -24.292 c 10.571 -15.926 29.385 -16.085 47.646 -20.225 c 6.519 8.028 16.042 13.7 26.402 15.333 C 70.02 194.425 61.938 188.143 57.233 182.344 Z" data-colored="true" data-filltype="hl1" data-stroketype="none"/><path id="SvgjsPath5344" opacity="1" fill="#009cb6" stroke-width="none" d="M 132.08 178.811 c -4.996 7.702 -18.542 12.955 -33.907 12.955 c -15.182 0 -27.706 -5.206 -33.5 -13.926 l -0.044 -0.065 l 1.235 1.856 c -1.369 0.581 -4.817 1.748 -4.817 1.748 l -1.446 -1.86 l 0.089 0.117 c 0.271 0.354 0.553 0.736 0.851 1.14 c 4.359 5.904 11.656 15.785 36.296 15.785 c 2.162 0 4.443 -0.079 6.78 -0.235 c 16.303 -1.168 26.873 -6.359 32.244 -15.839 C 135.806 180.464 133.352 179.456 132.08 178.811 Z" data-colored="true" data-filltype="sd1" data-stroketype="none"/><path id="SvgjsPath5345" opacity="1" fill="#008197" stroke-width="none" d="M 133.079 176.717 c -5.041 10.081 -21.03 13.934 -32.27 14.187 c -14.635 0.228 -27.563 -1.841 -35.89 -13.597 c -26.368 10.344 -62.89 -3.587 -62.89 51.269 c 9.28 0 -4.304 -0.062 44.41 0.2 c 115.375 0.663 115.16 -0.43 151.61 -0.43 c 0.027 -0.131 0.023 -1.356 0.021 -1.49 c 0.44 -50.604 -41.021 -41.186 -61.195 -48.488 C 135.504 177.871 134.422 177.218 133.079 176.717 Z M 64.589 177.896 c 13.809 20.776 60.199 16.511 68.44 -0.561 c 1.12 0.471 2.34 0.94 3.64 1.4 c -3.904 8.186 -12.275 16.001 -33.06 17.49 c -32.014 2.134 -39.41 -10.844 -43.84 -16.65 C 59.905 179.537 63.225 178.407 64.589 177.896 Z M 2.169 228.405 c 2.5 -22.877 4.756 -39.219 32.69 -44.068 c 9.593 -1.77 14.509 -1.939 24.83 -4.731 c 7.873 10.792 15.739 18.518 44.7 17.3 c 21.37 -2.377 28.569 -9.619 32.461 -18.1 c 26.52 8.347 59.285 -0.172 60.88 49.38 C 147.265 227.529 98.51 226.216 2.169 228.405 Z" data-colored="true" data-filltype="sd3" data-stroketype="none"/></g><g id="svga-group-head" data-updown="0" data-leftright="0" data-dist="0" data-scaleX="1" data-scaleY="1" data-rotate="0"><g id="svga-group-ears-left" style="display:none;" data-updown="0" data-leftright="0" data-dist="0" data-scaleX="1" data-scaleY="1" data-rotate="0"><path id="SvgjsPath2774" opacity="1" fill="#f3d4cf" stroke="#c5796d" stroke-width="1.5" d="M 47.001 83.974 c -1.376 -2.313 -5.638 -7.997 -9.98 -6.603 c -2.749 0.882 -3.293 3.765 -3.735 6.311 c -0.588 3.386 0.471 10.083 1.389 12.503 c 0.881 2.325 3.533 6.816 5.264 8.527 c 2.13 2.1 4.775 8.793 5.194 9.487 c 0.66 1.097 1.536 2.745 4.122 2.538 c 2.853 -0.229 4.584 -1.742 5.856 -1.999 C 58.253 114.109 50.582 89.995 47.001 83.974 Z" data-colored="true" data-filltype="tone" data-stroketype="sd3"/><path id="SvgjsPath2775" opacity="1" fill="#c5796d" stroke="none" stroke-width="none" d="M 44.197 97.997 c -0.132 -0.548 0.007 -1.47 0.142 -2.362 c 0.124 -0.812 0.24 -1.579 0.169 -2.121 c -0.267 -2.032 -1.773 -5.893 -2.757 -7.985 c -1.132 -2.407 -2.963 -5.439 -5.262 -6.221 c -0.95 -0.324 -1.575 0.063 -1.938 0.456 c -0.266 0.289 -0.325 0.627 -0.238 0.667 c 0.086 0.04 0.285 -0.24 0.572 -0.504 c 0.235 -0.216 0.579 -0.402 1.051 -0.363 c -0.19 1.011 -1.167 6.49 -0.744 10.225 c 0.333 2.938 1.593 5.131 1.79 5.46 c 0.029 0.346 0.077 0.685 0.148 1.014 c 0.929 4.287 4.971 9.163 6.378 10.758 c 0.259 0.295 0.531 0.47 0.598 0.398 c 0.066 -0.072 -0.094 -0.364 -0.353 -0.66 c -1.388 -1.585 -5.391 -6.442 -6.289 -10.579 c -0.952 -4.389 2.318 -10.896 3.048 -12.272 c 0.371 0.646 0.687 1.267 0.93 1.785 c 0.19 0.406 0.402 0.881 0.619 1.395 c -0.429 0.718 -3.434 5.958 -2.338 10.153 c 0.406 1.546 2.235 3.54 3.447 4.086 c 0.667 0.301 0.919 0.75 1.209 1.271 c 0.336 0.604 0.718 1.288 1.828 1.784 c 0.225 0.102 0.429 0.142 0.61 0.142 c 0.313 0 0.551 -0.126 0.725 -0.276 c 0.018 0.266 0.017 0.604 0.009 0.917 c -0.012 0.404 0.042 0.737 0.137 0.745 c 0.094 0.008 0.196 -0.313 0.207 -0.717 c 0.016 -0.496 0.013 -1.11 -0.072 -1.403 c -0.248 -0.865 -1.008 -1.841 -1.813 -2.875 C 45.221 99.896 44.403 98.844 44.197 97.997 Z M 36.95 94.196 c -2.177 -6.731 0.656 -12.54 1.144 -13.464 c 0.85 0.775 1.6 1.811 2.21 2.824 C 39.86 84.365 37.041 89.669 36.95 94.196 Z M 46.341 104.042 c -1.004 -0.447 -1.339 -1.051 -1.666 -1.633 c -0.293 -0.527 -0.598 -1.072 -1.369 -1.42 c -0.168 -0.075 -0.352 -0.191 -0.542 -0.323 c -2.486 -5.906 0.272 -8.488 0.963 -9.017 c 0.211 0.722 0.369 1.384 0.439 1.915 c 0.063 0.488 -0.052 1.263 -0.167 2.012 c -0.142 0.929 -0.286 1.89 -0.137 2.512 c 0.226 0.926 1.069 2.009 1.884 3.057 c 0.723 0.929 1.466 1.888 1.721 2.67 C 47.359 103.972 47.017 104.345 46.341 104.042 Z" data-colored="true" data-filltype="sd3" data-stroketype="none"/></g><g id="svga-group-ears-right" style="display:none;" data-updown="0" data-leftright="0" data-dist="0" data-scaleX="1" data-scaleY="1" data-rotate="0"><path id="SvgjsPath2776" opacity="1" fill="#f3d4cf" stroke="#c5796d" stroke-width="1.5" d="M 152.736 83.974 c 1.377 -2.313 5.639 -7.997 9.98 -6.603 c 2.75 0.882 3.293 3.765 3.736 6.311 c 0.588 3.386 -0.471 10.083 -1.389 12.503 c -0.881 2.325 -3.533 6.816 -5.266 8.527 c -2.129 2.1 -4.775 8.793 -5.193 9.487 c -0.658 1.097 -1.535 2.745 -4.121 2.538 c -2.854 -0.229 -4.584 -1.742 -5.857 -1.999 C 141.484 114.109 149.156 89.995 152.736 83.974 Z" data-colored="true" data-filltype="tone" data-stroketype="sd3"/><path id="SvgjsPath2777" opacity="1" fill="#c5796d" stroke="none" stroke-width="none" d="M 153.727 100.913 c -0.805 1.033 -1.564 2.009 -1.813 2.875 c -0.086 0.293 -0.088 0.907 -0.072 1.403 c 0.012 0.404 0.113 0.725 0.207 0.717 s 0.148 -0.341 0.137 -0.745 c -0.008 -0.313 -0.008 -0.651 0.01 -0.917 c 0.174 0.15 0.412 0.276 0.725 0.276 c 0.182 0 0.385 -0.04 0.609 -0.142 c 1.109 -0.496 1.492 -1.18 1.828 -1.784 c 0.289 -0.52 0.543 -0.969 1.209 -1.271 c 1.213 -0.546 3.041 -2.54 3.447 -4.086 c 1.096 -4.194 -1.908 -9.435 -2.338 -10.153 c 0.217 -0.513 0.43 -0.988 0.619 -1.395 c 0.244 -0.518 0.559 -1.139 0.93 -1.785 c 0.73 1.377 4 7.883 3.049 12.272 c -0.896 4.137 -4.9 8.994 -6.289 10.579 c -0.258 0.296 -0.418 0.588 -0.352 0.66 c 0.066 0.071 0.338 -0.104 0.598 -0.398 c 1.406 -1.596 5.449 -6.471 6.379 -10.758 c 0.07 -0.329 0.117 -0.668 0.146 -1.014 c 0.197 -0.329 1.459 -2.523 1.791 -5.46 c 0.422 -3.735 -0.555 -9.214 -0.744 -10.225 c 0.473 -0.039 0.814 0.146 1.051 0.363 c 0.287 0.264 0.486 0.544 0.572 0.504 s 0.027 -0.378 -0.238 -0.667 c -0.363 -0.393 -0.988 -0.779 -1.938 -0.456 c -2.299 0.782 -4.131 3.814 -5.262 6.221 c -0.984 2.093 -2.49 5.953 -2.758 7.985 c -0.072 0.542 0.045 1.309 0.17 2.121 c 0.135 0.892 0.273 1.814 0.141 2.362 C 155.336 98.844 154.518 99.896 153.727 100.913 Z M 159.434 83.555 c 0.611 -1.013 1.361 -2.049 2.211 -2.824 c 0.488 0.925 3.32 6.733 1.145 13.464 C 162.697 89.669 159.879 84.365 159.434 83.555 Z M 152.27 103.816 c 0.254 -0.782 0.998 -1.741 1.721 -2.67 c 0.816 -1.048 1.658 -2.131 1.885 -3.057 c 0.148 -0.622 0.004 -1.583 -0.137 -2.512 c -0.115 -0.749 -0.23 -1.524 -0.166 -2.012 c 0.068 -0.531 0.227 -1.193 0.438 -1.915 c 0.691 0.529 3.449 3.111 0.965 9.017 c -0.191 0.132 -0.375 0.248 -0.543 0.323 c -0.771 0.348 -1.074 0.893 -1.369 1.42 c -0.326 0.582 -0.662 1.186 -1.666 1.633 C 152.721 104.345 152.379 103.972 152.27 103.816 Z" data-colored="true" data-filltype="sd3" data-stroketype="none"/></g><g id="svga-group-faceshape-wrap" data-updown="0" data-leftright="0" data-dist="0" data-scaleX="1" data-scaleY="1" data-rotate="0"><g id="svga-group-faceshape-single" data-updown="0" data-leftright="0" data-dist="0" data-scaleX="1" data-scaleY="1" data-rotate="0"><path id="SvgjsPath2907" opacity="1" fill="#f3d4cf" stroke="none" stroke-width="none" d="M 158.785 76.762 l -0.005 0 c -0.012 0.053 -10.717 44.373 -18.919 56.95 c -6.452 9.895 -28.166 25.54 -39.84 25.558 c -11.671 0.02 -33.437 -15.559 -39.918 -25.433 C 51.861 121.285 41.017 77 41.005 76.946 h -0.001 c -1.298 -4.911 -1.994 -10.066 -2.002 -15.382 C 38.949 28.09 66.155 0.919 99.773 0.867 c 33.621 -0.052 60.913 27.033 60.964 60.507 C 160.746 66.69 160.068 71.846 158.785 76.762 Z" data-colored="true" data-filltype="tone" data-stroketype="none"/><path id="SvgjsPath2908" opacity="1" fill="#ebc3bd" stroke="none" stroke-width="none" d="M 125.766 6.622 c 19.104 10.248 32.075 30.355 32.039 53.476 c -0.009 5.316 -0.704 10.471 -2.003 15.382 h -0.001 c -0.012 0.053 -10.856 44.339 -19.099 56.891 c -5.946 9.061 -24.555 25.121 -36.833 25.121 c -12.279 0 -30.886 -16.061 -36.833 -25.121 c -8.242 -12.552 -19.086 -56.837 -19.098 -56.891 h -0.001 c -1.298 -4.911 -1.994 -10.066 -2.002 -15.382 C 41.898 36.977 54.87 16.87 73.972 6.622 C 53.277 16.324 38.963 37.28 39.001 61.564 c 0.008 5.316 0.704 10.471 2.002 15.382 h 0.001 c 0.012 0.053 10.856 44.339 19.098 56.891 c 4.416 6.728 15.922 16.095 26.5 21.382 c -0.529 -0.226 -1.062 -0.466 -1.599 -0.717 c 5.408 2.875 10.664 4.763 14.713 4.768 c 0.049 0 0.103 -0.005 0.152 -0.005 s 0.103 0.005 0.152 0.005 c 4.049 -0.005 9.305 -1.893 14.714 -4.768 c -0.538 0.253 -1.071 0.491 -1.601 0.718 c 10.577 -5.287 22.085 -14.655 26.501 -21.383 c 8.242 -12.552 19.087 -56.837 19.098 -56.891 h 0.002 c 1.298 -4.911 1.994 -10.066 2.002 -15.382 C 160.775 37.28 146.462 16.324 125.766 6.622 Z" data-colored="true" data-filltype="sd05" data-stroketype="none"/><path id="SvgjsPath2909" opacity="1" fill="none" stroke="#c5796d" stroke-width="1.5" d="M 158.785 76.762 l -0.005 0 c -0.012 0.053 -10.717 44.373 -18.919 56.95 c -6.452 9.895 -28.166 25.54 -39.84 25.558 c -11.671 0.02 -33.437 -15.559 -39.918 -25.433 C 51.861 121.285 41.017 77 41.005 76.946 h -0.001 c -1.298 -4.911 -1.994 -10.066 -2.002 -15.382 C 38.949 28.09 66.155 0.919 99.773 0.867 c 33.621 -0.052 60.913 27.033 60.964 60.507 C 160.746 66.69 160.068 71.846 158.785 76.762 Z" data-colored="true" data-filltype="none" data-stroketype="sd3"/></g></g><g id="svga-group-mouth-single" data-updown="0" data-leftright="0" data-dist="0" data-scaleX="1" data-scaleY="1" data-rotate="0"><path id="SvgjsPath5727" opacity="1" fill="url(#SvgjsLinearGradient5728)" d="M 99.983 143.169 c -3.24 0 -4.753 -3.102 -4.753 -3.102 l 9.279 -0.067 C 104.509 140 102.832 143.169 99.983 143.169 Z" data-colored="false" data-filltype="gradient" data-stroketype="none" data-fromskin="true"/><path id="SvgjsPath5731" opacity="1" fill="#ffffff" stroke-width="none" d="M 99.869 131.603 c -6.552 0 -9.471 2.347 -12 5.397 h 24 C 109.771 133.875 106.703 131.603 99.869 131.603 Z" data-colored="false" data-filltype="#ffffff" data-stroketype="none"/><path id="SvgjsPath5732" opacity="1" fill="none" stroke="#c92066" stroke-width="0.75" d="M 99.869 131.603 c -6.552 0 -9.471 2.347 -12 5.397 h 24 C 109.771 133.875 106.703 131.603 99.869 131.603 Z" data-colored="true" data-filltype="none" data-stroketype="sd3"/></g><g id="svga-group-eyes-left" data-updown="0" data-leftright="0" data-dist="0" data-scaleX="1" data-scaleY="1" data-rotate="0"><g id="svga-group-eyesback-left"><path id="SvgjsPath5467" opacity="1" fill="url(#SvgjsRadialGradient5468)" d="M 61.952 84.523 c -0.506 -2.285 5.191 -3.973 12.711 -3.051 c 7.518 0.923 12.738 5.524 12.052 7.844 c -0.38 1.286 -10.639 3.245 -14.253 2.847 C 68.798 91.758 63.174 90.04 61.952 84.523 Z" data-colored="false" data-filltype="gradient" data-stroketype="none"/></g><g id="svga-group-eyesiriswrapper-left" transform="translate(-0.75 -0.5)"><g id="svga-group-eyesiriscontrol-left" data-updown="0" data-leftright="0" data-dist="0" data-scaleX="1" data-scaleY="1" data-rotate="0"><g id="svga-group-eyesiris-left" data-updown="0" data-leftright="0" data-dist="0" data-scaleX="1" data-scaleY="1" data-rotate="0"><path id="SvgjsPath5657" opacity="1" fill="#3c8d8e" stroke-width="none" d="M 83.5 87 c 0 4.694 -3.806 8.5 -8.499 8.5 c -4.694 0 -8.501 -3.806 -8.501 -8.5 l 0 0 c 0 -4.694 3.807 -8.5 8.501 -8.5 C 79.694 78.499 83.5 82.305 83.5 87 L 83.5 87 Z" data-colored="true" data-filltype="tone" data-stroketype="none"/><path id="SvgjsPath5658" opacity="1" fill="url(#SvgjsRadialGradient5659)" d="M 74.048 78.595 c -0.033 0.004 -0.066 0.008 -0.101 0.012 c 0.041 0.191 0.081 0.384 0.12 0.575 C 74.06 78.987 74.055 78.789 74.048 78.595 Z M 74.066 79.18 c 0.099 2.793 0.262 5.282 0.732 6.183 C 75.047 84.377 74.625 81.92 74.066 79.18 Z M 74.8 85.365 c -0.061 0.236 -0.153 0.397 -0.294 0.452 c -0.142 0.053 -0.319 -0.008 -0.521 -0.146 c 0.058 0.236 0.052 0.422 -0.051 0.537 c -0.102 0.114 -0.285 0.142 -0.527 0.11 c 0.16 0.184 0.242 0.353 0.206 0.5 c -0.039 0.148 -0.189 0.258 -0.415 0.343 c 0.225 0.088 0.376 0.199 0.411 0.347 c 0.036 0.148 -0.046 0.315 -0.205 0.498 c 0.241 -0.029 0.426 0.001 0.525 0.115 c 0.101 0.114 0.106 0.301 0.05 0.537 c 0.199 -0.137 0.376 -0.197 0.518 -0.142 c 0.143 0.053 0.234 0.216 0.291 0.454 c 0.114 -0.215 0.243 -0.353 0.396 -0.368 c 0.148 -0.02 0.307 0.084 0.466 0.267 c 0.002 -0.244 0.053 -0.423 0.181 -0.51 c 0.124 -0.086 0.311 -0.069 0.537 0.018 c -0.11 -0.216 -0.148 -0.398 -0.078 -0.534 c 0.071 -0.135 0.245 -0.207 0.487 -0.235 c -0.199 -0.14 -0.321 -0.283 -0.318 -0.436 c -0.001 -0.153 0.119 -0.296 0.321 -0.434 c -0.241 -0.03 -0.412 -0.103 -0.484 -0.237 c -0.07 -0.135 -0.031 -0.319 0.081 -0.535 c -0.229 0.085 -0.413 0.102 -0.538 0.016 c -0.126 -0.086 -0.177 -0.267 -0.178 -0.51 c -0.158 0.182 -0.316 0.282 -0.468 0.262 C 75.041 85.714 74.911 85.58 74.8 85.365 Z M 75.66 85.471 c 0.679 -0.758 1.446 -3.13 2.224 -5.813 C 76.674 82.174 75.662 84.453 75.66 85.471 Z M 77.883 79.657 c 0.085 -0.172 0.172 -0.348 0.253 -0.524 c -0.03 -0.011 -0.06 -0.024 -0.09 -0.037 C 77.992 79.284 77.938 79.472 77.883 79.657 Z M 76.377 85.965 c 0.953 -0.357 2.736 -2.101 4.671 -4.115 C 78.808 83.517 76.851 85.065 76.377 85.965 Z M 81.048 81.851 c 0.142 -0.106 0.287 -0.213 0.433 -0.318 c -0.021 -0.025 -0.043 -0.047 -0.06 -0.07 C 81.297 81.59 81.174 81.722 81.048 81.851 Z M 76.777 86.738 c 1.01 0.125 3.399 -0.591 6.052 -1.475 C 80.068 85.698 77.617 86.159 76.777 86.738 Z M 82.829 85.263 c 0.156 -0.022 0.318 -0.048 0.478 -0.073 c -0.007 -0.026 -0.013 -0.054 -0.02 -0.081 C 83.135 85.16 82.979 85.212 82.829 85.263 Z M 76.775 87.606 c 0.836 0.583 3.284 1.057 6.038 1.505 C 80.171 88.214 77.786 87.484 76.775 87.606 Z M 82.813 89.111 c 0.135 0.047 0.271 0.095 0.404 0.138 c 0.007 -0.024 0.013 -0.047 0.018 -0.071 C 83.098 89.158 82.954 89.135 82.813 89.111 Z M 76.367 88.375 c 0.471 0.902 2.42 2.462 4.649 4.142 C 79.092 90.492 77.32 88.737 76.367 88.375 Z M 81.018 92.514 c 0.083 0.087 0.17 0.179 0.253 0.268 c 0.014 -0.017 0.027 -0.031 0.043 -0.046 C 81.215 92.662 81.113 92.587 81.018 92.514 Z M 75.652 88.867 c -0.004 1.019 0.995 3.302 2.191 5.827 C 77.079 92.006 76.327 89.628 75.652 88.867 Z M 77.844 94.694 c 0.03 0.106 0.062 0.215 0.09 0.324 c 0.021 -0.008 0.036 -0.015 0.055 -0.02 C 77.941 94.896 77.892 94.793 77.844 94.694 Z M 74.788 88.968 c -0.476 0.902 -0.653 3.386 -0.768 6.178 C 74.594 92.413 75.031 89.958 74.788 88.968 Z M 74.021 95.146 c -0.023 0.106 -0.044 0.214 -0.066 0.323 c 0.02 0.004 0.035 0.005 0.055 0.007 C 74.013 95.368 74.018 95.254 74.021 95.146 Z M 73.979 88.657 c -0.844 0.576 -2.154 2.697 -3.553 5.114 C 72.204 91.617 73.733 89.645 73.979 88.657 Z M 70.427 93.771 c -0.074 0.09 -0.152 0.185 -0.229 0.274 c 0.018 0.012 0.034 0.02 0.053 0.034 C 70.309 93.976 70.369 93.873 70.427 93.771 Z M 73.405 88.006 c -1.015 0.119 -3.16 1.385 -5.522 2.875 C 70.46 89.801 72.726 88.768 73.405 88.006 Z M 67.883 90.884 c -0.122 0.051 -0.247 0.102 -0.372 0.156 c 0.009 0.019 0.021 0.038 0.033 0.057 C 67.658 91.027 67.771 90.954 67.883 90.884 Z M 73.198 87.161 c -0.951 -0.365 -3.441 -0.238 -6.227 -0.016 C 69.755 87.383 72.244 87.521 73.198 87.161 Z M 66.972 87.145 c -0.151 -0.014 -0.308 -0.028 -0.457 -0.041 c -0.001 0.027 -0.003 0.053 -0.001 0.08 C 66.669 87.169 66.822 87.156 66.972 87.145 Z M 73.407 86.318 c -0.67 -0.763 -2.932 -1.809 -5.499 -2.905 C 70.259 84.915 72.397 86.196 73.407 86.318 Z M 67.908 83.413 c -0.147 -0.095 -0.297 -0.189 -0.446 -0.285 c -0.013 0.026 -0.026 0.053 -0.041 0.078 C 67.585 83.276 67.75 83.344 67.908 83.413 Z M 73.985 85.67 c -0.239 -0.989 -1.758 -2.967 -3.521 -5.132 C 71.849 82.963 73.147 85.09 73.985 85.67 Z M 70.465 80.538 c -0.095 -0.163 -0.188 -0.329 -0.281 -0.494 c -0.026 0.018 -0.055 0.037 -0.079 0.054 C 70.224 80.245 70.348 80.393 70.465 80.538 Z" data-colored="false" data-filltype="gradient" data-stroketype="none"/><path id="SvgjsPath5662" opacity="1" fill="url(#SvgjsRadialGradient5663)" d="M 76.255 78.622 c -0.034 -0.004 -0.066 -0.01 -0.1 -0.014 c -0.011 0.196 -0.022 0.393 -0.034 0.586 C 76.164 79.004 76.211 78.812 76.255 78.622 Z M 76.12 79.193 c -0.627 2.724 -1.114 5.17 -0.892 6.162 C 75.724 84.467 75.95 81.984 76.12 79.193 Z M 75.229 85.356 c -0.119 0.212 -0.25 0.344 -0.401 0.36 c -0.15 0.014 -0.306 -0.091 -0.464 -0.276 c -0.006 0.243 -0.06 0.421 -0.188 0.505 c -0.128 0.083 -0.313 0.063 -0.539 -0.03 c 0.107 0.219 0.143 0.403 0.069 0.536 c -0.075 0.133 -0.249 0.201 -0.489 0.224 c 0.194 0.144 0.312 0.289 0.308 0.441 c -0.003 0.152 -0.126 0.292 -0.327 0.428 c 0.24 0.034 0.41 0.111 0.478 0.247 c 0.067 0.136 0.025 0.318 -0.091 0.532 c 0.229 -0.081 0.414 -0.093 0.537 -0.003 c 0.123 0.088 0.17 0.27 0.164 0.514 c 0.166 -0.177 0.325 -0.278 0.478 -0.253 c 0.148 0.02 0.274 0.16 0.382 0.379 c 0.064 -0.236 0.16 -0.396 0.306 -0.447 c 0.143 -0.051 0.318 0.014 0.515 0.157 c -0.051 -0.237 -0.041 -0.423 0.063 -0.536 s 0.29 -0.136 0.532 -0.102 c -0.157 -0.187 -0.238 -0.356 -0.195 -0.504 c 0.039 -0.148 0.192 -0.255 0.423 -0.336 c -0.226 -0.091 -0.372 -0.206 -0.407 -0.354 c -0.032 -0.149 0.053 -0.316 0.218 -0.495 c -0.243 0.023 -0.427 -0.009 -0.524 -0.125 c -0.099 -0.115 -0.102 -0.303 -0.039 -0.538 c -0.201 0.134 -0.38 0.19 -0.521 0.132 C 75.37 85.756 75.281 85.593 75.229 85.356 Z M 76.033 85.683 c 0.852 -0.558 2.206 -2.65 3.652 -5.04 C 77.865 82.76 76.298 84.699 76.033 85.683 Z M 79.685 80.641 c 0.126 -0.145 0.255 -0.292 0.38 -0.44 c -0.027 -0.019 -0.052 -0.04 -0.078 -0.06 C 79.886 80.31 79.785 80.477 79.685 80.641 Z M 76.597 86.345 c 1.013 -0.099 3.187 -1.322 5.577 -2.767 C 79.578 84.609 77.287 85.598 76.597 86.345 Z M 82.173 83.579 c 0.165 -0.065 0.333 -0.131 0.501 -0.195 c -0.014 -0.029 -0.029 -0.056 -0.04 -0.083 C 82.481 83.392 82.328 83.487 82.173 83.579 Z M 76.783 87.194 c 0.943 0.382 3.437 0.309 6.227 0.142 C 80.231 87.042 77.745 86.853 76.783 87.194 Z M 83.01 87.336 c 0.158 0.019 0.32 0.036 0.48 0.053 c 0.001 -0.027 0.002 -0.055 0.003 -0.083 C 83.332 87.316 83.168 87.326 83.01 87.336 Z M 76.558 88.033 c 0.655 0.78 2.898 1.871 5.442 3.017 C 79.679 89.499 77.565 88.177 76.558 88.033 Z M 82 91.049 c 0.117 0.08 0.236 0.161 0.354 0.238 c 0.013 -0.021 0.024 -0.042 0.035 -0.063 C 82.262 91.168 82.129 91.109 82 91.049 Z M 75.964 88.67 c 0.221 0.993 1.699 3.004 3.419 5.205 C 78.048 91.419 76.791 89.266 75.964 88.67 Z M 79.384 93.872 c 0.059 0.106 0.117 0.217 0.176 0.325 c 0.018 -0.013 0.034 -0.023 0.053 -0.034 C 79.536 94.065 79.458 93.967 79.384 93.872 Z M 75.146 88.96 c -0.267 0.982 0.107 3.447 0.608 6.195 C 75.711 92.361 75.601 89.87 75.146 88.96 Z M 75.754 95.155 c 0.002 0.11 0.004 0.224 0.004 0.337 c 0.021 -0.003 0.038 -0.005 0.058 -0.005 C 75.796 95.376 75.775 95.264 75.754 95.155 Z M 74.285 88.834 c -0.693 0.748 -1.508 3.102 -2.341 5.769 C 73.205 92.11 74.265 89.853 74.285 88.834 Z M 71.944 94.603 c -0.05 0.096 -0.099 0.195 -0.147 0.295 c 0.017 0.008 0.032 0.013 0.051 0.021 C 71.879 94.815 71.913 94.707 71.944 94.603 Z M 73.584 88.324 c -0.964 0.338 -2.779 2.048 -4.756 4.021 C 71.104 90.724 73.091 89.215 73.584 88.324 Z M 68.828 92.345 c -0.095 0.067 -0.194 0.138 -0.29 0.206 c 0.014 0.016 0.027 0.028 0.041 0.045 C 68.661 92.511 68.746 92.428 68.828 92.345 Z M 73.197 87.546 c -1.01 -0.148 -3.409 0.521 -6.078 1.349 C 69.889 88.518 72.345 88.106 73.197 87.546 Z M 67.119 88.897 c -0.131 0.018 -0.265 0.034 -0.4 0.054 c 0.005 0.021 0.011 0.042 0.018 0.063 C 66.865 88.977 66.993 88.936 67.119 88.897 Z M 73.217 86.677 c -0.824 -0.599 -3.263 -1.121 -6.01 -1.627 C 69.833 86 72.202 86.777 73.217 86.677 Z M 67.207 85.05 c -0.143 -0.052 -0.29 -0.106 -0.432 -0.158 c -0.008 0.026 -0.016 0.051 -0.021 0.077 C 66.907 84.995 67.06 85.022 67.207 85.05 Z M 73.637 85.917 c -0.45 -0.911 -2.363 -2.506 -4.561 -4.23 C 70.959 83.747 72.693 85.538 73.637 85.917 Z M 69.076 81.688 c -0.118 -0.13 -0.236 -0.26 -0.355 -0.391 c -0.021 0.022 -0.041 0.044 -0.061 0.065 C 68.8 81.471 68.941 81.58 69.076 81.688 Z M 74.363 85.44 c 0.024 -1.017 -0.93 -3.321 -2.073 -5.868 C 72.999 82.273 73.704 84.663 74.363 85.44 Z M 72.29 79.572 c -0.049 -0.182 -0.096 -0.366 -0.144 -0.55 c -0.029 0.01 -0.062 0.021 -0.09 0.032 C 72.134 79.227 72.214 79.401 72.29 79.572 Z" data-colored="false" data-filltype="gradient" data-stroketype="none"/><path id="SvgjsPath5666" opacity="1" fill="#3c8d8e" stroke-width="none" d="M 78.334 87 c 0 1.842 -1.492 3.333 -3.333 3.333 S 71.666 88.841 71.666 87 c 0 -1.841 1.494 -3.334 3.335 -3.334 C 76.844 83.666 78.334 85.159 78.334 87 Z" data-colored="true" data-filltype="tone" data-stroketype="none"/><path id="SvgjsPath5667" opacity="0.9" fill="#000000" stroke-width="none" d="M 78.334 87 c 0 1.842 -1.492 3.333 -3.333 3.333 S 71.666 88.841 71.666 87 c 0 -1.841 1.494 -3.334 3.335 -3.334 C 76.844 83.666 78.334 85.159 78.334 87 Z" data-colored="false" data-filltype="#000000" data-stroketype="none"/><path id="SvgjsPath5668" opacity="0.5" fill="url(#SvgjsLinearGradient5669)" d="M 70.35 90.893 c 0.636 -0.427 1.5 -0.255 1.927 0.38 c 0.427 0.637 0.258 1.5 -0.379 1.927 c -0.638 0.429 -1.5 0.258 -1.927 -0.378 C 69.544 92.185 69.713 91.32 70.35 90.893 L 70.35 90.893 Z" data-colored="false" data-filltype="gradient" data-stroketype="none"/><path id="SvgjsPath5672" opacity="0.5" fill="url(#SvgjsLinearGradient5673)" d="M 77.635 86.536 c -0.356 0.53 -1.373 0.468 -2.275 -0.136 c -0.903 -0.605 -1.346 -1.526 -0.991 -2.055 l 0.001 -0.001 c 0.354 -0.53 1.372 -0.469 2.274 0.137 c 0.903 0.604 1.346 1.524 0.992 2.054 C 77.635 86.536 77.635 86.536 77.635 86.536 Z" data-colored="false" data-filltype="gradient" data-stroketype="none"/><path id="SvgjsPath5676" opacity="0.75" fill="url(#SvgjsLinearGradient5677)" d="M 81.682 85.121 c -0.806 1.237 -2.884 1.31 -4.641 0.166 c -1.756 -1.145 -2.527 -3.075 -1.722 -4.311 c 0.806 -1.235 2.884 -1.31 4.641 -0.166 C 81.715 81.956 82.485 83.887 81.682 85.121 L 81.682 85.121 Z" data-colored="false" data-filltype="gradient" data-stroketype="none"/></g></g></g><g id="svga-group-eyesfront-left"><path id="SvgjsPath5489" opacity="1" fill="#f3d4cf" stroke-width="none" d="M 55.5 88 c 0 13.807 8.06 24.999 18 24.999 s 18 -11.192 18 -24.999 c 0 -13.808 -8.06 -25 -18 -25 S 55.5 74.192 55.5 88 Z M 61.952 84.523 c -0.506 -2.285 5.191 -3.973 12.711 -3.051 c 7.518 0.923 12.738 5.524 12.052 7.844 c -0.38 1.286 -10.639 3.245 -14.253 2.847 C 68.798 91.758 63.174 90.04 61.952 84.523 Z" data-colored="true" data-filltype="tone" data-stroketype="none" data-fromskin="true"/><path id="SvgjsPath5490" opacity="1" fill="url(#SvgjsRadialGradient5491)" d="M 72.462 92.163 c 3.614 0.398 13.873 -1.561 14.253 -2.847 c 0.687 -2.32 -4.534 -6.921 -12.052 -7.844 c -6.46 -0.792 -11.563 0.345 -12.556 2.128 c 0.898 -6.4 7.7 -11.397 15.987 -11.434 c 8.911 -0.037 16.148 5.676 16.172 12.765 c 0.021 7.088 -7.185 12.862 -16.095 12.902 c -8.913 0.037 -16.149 -5.676 -16.173 -12.764 c 0 -0.105 0.016 -0.208 0.019 -0.313 C 63.348 90.083 68.852 91.764 72.462 92.163 Z" data-colored="false" data-filltype="gradient" data-stroketype="none" data-fromskin="true"/><path id="SvgjsPath5495" opacity="1" fill="url(#SvgjsRadialGradient5496)" d="M 61.952 84.523 c -0.506 -2.285 5.191 -3.973 12.711 -3.051 c 7.518 0.923 12.738 5.524 12.052 7.844 c -0.38 1.286 -10.639 3.245 -14.253 2.847 C 68.798 91.758 63.174 90.04 61.952 84.523 Z" data-colored="false" data-filltype="gradient" data-stroketype="none"/><path id="SvgjsPath5499" opacity="1" fill="#c5796d" stroke-width="none" d="M 62.349 79.417 c 4.208 -1.978 9.35 -2.16 13.838 -1.005 c 2.404 0.561 4.965 1.285 7.063 2.638 c 1.945 1.135 3.525 2.5 5.002 4.19 c -1.342 -1.701 -2.773 -3.118 -4.623 -4.27 c -2.276 -1.416 -4.769 -2.294 -7.364 -2.916 C 71.678 76.928 66.542 77.184 62.349 79.417 Z" data-colored="true" data-filltype="sd3" data-stroketype="none" data-fromskin="true"/><path id="SvgjsPath5500" opacity="1" fill="#000000" stroke-width="none" d="M 57.318 80.972 c 0 0 2.328 0.881 3.595 0.62 c -0.39 -0.459 -1.096 -1.604 -1.096 -1.604 s 1.853 0.551 3.151 0.032 c 0.88 -0.352 4.065 -1 5.456 -1.066 c 1.687 -0.082 5.073 0.125 6.735 0.424 c 3.374 0.608 8.985 2.63 11.678 7.184 c 0.255 0.572 1.407 0.921 1.407 0.921 s -1.02 -0.215 -1.149 0.042 c -0.282 0.561 1.298 2.016 1.496 2.197 c -0.161 -0.145 -1.289 -1.135 -1.722 -0.967 c -0.061 0.022 -0.137 0.388 -0.155 0.482 c 0.3 -2.426 -4.838 -6.746 -12.052 -7.604 c -7.52 -0.894 -13.217 0.743 -12.711 2.958 c 1.222 5.348 6.846 7.013 10.51 7.405 c 2.526 0.271 8.298 -0.577 11.675 -1.537 l 1.011 -0.317 c -1.999 1.009 -7.524 2.195 -9.767 2.403 c -0.744 0.07 -2.24 0.104 -2.986 0.085 c -5.949 -0.158 -10.16 -3.179 -11.729 -7.26 c -0.125 -0.328 -0.494 -0.619 -0.838 -0.696 c -1.604 -0.361 -5.096 -1.811 -5.096 -1.811 c 2.32 0.361 3.483 0.674 5.305 0.059 C 58.257 82.256 57.318 80.972 57.318 80.972 Z" data-colored="true" data-filltype="tone" data-stroketype="none"/></g></g><g id="svga-group-eyes-right" data-updown="0" data-leftright="0" data-dist="0" data-scaleX="1" data-scaleY="1" data-rotate="0"><g id="svga-group-eyesback-right"><path id="SvgjsPath5474" opacity="1" fill="url(#SvgjsRadialGradient5475)" d="M 138.048 84.523 c 0.506 -2.285 -5.191 -3.973 -12.711 -3.051 c -7.518 0.923 -12.738 5.524 -12.052 7.844 c 0.38 1.286 10.639 3.245 14.253 2.847 C 131.202 91.758 136.826 90.04 138.048 84.523 Z" data-colored="false" data-filltype="gradient" data-stroketype="none"/></g><g id="svga-group-eyesiriswrapper-right" transform="translate(0.75 -0.5)"><g id="svga-group-eyesiriscontrol-right" data-updown="0" data-leftright="0" data-dist="0" data-scaleX="1" data-scaleY="1" data-rotate="0"><g id="svga-group-eyesiris-right" data-updown="0" data-leftright="0" data-dist="0" data-scaleX="1" data-scaleY="1" data-rotate="0"><path id="SvgjsPath5680" opacity="1" fill="#3c8d8e" stroke-width="none" d="M 133.5 87 c 0 4.694 -3.806 8.5 -8.499 8.5 c -4.694 0 -8.501 -3.806 -8.501 -8.5 l 0 0 c 0 -4.694 3.807 -8.5 8.501 -8.5 C 129.694 78.499 133.5 82.305 133.5 87 L 133.5 87 Z" data-colored="true" data-filltype="tone" data-stroketype="none"/><path id="SvgjsPath5681" opacity="1" fill="url(#SvgjsRadialGradient5682)" d="M 124.048 78.595 c -0.033 0.004 -0.066 0.008 -0.101 0.012 c 0.041 0.191 0.081 0.384 0.12 0.575 C 124.06 78.987 124.055 78.789 124.048 78.595 Z M 124.066 79.18 c 0.099 2.793 0.262 5.282 0.732 6.183 C 125.047 84.377 124.625 81.92 124.066 79.18 Z M 124.8 85.365 c -0.061 0.236 -0.153 0.397 -0.294 0.452 c -0.142 0.053 -0.319 -0.008 -0.521 -0.146 c 0.058 0.236 0.052 0.422 -0.051 0.537 c -0.102 0.114 -0.285 0.142 -0.527 0.11 c 0.16 0.184 0.242 0.353 0.206 0.5 c -0.039 0.148 -0.189 0.258 -0.415 0.343 c 0.225 0.088 0.376 0.199 0.411 0.347 c 0.036 0.148 -0.046 0.315 -0.205 0.498 c 0.241 -0.029 0.426 0.001 0.525 0.115 c 0.101 0.114 0.106 0.301 0.05 0.537 c 0.199 -0.137 0.376 -0.197 0.518 -0.142 c 0.143 0.053 0.234 0.216 0.291 0.454 c 0.114 -0.215 0.243 -0.353 0.396 -0.368 c 0.148 -0.02 0.307 0.084 0.466 0.267 c 0.002 -0.244 0.053 -0.423 0.181 -0.51 c 0.124 -0.086 0.311 -0.069 0.537 0.018 c -0.11 -0.216 -0.148 -0.398 -0.078 -0.534 c 0.071 -0.135 0.245 -0.207 0.487 -0.235 c -0.199 -0.14 -0.321 -0.283 -0.318 -0.436 c -0.001 -0.153 0.119 -0.296 0.321 -0.434 c -0.241 -0.03 -0.412 -0.103 -0.484 -0.237 c -0.07 -0.135 -0.031 -0.319 0.081 -0.535 c -0.229 0.085 -0.413 0.102 -0.538 0.016 c -0.126 -0.086 -0.177 -0.267 -0.178 -0.51 c -0.158 0.182 -0.316 0.282 -0.468 0.262 C 125.041 85.714 124.911 85.58 124.8 85.365 Z M 125.66 85.471 c 0.679 -0.758 1.446 -3.13 2.224 -5.813 C 126.674 82.174 125.662 84.453 125.66 85.471 Z M 127.883 79.657 c 0.085 -0.172 0.172 -0.348 0.253 -0.524 c -0.03 -0.011 -0.06 -0.024 -0.09 -0.037 C 127.992 79.284 127.938 79.472 127.883 79.657 Z M 126.377 85.965 c 0.953 -0.357 2.736 -2.101 4.671 -4.115 C 128.808 83.517 126.851 85.065 126.377 85.965 Z M 131.048 81.851 c 0.142 -0.106 0.287 -0.213 0.433 -0.318 c -0.021 -0.025 -0.043 -0.047 -0.06 -0.07 C 131.297 81.59 131.174 81.722 131.048 81.851 Z M 126.777 86.738 c 1.01 0.125 3.399 -0.591 6.052 -1.475 C 130.068 85.698 127.617 86.159 126.777 86.738 Z M 132.829 85.263 c 0.156 -0.022 0.318 -0.048 0.478 -0.073 c -0.007 -0.026 -0.013 -0.054 -0.02 -0.081 C 133.135 85.16 132.979 85.212 132.829 85.263 Z M 126.775 87.606 c 0.836 0.583 3.284 1.057 6.038 1.505 C 130.171 88.214 127.786 87.484 126.775 87.606 Z M 132.813 89.111 c 0.135 0.047 0.271 0.095 0.404 0.138 c 0.007 -0.024 0.013 -0.047 0.018 -0.071 C 133.098 89.158 132.954 89.135 132.813 89.111 Z M 126.367 88.375 c 0.471 0.902 2.42 2.462 4.649 4.142 C 129.092 90.492 127.32 88.737 126.367 88.375 Z M 131.018 92.514 c 0.083 0.087 0.17 0.179 0.253 0.268 c 0.014 -0.017 0.027 -0.031 0.043 -0.046 C 131.215 92.662 131.113 92.587 131.018 92.514 Z M 125.652 88.867 c -0.004 1.019 0.995 3.302 2.191 5.827 C 127.079 92.006 126.327 89.628 125.652 88.867 Z M 127.844 94.694 c 0.03 0.106 0.062 0.215 0.09 0.324 c 0.021 -0.008 0.036 -0.015 0.055 -0.02 C 127.941 94.896 127.892 94.793 127.844 94.694 Z M 124.788 88.968 c -0.476 0.902 -0.653 3.386 -0.768 6.178 C 124.594 92.413 125.031 89.958 124.788 88.968 Z M 124.021 95.146 c -0.023 0.106 -0.044 0.214 -0.066 0.323 c 0.02 0.004 0.035 0.005 0.055 0.007 C 124.013 95.368 124.018 95.254 124.021 95.146 Z M 123.979 88.657 c -0.844 0.576 -2.154 2.697 -3.553 5.114 C 122.204 91.617 123.733 89.645 123.979 88.657 Z M 120.427 93.771 c -0.074 0.09 -0.152 0.185 -0.229 0.274 c 0.018 0.012 0.034 0.02 0.053 0.034 C 120.309 93.976 120.369 93.873 120.427 93.771 Z M 123.405 88.006 c -1.015 0.119 -3.16 1.385 -5.522 2.875 C 120.46 89.801 122.726 88.768 123.405 88.006 Z M 117.883 90.884 c -0.122 0.051 -0.247 0.102 -0.372 0.156 c 0.009 0.019 0.021 0.038 0.033 0.057 C 117.658 91.027 117.771 90.954 117.883 90.884 Z M 123.198 87.161 c -0.951 -0.365 -3.441 -0.238 -6.227 -0.016 C 119.755 87.383 122.244 87.521 123.198 87.161 Z M 116.972 87.145 c -0.151 -0.014 -0.308 -0.028 -0.457 -0.041 c -0.001 0.027 -0.003 0.053 -0.001 0.08 C 116.669 87.169 116.822 87.156 116.972 87.145 Z M 123.407 86.318 c -0.67 -0.763 -2.932 -1.809 -5.499 -2.905 C 120.259 84.915 122.397 86.196 123.407 86.318 Z M 117.908 83.413 c -0.147 -0.095 -0.297 -0.189 -0.446 -0.285 c -0.013 0.026 -0.026 0.053 -0.041 0.078 C 117.585 83.276 117.75 83.344 117.908 83.413 Z M 123.985 85.67 c -0.239 -0.989 -1.758 -2.967 -3.521 -5.132 C 121.849 82.963 123.147 85.09 123.985 85.67 Z M 120.465 80.538 c -0.095 -0.163 -0.188 -0.329 -0.281 -0.494 c -0.026 0.018 -0.055 0.037 -0.079 0.054 C 120.224 80.245 120.348 80.393 120.465 80.538 Z" data-colored="false" data-filltype="gradient" data-stroketype="none"/><path id="SvgjsPath5685" opacity="1" fill="url(#SvgjsRadialGradient5686)" d="M 126.255 78.622 c -0.034 -0.004 -0.066 -0.01 -0.1 -0.014 c -0.011 0.196 -0.022 0.393 -0.034 0.586 C 126.164 79.004 126.211 78.812 126.255 78.622 Z M 126.12 79.193 c -0.627 2.724 -1.114 5.17 -0.892 6.162 C 125.724 84.467 125.95 81.984 126.12 79.193 Z M 125.229 85.356 c -0.119 0.212 -0.25 0.344 -0.401 0.36 c -0.15 0.014 -0.306 -0.091 -0.464 -0.276 c -0.006 0.243 -0.06 0.421 -0.188 0.505 c -0.128 0.083 -0.313 0.063 -0.539 -0.03 c 0.107 0.219 0.143 0.403 0.069 0.536 c -0.075 0.133 -0.249 0.201 -0.489 0.224 c 0.194 0.144 0.312 0.289 0.308 0.441 c -0.003 0.152 -0.126 0.292 -0.327 0.428 c 0.24 0.034 0.41 0.111 0.478 0.247 c 0.067 0.136 0.025 0.318 -0.091 0.532 c 0.229 -0.081 0.414 -0.093 0.537 -0.003 c 0.123 0.088 0.17 0.27 0.164 0.514 c 0.166 -0.177 0.325 -0.278 0.478 -0.253 c 0.148 0.02 0.274 0.16 0.382 0.379 c 0.064 -0.236 0.16 -0.396 0.306 -0.447 c 0.143 -0.051 0.318 0.014 0.515 0.157 c -0.051 -0.237 -0.041 -0.423 0.063 -0.536 s 0.29 -0.136 0.532 -0.102 c -0.157 -0.187 -0.238 -0.356 -0.195 -0.504 c 0.039 -0.148 0.192 -0.255 0.423 -0.336 c -0.226 -0.091 -0.372 -0.206 -0.407 -0.354 c -0.032 -0.149 0.053 -0.316 0.218 -0.495 c -0.243 0.023 -0.427 -0.009 -0.524 -0.125 c -0.099 -0.115 -0.102 -0.303 -0.039 -0.538 c -0.201 0.134 -0.38 0.19 -0.521 0.132 C 125.37 85.756 125.281 85.593 125.229 85.356 Z M 126.033 85.683 c 0.852 -0.558 2.206 -2.65 3.652 -5.04 C 127.865 82.76 126.298 84.699 126.033 85.683 Z M 129.685 80.641 c 0.126 -0.145 0.255 -0.292 0.38 -0.44 c -0.027 -0.019 -0.052 -0.04 -0.078 -0.06 C 129.886 80.31 129.785 80.477 129.685 80.641 Z M 126.597 86.345 c 1.013 -0.099 3.187 -1.322 5.577 -2.767 C 129.578 84.609 127.287 85.598 126.597 86.345 Z M 132.173 83.579 c 0.165 -0.065 0.333 -0.131 0.501 -0.195 c -0.014 -0.029 -0.029 -0.056 -0.04 -0.083 C 132.481 83.392 132.328 83.487 132.173 83.579 Z M 126.783 87.194 c 0.943 0.382 3.437 0.309 6.227 0.142 C 130.231 87.042 127.745 86.853 126.783 87.194 Z M 133.01 87.336 c 0.158 0.019 0.32 0.036 0.48 0.053 c 0.001 -0.027 0.002 -0.055 0.003 -0.083 C 133.332 87.316 133.168 87.326 133.01 87.336 Z M 126.558 88.033 c 0.655 0.78 2.898 1.871 5.442 3.017 C 129.679 89.499 127.565 88.177 126.558 88.033 Z M 132 91.049 c 0.117 0.08 0.236 0.161 0.354 0.238 c 0.013 -0.021 0.024 -0.042 0.035 -0.063 C 132.262 91.168 132.129 91.109 132 91.049 Z M 125.964 88.67 c 0.221 0.993 1.699 3.004 3.419 5.205 C 128.048 91.419 126.791 89.266 125.964 88.67 Z M 129.384 93.872 c 0.059 0.106 0.117 0.217 0.176 0.325 c 0.018 -0.013 0.034 -0.023 0.053 -0.034 C 129.536 94.065 129.458 93.967 129.384 93.872 Z M 125.146 88.96 c -0.267 0.982 0.107 3.447 0.608 6.195 C 125.711 92.361 125.601 89.87 125.146 88.96 Z M 125.754 95.155 c 0.002 0.11 0.004 0.224 0.004 0.337 c 0.021 -0.003 0.038 -0.005 0.058 -0.005 C 125.796 95.376 125.775 95.264 125.754 95.155 Z M 124.285 88.834 c -0.693 0.748 -1.508 3.102 -2.341 5.769 C 123.205 92.11 124.265 89.853 124.285 88.834 Z M 121.944 94.603 c -0.05 0.096 -0.099 0.195 -0.147 0.295 c 0.017 0.008 0.032 0.013 0.051 0.021 C 121.879 94.815 121.913 94.707 121.944 94.603 Z M 123.584 88.324 c -0.964 0.338 -2.779 2.048 -4.756 4.021 C 121.104 90.724 123.091 89.215 123.584 88.324 Z M 118.828 92.345 c -0.095 0.067 -0.194 0.138 -0.29 0.206 c 0.014 0.016 0.027 0.028 0.041 0.045 C 118.661 92.511 118.746 92.428 118.828 92.345 Z M 123.197 87.546 c -1.01 -0.148 -3.409 0.521 -6.078 1.349 C 119.889 88.518 122.345 88.106 123.197 87.546 Z M 117.119 88.897 c -0.131 0.018 -0.265 0.034 -0.4 0.054 c 0.005 0.021 0.011 0.042 0.018 0.063 C 116.865 88.977 116.993 88.936 117.119 88.897 Z M 123.217 86.677 c -0.824 -0.599 -3.263 -1.121 -6.01 -1.627 C 119.833 86 122.202 86.777 123.217 86.677 Z M 117.207 85.05 c -0.143 -0.052 -0.29 -0.106 -0.432 -0.158 c -0.008 0.026 -0.016 0.051 -0.021 0.077 C 116.907 84.995 117.06 85.022 117.207 85.05 Z M 123.637 85.917 c -0.45 -0.911 -2.363 -2.506 -4.561 -4.23 C 120.959 83.747 122.693 85.538 123.637 85.917 Z M 119.076 81.688 c -0.118 -0.13 -0.236 -0.26 -0.355 -0.391 c -0.021 0.022 -0.041 0.044 -0.061 0.065 C 118.8 81.471 118.941 81.58 119.076 81.688 Z M 124.363 85.44 c 0.024 -1.017 -0.93 -3.321 -2.073 -5.868 C 122.999 82.273 123.704 84.663 124.363 85.44 Z M 122.29 79.572 c -0.049 -0.182 -0.096 -0.366 -0.144 -0.55 c -0.029 0.01 -0.062 0.021 -0.09 0.032 C 122.134 79.227 122.214 79.401 122.29 79.572 Z" data-colored="false" data-filltype="gradient" data-stroketype="none"/><path id="SvgjsPath5689" opacity="1" fill="#3c8d8e" stroke-width="none" d="M 128.334 87 c 0 1.842 -1.492 3.333 -3.333 3.333 s -3.335 -1.492 -3.335 -3.333 c 0 -1.841 1.494 -3.334 3.335 -3.334 C 126.844 83.666 128.334 85.159 128.334 87 Z" data-colored="true" data-filltype="tone" data-stroketype="none"/><path id="SvgjsPath5690" opacity="0.9" fill="#000000" stroke-width="none" d="M 128.334 87 c 0 1.842 -1.492 3.333 -3.333 3.333 s -3.335 -1.492 -3.335 -3.333 c 0 -1.841 1.494 -3.334 3.335 -3.334 C 126.844 83.666 128.334 85.159 128.334 87 Z" data-colored="false" data-filltype="#000000" data-stroketype="none"/><path id="SvgjsPath5691" opacity="0.5" fill="url(#SvgjsLinearGradient5692)" d="M 120.35 90.893 c 0.636 -0.427 1.5 -0.255 1.927 0.38 c 0.427 0.637 0.258 1.5 -0.379 1.927 c -0.638 0.429 -1.5 0.258 -1.927 -0.378 C 119.544 92.185 119.713 91.32 120.35 90.893 L 120.35 90.893 Z" data-colored="false" data-filltype="gradient" data-stroketype="none"/><path id="SvgjsPath5695" opacity="0.5" fill="url(#SvgjsLinearGradient5696)" d="M 127.635 86.536 c -0.356 0.53 -1.373 0.468 -2.275 -0.136 c -0.903 -0.605 -1.346 -1.526 -0.991 -2.055 l 0.001 -0.001 c 0.354 -0.53 1.372 -0.469 2.274 0.137 c 0.903 0.604 1.346 1.524 0.992 2.054 C 127.635 86.536 127.635 86.536 127.635 86.536 Z" data-colored="false" data-filltype="gradient" data-stroketype="none"/><path id="SvgjsPath5699" opacity="0.75" fill="url(#SvgjsLinearGradient5700)" d="M 131.682 85.121 c -0.806 1.237 -2.884 1.31 -4.641 0.166 c -1.756 -1.145 -2.527 -3.075 -1.722 -4.311 c 0.806 -1.235 2.884 -1.31 4.641 -0.166 C 131.715 81.956 132.485 83.887 131.682 85.121 L 131.682 85.121 Z" data-colored="false" data-filltype="gradient" data-stroketype="none"/></g></g></g><g id="svga-group-eyesfront-right"><path id="SvgjsPath5509" opacity="1" fill="#f3d4cf" stroke-width="none" d="M 126.5 63 c -9.94 0 -18 11.192 -18 25 c 0 13.807 8.06 24.999 18 24.999 s 18 -11.192 18 -24.999 C 144.5 74.192 136.44 63 126.5 63 Z M 127.538 92.163 c -3.614 0.398 -13.873 -1.561 -14.253 -2.847 c -0.687 -2.32 4.534 -6.921 12.052 -7.844 c 7.52 -0.922 13.217 0.767 12.711 3.051 C 136.826 90.04 131.202 91.758 127.538 92.163 Z" data-colored="true" data-filltype="tone" data-stroketype="none" data-fromskin="true"/><path id="SvgjsPath5510" opacity="1" fill="url(#SvgjsRadialGradient5511)" d="M 127.538 92.163 c -3.614 0.398 -13.873 -1.561 -14.253 -2.847 c -0.687 -2.32 4.534 -6.921 12.052 -7.844 c 6.46 -0.792 11.563 0.345 12.556 2.128 c -0.898 -6.4 -7.7 -11.397 -15.987 -11.434 c -8.911 -0.037 -16.148 5.676 -16.172 12.765 c -0.021 7.088 7.185 12.862 16.095 12.902 c 8.913 0.037 16.149 -5.676 16.173 -12.764 c 0 -0.105 -0.016 -0.208 -0.019 -0.313 C 136.652 90.083 131.148 91.764 127.538 92.163 Z" data-colored="false" data-filltype="gradient" data-stroketype="none" data-fromskin="true"/><path id="SvgjsPath5515" opacity="1" fill="url(#SvgjsRadialGradient5516)" d="M 138.048 84.523 c 0.506 -2.285 -5.191 -3.973 -12.711 -3.051 c -7.518 0.923 -12.738 5.524 -12.052 7.844 c 0.38 1.286 10.639 3.245 14.253 2.847 C 131.202 91.758 136.826 90.04 138.048 84.523 Z" data-colored="false" data-filltype="gradient" data-stroketype="none"/><path id="SvgjsPath5519" opacity="1" fill="#c5796d" stroke-width="none" d="M 137.651 79.417 c -4.208 -1.978 -9.35 -2.16 -13.838 -1.005 c -2.404 0.561 -4.965 1.285 -7.063 2.638 c -1.945 1.135 -3.525 2.5 -5.002 4.19 c 1.342 -1.701 2.773 -3.118 4.623 -4.27 c 2.276 -1.416 4.769 -2.294 7.364 -2.916 C 128.322 76.928 133.458 77.184 137.651 79.417 Z" data-colored="true" data-filltype="sd3" data-stroketype="none" data-fromskin="true"/><path id="SvgjsPath5520" opacity="1" fill="#000000" stroke-width="none" d="M 142.682 80.972 c 0 0 -2.328 0.881 -3.595 0.62 c 0.39 -0.459 1.096 -1.604 1.096 -1.604 s -1.853 0.551 -3.151 0.032 c -0.88 -0.352 -4.065 -1 -5.456 -1.066 c -1.687 -0.082 -5.073 0.125 -6.735 0.424 c -3.374 0.608 -8.985 2.63 -11.678 7.184 c -0.255 0.572 -1.407 0.921 -1.407 0.921 s 1.02 -0.215 1.149 0.042 c 0.282 0.561 -1.298 2.016 -1.496 2.197 c 0.161 -0.145 1.289 -1.135 1.722 -0.967 c 0.061 0.022 0.137 0.388 0.155 0.482 c -0.3 -2.426 4.838 -6.746 12.052 -7.604 c 7.52 -0.894 13.217 0.743 12.711 2.958 c -1.222 5.348 -6.846 7.013 -10.51 7.405 c -2.526 0.271 -8.298 -0.577 -11.675 -1.537 l -1.011 -0.317 c 1.999 1.009 7.524 2.195 9.767 2.403 c 0.744 0.07 2.24 0.104 2.986 0.085 c 5.949 -0.158 10.16 -3.179 11.729 -7.26 c 0.125 -0.328 0.494 -0.619 0.838 -0.696 c 1.604 -0.361 5.096 -1.811 5.096 -1.811 c -2.32 0.361 -3.483 0.674 -5.305 0.059 C 141.743 82.256 142.682 80.972 142.682 80.972 Z" data-colored="true" data-filltype="tone" data-stroketype="none"/></g></g><g id="svga-group-facehighlight-single" data-updown="0" data-leftright="0" data-dist="0" data-scaleX="1" data-scaleY="1" data-rotate="0"><path id="SvgjsPath2753" opacity="1" fill="url(#SvgjsRadialGradient2754)" d="M 140.204 113.007 c 0.035 22.275 -17.995 40.365 -40.273 40.396 c -22.274 0.036 -40.361 -17.993 -40.396 -40.272 C 59.501 90.857 77.53 72.77 99.808 72.735 C 122.083 72.701 140.171 90.73 140.204 113.007 Z" data-colored="false" data-filltype="gradient" data-stroketype="none" data-fromskin="true"/><path id="SvgjsPath2757" opacity="1" fill="url(#SvgjsRadialGradient2758)" d="M 135 55.999 c 0 19.329 -15.671 35 -35 35 c -19.329 0 -35 -15.671 -35 -35 s 15.671 -35 35 -35 C 119.329 20.999 135 36.67 135 55.999 Z" data-colored="false" data-filltype="gradient" data-stroketype="none" data-fromskin="true"/></g><g id="svga-group-eyebrows-left" transform="rotate(7.5 71.8807 70.8935)" data-updown="0" data-leftright="0" data-dist="0" data-scaleX="1" data-scaleY="1" data-rotate="7.5000001"><path id="SvgjsPath5145" opacity="1" fill="#2a232b" stroke-width="none" d="M 74.799 69.068 c -4.425 -0.475 -21.252 3.714 -21.252 3.714 s 16.789 -6.74 23.757 -5.667 c 5.188 0.798 14.397 5.077 12.706 7.339 C 88.649 76.275 84.408 70.1 74.799 69.068 Z" data-colored="true" data-filltype="#000000" data-stroketype="none"/></g><g id="svga-group-eyebrows-right" transform="rotate(3.75 127.857 70.946)" data-updown="0" data-leftright="0" data-dist="0" data-scaleX="1" data-scaleY="1" data-rotate="3.7500001"><path id="SvgjsPath5146" opacity="1" fill="#2a232b" stroke-width="none" d="M 109.731 74.187 c -1.713 -2.292 7.592 -6.31 13.546 -6.804 c 7.117 -0.59 22.914 4.085 22.914 4.085 s -15.9 -2.628 -20.377 -2.106 C 115.998 70.506 111.11 76.031 109.731 74.187 Z" data-colored="true" data-filltype="#000000" data-stroketype="none"/></g><g id="svga-group-nose-single" data-updown="0" data-leftright="0" data-dist="0" data-scaleX="1" data-scaleY="1" data-rotate="0"><path id="SvgjsPath2890" opacity="1" fill="#e4b3ab" stroke="none" stroke-width="none" d="M 92.281 116.235 c -0.745 2.063 5.028 4.289 7.218 4.426 c 2.374 0.147 9.024 -2.899 7.896 -4.991 c -1.185 -2.197 -5.63 -0.286 -7.547 -0.286 C 97.94 115.384 93.276 113.479 92.281 116.235 Z" data-colored="true" data-filltype="sd1" data-stroketype="none" data-fromskin="true"/><path id="SvgjsPath2891" opacity="1" fill="#c5796d" stroke="none" stroke-width="none" d="M 102.207 117.221 c -0.243 -0.522 1.194 -1.333 1.748 -1.493 c 0.777 -0.226 2.505 0.238 2.438 0.831 c -0.06 0.521 -1.603 -0.169 -2.105 -0.022 C 103.767 116.687 102.435 117.712 102.207 117.221 Z M 95.214 116.742 c 0.706 0 1.753 0.457 1.945 0.057 c 0.229 -0.479 -1.56 -1.065 -2.086 -1 c -0.434 0.052 -1.991 0.958 -1.777 1.338 C 93.496 117.49 94.284 116.742 95.214 116.742 Z" data-colored="true" data-filltype="sd3" data-stroketype="none" data-fromskin="true"/><path id="SvgjsPath2892" opacity="0.2" fill="#ffffff" stroke="none" stroke-width="none" d="M 99.857 113.479 c 0.669 0 1.807 -0.637 1.978 -1.9 c 0.754 -5.575 -0.521 -20.246 -1.978 -20.246 c -1.365 0 -2.508 15.024 -2.155 20.246 C 97.789 112.86 99.099 113.479 99.857 113.479" data-colored="true" data-filltype="hl2" data-stroketype="none" data-fromskin="true"/></g><g id="svga-group-hair-front" data-updown="0" data-leftright="0" data-dist="0" data-scaleX="1" data-scaleY="1" data-rotate="0"><path id="SvgjsPath5705" opacity="0.1" fill="#6b4e40" stroke-width="none" d="M 47.869 62.985 c 3.513 -27.218 48.858 -44.766 54.189 -42.089 c 3.002 -1.44 59.328 41.036 59.561 62.839 c 0 0 -22.007 19.356 -22.043 12.485 c -0.167 -6.713 -13.667 -24.08 -19.264 -31.097 c -5.428 -6.805 -11.027 -15.225 -14.647 -23.392 c -4.578 8.854 -19.762 23.128 -25.737 27.531 C 67.71 78.266 61 97.833 57.482 108.704 c -0.619 1.911 -4.764 11.061 -5.409 13.031 C 47.527 110.639 44.016 90.357 47.869 62.985 Z" data-colored="true" data-filltype="tone" data-stroketype="none"/><path id="SvgjsPath5706" opacity="1" fill="#6b4e40" stroke-width="none" d="M 168.612 36.164 c -11.808 -25.213 -46.156 -48.481 -67.878 -36.371 C 56.411 -23.993 -12.496 66.971 47.647 132.54 c 0.04 0.039 0.068 0.08 0.106 0.117 c 6.074 6.596 13.227 12.621 20.452 17.504 c -7.228 -9.984 -13.803 -23.407 -15.666 -35.879 c 5.939 -18.021 9.266 -33.725 25.459 -47.317 c 11.026 -9.255 24.281 -19.122 26.669 -31.375 c 8.063 19.831 29.816 38.467 34.742 52.624 c 0.175 14.627 -3.735 28.098 -4.854 32.623 c 0.078 -0.156 0.164 -0.309 0.252 -0.461 c 2.984 -5.375 5.861 -10.77 7.771 -16.451 c 0.83 17.059 -5.808 30.435 -9.904 39.925 c -0.024 0.074 -0.057 0.152 -0.096 0.229 c 0.096 -0.055 0.184 -0.117 0.277 -0.174 c 10.322 -6.818 20.082 -19.361 26.105 -31.27 c -0.029 6.242 -0.487 14.134 -0.654 16.42 c 12.835 -17.958 14.087 -34.884 15.084 -37.911 c 1.148 5.97 3.297 11.975 4.45 14.41 C 177.24 88.977 179.117 61.413 168.612 36.164 Z" data-colored="true" data-filltype="tone" data-stroketype="none"/><path id="SvgjsPath5707" opacity="1" fill="#5c3d2e" stroke-width="none" d="M 51.208 109.438 c 0 -6.093 5.659 -15.235 9.328 -19.373 c -2.775 5.59 -9.544 23.984 -12.005 36.941 c -10.121 -26.649 -12.492 -60.43 1.831 -85.612 c -7.582 20.698 -12.034 42.867 -4.909 64.212 c -0.282 -10.386 -3.378 -28.761 11.511 -52.691 C 52.404 70.117 49.348 88.952 51.208 109.438 Z M 132.976 143.647 c 7.391 -16.72 11.956 -30.775 10.782 -43.793 c -2.152 -25.444 -27.056 -37.068 -38.985 -64.839 c 0.318 -1.777 0.471 -3.621 0.444 -5.539 c 9.521 17.034 19.978 32.215 32.325 47.389 c 8.24 11.171 9.617 24.143 9.675 37.368 c 8.372 -21.988 6.938 -47.563 -1.999 -68.982 c 10.55 22.035 11.512 45.986 7.673 69.938 c 9.591 -21.079 15.347 -44.071 9.591 -67.063 c 7.674 15.328 6.716 32.574 4.798 49.817 c 4.887 -15.444 4.245 -31.577 4.527 -47.23 c 4.599 17.244 5.055 34.973 5.669 53.032 c -1.95 -5.682 -2.966 -10.747 -3.828 -15.828 c -0.933 7.967 -8.212 29.021 -13.68 36.627 c 0.328 -4.131 1.277 -12.111 0.624 -15.301 c 7.063 -15.559 9.48 -33.147 4.829 -48.237 c 5.855 21.703 -3.052 49.26 -18.405 68.239 C 140.26 137.597 132.976 143.647 132.976 143.647 Z M 31.064 89.32 c -6.8 -45.275 9.097 -58.79 13.522 -70.31 c -29.467 43.476 -22.078 83.66 4.453 113.845 c -4.957 -12.771 -8.754 -27.238 -9.195 -40.821 c -2.356 -23.177 2.663 -43.048 16.813 -60.129 C 36.466 39.67 32.89 69.26 31.064 89.32 Z M 61.507 71.393 c 0.009 -0.046 0.054 -0.11 0.073 -0.151 c 6.306 -13.188 36.734 -34.118 34.307 -50.216 C 95.953 36.276 64.273 57.929 61.507 71.393 Z M 144.898 70.541 c -6.164 -26.016 -21.354 -29.824 -28.256 -47.629 C 121.069 39.346 141.615 56.636 144.898 70.541 Z M 156.993 57.518 c -0.429 -1 -2.813 -44.361 -41.932 -52.052 C 147.991 14.834 155.178 53.282 156.993 57.518 Z M 54.609 48.921 c 2.004 -8.177 19.884 -29.726 44.862 -36.666 C 66.938 18.025 56.496 41.245 54.609 48.921 Z" data-colored="true" data-filltype="sd1" data-stroketype="none"/><path id="SvgjsPath5708" opacity="1" fill="#4c2d1e" stroke-width="none" d="M 139.866 89.507 c 1.416 4.177 2.241 8.354 2.585 12.531 c -1.793 5.488 -4.423 10.873 -7.097 16.119 C 138.077 106.88 139.948 98.58 139.866 89.507 Z M 66.029 147.937 c -6.774 -9.178 -12.443 -20.299 -14.15 -31.596 c -1.161 3.689 -2.178 7.482 -3.069 11.373 c -0.164 1 -7.26 -16.94 -9.166 -35.68 c 0.441 13.583 3.739 27.053 8.696 39.825 C 53.527 137.663 59.466 143.026 66.029 147.937 Z" data-colored="true" data-filltype="sd2" data-stroketype="none"/><path id="SvgjsPath5709" opacity="1" fill="#7a6155" stroke-width="none" d="M 99.492 21.262 c 6.403 27.793 -34.873 40.474 -47.226 76.474 C 58.369 65.985 105.136 46.985 99.492 21.262 Z M 61.565 55.39 c 7.799 -16.374 20.656 -28.475 35.459 -38.564 C 80.005 25.778 68.787 37.707 61.565 55.39 Z M 44.976 31.335 C 57.328 16.982 73.192 2.764 93.413 6.039 C 71.708 -0.369 56.906 15.907 44.976 31.335 Z M 144.42 40.044 c -7.511 -14.379 -11.145 -24.352 -28.859 -28.113 C 128.931 15.938 138.894 27.608 144.42 40.044 Z M 160.831 41.313 c -8.623 -20.082 -15.026 -37.805 -40.267 -40.29 C 140.522 4.832 153.31 23.794 160.831 41.313 Z M 148.999 87.979 c -6.548 -25.538 -31.097 -43.208 -37.737 -69.219 C 117.109 44.848 140.279 62.557 148.999 87.979 Z" data-colored="true" data-filltype="hl1" data-stroketype="none"/><path id="SvgjsPath5710" opacity="1" fill="#3d2012" stroke-width="none" d="M 68.099 150.319 c -0.357 -0.24 -0.713 -0.482 -1.071 -0.742 c -7.286 -5.061 -13.82 -10.709 -19.416 -16.789 l -0.105 -0.117 c -18.576 -20.25 -26.419 -44.969 -22.688 -71.48 C 28.485 32.793 56.267 -4.408 85.672 -4.408 c 5.168 0 10.234 1.339 15.061 3.98 c 3.049 -1.681 6.354 -2.657 9.824 -2.902 c 0.989 -0.11 2.008 -0.165 3.02 -0.165 c 22.907 0 46.485 20.957 55.21 39.577 c 10.676 25.664 8.609 53.598 9.244 69.465 c -1.773 0.431 -4.38 -14.611 -4.7 -13.611 c -2.573 15.701 -7.636 27.015 -15.258 37.785 c 0.342 -5.056 0.642 -11.302 0.69 -16.279 c -5.813 11.226 -16.08 24.686 -26.651 31.145 c 0.644 -1.295 5.088 -11.688 6.555 -15.709 c 2.759 -8.625 3.989 -16.467 3.762 -23.93 c -1.189 3.328 -7.057 16.209 -8.058 15.842 c 1.29 -5.103 5.015 -18.297 4.849 -32.574 c -2.741 -7.384 -12.181 -19.162 -16.715 -24.847 c -6.644 -8.33 -13.507 -16.938 -17.777 -27.128 c -2.516 11.593 -15.759 20.462 -25.535 29.844 l -1.06 1.019 C 62.619 79.735 58.88 95.656 52.723 114.343 c 1.617 10.686 6.855 22.955 14.758 34.453 l 0.317 0.453 c 0.187 0.271 0.373 0.535 0.563 0.799 L 68.099 150.319 Z M 85.601 -3.042 c -27.724 0 -51.227 30.485 -57.536 57.25 c -8.282 38.193 6.515 69.453 37.047 92.8 c -5.138 -7.166 -11.279 -17.813 -13.293 -29.828 c -1.255 4.081 -2.127 7.559 -2.953 11.145 c -0.874 -1.174 -11.19 -25.575 -9.863 -52.053 c 1.522 -30.324 18.792 -47.229 19.792 -46.254 C 34.57 56.681 38.052 98.385 48.472 126.302 c 8.589 -43.809 21.73 -53.742 30.996 -62.736 c 9.346 -9.079 22.174 -17.653 24.512 -29.297 c 0.84 -3.792 0.87 -8.88 -0.459 -14.422 c 1 -0.263 2.621 8.516 1.45 15.145 c 4.28 9.938 11.15 18.077 17.798 25.946 c 11.641 13.784 20.032 24.737 21.18 38.901 c 1.676 18.497 -6.649 34.395 -10.519 43.248 c 9.021 -7.685 19.341 -20.076 25.357 -33.021 c 12.789 -27.033 6.814 -49.114 6.814 -49.114 c 4.394 14.256 2.641 31.864 -4.81 48.315 c 0.605 3.115 -0.233 10.563 -0.574 14.588 c 4.892 -7.168 12.303 -27.878 13.241 -35.958 c 0.15 -0.004 3.665 14.189 3.777 14.535 c -0.797 -25.368 -1.724 -48.296 -12.615 -70.531 c -7.655 -16.931 -31.764 -34.917 -52.126 -34.917 c -5.002 0 -10.735 1.879 -15.997 6.018 l -0.243 -0.296 c 1.055 -0.911 2.188 -1.744 3.368 -2.48 C 95.049 -1.944 90.333 -3.042 85.601 -3.042 Z M 136.789 112.726 c -0.259 1.234 -0.548 2.518 -0.87 3.895 c 2.262 -4.479 4.684 -9.54 6.353 -14.64 c -0.331 -3.818 -1.073 -7.623 -2.217 -11.269 C 139.975 98.485 138.447 105.874 136.789 112.726 Z" data-colored="true" data-filltype="sd3" data-stroketype="none"/></g><g id="svga-group-glasses-single" data-updown="0" data-leftright="0" data-dist="0" data-scaleX="1" data-scaleY="1" data-rotate="0"><path id="SvgjsPath5272" opacity="1" fill="#26120b" stroke-width="none" d="M 100 18.13 L 100 18.13 L 100 18.13 L 100 18.13 Z" data-colored="true" data-filltype="tone" data-stroketype="none"/></g></g></g><rect id="SvgjsRect1033" style="display:none;" opacity="0.5" fill="#ecf0f1" x="0" y="185" width="200" height="15"/><text id="SvgjsText1034" font-family="&quot;Roboto&quot;,&quot;Helvetica Neue&quot;,Helvetica,Arial,sans-serif" font-size="0.84em" font-weight="400" style="font-size:0.84em;font-family:&quot;Roboto&quot;, &quot;Helvetica Neue&quot;, Helvetica, Arial, sans-serif;text-anchor:middle;font-weight:400;display:none;" fill="#000000" text-anchor="middle" x="100" y="185"><tspan id="SvgjsTspan1035" style="font-size:0.84em;font-family:&quot;Roboto&quot;, &quot;Helvetica Neue&quot;, Helvetica, Arial, sans-serif;text-anchor:middle;font-weight:400;" x="100" dy="1.2em">Erstellt mit Avatars24.de</tspan></text></g><defs id="SvgjsDefs1001"><radialGradient class="svga-on-canvas-facehighlight-gradient-single-0" id="SvgjsRadialGradient2754" gradientUnits="userSpaceOnUse" cx="100" cy="113" r="40"><stop id="SvgjsStop2755" stop-color="rgb(255, 244, 243)" stop-opacity="0.5" offset="0" data-stoptype="hl1"/><stop id="SvgjsStop2756" stop-color="rgb(243, 212, 207)" stop-opacity="0" offset="0.9" data-stoptype="tone"/></radialGradient><radialGradient class="svga-on-canvas-facehighlight-gradient-single-1" id="SvgjsRadialGradient2758" gradientUnits="userSpaceOnUse" cx="100" cy="57" r="36"><stop id="SvgjsStop2759" stop-color="rgb(255, 244, 243)" stop-opacity="0.5" offset="0" data-stoptype="hl1"/><stop id="SvgjsStop2760" stop-color="rgb(243, 212, 207)" stop-opacity="0" offset="0.9" data-stoptype="tone"/></radialGradient><linearGradient class="svga-on-canvas-chinshadow-gradient-single-0" id="SvgjsLinearGradient2911" gradientUnits="userSpaceOnUse" x1="99.98" y1="171.27" x2="99.98" y2="136.351"><stop id="SvgjsStop2912" stop-color="rgb(228, 179, 171)" stop-opacity="0.8" offset="0" data-stoptype="sd1"/><stop id="SvgjsStop2913" stop-color="rgb(197, 121, 109)" stop-opacity="1" offset="0.7" data-stoptype="sd3"/></linearGradient><linearGradient class="svga-on-canvas-glasses-gradient-single-0" id="SvgjsLinearGradient5264" gradientUnits="userSpaceOnUse" x1="100" y1="110" x2="100" y2="73"><stop id="SvgjsStop5265" stop-color="rgb(21, 17, 36)" stop-opacity="0.6" offset="0" data-stoptype="#151124"/><stop id="SvgjsStop5266" stop-color="rgb(21, 17, 36)" stop-opacity="1" offset="1" data-stoptype="#151124"/></linearGradient><radialGradient class="svga-on-canvas-eyesback-gradient-left-0" id="SvgjsRadialGradient5468" gradientUnits="userSpaceOnUse" gradientTransform="matrix(-0.9945, 0.1042, 0.1042, 0.9945, 192.827, -12.4637)" cx="129.05" cy="85.956" r="15.117"><stop id="SvgjsStop5469" stop-color="rgb(255, 255, 255)" stop-opacity="1" offset="0" data-stoptype="#ffffff"/><stop id="SvgjsStop5470" stop-color="rgb(252, 253, 253)" stop-opacity="1" offset="0.316" data-stoptype="#fcfdfd"/><stop id="SvgjsStop5471" stop-color="rgb(244, 247, 248)" stop-opacity="1" offset="0.505" data-stoptype="#f4f7f8"/><stop id="SvgjsStop5472" stop-color="rgb(229, 236, 239)" stop-opacity="1" offset="0.661" data-stoptype="#e5ecef"/><stop id="SvgjsStop5473" stop-color="rgb(216, 226, 231)" stop-opacity="1" offset="0.76" data-stoptype="#d8e2e7"/></radialGradient><radialGradient class="svga-on-canvas-eyesback-gradient-right-0" id="SvgjsRadialGradient5475" gradientUnits="userSpaceOnUse" gradientTransform="matrix(0.9945, 0.1042, -0.1042, 0.9945, 7.1735, -12.4637)" cx="129.049" cy="85.956" r="15.117"><stop id="SvgjsStop5476" stop-color="rgb(255, 255, 255)" stop-opacity="1" offset="0" data-stoptype="#ffffff"/><stop id="SvgjsStop5477" stop-color="rgb(252, 253, 253)" stop-opacity="1" offset="0.316" data-stoptype="#fcfdfd"/><stop id="SvgjsStop5478" stop-color="rgb(244, 247, 248)" stop-opacity="1" offset="0.505" data-stoptype="#f4f7f8"/><stop id="SvgjsStop5479" stop-color="rgb(229, 236, 239)" stop-opacity="1" offset="0.661" data-stoptype="#e5ecef"/><stop id="SvgjsStop5480" stop-color="rgb(216, 226, 231)" stop-opacity="1" offset="0.76" data-stoptype="#d8e2e7"/></radialGradient><radialGradient class="svga-on-canvas-eyesfront-gradient-left-0" id="SvgjsRadialGradient5482" gradientUnits="userSpaceOnUse" gradientTransform="matrix(-0.9945, 0.1042, 0.1042, 0.9945, 192.827, -12.4637)" cx="129.05" cy="85.956" r="15.117"><stop id="SvgjsStop5483" stop-color="rgb(255, 255, 255)" stop-opacity="1" offset="0" data-stoptype="#ffffff"/><stop id="SvgjsStop5484" stop-color="rgb(252, 253, 253)" stop-opacity="1" offset="0.316" data-stoptype="#fcfdfd"/><stop id="SvgjsStop5485" stop-color="rgb(244, 247, 248)" stop-opacity="1" offset="0.505" data-stoptype="#f4f7f8"/><stop id="SvgjsStop5486" stop-color="rgb(229, 236, 239)" stop-opacity="1" offset="0.661" data-stoptype="#e5ecef"/><stop id="SvgjsStop5487" stop-color="rgb(216, 226, 231)" stop-opacity="1" offset="0.76" data-stoptype="#d8e2e7"/></radialGradient><radialGradient class="svga-on-canvas-eyesfront-gradient-left-3" id="SvgjsRadialGradient5491" gradientUnits="userSpaceOnUse" gradientTransform="matrix(0.9998, 0.0208, 0.0166, -0.7998, -44.9524, 149.543)" cx="121.786" cy="84.496" r="16.003" fx="133.039" fy="84.527"><stop id="SvgjsStop5492" stop-color="rgb(228, 179, 171)" stop-opacity="1" offset="0" data-stoptype="sd1"/><stop id="SvgjsStop5493" stop-color="rgb(228, 179, 171)" stop-opacity="0.3" offset="0.7" data-stoptype="sd1"/><stop id="SvgjsStop5494" stop-color="rgb(243, 212, 207)" stop-opacity="0" offset="1" data-stoptype="tone"/></radialGradient><radialGradient class="svga-on-canvas-eyesfront-gradient-left-4" id="SvgjsRadialGradient5496" gradientUnits="userSpaceOnUse" gradientTransform="matrix(1.0336, 0, 0, 1.0336, -1.6792, 1.7282)" cx="69.124" cy="107.529" r="29.525"><stop id="SvgjsStop5497" stop-color="rgb(0, 0, 0)" stop-opacity="0" offset="0.95" data-stoptype="#000000"/><stop id="SvgjsStop5498" stop-color="rgb(0, 0, 0)" stop-opacity="0.3" offset="1" data-stoptype="#000000"/></radialGradient><radialGradient class="svga-on-canvas-eyesfront-gradient-right-0" id="SvgjsRadialGradient5502" gradientUnits="userSpaceOnUse" gradientTransform="matrix(0.9945, 0.1042, -0.1042, 0.9945, 7.1735, -12.4637)" cx="129.049" cy="85.956" r="15.117"><stop id="SvgjsStop5503" stop-color="rgb(255, 255, 255)" stop-opacity="1" offset="0" data-stoptype="#ffffff"/><stop id="SvgjsStop5504" stop-color="rgb(252, 253, 253)" stop-opacity="1" offset="0.316" data-stoptype="#fcfdfd"/><stop id="SvgjsStop5505" stop-color="rgb(244, 247, 248)" stop-opacity="1" offset="0.505" data-stoptype="#f4f7f8"/><stop id="SvgjsStop5506" stop-color="rgb(229, 236, 239)" stop-opacity="1" offset="0.661" data-stoptype="#e5ecef"/><stop id="SvgjsStop5507" stop-color="rgb(216, 226, 231)" stop-opacity="1" offset="0.76" data-stoptype="#d8e2e7"/></radialGradient><radialGradient class="svga-on-canvas-eyesfront-gradient-right-3" id="SvgjsRadialGradient5511" gradientUnits="userSpaceOnUse" gradientTransform="matrix(-0.9998, 0.0208, -0.0166, -0.7998, 244.952, 149.543)" cx="121.786" cy="84.496" r="16.003" fx="133.039" fy="84.527"><stop id="SvgjsStop5512" stop-color="rgb(228, 179, 171)" stop-opacity="1" offset="0" data-stoptype="sd1"/><stop id="SvgjsStop5513" stop-color="rgb(228, 179, 171)" stop-opacity="0.3" offset="0.7" data-stoptype="sd1"/><stop id="SvgjsStop5514" stop-color="rgb(243, 212, 207)" stop-opacity="0" offset="1" data-stoptype="tone"/></radialGradient><radialGradient class="svga-on-canvas-eyesfront-gradient-right-4" id="SvgjsRadialGradient5516" gradientUnits="userSpaceOnUse" gradientTransform="matrix(-1.0336, 0, 0, 1.0336, 201.679, 1.7282)" cx="69.124" cy="107.529" r="29.525"><stop id="SvgjsStop5517" stop-color="rgb(0, 0, 0)" stop-opacity="0" offset="0.95" data-stoptype="#000000"/><stop id="SvgjsStop5518" stop-color="rgb(0, 0, 0)" stop-opacity="0.3" offset="1" data-stoptype="#000000"/></radialGradient><radialGradient class="svga-on-canvas-eyesiris-gradient-left-1" id="SvgjsRadialGradient5659" gradientUnits="userSpaceOnUse" gradientTransform="matrix(0.096, -0.0248, 0.0245, 0.0961, 140.548, 120.358)" cx="-558.588" cy="-490.918" r="84.646"><stop id="SvgjsStop5660" stop-color="rgb(255, 255, 255)" stop-opacity="0.8" offset="0" data-stoptype="#ffffff"/><stop id="SvgjsStop5661" stop-color="rgb(255, 255, 255)" stop-opacity="0" offset="1" data-stoptype="#ffffff"/></radialGradient><radialGradient class="svga-on-canvas-eyesiris-gradient-left-2" id="SvgjsRadialGradient5663" gradientUnits="userSpaceOnUse" gradientTransform="matrix(0.0991, 0.000885632, -0.0011, 0.0991, 130.377, 136.353)" cx="-565.337" cy="-492.691" r="84.644"><stop id="SvgjsStop5664" stop-color="rgb(255, 255, 255)" stop-opacity="0.8" offset="0" data-stoptype="#ffffff"/><stop id="SvgjsStop5665" stop-color="rgb(255, 255, 255)" stop-opacity="0" offset="1" data-stoptype="#ffffff"/></radialGradient><linearGradient class="svga-on-canvas-eyesiris-gradient-left-5" id="SvgjsLinearGradient5669" gradientUnits="userSpaceOnUse" gradientTransform="matrix(1, 0, 0, 1, -52, 0)" x1="122.283" y1="93.047" x2="123.61" y2="91.466"><stop id="SvgjsStop5670" stop-color="rgb(255, 255, 255)" stop-opacity="1" offset="0" data-stoptype="#ffffff"/><stop id="SvgjsStop5671" stop-color="rgb(255, 255, 255)" stop-opacity="0" offset="1" data-stoptype="#ffffff"/></linearGradient><linearGradient class="svga-on-canvas-eyesiris-gradient-left-6" id="SvgjsLinearGradient5673" gradientUnits="userSpaceOnUse" gradientTransform="matrix(1, 0, 0, 1, -50, 0)" x1="127" y1="85" x2="125" y2="87"><stop id="SvgjsStop5674" stop-color="rgb(255, 255, 255)" stop-opacity="1" offset="0" data-stoptype="#ffffff"/><stop id="SvgjsStop5675" stop-color="rgb(255, 255, 255)" stop-opacity="0" offset="1" data-stoptype="#ffffff"/></linearGradient><linearGradient class="svga-on-canvas-eyesiris-gradient-left-7" id="SvgjsLinearGradient5677" gradientUnits="userSpaceOnUse" gradientTransform="matrix(1, 0, 0, 1, -50, 0)" x1="130" y1="81" x2="126" y2="85"><stop id="SvgjsStop5678" stop-color="rgb(255, 255, 255)" stop-opacity="1" offset="0" data-stoptype="#ffffff"/><stop id="SvgjsStop5679" stop-color="rgb(255, 255, 255)" stop-opacity="0" offset="1" data-stoptype="#ffffff"/></linearGradient><radialGradient class="svga-on-canvas-eyesiris-gradient-right-1" id="SvgjsRadialGradient5682" gradientUnits="userSpaceOnUse" gradientTransform="matrix(0.096, -0.0248, 0.0245, 0.0961, 192.479, 119.84)" cx="-578.76" cy="-490.73" r="84.646"><stop id="SvgjsStop5683" stop-color="rgb(255, 255, 255)" stop-opacity="0.8" offset="0" data-stoptype="#ffffff"/><stop id="SvgjsStop5684" stop-color="rgb(255, 255, 255)" stop-opacity="0" offset="1" data-stoptype="#ffffff"/></radialGradient><radialGradient class="svga-on-canvas-eyesiris-gradient-right-2" id="SvgjsRadialGradient5686" gradientUnits="userSpaceOnUse" gradientTransform="matrix(0.0991, 0.000885632, -0.0011, 0.0991, 182.31, 135.839)" cx="-584.778" cy="-487.329" r="84.644"><stop id="SvgjsStop5687" stop-color="rgb(255, 255, 255)" stop-opacity="0.8" offset="0" data-stoptype="#ffffff"/><stop id="SvgjsStop5688" stop-color="rgb(255, 255, 255)" stop-opacity="0" offset="1" data-stoptype="#ffffff"/></radialGradient><linearGradient class="svga-on-canvas-eyesiris-gradient-right-5" id="SvgjsLinearGradient5692" gradientUnits="userSpaceOnUse" x1="120.284" y1="93.047" x2="121.611" y2="91.467"><stop id="SvgjsStop5693" stop-color="rgb(255, 255, 255)" stop-opacity="1" offset="0" data-stoptype="#ffffff"/><stop id="SvgjsStop5694" stop-color="rgb(255, 255, 255)" stop-opacity="0" offset="1" data-stoptype="#ffffff"/></linearGradient><linearGradient class="svga-on-canvas-eyesiris-gradient-right-6" id="SvgjsLinearGradient5696" gradientUnits="userSpaceOnUse" x1="127" y1="85" x2="125" y2="87"><stop id="SvgjsStop5697" stop-color="rgb(255, 255, 255)" stop-opacity="1" offset="0" data-stoptype="#ffffff"/><stop id="SvgjsStop5698" stop-color="rgb(255, 255, 255)" stop-opacity="0" offset="1" data-stoptype="#ffffff"/></linearGradient><linearGradient class="svga-on-canvas-eyesiris-gradient-right-7" id="SvgjsLinearGradient5700" gradientUnits="userSpaceOnUse" x1="130" y1="81" x2="126" y2="85"><stop id="SvgjsStop5701" stop-color="rgb(255, 255, 255)" stop-opacity="1" offset="0" data-stoptype="#ffffff"/><stop id="SvgjsStop5702" stop-color="rgb(255, 255, 255)" stop-opacity="0" offset="1" data-stoptype="#ffffff"/></linearGradient><linearGradient class="svga-on-canvas-mouth-gradient-single-0" id="SvgjsLinearGradient5728" gradientUnits="userSpaceOnUse" x1="100" y1="143" x2="100" y2="140"><stop id="SvgjsStop5729" stop-color="rgb(235, 195, 189)" stop-opacity="1" offset="0.1" data-stoptype="sd05"/><stop id="SvgjsStop5730" stop-color="rgb(228, 179, 171)" stop-opacity="1" offset="1" data-stoptype="sd1"/></linearGradient></defs></svg>