<svg xmlns="http://www.w3.org/2000/svg" class="svga-svg" id="svga-svgcanvas" style="position:relative;overflow:hidden;left:0px;top:0px;" viewBox="0 0 200 200" preserveAspectRatio="xMinYMin meet" xmlns:NS1="http://www.w3.org/2000/svg" NS1:xlink="http://www.w3.org/1999/xlink" version="1.1"><g id="svga-group-wrapper"><g id="svga-group-backs-single"/><g id="svga-group-subwrapper" transform="matrix(0.849999, 0, 0, 0.849999, 14.9793, 17.6579)" data-updown="0" data-leftright="0" data-dist="0" data-scaleX="0.84999937" data-scaleY="0.84999937" data-rotate="0"><g id="svga-group-hair-back" data-updown="0" data-leftright="0" data-dist="0" data-scaleX="1" data-scaleY="1" data-rotate="0"><path id="SvgjsPath3587" opacity="1" fill="#080806" stroke-width="none" d="M 100.5 100.5 h -1 v -1 h 1 V 100.5 Z" data-colored="true" data-filltype="tone" data-stroketype="none"/></g><g id="svga-group-humanbody-single"><path id="SvgjsPath2893" opacity="1" fill="#ffd0bc" stroke="none" stroke-width="none" d="M 195.417 199.778 c -2.196 -4.746 -8.195 -11.779 -14.86 -13.722 c -8.239 -2.403 -26.837 -5.308 -33.733 -6.923 c -5.528 -1.296 -16.662 -11.294 -20.564 -14.65 c -0.7 -0.6 -1.273 -1.839 -1.287 -2.76 c -0.139 -10.864 4.195 -39.724 4.195 -39.724 H 100 H 70.833 c 0 0 4.334 28.859 4.193 39.724 c -0.011 0.921 -0.587 2.16 -1.285 2.76 c -3.902 3.356 -15.036 13.354 -20.564 14.65 c -6.897 1.615 -25.495 4.619 -33.733 7.022 c -6.667 1.942 -12.664 8.876 -14.86 13.622 c -3.708 8.008 -4.584 22.5 -4.584 35 h 100 h 100 C 200 222.278 199.123 207.786 195.417 199.778 Z" data-colored="true" data-filltype="tone" data-stroketype="none" data-fromskin="true"/><path id="SvgjsPath2894" opacity="1" fill="#ffe2d6" stroke="none" stroke-width="none" d="M 159.156 184.058 c 24.342 3.542 34.586 8.708 37.794 50.721 H 200 c 0 -12.5 -0.877 -26.992 -4.583 -35 c -2.196 -4.746 -8.195 -11.779 -14.86 -13.722 c -8.239 -2.403 -26.837 -5.308 -33.733 -6.923 c -5.528 -1.296 -18.242 -12.069 -21.643 -16.35 c 3.36 4.704 12.791 15.605 21.054 18.46 C 150.188 182.61 153.48 183.232 159.156 184.058 Z M 53.766 181.244 c 8.263 -2.854 17.693 -13.756 21.054 -18.46 c -3.4 4.28 -16.114 15.054 -21.643 16.35 c -6.896 1.615 -25.494 4.619 -33.733 7.022 c -6.665 1.942 -12.664 8.876 -14.86 13.622 c -3.706 8.008 -4.583 22.5 -4.583 35 h 3.05 c 3.188 -41.744 13.475 -47.183 37.794 -50.721 C 46.52 183.232 49.813 182.61 53.766 181.244 Z" data-colored="true" data-filltype="hl1" data-stroketype="none" data-fromskin="true"/><path id="SvgjsPath2895" opacity="1" fill="#f0b399" stroke="none" stroke-width="none" d="M 95.646 197.62 c 0 0 -5.074 -1.609 -7.083 -2.379 c -10.449 -4.009 -44.395 -6.607 -44.395 -6.607 s 35.754 1.419 43.644 2.779 c -0.458 -4.767 -3.017 -20.004 -3.017 -20.004 s 5.149 16.815 6.409 21.057 C 91.878 194.734 95.646 197.62 95.646 197.62 Z M 106.445 196.278 c -0.089 0.073 -0.191 0.168 -0.302 0.268 C 106.256 196.461 106.358 196.372 106.445 196.278 Z M 95.646 197.62 c 0 0 2.893 2.992 4.347 3.03 c 1.91 0.051 4.828 -2.899 6.151 -4.104 c -1.265 0.957 -4.159 1.391 -5.31 1.436 C 99.504 198.033 95.646 197.62 95.646 197.62 Z M 116.664 190.101 c -1.545 0.248 -4.386 0.789 -4.386 0.789 l 2.287 -14.89 c -0.646 3.071 -4.474 16.211 -8.12 20.278 c 1.91 -1.616 6.158 -2.391 8.324 -2.704 c 10.236 -1.484 10.232 -1.483 41.062 -4.94 C 155.831 188.634 126.76 188.479 116.664 190.101 Z" data-colored="true" data-filltype="sd1" data-stroketype="none" data-fromskin="true"/><path id="SvgjsPath2896" opacity="1" fill="none" stroke="#d17f5b" stroke-width="1.5" d="M 195.417 199.778 c -2.196 -4.746 -8.195 -11.779 -14.86 -13.722 c -8.239 -2.403 -26.837 -5.308 -33.733 -6.923 c -5.528 -1.296 -16.662 -11.294 -20.564 -14.65 c -0.7 -0.6 -1.273 -1.839 -1.287 -2.76 c -0.139 -10.864 4.195 -39.724 4.195 -39.724 H 100 H 70.833 c 0 0 4.334 28.859 4.193 39.724 c -0.011 0.921 -0.587 2.16 -1.285 2.76 c -3.902 3.356 -15.036 13.354 -20.564 14.65 c -6.897 1.615 -25.495 4.619 -33.733 7.022 c -6.667 1.942 -12.664 8.876 -14.86 13.622 c -3.708 8.008 -4.584 22.5 -4.584 35 h 100 h 100 C 200 222.278 199.123 207.786 195.417 199.778 Z" data-colored="true" data-filltype="none" data-stroketype="sd3" data-fromskin="true"/></g><g id="svga-group-chinshadow-single"><path id="SvgjsPath3486" opacity="1" fill="url(#SvgjsLinearGradient3487)" d="M 100.021 171.866 c 8.183 0 16.871 -4.943 24.199 -10.675 c -0.001 -6.702 1.451 -19.105 2.652 -28.205 c -15.382 -2.247 -38.406 -2.279 -53.766 -0.152 c 1.184 8.96 2.625 21.206 2.671 28.02 C 83.119 166.767 91.822 171.866 100.021 171.866 Z" data-colored="false" data-filltype="gradient" data-stroketype="none" data-fromskin="true"/></g><g id="svga-group-clothes-single" data-updown="0" data-leftright="0" data-dist="0" data-scaleX="1" data-scaleY="1" data-rotate="0"><path id="SvgjsPath3594" opacity="1" fill="#f5f4f5" stroke-width="none" d="M 42.77 235.757 l 1.323 -60.852 c 0 0 10.194 -2.487 16.635 -6.313 c 17.496 21.953 69.451 17.333 78.336 -0.62 c 1.489 0.525 2.721 1.197 4.262 1.713 c 5 3.386 9.213 4.494 9.213 4.494 l 0.935 61.685 C 139.188 236.052 42.77 235.757 42.77 235.757 Z" data-colored="false" data-filltype="#f5f4f5" data-stroketype="none"/><path id="SvgjsPath3595" opacity="1" fill="#ffffff" stroke-width="none" d="M 154.014 177.705 c -4.236 -0.719 -7.611 -1.697 -9.452 -3.544 c -5.343 10.025 -26.763 16.378 -33.855 17.309 c 20.554 -6.276 29.188 -10.813 32.598 -21.583 c 1.99 2.383 6.522 3.549 12.313 4.538 L 154.014 177.705 Z M 52.67 174.381 c 1.454 -0.312 2.18 -1.234 3.623 -1.593 l -1.528 -1.867 c -3.114 2.234 -8.971 3.305 -15.9 4.424 l 0.188 3.738 c 3.956 -0.79 7.817 -1.788 11.429 -3.323 c 7.483 8.485 19.168 12.659 31.06 14.387 C 66.624 186.562 58.07 180.511 52.67 174.381 Z" data-colored="false" data-filltype="#ffffff" data-stroketype="none"/><path id="SvgjsPath3596" opacity="1" fill="#dfdde2" stroke-width="none" d="M 137.861 170.055 c -5.929 11.361 -50.74 24.595 -76.009 0.866 c -1.571 0.615 -6.271 2.085 -6.271 2.085 c 18.406 23.08 72.345 23.227 86.702 -0.112 C 142.221 172.87 139.321 170.737 137.861 170.055 Z" data-colored="false" data-filltype="#dfdde2" data-stroketype="none"/><path id="SvgjsPath3597" opacity="1" fill="#b8b6c9" stroke-width="none" d="M 139.008 167.841 c -10.087 18.575 -62.578 21.204 -78.239 0.625 c -5.72 1.556 -11.219 4.876 -16.756 5.707 l -1.243 61.584 l 110.703 0.107 l -0.855 -62.386 c -3.369 -0.707 -6.501 -2.737 -9.254 -3.894 C 141.842 168.945 140.55 168.37 139.008 167.841 Z M 60.39 169.087 c 13.903 23.086 68.817 18.455 79.419 0.099 c 1.286 0.499 1.615 0.696 3.106 1.183 c -10.982 21.208 -65.306 27.967 -87.525 1.147 C 55.546 171.476 58.823 169.629 60.39 169.087 Z M 54.287 172.418 c 17.963 27.046 77.26 22.856 89.583 -1.287 c 1.771 1.391 4.53 2.989 7.936 3.735 l 1.66 59.08 l -110.377 0.016 l 1.904 -58.299 C 47.777 174.264 52.247 173.232 54.287 172.418 Z" data-colored="false" data-filltype="#b8b6c9" data-stroketype="none"/><path id="SvgjsPath3598" opacity="1" fill="#75974c" stroke="none" stroke-width="none" d="M -4.529 235.566 c -2.574 -13.852 -2.292 -47.592 9.013 -47.521 c 13.136 -5.311 29.269 -11.404 42.802 -15.311 c 6.908 -7.246 13.436 -14.137 26.188 -21.314 c 0.389 2.599 1.874 8.541 0.011 11.773 c -1.355 2.352 -5.783 5.576 -9.554 8.368 c -2.029 2.72 -3.927 5.374 -6.599 9.089 c 5.168 22.301 9.601 33.78 10.097 53.123 c 0 0 -1.452 0.689 64.471 0.397 c 2.215 -22.339 4.993 -33.561 10.379 -54.098 c 0 0 -4.308 -5.014 -7.207 -8.87 c -2.054 -1.997 -8.36 -7.532 -8.84 -8.651 c -1.175 -2.741 -0.548 -6.188 0.11 -11.367 c 10.793 4.873 17 12.021 26.082 21.303 c 7.729 2.119 30.86 9.967 42.445 15.216 c 3.965 -0.11 6.203 1.999 7.872 5.466 c 5.405 11.195 4.126 27.297 2.18 42.789 C 185.83 235.989 49.887 238.17 -4.529 235.566 Z" data-colored="true" data-filltype="tone" data-stroketype="none"/><path id="SvgjsPath3599" opacity="1" fill="#638837" stroke="none" stroke-width="none" d="M 73.875 154.081 c 0.16 1.07 0.304 2.085 0.411 3.041 c -0.218 0.266 -17.212 23.353 -17.336 23.525 C 61.126 171.148 67.1 161.305 73.875 154.081 Z M 126.053 154.081 c -0.159 1.07 -0.184 2.085 -0.291 3.041 c 0.218 0.266 16.931 22.469 17.054 22.642 C 138.391 170.914 132.828 161.305 126.053 154.081 Z M 165.008 185.154 c -4.28 6.231 -5.194 8.382 -9.879 14.557 c 1.071 0 2.799 0.166 3.87 0.166 C 162.663 193.592 162.67 190.393 165.008 185.154 Z M 169.394 230.379 c 3.793 -8.9 6.934 -16.711 10.739 -25.624 l -1.247 -2.014 C 175.717 211.896 172.354 221.199 169.394 230.379 Z M 41.048 199.877 c 1.071 0 2.799 -0.166 3.871 -0.166 c -4.685 -6.175 -5.599 -6.561 -9.878 -12.792 C 37.377 192.158 37.384 193.592 41.048 199.877 Z M 21.161 202.741 l -1.247 2.014 c 3.806 8.913 4.765 16.724 8.559 25.624 C 25.512 221.199 24.33 211.896 21.161 202.741 Z" data-colored="true" data-filltype="sd1" data-stroketype="none"/><path id="SvgjsPath3600" opacity="1" fill="#527825" stroke="none" stroke-width="none" d="M 65.638 169.283 c 1.181 -1.646 5.237 -7.272 8.601 -12.561 C 75.227 162.179 73.413 165.416 65.638 169.283 Z M 125.74 156.36 c 2.553 4.396 5.562 8.772 8.664 12.803 C 126 165.336 125.435 161.423 125.74 156.36 Z" data-colored="true" data-filltype="sd2" data-stroketype="none"/><path id="SvgjsPath3601" opacity="1" fill="#88a664" stroke="none" stroke-width="none" d="M 126.318 151.359 c 0.008 -0.061 0.017 -0.118 0.023 -0.174 c 18.093 9.999 28.576 25.02 40.747 36.217 c -0.448 0.721 -1.228 1.193 -1.687 1.905 C 152.656 179.609 146.599 164.946 126.318 151.359 Z M 71.736 152.022 c -15.034 8.213 -36.242 33.357 -38.318 35.269 c 0.448 0.724 0.691 0.577 1.15 1.288 C 47.314 178.882 50.793 169.283 71.736 152.022 Z M 194.869 187.704 c -1 -0.799 -24.646 -10.039 -42.59 -14.969 c 33.698 16.299 45.587 18.545 51.471 24.321 C 203.367 196.057 202.586 187.489 194.869 187.704 Z M 47.458 172.555 c -13.524 3.914 -30.839 10.098 -42.975 15.491 c -5.364 0.106 -9.208 7.93 -10.031 16.084 C 1.914 187.317 -1.773 198.62 47.458 172.555 Z" data-colored="true" data-filltype="hl1" data-stroketype="none"/><path id="SvgjsPath3602" opacity="1" fill="#436915" stroke="none" stroke-width="none" d="M 206.6 210.062 c -0.34 -8.635 -3.055 -23.103 -11.691 -22.46 c -0.714 -0.61 -20.822 -9.767 -42.285 -15.611 c -7.353 -7.455 -16.515 -17.598 -26.371 -20.957 c -0.711 6.428 -1.477 10.622 0.216 12.714 c 2.241 2.439 4.93 4.879 7.568 6.522 c 4.616 6.136 8.139 9.778 8.139 9.778 c -5.43 20.703 -8.815 31.314 -10.973 53.688 H 68.798 c -2.157 -22.373 -5.543 -32.984 -10.973 -53.688 c 0 0 3.522 -3.643 8.139 -9.778 c 2.639 -1.644 5.327 -4.083 7.568 -6.522 c 1.692 -2.092 0.927 -6.286 0.216 -12.714 c -9.856 3.359 -19.019 13.502 -26.371 20.957 c -21.463 5.845 -41.571 15.001 -42.285 15.611 c -8.637 -0.643 -11.352 13.825 -11.691 22.46 c -0.411 10.487 1.435 24.938 1.585 25.938 h 210.029 C 205.165 234.999 207.011 220.549 206.6 210.062 Z M 72.984 163.194 c -2.258 2.233 -3.658 3.181 -6.473 5.282 c 4.829 -6.271 4.341 -5.433 7.708 -11.229 C 74.37 159.739 73.433 162.751 72.984 163.194 Z M -3.172 234.028 c -1.082 -12.844 -2.916 -24.41 0.43 -36.992 c 1.281 -4.827 2.484 -8.095 7.455 -8.509 c 1.067 5.538 8.132 28.724 14.298 44.533 c -6.226 -24.192 -5.311 -18.81 -8.219 -28.452 c -0.964 -3.235 -1.854 -6.486 -2.979 -9.672 c -0.783 -2.214 -1.65 -4.387 -2.262 -6.653 l 40.433 -14.865 c -0.279 0.283 -12.895 13.434 -13.199 13.804 c 1.847 3.021 7.816 7.222 10.845 11.758 c -12.436 1.174 -18.508 3.173 -23 3.84 c 0.331 0.919 9.061 25.353 9.976 27.656 c -1.479 -7.917 -4.816 -20.297 -8.637 -27.211 c 1.41 -0.179 18.077 -2.492 23.393 -3.477 c -1.476 -2.854 -8.043 -8.437 -11.559 -12.619 c 20.646 -18.162 25.422 -27.402 39.593 -35.454 c 0.15 1.509 0.443 3.011 0.55 4.519 c -15.795 23.533 -17.649 23.567 -17.649 23.567 c 4.585 17.81 10.532 35.824 10.532 54.073 L -3.172 234.028 Z M 127.016 163.194 c -0.448 -0.443 -1.386 -3.455 -1.235 -5.947 c 3.367 5.797 2.879 4.958 7.708 11.229 C 130.674 166.375 129.273 165.428 127.016 163.194 Z M 203.172 234.028 l -70 -0.154 c 0 -18.249 5.947 -36.264 10.532 -54.073 c 0 0 -1.854 -0.034 -17.649 -23.567 c 0.106 -1.508 0.399 -3.01 0.55 -4.519 c 14.171 8.052 18.946 17.292 39.593 35.454 c -3.516 4.183 -10.083 9.766 -11.559 12.619 c 5.315 0.984 21.982 3.298 23.393 3.477 c -3.82 6.914 -7.157 19.294 -8.637 27.211 c 0.915 -2.304 9.645 -26.737 9.976 -27.656 c -4.492 -0.667 -10.564 -2.666 -23 -3.84 c 3.028 -4.536 8.998 -8.736 10.845 -11.758 c -0.305 -0.37 -12.92 -13.521 -13.199 -13.804 c 0.001 0 40.433 14.865 40.433 14.865 c -0.611 2.267 -1.479 4.439 -2.262 6.653 c -1.125 3.186 -2.015 6.437 -2.979 9.672 c -2.908 9.643 -1.993 4.26 -8.219 28.452 c 6.166 -15.81 13.23 -38.995 14.298 -44.533 c 4.971 0.414 6.174 3.682 7.455 8.509 C 206.088 209.618 204.254 221.185 203.172 234.028 Z" data-colored="true" data-filltype="sd3" data-stroketype="none"/></g><g id="svga-group-head" data-updown="0" data-leftright="0" data-dist="0" data-scaleX="1" data-scaleY="1" data-rotate="0"><g id="svga-group-ears-left" data-updown="0" data-leftright="0" data-dist="0" data-scaleX="1" data-scaleY="1" data-rotate="0"><path id="SvgjsPath3610" opacity="1" fill="#ffd0bc" stroke="#d17f5b" stroke-width="1.5" d="M 47.218 81.505 c -0.967 -2.487 -8.082 -6.002 -11.21 -5.447 c -3.538 0.627 -4.838 4.356 -4.369 7.119 c 1.103 6.487 3.996 9.219 5.296 14.286 c 1.096 4.273 3.433 6.732 4.588 8.548 c 1.42 2.228 2.73 7.341 3.023 8.087 c 0.463 1.18 2.103 4.043 5.002 3.896 c 3.333 -0.172 7.545 -6.688 7.614 -8.135 C 57.544 102.009 49.733 87.979 47.218 81.505 Z" data-colored="true" data-filltype="tone" data-stroketype="sd3"/><path id="SvgjsPath3611" opacity="1" fill="#d17f5b" stroke-width="none" d="M 47.953 107.96 c 0 0 0.429 -1.071 -0.094 -2.022 c -0.672 -1.223 -2.423 -3.468 -2.821 -4.811 c -0.325 -1.098 -0.16 -3.445 -0.213 -4.593 c -0.094 -2.03 -1.492 -3.42 -1.927 -4.585 c -2.914 -7.793 -6.792 -12.623 -9 -13.626 c -1.633 3.989 -0.339 6.907 1.94 13.045 c -1.375 -8.342 -0.054 -10.95 -0.054 -10.95 s 4.018 3.465 6.001 11.172 c 0.359 1.391 -1.111 4.294 -0.83 5.705 c 0.352 1.772 4.184 5.201 5.257 6.635 C 47.049 105.047 47.953 107.96 47.953 107.96 Z" data-colored="true" data-filltype="sd3" data-stroketype="none"/></g><g id="svga-group-ears-right" data-updown="0" data-leftright="0" data-dist="0" data-scaleX="1" data-scaleY="1" data-rotate="0"><path id="SvgjsPath3612" opacity="1" fill="#ffd0bc" stroke="#d17f5b" stroke-width="1.5" d="M 152.52 81.505 c 0.967 -2.487 8.082 -6.002 11.211 -5.447 c 3.539 0.627 4.838 4.356 4.369 7.119 c -1.104 6.487 -3.996 9.219 -5.297 14.286 c -1.096 4.273 -3.434 6.732 -4.588 8.548 c -1.42 2.228 -2.73 7.341 -3.023 8.087 c -0.463 1.18 -2.104 4.043 -5.002 3.896 c -3.332 -0.172 -7.545 -6.688 -7.613 -8.135 C 142.193 102.009 150.006 87.979 152.52 81.505 Z" data-colored="true" data-filltype="tone" data-stroketype="sd3"/><path id="SvgjsPath3613" opacity="1" fill="#d17f5b" stroke-width="none" d="M 151.785 107.96 c 0 0 -0.43 -1.071 0.094 -2.022 c 0.672 -1.223 2.424 -3.468 2.82 -4.811 c 0.324 -1.098 0.16 -3.445 0.215 -4.593 c 0.094 -2.03 1.49 -3.42 1.926 -4.585 c 2.914 -7.793 6.793 -12.623 9 -13.626 c 1.633 3.989 0.338 6.907 -1.939 13.045 c 1.375 -8.342 0.053 -10.95 0.053 -10.95 s -4.018 3.465 -6.002 11.172 c -0.357 1.391 1.111 4.294 0.83 5.705 c -0.352 1.772 -4.184 5.201 -5.256 6.635 C 152.689 105.047 151.785 107.96 151.785 107.96 Z" data-colored="true" data-filltype="sd3" data-stroketype="none"/></g><g id="svga-group-faceshape-wrap" data-updown="0" data-leftright="0" data-dist="0" data-scaleX="1" data-scaleY="1" data-rotate="0"><g id="svga-group-faceshape-single" data-updown="0" data-leftright="0" data-dist="0" data-scaleX="1" data-scaleY="1" data-rotate="0"><path id="SvgjsPath3483" opacity="1" fill="#ffd0bc" stroke-width="none" d="M 158.785 78.006 l -0.005 0 c -0.01 0.046 -12.197 40.27 -15.879 52.418 c -0.715 2.358 -1.931 4.551 -3.556 6.386 c -6.375 7.194 -23.768 25.057 -39.324 25.057 c -15.849 0 -33.591 -19.045 -39.708 -26.214 c -1.442 -1.688 -2.507 -3.633 -3.172 -5.765 c -3.607 -11.551 -16.126 -51.648 -16.137 -51.694 h -0.001 c -1.298 -4.992 -1.994 -10.231 -2.002 -15.634 C 38.949 28.536 66.155 0.92 99.773 0.867 c 33.621 -0.053 60.913 27.476 60.964 61.499 C 160.746 67.769 160.068 73.01 158.785 78.006 Z" data-colored="true" data-filltype="tone" data-stroketype="none"/><path id="SvgjsPath3484" opacity="1" fill="#f7c1aa" stroke-width="none" d="M 132.168 10.26 c 14.31 11.135 23.671 29.457 23.699 50.208 c 0.009 5.404 -0.615 10.645 -1.796 15.641 l -0.004 0 c -0.009 0.046 -11.223 40.27 -14.608 52.417 c -0.658 2.358 -1.776 4.551 -3.271 6.385 c -5.865 7.195 -21.866 25.059 -36.178 25.059 c -14.582 0 -30.904 -19.047 -36.531 -26.215 c -1.327 -1.689 -2.306 -3.633 -2.918 -5.764 c -3.318 -11.552 -14.836 -51.649 -14.846 -51.695 h -0.001 c -1.194 -4.992 -1.834 -10.231 -1.842 -15.634 c -0.029 -20.827 9.348 -39.239 23.713 -50.412 C 50.392 21.159 38.967 40.508 39.001 62.56 c 0.008 5.403 0.704 10.643 2.002 15.634 h 0.001 c 0.01 0.046 12.53 40.143 16.137 51.694 c 0.666 2.132 1.73 4.076 3.172 5.765 c 6.116 7.169 23.858 26.214 39.708 26.214 c 15.557 0 32.949 -17.862 39.324 -25.057 c 1.625 -1.835 2.841 -4.027 3.556 -6.386 c 3.682 -12.148 15.869 -52.372 15.879 -52.418 l 0.005 0 c 1.283 -4.997 1.961 -10.237 1.952 -15.641 C 160.704 40.389 149.297 21.135 132.168 10.26 Z" data-colored="true" data-filltype="sd05" data-stroketype="none"/><path id="SvgjsPath3485" opacity="1" fill="none" stroke="#d17f5b" stroke-width="1.5" d="M 158.785 78.006 l -0.005 0 c -0.01 0.046 -12.197 40.27 -15.879 52.418 c -0.715 2.358 -1.931 4.551 -3.556 6.386 c -6.375 7.194 -23.768 25.057 -39.324 25.057 c -15.849 0 -33.591 -19.045 -39.708 -26.214 c -1.442 -1.688 -2.507 -3.633 -3.172 -5.765 c -3.607 -11.551 -16.126 -51.648 -16.137 -51.694 h -0.001 c -1.298 -4.992 -1.994 -10.231 -2.002 -15.634 C 38.949 28.536 66.155 0.92 99.773 0.867 c 33.621 -0.053 60.913 27.476 60.964 61.499 C 160.746 67.769 160.068 73.01 158.785 78.006 Z" data-colored="true" data-filltype="none" data-stroketype="sd3"/></g></g><g id="svga-group-mouth-single" data-updown="0" data-leftright="0" data-dist="0" data-scaleX="1" data-scaleY="1" data-rotate="0"><path id="SvgjsPath3428" opacity="1" fill="#d17f5b" stroke="none" stroke-width="none" d="M 100.34 141.925 c -1.526 0 -2.998 -0.193 -3.9 -0.547 c -0.257 -0.102 -0.384 -0.392 -0.283 -0.648 c 0.101 -0.257 0.39 -0.383 0.648 -0.283 c 1.664 0.653 5.855 0.676 7.704 -0.193 c 0.251 -0.117 0.548 -0.01 0.665 0.239 c 0.118 0.25 0.011 0.548 -0.239 0.665 C 103.815 141.684 102.044 141.925 100.34 141.925 Z M 115.025 133.444 c 0.398 -0.171 0.584 -0.632 0.413 -1.031 s -0.635 -0.583 -1.031 -0.413 c -11.666 4.992 -28.742 0.338 -28.912 0.292 c -0.417 -0.116 -0.852 0.127 -0.968 0.546 c -0.116 0.418 0.128 0.851 0.546 0.968 c 0.463 0.128 7.692 2.1 16.034 2.1 C 105.727 135.905 110.685 135.301 115.025 133.444 Z" data-colored="true" data-filltype="sd3" data-stroketype="none" data-fromskin="true"/></g><g id="svga-group-eyes-left" data-updown="0" data-leftright="0" data-dist="0" data-scaleX="1" data-scaleY="1" data-rotate="0"><g id="svga-group-eyesback-left"><path id="SvgjsPath3274" opacity="1" fill="url(#SvgjsRadialGradient3275)" d="M 76.732 78.383 c 4.587 0.679 7.931 3.488 10.773 7.94 c 0.004 0.005 0.013 0.004 0.018 0.008 c 0.007 0.027 0.021 0.053 0.026 0.08 c 0.255 1.007 -0.816 1.819 -2.155 2.438 c -4.771 0.609 -9.359 1.489 -14.194 0.87 c -9.681 -1.241 -9.855 -5.509 -10.326 -6.629 c -0.252 -1.101 -0.325 -1.417 -0.311 -2.473 c 2.332 -1.366 4.043 -1.647 5.854 -2.005 C 68.541 78.194 73.268 77.868 76.732 78.383 Z" data-colored="false" data-filltype="gradient" data-stroketype="none"/></g><g id="svga-group-eyesiriswrapper-left" transform="translate(0.25)"><g id="svga-group-eyesiriscontrol-left" data-updown="0" data-leftright="0" data-dist="0" data-scaleX="1" data-scaleY="1" data-rotate="0"><g id="svga-group-eyesiris-left" data-updown="0" data-leftright="0" data-dist="0" data-scaleX="1" data-scaleY="1" data-rotate="0"><path id="SvgjsPath3523" opacity="1" fill="#4d3623" stroke-width="none" d="M 80 84 c 0 3.313 -2.687 5.999 -6 5.999 S 68 87.313 68 84 c 0 -3.316 2.687 -6.001 6 -6.001 S 80 80.685 80 84 Z" data-colored="true" data-filltype="tone" data-stroketype="none"/><path id="SvgjsPath3524" opacity="1" fill="#5c4633" stroke-width="none" d="M 70.512 86.805 c 0.875 -0.072 0.1 -0.306 0.1 -0.306 c -0.433 -0.233 -1.248 -0.592 -1.248 -0.921 c 0 -1.031 1.414 -1.299 -0.034 -1.705 c -1.504 -1.38 1.167 -1.352 1.147 -1.398 c -0.975 -2.376 0.299 -1.071 0.835 -1.773 c 1.988 -2.599 0.554 0.267 1.633 0 c 0.391 -0.096 -0.78 -1.531 0.034 -1.33 c 0.539 0.132 0.662 0.58 0.662 0.58 c 0.393 -0.077 1.008 -0.682 1.008 -0.682 c 0.749 0.226 1.275 1.29 1.043 1.091 c 0.368 -0.045 0.884 -0.221 1.286 -0.341 c 0 0 0.07 -0.239 0.139 -0.033 c 0.917 2.661 3.284 2.47 0.559 3.24 c 0 0 -0.176 0 0.382 0.442 c 2.71 2.164 -2.102 1.495 0.451 2.49 c 0.104 -0.104 -1.53 0.965 -1.53 1.261 c 0 0.501 -1.042 1.818 -1.946 1.3 c -0.504 -0.288 -0.581 0.6 -0.877 0.19 c -0.581 -0.803 -1.742 -0.035 -1.313 -0.773 c 0.634 -0.521 -0.654 0.204 -0.904 0.204 c -0.828 0 1.083 -2.783 3.894 -0.715 c 0.822 0.602 -0.864 -1.433 0.625 -1.433 c 0.149 0.049 0.104 -0.521 0.104 -0.682 c -0.774 -0.151 1.39 -0.003 1.39 -1.262 c 0.137 0.027 0.509 -0.35 -1.635 0 c 0 0 -0.068 -0.75 -0.034 -0.886 c 0.11 -0.438 1.214 -0.298 0.904 -0.75 c 0 -0.001 -0.799 -1.604 -0.799 -1.604 c -2.573 -0.414 -1.102 -0.672 -2.711 -0.341 c -0.076 0.378 -3.445 1.984 -3.338 2.729 c 0.1 0.702 2.115 0.938 0.208 2.182 C 73.405 91.051 68.437 85.454 70.512 86.805 Z" data-colored="true" data-filltype="hl1" data-stroketype="none"/><path id="SvgjsPath3525" opacity="1" fill="#2e1b0c" stroke-width="none" d="M 74 78.749 l 0.171 4.393 l 1.837 -3.993 l -1.523 4.123 l 3.227 -2.985 l -2.985 3.226 l 4.124 -1.523 l -3.992 1.839 l 4.392 0.17 l -4.392 0.17 l 3.992 1.839 l -4.124 -1.523 l 2.985 3.226 l -3.227 -2.985 l 1.523 4.123 l -1.837 -3.993 L 74 89.249 l -0.171 -4.393 l -1.838 3.993 l 1.522 -4.123 l -3.226 2.985 l 2.985 -3.226 l -4.124 1.523 l 3.992 -1.839 l -4.39 -0.17 l 4.39 -0.17 l -3.992 -1.839 l 4.124 1.523 l -2.985 -3.226 l 3.226 2.985 l -1.522 -4.123 l 1.838 3.993 L 74 78.749 Z" data-colored="true" data-filltype="sd2" data-stroketype="none"/><path id="SvgjsPath3526" opacity="1" fill="#1f1105" stroke-width="none" d="M 74.796 80.067 l -0.539 3.315 l 1.981 -2.711 l -1.766 2.857 l 2.87 -1.748 l -2.725 1.964 l 3.319 -0.515 L 74.668 84 l 3.266 0.794 l -3.317 -0.538 l 2.712 1.982 l -2.858 -1.765 l 1.748 2.869 l -1.964 -2.725 l 0.516 3.319 l -0.771 -3.27 l -0.795 3.264 l 0.539 -3.315 l -1.984 2.711 l 1.768 -2.857 l -2.869 1.748 l 2.725 -1.964 l -3.319 0.516 l 3.269 -0.771 l -3.264 -0.793 l 3.315 0.537 l -2.712 -1.982 l 2.858 1.765 l -1.747 -2.869 l 1.964 2.725 l -0.516 -3.318 l 0.772 3.27 L 74.796 80.067 Z" data-colored="true" data-filltype="sd3" data-stroketype="none"/><path id="SvgjsPath3527" opacity="0.9" fill="#000000" stroke-width="none" d="M 76.25 84 c 0 1.243 -1.008 2.25 -2.25 2.25 s -2.25 -1.007 -2.25 -2.25 s 1.008 -2.25 2.25 -2.25 S 76.25 82.757 76.25 84 Z" data-colored="false" data-filltype="#000000" data-stroketype="none"/><path id="SvgjsPath3528" opacity="0.7" fill="#ffffff" stroke-width="none" d="M 71.637 88.311 c -0.331 0.332 -0.985 0.215 -1.46 -0.261 c -0.476 -0.475 -0.593 -1.129 -0.261 -1.461 c 0.331 -0.331 0.985 -0.214 1.46 0.261 C 71.852 87.326 71.969 87.979 71.637 88.311 Z" data-colored="false" data-filltype="#ffffff" data-stroketype="none"/><path id="SvgjsPath3529" opacity="0.9" fill="#ffffff" stroke-width="none" d="M 78.806 82.818 c -0.496 0.496 -1.697 0.1 -2.682 -0.886 c -0.986 -0.986 -1.382 -2.187 -0.886 -2.683 c 0.496 -0.496 1.697 -0.1 2.682 0.886 C 78.906 81.122 79.302 82.322 78.806 82.818 Z" data-colored="false" data-filltype="#ffffff" data-stroketype="none"/></g></g></g><g id="svga-group-eyesfront-left"><path id="SvgjsPath3299" opacity="1" fill="#ffd0bc" stroke="none" stroke-width="none" d="M 55.112 83.583 c 3.224 11.315 7.475 23.313 17.685 23.669 s 22.135 -7.239 22.29 -22.238 c 0.173 -16.767 -10.474 -23.381 -20.684 -23.737 S 50.307 66.714 55.112 83.583 Z M 60.875 83.09 c -0.252 -1.101 -0.325 -1.417 -0.311 -2.473 c 2.027 -1.21 4.04 -1.547 5.851 -1.905 c 2.123 -0.418 6.853 -0.845 10.317 -0.329 c 4.587 0.679 7.931 3.488 10.773 7.94 c 0.004 0.005 0.013 0.004 0.018 0.008 c 0.007 0.027 0.021 0.053 0.026 0.08 c 0.255 1.007 -0.816 1.819 -2.155 2.438 c -4.771 0.609 -9.359 1.489 -14.194 0.87 C 61.519 88.478 61.345 84.21 60.875 83.09 Z" data-colored="true" data-filltype="tone" data-stroketype="none" data-fromskin="true"/><path id="SvgjsPath3300" opacity="1" fill="url(#SvgjsRadialGradient3301)" d="M 74.225 95.171 c 9.256 1.401 17.847 -3.01 19.186 -9.859 c 1.34 -6.849 -5.072 -13.537 -14.329 -14.94 c -9.258 -1.399 -17.845 3.012 -19.185 9.862 C 58.557 87.082 64.967 93.766 74.225 95.171 Z M 60.563 80.617 c 2.125 -1.141 4.04 -1.547 5.851 -1.905 c 2.123 -0.418 6.853 -0.845 10.317 -0.329 c 4.587 0.679 7.931 3.488 10.773 7.94 c 0.004 0.005 0.013 0.004 0.018 0.008 c 0.007 0.027 0.021 0.053 0.026 0.08 c 0.255 1.007 -0.816 1.819 -2.155 2.438 c -4.771 0.609 -9.359 1.489 -14.194 0.87 c -9.681 -1.241 -9.855 -5.509 -10.326 -6.629 C 60.622 81.989 60.55 81.672 60.563 80.617 Z" data-colored="false" data-filltype="gradient" data-stroketype="none" data-fromskin="true"/><path id="SvgjsPath3305" opacity="1" fill="url(#SvgjsRadialGradient3306)" d="M 60.875 83.09 c -0.252 -1.101 -0.325 -1.417 -0.311 -2.473 c 2.092 -1.175 4.04 -1.547 5.851 -1.905 c 2.123 -0.418 6.853 -0.845 10.317 -0.329 c 4.587 0.679 7.931 3.488 10.773 7.94 c 0.004 0.005 0.013 0.004 0.018 0.008 c 0.007 0.027 0.021 0.053 0.026 0.08 c 0.255 1.007 -0.816 1.819 -2.155 2.438 c -4.771 0.609 -9.359 1.489 -14.194 0.87 C 61.519 88.478 61.345 84.21 60.875 83.09 Z" data-colored="false" data-filltype="gradient" data-stroketype="none"/><path id="SvgjsPath3309" opacity="1" fill="#d17f5b" stroke="none" stroke-width="none" d="M 76.327 75.748 c 3.294 0.539 6.505 2.054 9.48 3.945 c 0.637 0.404 1.366 0.865 2.521 1.451 c -0.828 -0.188 -1.594 -0.617 -2.309 -1.011 c 0.736 0.698 1.422 1.529 1.982 2.334 c -2.521 -3.159 -7.297 -5.538 -11.36 -6.349 c -3.902 -0.779 -10.989 -0.264 -16.251 2.042 C 65.208 75.449 72.237 75.08 76.327 75.748 Z" data-colored="true" data-filltype="sd3" data-stroketype="none" data-fromskin="true"/><path id="SvgjsPath3310" opacity="1" fill="#000000" stroke="none" stroke-width="none" d="M 87.508 86.277 c -2.847 -4.34 -6.193 -7.082 -10.781 -7.747 c -4.833 -0.705 -11.271 -0.221 -15.034 1.843 c -0.308 0.169 -1.607 1.249 -1.401 0.117 c 0.874 -1.167 4.322 -2.523 5.993 -2.928 C 85.03 73.019 88.582 87.854 87.508 86.277 Z M 60.646 82.841 c -0.716 2.063 0.861 6.654 10.145 7.503 c 6.595 0.602 15.767 -1.75 14.634 -1.613 c -4.779 0.589 -9.375 1.449 -14.219 0.839 C 60.224 88.19 61.468 83.023 60.646 82.841 Z" data-colored="true" data-filltype="tone" data-stroketype="none"/></g></g><g id="svga-group-eyes-right" data-updown="0" data-leftright="0" data-dist="0" data-scaleX="1" data-scaleY="1" data-rotate="0"><g id="svga-group-eyesback-right"><path id="SvgjsPath3282" opacity="1" fill="url(#SvgjsRadialGradient3283)" d="M 122.867 78.383 c -4.586 0.679 -7.931 3.488 -10.773 7.94 c -0.004 0.005 -0.012 0.004 -0.018 0.008 c -0.006 0.027 -0.02 0.053 -0.025 0.08 c -0.256 1.007 0.815 1.819 2.154 2.438 c 4.771 0.609 9.359 1.489 14.194 0.87 c 9.681 -1.241 9.855 -5.509 10.325 -6.629 c 0.253 -1.101 0.325 -1.417 0.312 -2.473 c -2.331 -1.366 -4.043 -1.647 -5.854 -2.005 C 131.059 78.194 126.332 77.868 122.867 78.383 Z" data-colored="false" data-filltype="gradient" data-stroketype="none"/></g><g id="svga-group-eyesiriswrapper-right" transform="translate(-0.25)"><g id="svga-group-eyesiriscontrol-right" data-updown="0" data-leftright="0" data-dist="0" data-scaleX="1" data-scaleY="1" data-rotate="0"><g id="svga-group-eyesiris-right" data-updown="0" data-leftright="0" data-dist="0" data-scaleX="1" data-scaleY="1" data-rotate="0"><path id="SvgjsPath3530" opacity="1" fill="#4d3623" stroke-width="none" d="M 132 83.999 c 0 3.316 -2.684 6 -6 6 s -6 -2.684 -6 -6 s 2.684 -6 6 -6 S 132 80.683 132 83.999 Z" data-colored="true" data-filltype="tone" data-stroketype="none"/><path id="SvgjsPath3531" opacity="1" fill="#5c4633" stroke-width="none" d="M 122.508 86.806 c 0.879 -0.076 0.105 -0.305 0.105 -0.305 c -0.434 -0.234 -1.254 -0.592 -1.254 -0.926 c 0 -1.031 1.418 -1.295 -0.023 -1.705 c -1.512 -1.377 1.16 -1.348 1.137 -1.395 c -0.973 -2.379 0.305 -1.072 0.844 -1.775 c 1.98 -2.596 0.551 0.27 1.629 0 c 0.387 -0.094 -0.785 -1.529 0.035 -1.33 c 0.539 0.135 0.656 0.58 0.656 0.58 c 0.398 -0.076 1.008 -0.68 1.008 -0.68 c 0.75 0.223 1.277 1.289 1.043 1.09 c 0.375 -0.047 0.891 -0.223 1.289 -0.34 c 0 0 0.07 -0.24 0.141 -0.035 c 0.914 2.66 3.281 2.473 0.563 3.24 c 0 0 -0.176 0 0.375 0.439 c 2.707 2.168 -2.098 1.494 0.457 2.49 c 0.105 -0.1 -1.535 0.967 -1.535 1.266 c 0 0.498 -1.043 1.816 -1.945 1.295 c -0.504 -0.287 -0.586 0.604 -0.879 0.193 c -0.574 -0.803 -1.746 -0.035 -1.313 -0.773 c 0.633 -0.521 -0.656 0.205 -0.902 0.205 c -0.832 0 1.078 -2.783 3.891 -0.715 c 0.82 0.598 -0.867 -1.436 0.633 -1.436 c 0.141 0.047 0.105 -0.521 0.105 -0.68 c -0.785 -0.152 1.383 -0.006 1.383 -1.266 c 0.141 0.029 0.516 -0.346 -1.629 0 c 0 0 -0.07 -0.75 -0.035 -0.885 c 0.105 -0.439 1.207 -0.299 0.902 -0.75 l -0.797 -1.605 c -2.578 -0.41 -1.102 -0.668 -2.719 -0.34 c -0.07 0.381 -3.445 1.986 -3.34 2.73 c 0.105 0.703 2.121 0.938 0.211 2.18 C 125.402 91.054 120.434 85.452 122.508 86.806 Z" data-colored="true" data-filltype="hl1" data-stroketype="none"/><path id="SvgjsPath3532" opacity="1" fill="#2e1b0c" stroke-width="none" d="M 126 78.749 l 0.176 4.395 l 1.828 -3.996 l -1.523 4.125 l 3.234 -2.988 l -2.988 3.229 l 4.125 -1.523 l -3.996 1.84 l 4.395 0.17 l -4.395 0.17 l 3.996 1.84 l -4.125 -1.523 l 2.988 3.229 l -3.234 -2.988 l 1.523 4.125 l -1.828 -3.996 L 126 89.249 l -0.176 -4.395 l -1.84 3.996 l 1.523 -4.125 l -3.223 2.988 l 2.988 -3.229 l -4.125 1.523 l 3.996 -1.84 l -4.395 -0.17 l 4.395 -0.17 l -3.996 -1.84 l 4.125 1.523 l -2.988 -3.229 l 3.223 2.988 l -1.523 -4.125 l 1.84 3.996 L 126 78.749 Z" data-colored="true" data-filltype="sd2" data-stroketype="none"/><path id="SvgjsPath3533" opacity="1" fill="#1f1105" stroke-width="none" d="M 126.797 80.067 l -0.539 3.316 l 1.98 -2.713 l -1.77 2.859 l 2.871 -1.752 l -2.719 1.969 l 3.316 -0.516 l -3.27 0.768 l 3.27 0.797 l -3.316 -0.539 l 2.707 1.98 l -2.859 -1.764 l 1.746 2.871 l -1.957 -2.725 l 0.516 3.316 L 126 84.667 l -0.797 3.264 l 0.539 -3.316 l -1.98 2.713 l 1.77 -2.859 l -2.871 1.752 l 2.719 -1.969 l -3.316 0.516 l 3.27 -0.768 l -3.27 -0.797 l 3.316 0.539 l -2.707 -1.98 l 2.859 1.764 l -1.746 -2.871 l 1.957 2.725 l -0.516 -3.316 l 0.773 3.27 L 126.797 80.067 Z" data-colored="true" data-filltype="sd3" data-stroketype="none"/><path id="SvgjsPath3534" opacity="0.9" fill="#000000" stroke-width="none" d="M 128.25 83.999 c 0 1.242 -1.008 2.25 -2.25 2.25 s -2.25 -1.008 -2.25 -2.25 s 1.008 -2.25 2.25 -2.25 S 128.25 82.757 128.25 83.999 Z" data-colored="false" data-filltype="#000000" data-stroketype="none"/><path id="SvgjsPath3535" opacity="0.7" fill="#ffffff" stroke-width="none" d="M 123.633 88.312 c -0.328 0.328 -0.984 0.217 -1.453 -0.264 c -0.48 -0.475 -0.598 -1.125 -0.258 -1.459 c 0.328 -0.328 0.984 -0.211 1.453 0.264 C 123.855 87.327 123.973 87.978 123.633 88.312 Z" data-colored="false" data-filltype="#ffffff" data-stroketype="none"/><path id="SvgjsPath3536" opacity="0.9" fill="#ffffff" stroke-width="none" d="M 130.805 82.815 c -0.492 0.498 -1.699 0.105 -2.684 -0.885 c -0.984 -0.984 -1.383 -2.186 -0.879 -2.678 c 0.492 -0.498 1.688 -0.105 2.672 0.885 C 130.91 81.122 131.297 82.323 130.805 82.815 Z" data-colored="false" data-filltype="#ffffff" data-stroketype="none"/></g></g></g><g id="svga-group-eyesfront-right"><path id="SvgjsPath3320" opacity="1" fill="#ffd0bc" stroke="none" stroke-width="none" d="M 125.197 61.277 c -10.211 0.356 -20.857 6.97 -20.685 23.737 c 0.154 15 12.079 22.595 22.29 22.238 c 10.21 -0.356 16.187 -17.323 17.685 -23.669 C 148.517 66.512 135.407 60.921 125.197 61.277 Z M 128.399 89.719 c -4.835 0.619 -9.423 -0.261 -14.194 -0.87 c -1.339 -0.618 -2.41 -1.43 -2.154 -2.438 c 0.006 -0.027 0.02 -0.053 0.025 -0.08 c 0.006 -0.004 0.014 -0.003 0.018 -0.008 c 2.843 -4.452 6.188 -7.261 10.773 -7.94 c 3.465 -0.516 8.195 -0.089 10.318 0.329 c 1.811 0.357 3.824 0.694 5.851 1.905 c 0.014 1.055 -0.059 1.372 -0.312 2.473 C 138.255 84.21 138.08 88.478 128.399 89.719 Z" data-colored="true" data-filltype="tone" data-stroketype="none" data-fromskin="true"/><path id="SvgjsPath3321" opacity="1" fill="url(#SvgjsRadialGradient3322)" d="M 139.703 80.234 c -1.34 -6.85 -9.928 -11.261 -19.186 -9.862 c -9.257 1.403 -15.669 8.091 -14.328 14.94 c 1.339 6.849 9.93 11.26 19.186 9.859 C 134.633 93.766 141.043 87.082 139.703 80.234 Z M 138.725 83.09 c -0.47 1.121 -0.645 5.388 -10.325 6.629 c -4.835 0.619 -9.423 -0.261 -14.194 -0.87 c -1.339 -0.618 -2.41 -1.43 -2.154 -2.438 c 0.006 -0.027 0.02 -0.053 0.025 -0.08 c 0.006 -0.004 0.014 -0.003 0.018 -0.008 c 2.843 -4.452 6.188 -7.261 10.773 -7.94 c 3.465 -0.516 8.195 -0.089 10.318 0.329 c 1.811 0.357 3.727 0.764 5.851 1.905 C 139.05 81.672 138.978 81.989 138.725 83.09 Z" data-colored="false" data-filltype="gradient" data-stroketype="none" data-fromskin="true"/><path id="SvgjsPath3326" opacity="1" fill="url(#SvgjsRadialGradient3327)" d="M 138.725 83.09 c 0.253 -1.101 0.325 -1.417 0.312 -2.473 c -2.092 -1.175 -4.04 -1.547 -5.851 -1.905 c -2.123 -0.418 -6.854 -0.845 -10.318 -0.329 c -4.586 0.679 -7.931 3.488 -10.773 7.94 c -0.004 0.005 -0.012 0.004 -0.018 0.008 c -0.006 0.027 -0.02 0.053 -0.025 0.08 c -0.256 1.007 0.815 1.819 2.154 2.438 c 4.771 0.609 9.359 1.489 14.194 0.87 C 138.08 88.478 138.255 84.21 138.725 83.09 Z" data-colored="false" data-filltype="gradient" data-stroketype="none"/><path id="SvgjsPath3330" opacity="1" fill="#d17f5b" stroke="none" stroke-width="none" d="M 123.273 75.748 c -3.295 0.539 -6.506 2.054 -9.48 3.945 c -0.637 0.404 -1.367 0.865 -2.521 1.451 c 0.828 -0.188 1.594 -0.617 2.309 -1.011 c -0.736 0.698 -1.422 1.529 -1.982 2.334 c 2.521 -3.159 7.297 -5.538 11.359 -6.349 c 3.902 -0.779 10.989 -0.264 16.252 2.042 C 134.391 75.449 127.362 75.08 123.273 75.748 Z" data-colored="true" data-filltype="sd3" data-stroketype="none" data-fromskin="true"/><path id="SvgjsPath3331" opacity="1" fill="#000000" stroke="none" stroke-width="none" d="M 133.314 77.563 c 1.672 0.405 5.119 1.761 5.994 2.928 c 0.205 1.132 -1.094 0.052 -1.402 -0.117 c -3.764 -2.064 -10.201 -2.548 -15.033 -1.843 c -4.588 0.665 -7.936 3.407 -10.781 7.747 C 111.018 87.854 114.57 73.019 133.314 77.563 Z M 128.395 89.57 c -4.844 0.61 -9.439 -0.25 -14.219 -0.839 c -1.134 -0.137 8.038 2.215 14.633 1.613 c 9.284 -0.849 10.861 -5.44 10.145 -7.503 C 138.131 83.023 139.376 88.19 128.395 89.57 Z" data-colored="true" data-filltype="tone" data-stroketype="none"/></g></g><g id="svga-group-facehighlight-single" data-updown="0" data-leftright="0" data-dist="0" data-scaleX="1" data-scaleY="1" data-rotate="0"><path id="SvgjsPath2885" opacity="1" fill="url(#SvgjsRadialGradient2886)" d="M 141 113.974 c 0.035 22.622 -18.292 40.994 -40.938 41.025 c -22.642 0.037 -41.028 -18.273 -41.063 -40.9 c -0.035 -22.62 18.292 -41.064 40.937 -41.1 C 122.579 72.964 140.967 91.349 141 113.974 Z" data-colored="false" data-filltype="gradient" data-stroketype="none" data-fromskin="true"/><path id="SvgjsPath2889" opacity="1" fill="url(#SvgjsRadialGradient2890)" d="M 137.5 53.999 c 0 20.711 -16.789 37.5 -37.499 37.5 c -20.711 0 -37.501 -16.789 -37.501 -37.5 s 16.79 -37.5 37.501 -37.5 C 120.711 16.499 137.5 33.288 137.5 53.999 Z" data-colored="false" data-filltype="gradient" data-stroketype="none" data-fromskin="true"/></g><g id="svga-group-eyebrows-left" transform="rotate(1e-007 73.1999 70.1705)" data-updown="0" data-leftright="0" data-dist="0" data-scaleX="1" data-scaleY="1" data-rotate="1e-7"><path id="SvgjsPath3569" opacity="1" fill="#2a232b" stroke-width="none" d="M 52.488 73.87 c 7.475 -9.383 20.338 -7.822 30.878 -6.314 c 2.681 0.384 5.441 0.672 8.07 1.336 c 1.884 0.475 3.365 2.622 1.851 4.356 c -0.708 0.825 -2.253 0.672 -3.207 0.652 C 77.459 73.645 63.193 66.387 52.488 73.87 Z" data-colored="true" data-filltype="#000000" data-stroketype="none"/></g><g id="svga-group-eyebrows-right" transform="rotate(1e-007 126.837 70.3275)" data-updown="0" data-leftright="0" data-dist="0" data-scaleX="1" data-scaleY="1" data-rotate="1e-7"><path id="SvgjsPath3570" opacity="1" fill="#2a232b" stroke-width="none" d="M 147.577 73.49 c -2.164 -1.448 -4.454 -2.47 -7.043 -2.889 c -9.497 -1.54 -27.586 4.79 -32.341 3.45 c -2.912 -0.822 -2.323 -3.739 -1.035 -4.458 c 0.775 -0.433 0.99 -0.422 7.909 -1.612 C 126.824 65.961 139.988 64.355 147.577 73.49 Z" data-colored="true" data-filltype="#000000" data-stroketype="none"/></g><g id="svga-group-nose-single" data-updown="0" data-leftright="0" data-dist="0" data-scaleX="1" data-scaleY="1" data-rotate="0"><path id="SvgjsPath3510" opacity="1" fill="#f0b399" stroke-width="none" d="M 91.115 115.499 c -0.878 2.064 5.934 4.292 8.519 4.429 c 2.8 0.147 10.646 -2.9 9.316 -4.992 c -1.399 -2.195 -6.643 -0.286 -8.906 -0.286 C 97.792 114.649 92.291 112.745 91.115 115.499 Z" data-colored="true" data-filltype="sd1" data-stroketype="none" data-fromskin="true"/><path id="SvgjsPath3511" opacity="1" fill="#d17f5b" stroke-width="none" d="M 101.857 117.058 c -0.23 -0.759 1.876 -1.584 2.657 -1.694 c 1.101 -0.16 3.36 0.802 3.158 1.592 c -0.184 0.698 -2.148 -0.533 -2.86 -0.429 C 104.078 116.634 102.075 117.769 101.857 117.058 Z M 94.974 116.811 c 0.968 0 2.404 0.623 2.668 0.074 c 0.315 -0.655 -2.139 -1.461 -2.86 -1.372 c -0.596 0.07 -2.733 1.315 -2.439 1.839 C 92.617 117.833 93.698 116.811 94.974 116.811 Z" data-colored="true" data-filltype="sd3" data-stroketype="none" data-fromskin="true"/><path id="SvgjsPath3512" opacity="0.2" fill="#fff4ef" stroke-width="none" d="M 100.089 111.999 c 0.607 0 1.742 -0.74 1.792 -2.23 c 0.201 -6.008 -0.956 -23.833 -1.792 -23.77 c -0.78 0.059 -2.267 17.637 -1.948 23.77 C 98.22 111.271 99.404 111.999 100.089 111.999 Z" data-colored="true" data-filltype="hl2" data-stroketype="none" data-fromskin="true"/></g><g id="svga-group-beardwrap" data-updown="0" data-leftright="0" data-dist="0" data-scaleX="1" data-scaleY="1" data-rotate="0"><g id="svga-group-beard-single" data-updown="0" data-leftright="0" data-dist="0" data-scaleX="1" data-scaleY="1" data-rotate="0"><path id="SvgjsPath3021" opacity="1" fill="#2a232b" stroke-width="none" d="M 100 18.13 L 100 18.13 L 100 18.13 L 100 18.13 Z" data-colored="true" data-filltype="tone" data-stroketype="none"/></g></g><g id="svga-group-mustache-single" data-updown="0" data-leftright="0" data-dist="0" data-scaleX="1" data-scaleY="1" data-rotate="0"><path id="SvgjsPath3019" opacity="1" fill="#2a232b" stroke-width="none" d="M 100 18.13 L 100 18.13 L 100 18.13 L 100 18.13 Z" data-colored="true" data-filltype="tone" data-stroketype="none"/></g><g id="svga-group-hair-front" data-updown="0" data-leftright="0" data-dist="0" data-scaleX="1" data-scaleY="1" data-rotate="0"><path id="SvgjsPath3589" opacity="1" fill="#080806" stroke-width="none" d="M 45.777 90.313 c -2.998 -2.502 -6.749 -8.939 -8.423 -17.962 c -0.356 -1.849 -0.61 -3.75 -0.88 -5.763 c -1.131 -8.446 -3.555 -18.289 -1.878 -28.373 c 2.013 -12.337 11.271 -25.693 23.036 -33.237 c 18.191 -11.772 64.171 -17.033 73.754 -1.537 c 5.559 -0.203 11.557 1.249 15.699 4.471 c 13.709 10.284 19.01 45.211 15.211 62.559 c -2.528 11.847 -3.191 14.954 -8.264 19.599 c 1.812 -54.323 -0.99 -39.665 -3.306 -54.253 c -2.715 -1.99 -3.727 -1.168 -7.909 -3.542 c -8.318 -6.142 -7.915 -8.602 -11.683 -12.898 c -3.356 3.969 -8.181 7.463 -11.907 9.077 c 0.944 -1.547 1.749 -3.282 2.282 -4.398 l -0.446 -0.373 c -3.129 2.262 -9.451 5.478 -13.336 5.823 c 2.087 -2.565 1.843 -2.242 2.677 -3.805 c -3.116 1.916 -6.427 3.217 -10.604 3.583 c 3.935 -1.944 5.699 -3.274 8.751 -5.817 l -0.279 -0.518 c -21.191 6.437 -26.218 7.895 -41.755 10.651 c -13.012 1.627 -8.248 0.252 -12.968 0.252 c -7.593 0 -8.798 22.789 -8.47 30.387 C 45.925 85.479 44.837 81.343 45.777 90.313 Z" data-colored="true" data-filltype="tone" data-stroketype="none"/><path id="SvgjsPath3590" opacity="1" fill="#000000" stroke-width="none" d="M 162.296 70.471 c -2.528 11.847 -3.191 14.954 -8.264 19.599 c 1.812 -54.323 -0.99 -39.665 -3.306 -54.253 c -2.715 -1.99 -3.727 -1.168 -7.909 -3.542 c -8.318 -6.142 -7.915 -8.602 -11.683 -12.898 c -3.356 3.969 -8.181 7.463 -11.907 9.077 c 0.944 -1.547 1.749 -3.282 2.282 -4.398 l -0.446 -0.373 c -3.129 2.262 -9.451 5.478 -13.336 5.823 c 2.087 -2.565 1.843 -2.242 2.677 -3.805 c -3.116 1.916 -6.427 3.217 -10.604 3.583 c 3.935 -1.944 5.699 -3.274 8.751 -5.817 l -0.279 -0.518 c -21.191 6.437 -26.218 7.895 -41.755 10.651 c -13.012 1.627 -8.248 0.252 -12.968 0.252 c -7.593 0 -8.798 22.789 -8.47 30.387 c 0.846 21.241 -0.242 17.104 0.698 26.075 c -2.998 -2.502 -6.749 -8.939 -8.423 -17.962 c -0.356 -1.849 -0.61 -3.75 -0.88 -5.763 c -1.131 -8.446 -3.555 -18.289 -1.878 -28.373 c 1.59 -9.746 13.727 -24.08 22.024 -31.729 c -25.5 23.75 -18 50.252 -13.75 71.5 C 41.619 59.235 38 29 55 28 c 23 0 48.869 -3.265 64.869 -19.265 C 118.869 15.735 118 17 113 22 c 4 -3 9 -5 11 -10 c -1 4 -1 7 -4 10 c 3 -2 6 -5 9 -8 c 0 3 -2 6 -3 9 c 2 -5 8 -8 9 -13 c -3 13 12.369 19.985 17.119 22.735 c 6.5 9 6.75 28 5.25 43.75 c 5.5 -18 3 -48.75 -13.25 -70 C 161.869 19.485 165.6 55.386 162.296 70.471 Z M 60.369 19.985 c 12.207 -0.359 21.165 -2.337 34.25 -9.75 C 82.032 15.751 74.067 18.383 60.369 19.985 Z M 93.619 15.735 c 6.46 -2.681 10.955 -8.497 18.25 -10.25 C 105.146 7.818 100.471 13.67 93.619 15.735 Z M 54.869 19.485 c 4.629 -8.324 14.52 -15.222 27 -16.25 C 71.713 5.123 60.837 10.953 54.869 19.485 Z" data-colored="true" data-filltype="sd1" data-stroketype="none"/><path id="SvgjsPath3591" opacity="1" fill="#171714" stroke-width="none" d="M 86.619 0 c 13.085 -5.594 24.996 -5.023 37.5 1.985 c -13.123 -5.605 -23.154 -4.532 -23.154 -4.532 C 98.577 -2.36 94.759 -2.452 86.619 0 Z M 138.119 7.985 c 4.139 1.594 5.866 4.016 8.383 7.511 c 3.685 5.954 4.716 8.533 6.863 14.489 C 151.28 21.431 146.603 10.292 138.119 7.985 Z M 114.619 7.735 c -7.115 6.003 -12.274 9.237 -26.5 14 C 99.361 19.065 106.526 15.916 114.619 7.735 Z M 137.619 13.985 c 2.067 7.036 5.876 10.957 11.75 14.5 C 143.909 24.378 140.339 20.566 137.619 13.985 Z M 58.619 10.235 c 0 0 -0.486 0.36 -1.287 0.952 c -9.145 6.479 -16.294 18.86 -16.463 34.548 C 42.864 30.127 49.049 19.143 58.619 10.235 Z M 63.369 14.735 c 7.757 -4.055 11.339 -4.087 24.25 -6.25 C 76.476 9.262 70.964 9.793 63.369 14.735 Z M 84.417 18.964 c -4.565 2.29 -15.277 4.855 -15.277 4.74 c -3.757 0.834 -10.27 2.281 -10.27 2.281 c 2.522 -0.319 6.849 -0.825 10.418 -1.591 c 0 0.135 8.796 -1.985 11.379 -3.319 c 2.836 -1.338 1.875 -0.813 4.703 -2.59 C 85.369 18.485 85.008 18.667 84.417 18.964 Z" data-colored="true" data-filltype="hl1" data-stroketype="none"/><path id="SvgjsPath3592" opacity="1" fill="#000000" stroke-width="none" d="M 147.27 7.675 c -4.229 -3.289 -10.323 -4.741 -15.721 -4.54 c -4.611 -7.454 -19.151 -9.598 -27.97 -9.69 c -13.304 -0.138 -34.324 3.653 -46.11 11.28 c -10.968 7.032 -21.023 20.286 -23.17 33.44 c -1.284 7.721 -0.178 15.721 1.13 23.38 c 0.64 3.7 0.97 7.43 1.63 10.86 c 1.897 10.227 6.295 16.626 9.09 18.57 c -1.065 -9.855 0.097 -4.998 -0.77 -26.75 c -0.403 -9.331 1.305 -30.714 8.49 -30.06 c 4.883 0.345 1.014 1.191 12.7 -0.271 c 15.347 -2.722 20.366 -4.152 41.79 -10.659 c -3.357 2.798 -5.103 4.068 -9.6 6.22 c -0.01 -0.01 -0.01 0 -0.01 0 c -0.14 0.07 -0.29 0.14 -0.43 0.2 c 3.719 -0.024 8.346 -1.305 11.299 -3.12 c -0.407 0.762 -1.632 2.147 -2.539 3.3 c 3.844 0 10.74 -3.438 14.16 -5.91 c -0.48 1 -1.603 3.462 -2.811 5.21 c 1.141 -0.57 3.874 -1.313 9.33 -5.93 c 1.11 -0.93 2.38 -2.19 3.38 -3.37 c 3.349 3.818 3.148 6.516 11.53 12.7 c 4.158 2.36 5.282 1.625 7.78 3.45 c 2.206 14.448 5.134 -0.795 3.26 54.78 c 5.6 -4.96 6.275 -8.026 8.88 -20.23 C 166.297 53.602 161.249 18.163 147.27 7.675 Z M 160.949 70.325 c -2.216 12.286 -2.402 14.36 -6.88 19.22 c 0.814 -10.8 1.53 -20.459 1.319 -31.34 c -0.444 -16.061 -2.58 -13.048 -4.1 -22.72 c -2.878 -2.021 -4.273 -1.655 -6.92 -2.85 c -0.46 -0.17 -0.84 -0.46 -1.27 -0.68 c -8.392 -5.824 -8.398 -8.604 -11.83 -12.27 c 0.971 -1.114 1.813 -2.391 2.09 -2.94 c -1.509 2.264 -7.977 8.239 -14.11 11.63 c 1.059 -1.676 1.864 -3.305 2.44 -4.78 c 1.735 -1.212 2.92 -2.358 3.92 -3.35 c -3.419 2.84 -12.225 7.96 -17.75 9.07 c 0.174 -0.179 1.875 -1.826 2.516 -3.074 c 1.355 -0.542 5.016 -2.779 6.304 -4.203 c -6.304 4.203 -13.475 6.72 -15.979 7.136 c 3.064 -1.149 7.04 -4.731 9.08 -6.36 c 1.971 -1.574 2.353 -2.206 4.399 -4.28 c -1.344 0.938 -3.44 2.993 -6.056 4.097 c -1.547 0.653 -43.89 12.498 -51.254 10.574 c -1.478 -0.37 -3.149 -0.818 -4.62 -0.39 c -11.8 5.076 -7.461 37.634 -7.3 47.63 c 0.136 8.423 0.74 9.89 0.74 9.89 c -7.751 -7.36 -8.089 -23.554 -8.9 -29.18 c -1.028 -7.456 -1.923 -15.371 -0.55 -22.77 c 2.24 -12.64 11.912 -25.407 22.26 -32.06 c 15.469 -10.04 61.594 -18.533 73.04 -2.83 C 159.954 3.495 163.94 50.271 160.949 70.325 Z" data-colored="true" data-filltype="sd3" data-stroketype="none"/></g><g id="svga-group-glasses-single" data-updown="0" data-leftright="0" data-dist="0" data-scaleX="1" data-scaleY="1" data-rotate="0"><path id="SvgjsPath3607" opacity="0.2" fill="#ffffff" stroke-width="none" d="M 91.69 89.23 c -3.71 7.46 -14.12 8.15 -17.78 8.15 H 61.79 c -5.75 0 -10.86 -7.99 -10.86 -14.29 v -6.16 c 0 -0.23 0.11 -0.46 0.29 -0.7 L 91.69 89.23 Z M 110.37 76.65 c -2.07 1.43 -3.39 3.35 -3.39 5.92 v 0.5 c 0 2.44 0.5 4.47 1.34 6.15 c 3.71 7.46 14.12 8.15 17.78 8.15 h 12.12 c 4.09 0 7.85 -4.05 9.68 -8.66 L 110.37 76.65 Z" data-colored="false" data-filltype="#ffffff" data-stroketype="none"/><path id="SvgjsPath3608" opacity="0.4" fill="#ffffff" stroke-width="none" d="M 91.69 89.23 L 51.21 76.22 c 0.99 -1.32 4.4 -2.7 6.15 -2.91 c 2.18 -0.26 6.63 -0.69 11.94 -0.69 c 8.86 0 23.72 1.29 23.72 9.96 v 0.5 C 93.02 85.52 92.52 87.55 91.69 89.23 Z M 149.07 83.08 v -6.16 c 0 -0.23 -0.11 -0.46 -0.29 -0.7 c -0.99 -1.32 -4.4 -2.7 -6.15 -2.91 c -2.18 -0.26 -6.63 -0.69 -11.94 -0.69 c -6.23 0 -15.41 0.64 -20.33 4.03 l 37.53 12.06 C 148.64 86.85 149.07 84.9 149.07 83.08 Z" data-colored="false" data-filltype="#ffffff" data-stroketype="none"/><path id="SvgjsPath3609" opacity="1" fill="#000000" stroke-width="none" d="M 149.73 78.68 v -1.76 c 0 -2.1 -4.9 -3.99 -7.01 -4.25 c -9.42 -1.12 -31.52 -2.02 -35.7 6.76 c -2.78 -0.92 -5.88 -1.28 -7.02 -1.29 c -1.14 0.01 -4.24 0.37 -7.02 1.29 c -4.17 -8.77 -26.27 -7.88 -35.7 -6.76 c -2.11 0.25 -7.01 2.14 -7.01 4.25 v 1.76 H 45.5 v 2.36 h 4.77 v 2.04 c 0 6.3 5.15 14.94 11.51 14.94 h 12.12 c 8.33 0 19.76 -3.13 19.76 -14.94 v -0.5 c 0 -0.76 -0.1 -1.46 -0.29 -2.12 c 3.46 -1.07 5.55 -1.29 6.62 -1.31 c 1.07 0.01 3.16 0.24 6.62 1.31 c -0.19 0.66 -0.29 1.36 -0.29 2.12 v 0.5 c 0 11.81 11.44 14.94 19.76 14.94 h 12.12 c 6.36 0 11.51 -8.64 11.51 -14.94 v -2.04 h 4.77 v -2.36 H 149.73 Z M 92.86 83.08 c 0 13.11 -14.5 14.13 -18.95 14.13 H 61.79 c -5.66 0 -10.7 -7.9 -10.7 -14.13 v -6.16 c 0 -1.31 4.09 -3.18 6.29 -3.44 c 2.17 -0.26 6.62 -0.69 11.92 -0.69 c 8.8 0 23.55 1.27 23.55 9.79 V 83.08 Z M 148.91 83.08 c 0 6.23 -5.04 14.13 -10.7 14.13 h -12.12 c -4.45 0 -18.95 -1.02 -18.95 -14.13 v -0.5 c 0 -8.52 14.76 -9.79 23.55 -9.79 c 5.31 0 9.75 0.43 11.92 0.69 c 2.2 0.26 6.3 2.13 6.3 3.44 V 83.08 Z" data-colored="true" data-filltype="tone" data-stroketype="none"/></g></g></g><rect id="SvgjsRect1036" style="display:none;" opacity="0.5" fill="#ecf0f1" x="0" y="185" width="200" height="15"/><text id="SvgjsText1037" font-family="&quot;Roboto&quot;,&quot;Helvetica Neue&quot;,Helvetica,Arial,sans-serif" font-size="0.84em" font-weight="400" style="font-size:0.84em;font-family:&quot;Roboto&quot;, &quot;Helvetica Neue&quot;, Helvetica, Arial, sans-serif;text-anchor:middle;font-weight:400;display:none;" fill="#000000" text-anchor="middle" x="100" y="185"><tspan id="SvgjsTspan1038" style="font-size:0.84em;font-family:&quot;Roboto&quot;, &quot;Helvetica Neue&quot;, Helvetica, Arial, sans-serif;text-anchor:middle;font-weight:400;" x="100" dy="1.2em">Erstellt mit Avatars24.de</tspan></text></g><defs id="SvgjsDefs1001"><radialGradient class="svga-on-canvas-facehighlight-gradient-single-0" id="SvgjsRadialGradient2886" gradientUnits="userSpaceOnUse" cx="100" cy="114" r="41"><stop id="SvgjsStop2887" stop-color="rgb(255, 226, 214)" stop-opacity="0.5" offset="0" data-stoptype="hl1"/><stop id="SvgjsStop2888" stop-color="rgb(255, 208, 188)" stop-opacity="0" offset="0.9" data-stoptype="tone"/></radialGradient><radialGradient class="svga-on-canvas-facehighlight-gradient-single-1" id="SvgjsRadialGradient2890" gradientUnits="userSpaceOnUse" cx="100" cy="54" r="37"><stop id="SvgjsStop2891" stop-color="rgb(255, 226, 214)" stop-opacity="0.5" offset="0" data-stoptype="hl1"/><stop id="SvgjsStop2892" stop-color="rgb(255, 208, 188)" stop-opacity="0" offset="0.9" data-stoptype="tone"/></radialGradient><linearGradient class="svga-on-canvas-mouth-gradient-single-0" id="SvgjsLinearGradient3207" gradientUnits="userSpaceOnUse" x1="100" y1="144" x2="100" y2="141"><stop id="SvgjsStop3208" stop-color="rgb(247, 193, 170)" stop-opacity="1" offset="0.1" data-stoptype="sd05"/><stop id="SvgjsStop3209" stop-color="rgb(240, 179, 153)" stop-opacity="1" offset="1" data-stoptype="sd1"/></linearGradient><radialGradient class="svga-on-canvas-eyesback-gradient-left-0" id="SvgjsRadialGradient3275" gradientUnits="userSpaceOnUse" gradientTransform="matrix(-1.0996, 0.0423, 0.0635, 0.9207, 206.549, 0.5932)" cx="125.903" cy="85.096" r="13.25"><stop id="SvgjsStop3276" stop-color="rgb(255, 255, 255)" stop-opacity="1" offset="0" data-stoptype="#ffffff"/><stop id="SvgjsStop3277" stop-color="rgb(253, 254, 254)" stop-opacity="1" offset="0.544" data-stoptype="#fdfefe"/><stop id="SvgjsStop3278" stop-color="rgb(246, 248, 249)" stop-opacity="1" offset="0.74" data-stoptype="#f6f8f9"/><stop id="SvgjsStop3279" stop-color="rgb(234, 239, 242)" stop-opacity="1" offset="0.879" data-stoptype="#eaeff2"/><stop id="SvgjsStop3280" stop-color="rgb(217, 227, 232)" stop-opacity="1" offset="0.992" data-stoptype="#d9e3e8"/><stop id="SvgjsStop3281" stop-color="rgb(216, 226, 231)" stop-opacity="1" offset="1" data-stoptype="#d8e2e7"/></radialGradient><radialGradient class="svga-on-canvas-eyesback-gradient-right-0" id="SvgjsRadialGradient3283" gradientUnits="userSpaceOnUse" gradientTransform="matrix(1.0996, 0.0423, -0.0635, 0.9207, -6.5488, 0.5932)" cx="125.541" cy="85.113" r="13.249"><stop id="SvgjsStop3284" stop-color="rgb(255, 255, 255)" stop-opacity="1" offset="0" data-stoptype="#ffffff"/><stop id="SvgjsStop3285" stop-color="rgb(253, 254, 254)" stop-opacity="1" offset="0.544" data-stoptype="#fdfefe"/><stop id="SvgjsStop3286" stop-color="rgb(246, 248, 249)" stop-opacity="1" offset="0.74" data-stoptype="#f6f8f9"/><stop id="SvgjsStop3287" stop-color="rgb(234, 239, 242)" stop-opacity="1" offset="0.879" data-stoptype="#eaeff2"/><stop id="SvgjsStop3288" stop-color="rgb(217, 227, 232)" stop-opacity="1" offset="0.992" data-stoptype="#d9e3e8"/><stop id="SvgjsStop3289" stop-color="rgb(216, 226, 231)" stop-opacity="1" offset="1" data-stoptype="#d8e2e7"/></radialGradient><radialGradient class="svga-on-canvas-eyesfront-gradient-left-0" id="SvgjsRadialGradient3291" gradientUnits="userSpaceOnUse" gradientTransform="matrix(-1.0996, 0.0423, 0.0635, 0.9207, 206.549, 0.5932)" cx="125.903" cy="85.096" r="13.25"><stop id="SvgjsStop3292" stop-color="rgb(255, 255, 255)" stop-opacity="1" offset="0" data-stoptype="#ffffff"/><stop id="SvgjsStop3293" stop-color="rgb(253, 254, 254)" stop-opacity="1" offset="0.544" data-stoptype="#fdfefe"/><stop id="SvgjsStop3294" stop-color="rgb(246, 248, 249)" stop-opacity="1" offset="0.74" data-stoptype="#f6f8f9"/><stop id="SvgjsStop3295" stop-color="rgb(234, 239, 242)" stop-opacity="1" offset="0.879" data-stoptype="#eaeff2"/><stop id="SvgjsStop3296" stop-color="rgb(217, 227, 232)" stop-opacity="1" offset="0.992" data-stoptype="#d9e3e8"/><stop id="SvgjsStop3297" stop-color="rgb(216, 226, 231)" stop-opacity="1" offset="1" data-stoptype="#d8e2e7"/></radialGradient><radialGradient class="svga-on-canvas-eyesfront-gradient-left-3" id="SvgjsRadialGradient3301" gradientUnits="userSpaceOnUse" gradientTransform="matrix(0.9884, 0.1367, 0.1336, -0.7354, -56.0677, 125.3)" cx="123.371" cy="81.442" r="17.038" fx="136.805" fy="80.36"><stop id="SvgjsStop3302" stop-color="rgb(240, 179, 153)" stop-opacity="1" offset="0" data-stoptype="sd1"/><stop id="SvgjsStop3303" stop-color="rgb(240, 179, 153)" stop-opacity="0.3" offset="0.7" data-stoptype="sd1"/><stop id="SvgjsStop3304" stop-color="rgb(255, 208, 188)" stop-opacity="0" offset="1" data-stoptype="tone"/></radialGradient><radialGradient class="svga-on-canvas-eyesfront-gradient-left-4" id="SvgjsRadialGradient3306" gradientUnits="userSpaceOnUse" gradientTransform="matrix(0.7183, -0.06, 0.0803, 0.6143, 8.7915, 49.2595)" cx="78.965" cy="81.143" r="26.237"><stop id="SvgjsStop3307" stop-color="rgb(0, 0, 0)" stop-opacity="0" offset="0.95" data-stoptype="#000000"/><stop id="SvgjsStop3308" stop-color="rgb(0, 0, 0)" stop-opacity="0.2" offset="1" data-stoptype="#000000"/></radialGradient><radialGradient class="svga-on-canvas-eyesfront-gradient-right-0" id="SvgjsRadialGradient3312" gradientUnits="userSpaceOnUse" gradientTransform="matrix(1.0996, 0.0423, -0.0635, 0.9207, -6.5488, 0.5932)" cx="125.541" cy="85.113" r="13.249"><stop id="SvgjsStop3313" stop-color="rgb(255, 255, 255)" stop-opacity="1" offset="0" data-stoptype="#ffffff"/><stop id="SvgjsStop3314" stop-color="rgb(253, 254, 254)" stop-opacity="1" offset="0.544" data-stoptype="#fdfefe"/><stop id="SvgjsStop3315" stop-color="rgb(246, 248, 249)" stop-opacity="1" offset="0.74" data-stoptype="#f6f8f9"/><stop id="SvgjsStop3316" stop-color="rgb(234, 239, 242)" stop-opacity="1" offset="0.879" data-stoptype="#eaeff2"/><stop id="SvgjsStop3317" stop-color="rgb(217, 227, 232)" stop-opacity="1" offset="0.992" data-stoptype="#d9e3e8"/><stop id="SvgjsStop3318" stop-color="rgb(216, 226, 231)" stop-opacity="1" offset="1" data-stoptype="#d8e2e7"/></radialGradient><radialGradient class="svga-on-canvas-eyesfront-gradient-right-3" id="SvgjsRadialGradient3322" gradientUnits="userSpaceOnUse" gradientTransform="matrix(-0.9884, 0.1367, -0.1336, -0.7354, 255.271, 125.342)" cx="122.972" cy="81.425" r="17.037" fx="136.406" fy="80.344"><stop id="SvgjsStop3323" stop-color="rgb(240, 179, 153)" stop-opacity="1" offset="0" data-stoptype="sd1"/><stop id="SvgjsStop3324" stop-color="rgb(240, 179, 153)" stop-opacity="0.3" offset="0.7" data-stoptype="sd1"/><stop id="SvgjsStop3325" stop-color="rgb(255, 208, 188)" stop-opacity="0" offset="1" data-stoptype="tone"/></radialGradient><radialGradient class="svga-on-canvas-eyesfront-gradient-right-4" id="SvgjsRadialGradient3327" gradientUnits="userSpaceOnUse" gradientTransform="matrix(-0.7183, -0.06, -0.0803, 0.6143, 191.208, 49.2665)" cx="79.515" cy="81.186" r="26.237"><stop id="SvgjsStop3328" stop-color="rgb(0, 0, 0)" stop-opacity="0" offset="0.95" data-stoptype="#000000"/><stop id="SvgjsStop3329" stop-color="rgb(0, 0, 0)" stop-opacity="0.2" offset="1" data-stoptype="#000000"/></radialGradient><radialGradient class="svga-on-canvas-eyesiris-gradient-left-1" id="SvgjsRadialGradient3334" gradientUnits="userSpaceOnUse" gradientTransform="matrix(0.096, -0.0248, 0.0245, 0.0961, 141.281, 119.989)" cx="-568.659" cy="-521.042" r="59.751"><stop id="SvgjsStop3335" stop-color="rgb(255, 255, 255)" stop-opacity="1" offset="0" data-stoptype="#ffffff"/><stop id="SvgjsStop3336" stop-color="rgb(255, 255, 255)" stop-opacity="0" offset="1" data-stoptype="#ffffff"/></radialGradient><radialGradient class="svga-on-canvas-eyesiris-gradient-left-2" id="SvgjsRadialGradient3338" gradientUnits="userSpaceOnUse" gradientTransform="matrix(0.0991, 0.000885632, -0.0011, 0.0991, 131.113, 135.986)" cx="-582.838" cy="-519.099" r="59.745"><stop id="SvgjsStop3339" stop-color="rgb(255, 255, 255)" stop-opacity="1" offset="0" data-stoptype="#ffffff"/><stop id="SvgjsStop3340" stop-color="rgb(255, 255, 255)" stop-opacity="0" offset="1" data-stoptype="#ffffff"/></radialGradient><linearGradient class="svga-on-canvas-eyesiris-gradient-left-5" id="SvgjsLinearGradient3344" gradientUnits="userSpaceOnUse" gradientTransform="matrix(1, 0, 0, 1, -52, 0)" x1="122.67" y1="88.268" x2="123.606" y2="87.152"><stop id="SvgjsStop3345" stop-color="rgb(255, 255, 255)" stop-opacity="1" offset="0" data-stoptype="#ffffff"/><stop id="SvgjsStop3346" stop-color="rgb(255, 255, 255)" stop-opacity="0" offset="1" data-stoptype="#ffffff"/></linearGradient><linearGradient class="svga-on-canvas-eyesiris-gradient-left-6" id="SvgjsLinearGradient3348" gradientUnits="userSpaceOnUse" gradientTransform="matrix(1, 0, 0, 1, -52, 0)" x1="127.212" y1="82.296" x2="126.463" y2="83.189"><stop id="SvgjsStop3349" stop-color="rgb(255, 255, 255)" stop-opacity="1" offset="0" data-stoptype="#ffffff"/><stop id="SvgjsStop3350" stop-color="rgb(255, 255, 255)" stop-opacity="0" offset="1" data-stoptype="#ffffff"/></linearGradient><linearGradient class="svga-on-canvas-eyesiris-gradient-left-7" id="SvgjsLinearGradient3352" gradientUnits="userSpaceOnUse" gradientTransform="matrix(1, 0, 0, 1, -52, 0)" x1="129.636" y1="79.822" x2="127.91" y2="81.879"><stop id="SvgjsStop3353" stop-color="rgb(255, 255, 255)" stop-opacity="1" offset="0" data-stoptype="#ffffff"/><stop id="SvgjsStop3354" stop-color="rgb(255, 255, 255)" stop-opacity="0" offset="1" data-stoptype="#ffffff"/></linearGradient><radialGradient class="svga-on-canvas-eyesiris-gradient-right-1" id="SvgjsRadialGradient3357" gradientUnits="userSpaceOnUse" gradientTransform="matrix(0.096, -0.0248, 0.0245, 0.0961, 193.28, 119.989)" cx="-568.654" cy="-521.042" r="59.752"><stop id="SvgjsStop3358" stop-color="rgb(255, 255, 255)" stop-opacity="1" offset="0" data-stoptype="#ffffff"/><stop id="SvgjsStop3359" stop-color="rgb(255, 255, 255)" stop-opacity="0" offset="1" data-stoptype="#ffffff"/></radialGradient><radialGradient class="svga-on-canvas-eyesiris-gradient-right-2" id="SvgjsRadialGradient3361" gradientUnits="userSpaceOnUse" gradientTransform="matrix(0.0991, 0.000885632, -0.0011, 0.0991, 183.113, 135.986)" cx="-582.833" cy="-519.102" r="59.747"><stop id="SvgjsStop3362" stop-color="rgb(255, 255, 255)" stop-opacity="1" offset="0" data-stoptype="#ffffff"/><stop id="SvgjsStop3363" stop-color="rgb(255, 255, 255)" stop-opacity="0" offset="1" data-stoptype="#ffffff"/></radialGradient><linearGradient class="svga-on-canvas-eyesiris-gradient-right-5" id="SvgjsLinearGradient3367" gradientUnits="userSpaceOnUse" x1="122.67" y1="88.268" x2="123.606" y2="87.152"><stop id="SvgjsStop3368" stop-color="rgb(255, 255, 255)" stop-opacity="1" offset="0" data-stoptype="#ffffff"/><stop id="SvgjsStop3369" stop-color="rgb(255, 255, 255)" stop-opacity="0" offset="1" data-stoptype="#ffffff"/></linearGradient><linearGradient class="svga-on-canvas-eyesiris-gradient-right-6" id="SvgjsLinearGradient3371" gradientUnits="userSpaceOnUse" x1="127.212" y1="82.296" x2="126.463" y2="83.189"><stop id="SvgjsStop3372" stop-color="rgb(255, 255, 255)" stop-opacity="1" offset="0" data-stoptype="#ffffff"/><stop id="SvgjsStop3373" stop-color="rgb(255, 255, 255)" stop-opacity="0" offset="1" data-stoptype="#ffffff"/></linearGradient><linearGradient class="svga-on-canvas-eyesiris-gradient-right-7" id="SvgjsLinearGradient3375" gradientUnits="userSpaceOnUse" x1="129.636" y1="79.822" x2="127.91" y2="81.879"><stop id="SvgjsStop3376" stop-color="rgb(255, 255, 255)" stop-opacity="1" offset="0" data-stoptype="#ffffff"/><stop id="SvgjsStop3377" stop-color="rgb(255, 255, 255)" stop-opacity="0" offset="1" data-stoptype="#ffffff"/></linearGradient><linearGradient class="svga-on-canvas-chinshadow-gradient-single-0" id="SvgjsLinearGradient3487" gradientUnits="userSpaceOnUse" x1="100" y1="171" x2="100" y2="131"><stop id="SvgjsStop3488" stop-color="rgb(240, 179, 153)" stop-opacity="0.8" offset="0" data-stoptype="sd1"/><stop id="SvgjsStop3489" stop-color="rgb(209, 127, 91)" stop-opacity="1" offset="0.7" data-stoptype="sd3"/></linearGradient></defs></svg>