<svg xmlns="http://www.w3.org/2000/svg" class="svga-svg" id="svga-svgcanvas" style="position:relative;overflow:hidden;left:0px;top:0px;" viewBox="0 0 200 200" preserveAspectRatio="xMinYMin meet" xmlns:NS1="http://www.w3.org/2000/svg" NS1:xlink="http://www.w3.org/1999/xlink" version="1.1"><g id="svga-group-wrapper"><g id="svga-group-backs-single"/><g id="svga-group-subwrapper" transform="matrix(0.849999, 0, 0, 0.849999, 15.0077, 17.6605)" data-updown="0" data-leftright="0" data-dist="0" data-scaleX="0.84999937" data-scaleY="0.84999937" data-rotate="0"><g id="svga-group-hair-back" data-updown="0" data-leftright="0" data-dist="0" data-scaleX="1" data-scaleY="1" data-rotate="0"><path id="SvgjsPath3334" opacity="1" fill="#85481f" stroke-width="none" d="M 160 24.999 H 40 c 0 0 -1 193.284 -1 199 h 123 L 160 24.999 Z" data-colored="true" data-filltype="sd2" data-stroketype="none"/></g><g id="svga-group-humanbody-single"><path id="SvgjsPath2761" opacity="1" fill="#f3d4cf" stroke="none" stroke-width="none" d="M 190.858 199.866 c -6.008 -10.158 -13.474 -11.973 -19.628 -13.936 c -6.323 -2.016 -19.346 -3.178 -26.449 -4.6 c -6.86 -1.373 -23.153 -5.789 -23.339 -13.488 c -0.192 -8.066 4.291 -40.09 4.291 -40.09 H 74.005 c 0 0 4.487 32.023 4.294 40.09 c -0.184 7.699 -16.48 12.115 -23.341 13.488 c -7.104 1.422 -20.125 2.584 -26.448 4.6 c -6.156 1.963 -13.624 3.777 -19.632 13.936 c -3.644 6.16 -6.008 16.133 -6.008 27.133 h 194 C 196.869 215.999 194.509 206.026 190.858 199.866 Z" data-colored="true" data-filltype="tone" data-stroketype="none" data-fromskin="true"/><path id="SvgjsPath2762" opacity="1" fill="#fff4f3" stroke="none" stroke-width="none" d="M 121.442 167.843 c 2.495 10.929 18.165 13.698 26.293 15.325 c 21.909 4.379 33.772 5.134 42.297 19.539 c 2.903 4.916 5.459 15.864 5.962 24.153 c 1.835 0.291 0.531 -17.432 -5.136 -26.994 c -9.742 -16.472 -29.089 -15.135 -46.077 -18.535 C 137.921 179.958 121.628 175.542 121.442 167.843 L 121.442 167.843 Z M 78.558 167.843 c -0.186 7.699 -16.479 12.115 -23.339 13.488 c -16.988 3.4 -36.335 2.063 -46.077 18.535 c -5.667 9.563 -6.971 27.285 -5.136 26.994 c 0.503 -8.289 3.059 -19.237 5.962 -24.153 c 8.524 -14.405 20.388 -15.16 42.297 -19.539 C 60.393 181.541 76.063 178.771 78.558 167.843 L 78.558 167.843 Z" data-colored="true" data-filltype="hl1" data-stroketype="none" data-fromskin="true"/><path id="SvgjsPath2763" opacity="1" fill="#e4b3ab" stroke="none" stroke-width="none" d="M 51.206 189.513 c 0 0 28.641 0.299 33.473 1.885 c 2.314 0.758 8.372 5.633 8.372 5.633 s -6.556 -3.17 -8.658 -3.758 C 79.51 191.909 51.206 189.513 51.206 189.513 Z M 99.795 199.999 c 2.053 -0.041 7.887 -3.799 7.887 -3.799 s -5.574 2.059 -7.342 2.16 c -1.491 0.086 -6.366 -1.238 -6.366 -1.238 S 98.112 200.032 99.795 199.999 Z M 117.008 192.757 c 6.75 -1.818 29.786 -3.23 29.786 -3.23 s -23.791 -0.516 -30.51 1.725 c -2.252 0.752 -7.562 5.16 -7.562 5.16 S 114.786 193.354 117.008 192.757 Z" data-colored="true" data-filltype="sd1" data-stroketype="none" data-fromskin="true"/><path id="SvgjsPath2764" opacity="1" fill="none" stroke="#c5796d" stroke-width="1.5" d="M 190.858 199.866 c -9.741 -16.471 -29.122 -15.142 -46.077 -18.535 c -6.86 -1.373 -23.153 -5.789 -23.339 -13.488 c -0.192 -8.066 4.291 -40.09 4.291 -40.09 H 74.005 c 0 0 4.487 32.023 4.294 40.09 c -0.184 7.699 -16.48 12.115 -23.341 13.488 c -7.104 1.422 -20.125 2.584 -26.448 4.6 c -6.156 1.963 -13.624 3.777 -19.632 13.936 c -3.644 6.16 -6.008 16.133 -6.008 27.133 h 194 C 196.869 215.999 194.509 206.026 190.858 199.866 Z" data-colored="true" data-filltype="none" data-stroketype="sd3" data-fromskin="true"/></g><g id="svga-group-chinshadow-single"><path id="SvgjsPath2910" opacity="1" fill="url(#SvgjsLinearGradient2911)" d="M 100.021 171.27 c 5.607 -0.009 13.53 -3.627 20.967 -8.478 c 0.485 -6.84 1.756 -17.341 2.758 -25.098 c -13.972 -1.825 -33.828 -1.785 -47.741 0.101 c 0.995 7.702 2.249 18.065 2.739 24.877 C 86.278 167.593 94.344 171.279 100.021 171.27 Z" data-colored="false" data-filltype="gradient" data-stroketype="none" data-fromskin="true"/></g><g id="svga-group-clothes-single" data-updown="0" data-leftright="0" data-dist="0" data-scaleX="1" data-scaleY="1" data-rotate="0"><path id="SvgjsPath3321" opacity="1" fill="#82cbe2" stroke-width="none" d="M 110.139 228.889 c -17.864 0 -38.7 -0.069 -63.699 -0.213 l -22.105 -0.12 c -13.348 -0.072 -16.001 -0.087 -17.631 -0.087 l -4.573 0.006 c 0.032 -40.523 20.015 -43.334 41.17 -46.313 c 7.271 -1.023 14.789 -2.082 21.584 -4.733 c 8.525 11.975 21.924 13.591 33.912 13.591 c 0.667 0 1.341 -0.006 2.016 -0.017 c 12.668 -0.285 27.552 -4.774 32.317 -14.161 c 0.614 0.234 1.186 0.504 1.738 0.766 c 0.621 0.293 1.263 0.597 1.974 0.854 c 4.65 1.684 10.432 2.48 16.552 3.324 c 20.011 2.76 44.916 6.193 44.578 45.069 c 0.003 0.154 0.004 1.097 -0.012 1.392 c -11.682 0 -19.607 0.113 -28.782 0.244 c -12.445 0.178 -27.935 0.398 -59.027 0.398 C 110.145 228.889 110.142 228.889 110.139 228.889 Z" data-colored="true" data-filltype="tone" data-stroketype="none"/><path id="SvgjsPath3322" opacity="1" fill="#a3dff1" stroke-width="none" d="M 197.869 226.999 c -2.027 -5.485 -0.96 -15.439 -6.837 -24.292 c -11.653 -17.556 -33.322 -15.948 -53.227 -21.639 c -4.204 8.565 -12.24 13.539 -21.429 16.39 l -0.016 -0.047 c 9.016 -3.198 16.683 -8.066 21.003 -16.475 c -0.501 -0.146 -1.001 -0.292 -1.499 -0.448 l 0.956 -1.836 c 24.187 7.439 43.709 2.062 55.037 21.214 C 195.509 206.026 197.869 215.999 197.869 226.999 Z M 57.233 182.344 c 1.267 -0.294 2.53 -0.607 3.788 -0.948 l -1.332 -1.765 c -23.343 6.027 -40.887 2.21 -51.548 20.235 c -3.65 6.16 -6.011 16.133 -6.011 27.133 c 2.027 -5.485 0.96 -15.439 6.837 -24.292 c 10.571 -15.926 29.385 -16.085 47.646 -20.225 c 6.519 8.028 16.042 13.7 26.402 15.333 C 70.02 194.425 61.938 188.143 57.233 182.344 Z" data-colored="true" data-filltype="hl1" data-stroketype="none"/><path id="SvgjsPath3323" opacity="1" fill="#64b8d3" stroke-width="none" d="M 132.08 178.811 c -4.996 7.702 -18.542 12.955 -33.907 12.955 c -15.182 0 -27.706 -5.206 -33.5 -13.926 l -0.044 -0.065 l 1.235 1.856 c -1.369 0.581 -4.817 1.748 -4.817 1.748 l -1.446 -1.86 l 0.089 0.117 c 0.271 0.354 0.553 0.736 0.851 1.14 c 4.359 5.904 11.656 15.785 36.296 15.785 c 2.162 0 4.443 -0.079 6.78 -0.235 c 16.303 -1.168 26.873 -6.359 32.244 -15.839 C 135.806 180.464 133.352 179.456 132.08 178.811 Z" data-colored="true" data-filltype="sd1" data-stroketype="none"/><path id="SvgjsPath3324" opacity="1" fill="#3295b4" stroke-width="none" d="M 133.079 176.717 c -5.041 10.081 -21.03 13.934 -32.27 14.187 c -14.635 0.228 -27.563 -1.841 -35.89 -13.597 c -26.368 10.344 -62.89 -3.587 -62.89 51.269 c 9.28 0 -4.304 -0.062 44.41 0.2 c 115.375 0.663 115.16 -0.43 151.61 -0.43 c 0.027 -0.131 0.023 -1.356 0.021 -1.49 c 0.44 -50.604 -41.021 -41.186 -61.195 -48.488 C 135.504 177.871 134.422 177.218 133.079 176.717 Z M 64.589 177.896 c 13.809 20.776 60.199 16.511 68.44 -0.561 c 1.12 0.471 2.34 0.94 3.64 1.4 c -3.904 8.186 -12.275 16.001 -33.06 17.49 c -32.014 2.134 -39.41 -10.844 -43.84 -16.65 C 59.905 179.537 63.225 178.407 64.589 177.896 Z M 2.169 228.405 c 2.5 -22.877 4.756 -39.219 32.69 -44.068 c 9.593 -1.77 14.509 -1.939 24.83 -4.731 c 7.873 10.792 15.739 18.518 44.7 17.3 c 21.37 -2.377 28.569 -9.619 32.461 -18.1 c 26.52 8.347 59.285 -0.172 60.88 49.38 C 147.265 227.529 98.51 226.216 2.169 228.405 Z" data-colored="true" data-filltype="sd3" data-stroketype="none"/></g><g id="svga-group-head" data-updown="0" data-leftright="0" data-dist="0" data-scaleX="1" data-scaleY="1" data-rotate="0"><g id="svga-group-ears-left" data-updown="0" data-leftright="0" data-dist="0" data-scaleX="1" data-scaleY="1" data-rotate="0"><path id="SvgjsPath3328" opacity="1" fill="#f3d4cf" stroke="#c5796d" stroke-width="1.5" d="M 47.001 83.974 c -1.376 -2.313 -5.638 -7.997 -9.98 -6.603 c -2.749 0.882 -3.293 3.765 -3.735 6.311 c -0.588 3.386 0.471 10.083 1.389 12.503 c 0.881 2.325 3.533 6.816 5.264 8.527 c 2.13 2.1 4.775 8.793 5.194 9.487 c 0.66 1.097 1.536 2.745 4.122 2.538 c 2.853 -0.229 4.584 -1.742 5.856 -1.999 C 58.253 114.109 50.582 89.995 47.001 83.974 Z" data-colored="true" data-filltype="tone" data-stroketype="sd3"/><path id="SvgjsPath3329" opacity="1" fill="#c5796d" stroke-width="none" d="M 44.197 97.997 c -0.132 -0.548 0.007 -1.47 0.142 -2.362 c 0.124 -0.812 0.24 -1.579 0.169 -2.121 c -0.267 -2.032 -1.773 -5.893 -2.757 -7.985 c -1.132 -2.407 -2.963 -5.439 -5.262 -6.221 c -0.95 -0.324 -1.575 0.063 -1.938 0.456 c -0.266 0.289 -0.325 0.627 -0.238 0.667 c 0.086 0.04 0.285 -0.24 0.572 -0.504 c 0.235 -0.216 0.579 -0.402 1.051 -0.363 c -0.19 1.011 -1.167 6.49 -0.744 10.225 c 0.333 2.938 1.593 5.131 1.79 5.46 c 0.029 0.346 0.077 0.685 0.148 1.014 c 0.929 4.287 4.971 9.163 6.378 10.758 c 0.259 0.295 0.531 0.47 0.598 0.398 c 0.066 -0.072 -0.094 -0.364 -0.353 -0.66 c -1.388 -1.585 -5.391 -6.442 -6.289 -10.579 c -0.952 -4.389 2.318 -10.896 3.048 -12.272 c 0.371 0.646 0.687 1.267 0.93 1.785 c 0.19 0.406 0.402 0.881 0.619 1.395 c -0.429 0.718 -3.434 5.958 -2.338 10.153 c 0.406 1.546 2.235 3.54 3.447 4.086 c 0.667 0.301 0.919 0.75 1.209 1.271 c 0.336 0.604 0.718 1.288 1.828 1.784 c 0.225 0.102 0.429 0.142 0.61 0.142 c 0.313 0 0.551 -0.126 0.725 -0.276 c 0.018 0.266 0.017 0.604 0.009 0.917 c -0.012 0.404 0.042 0.737 0.137 0.745 c 0.094 0.008 0.196 -0.313 0.207 -0.717 c 0.016 -0.496 0.013 -1.11 -0.072 -1.403 c -0.248 -0.865 -1.008 -1.841 -1.813 -2.875 C 45.221 99.896 44.403 98.844 44.197 97.997 Z M 36.95 94.196 c -2.177 -6.731 0.656 -12.54 1.144 -13.464 c 0.85 0.775 1.6 1.811 2.21 2.824 C 39.86 84.365 37.041 89.669 36.95 94.196 Z M 46.341 104.042 c -1.004 -0.447 -1.339 -1.051 -1.666 -1.633 c -0.293 -0.527 -0.598 -1.072 -1.369 -1.42 c -0.168 -0.075 -0.352 -0.191 -0.542 -0.323 c -2.486 -5.906 0.272 -8.488 0.963 -9.017 c 0.211 0.722 0.369 1.384 0.439 1.915 c 0.063 0.488 -0.052 1.263 -0.167 2.012 c -0.142 0.929 -0.286 1.89 -0.137 2.512 c 0.226 0.926 1.069 2.009 1.884 3.057 c 0.723 0.929 1.466 1.888 1.721 2.67 C 47.359 103.972 47.017 104.345 46.341 104.042 Z" data-colored="true" data-filltype="sd3" data-stroketype="none"/></g><g id="svga-group-ears-right" data-updown="0" data-leftright="0" data-dist="0" data-scaleX="1" data-scaleY="1" data-rotate="0"><path id="SvgjsPath3330" opacity="1" fill="#f3d4cf" stroke="#c5796d" stroke-width="1.5" d="M 152.736 83.974 c 1.377 -2.313 5.639 -7.997 9.98 -6.603 c 2.75 0.882 3.293 3.765 3.736 6.311 c 0.588 3.386 -0.471 10.083 -1.389 12.503 c -0.881 2.325 -3.533 6.816 -5.266 8.527 c -2.129 2.1 -4.775 8.793 -5.193 9.487 c -0.658 1.097 -1.535 2.745 -4.121 2.538 c -2.854 -0.229 -4.584 -1.742 -5.857 -1.999 C 141.484 114.109 149.156 89.995 152.736 83.974 Z" data-colored="true" data-filltype="tone" data-stroketype="sd3"/><path id="SvgjsPath3331" opacity="1" fill="#c5796d" stroke-width="none" d="M 153.727 100.913 c -0.805 1.033 -1.564 2.009 -1.813 2.875 c -0.086 0.293 -0.088 0.907 -0.072 1.403 c 0.012 0.404 0.113 0.725 0.207 0.717 s 0.148 -0.341 0.137 -0.745 c -0.008 -0.313 -0.008 -0.651 0.01 -0.917 c 0.174 0.15 0.412 0.276 0.725 0.276 c 0.182 0 0.385 -0.04 0.609 -0.142 c 1.109 -0.496 1.492 -1.18 1.828 -1.784 c 0.289 -0.52 0.543 -0.969 1.209 -1.271 c 1.213 -0.546 3.041 -2.54 3.447 -4.086 c 1.096 -4.194 -1.908 -9.435 -2.338 -10.153 c 0.217 -0.513 0.43 -0.988 0.619 -1.395 c 0.244 -0.518 0.559 -1.139 0.93 -1.785 c 0.73 1.377 4 7.883 3.049 12.272 c -0.896 4.137 -4.9 8.994 -6.289 10.579 c -0.258 0.296 -0.418 0.588 -0.352 0.66 c 0.066 0.071 0.338 -0.104 0.598 -0.398 c 1.406 -1.596 5.449 -6.471 6.379 -10.758 c 0.07 -0.329 0.117 -0.668 0.146 -1.014 c 0.197 -0.329 1.459 -2.523 1.791 -5.46 c 0.422 -3.735 -0.555 -9.214 -0.744 -10.225 c 0.473 -0.039 0.814 0.146 1.051 0.363 c 0.287 0.264 0.486 0.544 0.572 0.504 s 0.027 -0.378 -0.238 -0.667 c -0.363 -0.393 -0.988 -0.779 -1.938 -0.456 c -2.299 0.782 -4.131 3.814 -5.262 6.221 c -0.984 2.093 -2.49 5.953 -2.758 7.985 c -0.072 0.542 0.045 1.309 0.17 2.121 c 0.135 0.892 0.273 1.814 0.141 2.362 C 155.336 98.844 154.518 99.896 153.727 100.913 Z M 159.434 83.555 c 0.611 -1.013 1.361 -2.049 2.211 -2.824 c 0.488 0.925 3.32 6.733 1.145 13.464 C 162.697 89.669 159.879 84.365 159.434 83.555 Z M 152.27 103.816 c 0.254 -0.782 0.998 -1.741 1.721 -2.67 c 0.816 -1.048 1.658 -2.131 1.885 -3.057 c 0.148 -0.622 0.004 -1.583 -0.137 -2.512 c -0.115 -0.749 -0.23 -1.524 -0.166 -2.012 c 0.068 -0.531 0.227 -1.193 0.438 -1.915 c 0.691 0.529 3.449 3.111 0.965 9.017 c -0.191 0.132 -0.375 0.248 -0.543 0.323 c -0.771 0.348 -1.074 0.893 -1.369 1.42 c -0.326 0.582 -0.662 1.186 -1.666 1.633 C 152.721 104.345 152.379 103.972 152.27 103.816 Z" data-colored="true" data-filltype="sd3" data-stroketype="none"/></g><g id="svga-group-faceshape-wrap" data-updown="0" data-leftright="0" data-dist="0" data-scaleX="1" data-scaleY="1" data-rotate="0"><g id="svga-group-faceshape-single" data-updown="0" data-leftright="0" data-dist="0" data-scaleX="1" data-scaleY="1" data-rotate="0"><path id="SvgjsPath2907" opacity="1" fill="#f3d4cf" stroke="none" stroke-width="none" d="M 158.785 76.762 l -0.005 0 c -0.012 0.053 -10.717 44.373 -18.919 56.95 c -6.452 9.895 -28.166 25.54 -39.84 25.558 c -11.671 0.02 -33.437 -15.559 -39.918 -25.433 C 51.861 121.285 41.017 77 41.005 76.946 h -0.001 c -1.298 -4.911 -1.994 -10.066 -2.002 -15.382 C 38.949 28.09 66.155 0.919 99.773 0.867 c 33.621 -0.052 60.913 27.033 60.964 60.507 C 160.746 66.69 160.068 71.846 158.785 76.762 Z" data-colored="true" data-filltype="tone" data-stroketype="none"/><path id="SvgjsPath2908" opacity="1" fill="#ebc3bd" stroke="none" stroke-width="none" d="M 125.766 6.622 c 19.104 10.248 32.075 30.355 32.039 53.476 c -0.009 5.316 -0.704 10.471 -2.003 15.382 h -0.001 c -0.012 0.053 -10.856 44.339 -19.099 56.891 c -5.946 9.061 -24.555 25.121 -36.833 25.121 c -12.279 0 -30.886 -16.061 -36.833 -25.121 c -8.242 -12.552 -19.086 -56.837 -19.098 -56.891 h -0.001 c -1.298 -4.911 -1.994 -10.066 -2.002 -15.382 C 41.898 36.977 54.87 16.87 73.972 6.622 C 53.277 16.324 38.963 37.28 39.001 61.564 c 0.008 5.316 0.704 10.471 2.002 15.382 h 0.001 c 0.012 0.053 10.856 44.339 19.098 56.891 c 4.416 6.728 15.922 16.095 26.5 21.382 c -0.529 -0.226 -1.062 -0.466 -1.599 -0.717 c 5.408 2.875 10.664 4.763 14.713 4.768 c 0.049 0 0.103 -0.005 0.152 -0.005 s 0.103 0.005 0.152 0.005 c 4.049 -0.005 9.305 -1.893 14.714 -4.768 c -0.538 0.253 -1.071 0.491 -1.601 0.718 c 10.577 -5.287 22.085 -14.655 26.501 -21.383 c 8.242 -12.552 19.087 -56.837 19.098 -56.891 h 0.002 c 1.298 -4.911 1.994 -10.066 2.002 -15.382 C 160.775 37.28 146.462 16.324 125.766 6.622 Z" data-colored="true" data-filltype="sd05" data-stroketype="none"/><path id="SvgjsPath2909" opacity="1" fill="none" stroke="#c5796d" stroke-width="1.5" d="M 158.785 76.762 l -0.005 0 c -0.012 0.053 -10.717 44.373 -18.919 56.95 c -6.452 9.895 -28.166 25.54 -39.84 25.558 c -11.671 0.02 -33.437 -15.559 -39.918 -25.433 C 51.861 121.285 41.017 77 41.005 76.946 h -0.001 c -1.298 -4.911 -1.994 -10.066 -2.002 -15.382 C 38.949 28.09 66.155 0.919 99.773 0.867 c 33.621 -0.052 60.913 27.033 60.964 60.507 C 160.746 66.69 160.068 71.846 158.785 76.762 Z" data-colored="true" data-filltype="none" data-stroketype="sd3"/></g></g><g id="svga-group-mouth-single" data-updown="0" data-leftright="0" data-dist="0" data-scaleX="1" data-scaleY="1" data-rotate="0"><path id="SvgjsPath2944" opacity="1" fill="url(#SvgjsLinearGradient2945)" d="M 100.126 141.95 c -2.835 0 -3.5 -2.934 -3.5 -2.934 s 3.898 0.763 7 0 C 103.626 139.017 102.621 141.95 100.126 141.95 Z" data-colored="false" data-filltype="gradient" data-stroketype="none" data-fromskin="true"/><path id="SvgjsPath2948" opacity="1" fill="#c5796d" stroke-width="none" d="M 100.523 139.779 c -1.987 0 -3.757 -0.267 -3.868 -0.283 c -0.137 -0.021 -0.23 -0.147 -0.209 -0.284 c 0.021 -0.137 0.154 -0.226 0.285 -0.209 c 0.041 0.005 4.071 0.61 6.747 0.002 c 0.133 -0.025 0.27 0.055 0.3 0.189 s -0.054 0.268 -0.188 0.299 C 102.643 139.708 101.554 139.779 100.523 139.779 Z" data-colored="true" data-filltype="sd3" data-stroketype="none" data-fromskin="true"/><path id="SvgjsPath2949" opacity="1" fill="#ffffff" stroke-width="none" d="M 84 130 c 0 0 11.487 1.189 15.325 1.199 C 103.499 131.208 117 130 117 130 c -3.903 2.826 -8.199 5.543 -17.926 5.597 C 90.373 135.646 88.145 132.889 84 130 Z" data-colored="false" data-filltype="#ffffff" data-stroketype="none"/><path id="SvgjsPath2950" opacity="1" fill="none" stroke="#c92066" stroke-width="0.75" d="M 84 130 c 0 0 11.487 1.189 15.325 1.199 C 103.499 131.208 117 130 117 130 c -3.903 2.826 -8.199 5.543 -17.926 5.597 C 90.373 135.646 88.145 132.889 84 130 Z" data-colored="true" data-filltype="none" data-stroketype="sd3"/></g><g id="svga-group-eyes-left" data-updown="0" data-leftright="0" data-dist="0" data-scaleX="1" data-scaleY="1" data-rotate="0"><g id="svga-group-eyesback-left"><path id="SvgjsPath3076" opacity="1" fill="url(#SvgjsRadialGradient3077)" d="M 61.952 84.523 c -0.506 -2.285 5.191 -3.973 12.711 -3.051 c 7.518 0.923 12.738 5.524 12.052 7.844 c -0.38 1.286 -10.639 3.245 -14.253 2.847 C 68.798 91.758 63.174 90.04 61.952 84.523 Z" data-colored="false" data-filltype="gradient" data-stroketype="none"/></g><g id="svga-group-eyesiriswrapper-left" transform="translate(-0.75 -0.5)"><g id="svga-group-eyesiriscontrol-left" data-updown="0" data-leftright="0" data-dist="0" data-scaleX="1" data-scaleY="1" data-rotate="0"><g id="svga-group-eyesiris-left" data-updown="0" data-leftright="0" data-dist="0" data-scaleX="1" data-scaleY="1" data-rotate="0"><path id="SvgjsPath3290" opacity="1" fill="#4faaab" stroke="#147c7d" stroke-width="0.5" d="M 83.206 89.25 c -1.231 4.522 -5.896 7.187 -10.429 5.944 c -4.528 -1.241 -7.203 -5.918 -5.97 -10.442 c 1.23 -4.526 5.905 -7.19 10.434 -5.947 C 81.768 80.045 84.439 84.723 83.206 89.25 Z" data-colored="true" data-filltype="tone" data-stroketype="sd3"/><path id="SvgjsPath3291" opacity="1" fill="#69b9ba" stroke-width="none" d="M 73.962 81.918 l -0.221 -0.395 c -0.776 0.308 -1.524 0.631 -2.232 0.973 l 0.524 1.267 l -0.066 0.732 l -2.021 -1.189 c -0.66 0.367 -1.273 0.75 -1.867 1.14 l 0.005 0.013 l -0.692 0.78 l 1.107 1.132 l -1.491 0.813 l 0.563 0.931 l 2.633 0.262 l -2.468 1.673 l 2.641 -0.146 L 68.984 92.3 l 3.255 -1.969 l -0.875 3.349 l 1.883 -3.093 l 0.363 3.319 l 0.544 -2.936 l 0.5 -0.061 l 0.709 3.329 l 0.216 -0.998 c 0.284 -0.074 1.018 0.997 1.297 0.922 l -0.829 -3.621 l 1.817 3.621 l -0.737 -3.756 l 2.236 2.905 c 0.08 -0.025 0.278 -1.204 0.357 -1.228 l -1.392 -2.081 l 2.53 0.763 l -1.518 -1.643 l -1.219 -1.009 l 5.083 1.137 l -2.83 -1.723 l 2 -0.818 l -4.329 -0.437 l 4.281 -2.27 l -3.875 0.988 l -1.043 -0.565 l -0.256 -0.501 l 0.074 -1.199 l 0.086 -1.967 l -1.768 3.113 l -0.156 -2.279 l -0.222 -0.597 c -0.354 0.124 -0.702 0.245 -1.043 0.375 L 73.962 81.918 Z" data-colored="true" data-filltype="hl1" data-stroketype="none"/><path id="SvgjsPath3292" opacity="0.9" fill="#389b9c" stroke-width="none" d="M 83.303 85.237 c -7.429 0.338 -11.206 1.927 -16.591 3.727 c -1.038 -4.574 1.839 -9.12 6.42 -10.149 C 77.712 77.786 82.267 80.661 83.303 85.237 Z" data-colored="true" data-filltype="sd1" data-stroketype="none"/><path id="SvgjsPath3293" opacity="0.8" fill="#000000" stroke-width="none" d="M 76.234 84.165 c -1.869 -0.536 -3.777 0.532 -4.258 2.395 c -0.484 1.853 0.64 3.793 2.51 4.329 c 1.871 0.537 3.781 -0.532 4.264 -2.386 C 79.237 86.639 78.107 84.7 76.234 84.165 Z" data-colored="false" data-filltype="#000000" data-stroketype="none"/><path id="SvgjsPath3294" opacity="1" fill="none" stroke="#147c7d" stroke-width="0.75" d="M 76.234 84.165 c -1.869 -0.536 -3.777 0.532 -4.258 2.395 c -0.484 1.853 0.64 3.793 2.51 4.329 c 1.871 0.537 3.781 -0.532 4.264 -2.386 C 79.237 86.639 78.107 84.7 76.234 84.165 Z" data-colored="true" data-filltype="none" data-stroketype="sd3"/><path id="SvgjsPath3295" opacity="0.5" fill="#ffffff" stroke-width="none" d="M 68.812 92.044 c 0.868 1.378 2.021 2.416 3.653 2.762 c 1.879 0.398 2.094 -2.101 0.748 -2.387 c -1.02 -0.215 -1.667 -0.715 -2.199 -1.561 C 70.039 89.31 68.029 90.803 68.812 92.044 L 68.812 92.044 Z" data-colored="false" data-filltype="#ffffff" data-stroketype="none"/><path id="SvgjsPath3296" opacity="1" fill="url(#SvgjsLinearGradient3297)" d="M 76.468 83.449 c 1.316 0.265 2.082 1.087 2.747 2.323 c 1.222 2.272 4.676 0.252 3.453 -2.019 c -1.073 -1.995 -2.86 -3.703 -5.138 -4.162 C 74.615 79.004 74.206 82.993 76.468 83.449 L 76.468 83.449 Z" data-colored="false" data-filltype="gradient" data-stroketype="none"/></g></g></g><g id="svga-group-eyesfront-left"><path id="SvgjsPath3098" opacity="1" fill="#f3d4cf" stroke-width="none" d="M 55.5 88 c 0 13.807 8.06 24.999 18 24.999 s 18 -11.192 18 -24.999 c 0 -13.808 -8.06 -25 -18 -25 S 55.5 74.192 55.5 88 Z M 61.952 84.523 c -0.506 -2.285 5.191 -3.973 12.711 -3.051 c 7.518 0.923 12.738 5.524 12.052 7.844 c -0.38 1.286 -10.639 3.245 -14.253 2.847 C 68.798 91.758 63.174 90.04 61.952 84.523 Z" data-colored="true" data-filltype="tone" data-stroketype="none" data-fromskin="true"/><path id="SvgjsPath3099" opacity="1" fill="url(#SvgjsRadialGradient3100)" d="M 72.462 92.163 c 3.614 0.398 13.873 -1.561 14.253 -2.847 c 0.687 -2.32 -4.534 -6.921 -12.052 -7.844 c -6.46 -0.792 -11.563 0.345 -12.556 2.128 c 0.898 -6.4 7.7 -11.397 15.987 -11.434 c 8.911 -0.037 16.148 5.676 16.172 12.765 c 0.021 7.088 -7.185 12.862 -16.095 12.902 c -8.913 0.037 -16.149 -5.676 -16.173 -12.764 c 0 -0.105 0.016 -0.208 0.019 -0.313 C 63.348 90.083 68.852 91.764 72.462 92.163 Z" data-colored="false" data-filltype="gradient" data-stroketype="none" data-fromskin="true"/><path id="SvgjsPath3104" opacity="1" fill="url(#SvgjsRadialGradient3105)" d="M 61.952 84.523 c -0.506 -2.285 5.191 -3.973 12.711 -3.051 c 7.518 0.923 12.738 5.524 12.052 7.844 c -0.38 1.286 -10.639 3.245 -14.253 2.847 C 68.798 91.758 63.174 90.04 61.952 84.523 Z" data-colored="false" data-filltype="gradient" data-stroketype="none"/><path id="SvgjsPath3108" opacity="1" fill="#c5796d" stroke-width="none" d="M 62.349 79.417 c 4.208 -1.978 9.35 -2.16 13.838 -1.005 c 2.404 0.561 4.965 1.285 7.063 2.638 c 1.945 1.135 3.525 2.5 5.002 4.19 c -1.342 -1.701 -2.773 -3.118 -4.623 -4.27 c -2.276 -1.416 -4.769 -2.294 -7.364 -2.916 C 71.678 76.928 66.542 77.184 62.349 79.417 Z" data-colored="true" data-filltype="sd3" data-stroketype="none" data-fromskin="true"/><path id="SvgjsPath3109" opacity="1" fill="#000000" stroke-width="none" d="M 57.318 80.972 c 0 0 2.328 0.881 3.595 0.62 c -0.39 -0.459 -1.096 -1.604 -1.096 -1.604 s 1.853 0.551 3.151 0.032 c 0.88 -0.352 4.065 -1 5.456 -1.066 c 1.687 -0.082 5.073 0.125 6.735 0.424 c 3.374 0.608 8.985 2.63 11.678 7.184 c 0.255 0.572 1.407 0.921 1.407 0.921 s -1.02 -0.215 -1.149 0.042 c -0.282 0.561 1.298 2.016 1.496 2.197 c -0.161 -0.145 -1.289 -1.135 -1.722 -0.967 c -0.061 0.022 -0.137 0.388 -0.155 0.482 c 0.3 -2.426 -4.838 -6.746 -12.052 -7.604 c -7.52 -0.894 -13.217 0.743 -12.711 2.958 c 1.222 5.348 6.846 7.013 10.51 7.405 c 2.526 0.271 8.298 -0.577 11.675 -1.537 l 1.011 -0.317 c -1.999 1.009 -7.524 2.195 -9.767 2.403 c -0.744 0.07 -2.24 0.104 -2.986 0.085 c -5.949 -0.158 -10.16 -3.179 -11.729 -7.26 c -0.125 -0.328 -0.494 -0.619 -0.838 -0.696 c -1.604 -0.361 -5.096 -1.811 -5.096 -1.811 c 2.32 0.361 3.483 0.674 5.305 0.059 C 58.257 82.256 57.318 80.972 57.318 80.972 Z" data-colored="true" data-filltype="tone" data-stroketype="none"/></g></g><g id="svga-group-eyes-right" data-updown="0" data-leftright="0" data-dist="0" data-scaleX="1" data-scaleY="1" data-rotate="0"><g id="svga-group-eyesback-right"><path id="SvgjsPath3083" opacity="1" fill="url(#SvgjsRadialGradient3084)" d="M 138.048 84.523 c 0.506 -2.285 -5.191 -3.973 -12.711 -3.051 c -7.518 0.923 -12.738 5.524 -12.052 7.844 c 0.38 1.286 10.639 3.245 14.253 2.847 C 131.202 91.758 136.826 90.04 138.048 84.523 Z" data-colored="false" data-filltype="gradient" data-stroketype="none"/></g><g id="svga-group-eyesiriswrapper-right" transform="translate(0.75 -0.5)"><g id="svga-group-eyesiriscontrol-right" data-updown="0" data-leftright="0" data-dist="0" data-scaleX="1" data-scaleY="1" data-rotate="0"><g id="svga-group-eyesiris-right" data-updown="0" data-leftright="0" data-dist="0" data-scaleX="1" data-scaleY="1" data-rotate="0"><path id="SvgjsPath3300" opacity="1" fill="#4faaab" stroke="#147c7d" stroke-width="0.5" d="M 133.199 89.25 c -1.231 4.522 -5.896 7.187 -10.429 5.944 c -4.528 -1.241 -7.203 -5.918 -5.97 -10.442 c 1.23 -4.526 5.905 -7.19 10.434 -5.947 C 131.761 80.045 134.433 84.723 133.199 89.25 Z" data-colored="true" data-filltype="tone" data-stroketype="sd3"/><path id="SvgjsPath3301" opacity="1" fill="#69b9ba" stroke-width="none" d="M 123.955 81.918 l -0.221 -0.395 c -0.776 0.308 -1.524 0.631 -2.232 0.973 l 0.524 1.267 l -0.066 0.732 l -2.021 -1.189 c -0.66 0.367 -1.273 0.75 -1.867 1.14 l 0.005 0.013 l -0.692 0.78 l 1.107 1.132 L 117 87.182 l 0.563 0.931 l 2.633 0.262 l -2.468 1.673 l 2.641 -0.146 l -1.392 2.398 l 3.255 -1.969 l -0.875 3.349 l 1.883 -3.093 l 0.363 3.319 l 0.544 -2.936 l 0.5 -0.061 l 0.709 3.329 l 0.216 -0.998 c 0.284 -0.074 1.018 0.997 1.297 0.922 l -0.829 -3.621 l 1.817 3.621 l -0.737 -3.756 l 2.236 2.905 c 0.08 -0.025 0.278 -1.204 0.357 -1.228 l -1.392 -2.081 l 2.53 0.763 l -1.518 -1.643 l -1.219 -1.009 l 5.083 1.137 l -2.83 -1.723 l 2 -0.818 l -4.329 -0.437 l 4.281 -2.27 l -3.875 0.988 l -1.043 -0.565 l -0.256 -0.501 l 0.074 -1.199 l 0.086 -1.967 l -1.768 3.113 l -0.156 -2.279 l -0.222 -0.597 c -0.354 0.124 -0.702 0.245 -1.043 0.375 L 123.955 81.918 Z" data-colored="true" data-filltype="hl1" data-stroketype="none"/><path id="SvgjsPath3302" opacity="0.9" fill="#389b9c" stroke-width="none" d="M 133.296 85.237 c -7.429 0.338 -11.206 1.927 -16.591 3.727 c -1.038 -4.574 1.839 -9.12 6.42 -10.149 C 127.705 77.786 132.26 80.661 133.296 85.237 Z" data-colored="true" data-filltype="sd1" data-stroketype="none"/><path id="SvgjsPath3303" opacity="0.8" fill="#000000" stroke-width="none" d="M 126.229 84.165 c -1.869 -0.536 -3.777 0.532 -4.259 2.395 c -0.484 1.853 0.641 3.793 2.509 4.329 c 1.873 0.537 3.78 -0.532 4.266 -2.386 C 129.229 86.639 128.101 84.7 126.229 84.165 Z" data-colored="false" data-filltype="#000000" data-stroketype="none"/><path id="SvgjsPath3304" opacity="1" fill="none" stroke="#147c7d" stroke-width="0.75" d="M 126.229 84.165 c -1.869 -0.536 -3.777 0.532 -4.259 2.395 c -0.484 1.853 0.641 3.793 2.509 4.329 c 1.873 0.537 3.78 -0.532 4.266 -2.386 C 129.229 86.639 128.101 84.7 126.229 84.165 Z" data-colored="true" data-filltype="none" data-stroketype="sd3"/><path id="SvgjsPath3305" opacity="0.5" fill="#ffffff" stroke-width="none" d="M 118.805 92.044 c 0.868 1.378 2.021 2.416 3.653 2.762 c 1.879 0.398 2.094 -2.101 0.748 -2.387 c -1.02 -0.215 -1.667 -0.715 -2.199 -1.561 C 120.032 89.31 118.022 90.803 118.805 92.044 L 118.805 92.044 Z" data-colored="false" data-filltype="#ffffff" data-stroketype="none"/><path id="SvgjsPath3306" opacity="1" fill="url(#SvgjsLinearGradient3307)" d="M 126.461 83.449 c 1.316 0.265 2.082 1.087 2.747 2.323 c 1.222 2.272 4.676 0.252 3.453 -2.019 c -1.073 -1.995 -2.86 -3.703 -5.138 -4.162 C 124.608 79.004 124.199 82.993 126.461 83.449 L 126.461 83.449 Z" data-colored="false" data-filltype="gradient" data-stroketype="none"/></g></g></g><g id="svga-group-eyesfront-right"><path id="SvgjsPath3118" opacity="1" fill="#f3d4cf" stroke-width="none" d="M 126.5 63 c -9.94 0 -18 11.192 -18 25 c 0 13.807 8.06 24.999 18 24.999 s 18 -11.192 18 -24.999 C 144.5 74.192 136.44 63 126.5 63 Z M 127.538 92.163 c -3.614 0.398 -13.873 -1.561 -14.253 -2.847 c -0.687 -2.32 4.534 -6.921 12.052 -7.844 c 7.52 -0.922 13.217 0.767 12.711 3.051 C 136.826 90.04 131.202 91.758 127.538 92.163 Z" data-colored="true" data-filltype="tone" data-stroketype="none" data-fromskin="true"/><path id="SvgjsPath3119" opacity="1" fill="url(#SvgjsRadialGradient3120)" d="M 127.538 92.163 c -3.614 0.398 -13.873 -1.561 -14.253 -2.847 c -0.687 -2.32 4.534 -6.921 12.052 -7.844 c 6.46 -0.792 11.563 0.345 12.556 2.128 c -0.898 -6.4 -7.7 -11.397 -15.987 -11.434 c -8.911 -0.037 -16.148 5.676 -16.172 12.765 c -0.021 7.088 7.185 12.862 16.095 12.902 c 8.913 0.037 16.149 -5.676 16.173 -12.764 c 0 -0.105 -0.016 -0.208 -0.019 -0.313 C 136.652 90.083 131.148 91.764 127.538 92.163 Z" data-colored="false" data-filltype="gradient" data-stroketype="none" data-fromskin="true"/><path id="SvgjsPath3124" opacity="1" fill="url(#SvgjsRadialGradient3125)" d="M 138.048 84.523 c 0.506 -2.285 -5.191 -3.973 -12.711 -3.051 c -7.518 0.923 -12.738 5.524 -12.052 7.844 c 0.38 1.286 10.639 3.245 14.253 2.847 C 131.202 91.758 136.826 90.04 138.048 84.523 Z" data-colored="false" data-filltype="gradient" data-stroketype="none"/><path id="SvgjsPath3128" opacity="1" fill="#c5796d" stroke-width="none" d="M 137.651 79.417 c -4.208 -1.978 -9.35 -2.16 -13.838 -1.005 c -2.404 0.561 -4.965 1.285 -7.063 2.638 c -1.945 1.135 -3.525 2.5 -5.002 4.19 c 1.342 -1.701 2.773 -3.118 4.623 -4.27 c 2.276 -1.416 4.769 -2.294 7.364 -2.916 C 128.322 76.928 133.458 77.184 137.651 79.417 Z" data-colored="true" data-filltype="sd3" data-stroketype="none" data-fromskin="true"/><path id="SvgjsPath3129" opacity="1" fill="#000000" stroke-width="none" d="M 142.682 80.972 c 0 0 -2.328 0.881 -3.595 0.62 c 0.39 -0.459 1.096 -1.604 1.096 -1.604 s -1.853 0.551 -3.151 0.032 c -0.88 -0.352 -4.065 -1 -5.456 -1.066 c -1.687 -0.082 -5.073 0.125 -6.735 0.424 c -3.374 0.608 -8.985 2.63 -11.678 7.184 c -0.255 0.572 -1.407 0.921 -1.407 0.921 s 1.02 -0.215 1.149 0.042 c 0.282 0.561 -1.298 2.016 -1.496 2.197 c 0.161 -0.145 1.289 -1.135 1.722 -0.967 c 0.061 0.022 0.137 0.388 0.155 0.482 c -0.3 -2.426 4.838 -6.746 12.052 -7.604 c 7.52 -0.894 13.217 0.743 12.711 2.958 c -1.222 5.348 -6.846 7.013 -10.51 7.405 c -2.526 0.271 -8.298 -0.577 -11.675 -1.537 l -1.011 -0.317 c 1.999 1.009 7.524 2.195 9.767 2.403 c 0.744 0.07 2.24 0.104 2.986 0.085 c 5.949 -0.158 10.16 -3.179 11.729 -7.26 c 0.125 -0.328 0.494 -0.619 0.838 -0.696 c 1.604 -0.361 5.096 -1.811 5.096 -1.811 c -2.32 0.361 -3.483 0.674 -5.305 0.059 C 141.743 82.256 142.682 80.972 142.682 80.972 Z" data-colored="true" data-filltype="tone" data-stroketype="none"/></g></g><g id="svga-group-facehighlight-single" data-updown="0" data-leftright="0" data-dist="0" data-scaleX="1" data-scaleY="1" data-rotate="0"><path id="SvgjsPath2753" opacity="1" fill="url(#SvgjsRadialGradient2754)" d="M 140.204 113.007 c 0.035 22.275 -17.995 40.365 -40.273 40.396 c -22.274 0.036 -40.361 -17.993 -40.396 -40.272 C 59.501 90.857 77.53 72.77 99.808 72.735 C 122.083 72.701 140.171 90.73 140.204 113.007 Z" data-colored="false" data-filltype="gradient" data-stroketype="none" data-fromskin="true"/><path id="SvgjsPath2757" opacity="1" fill="url(#SvgjsRadialGradient2758)" d="M 135 55.999 c 0 19.329 -15.671 35 -35 35 c -19.329 0 -35 -15.671 -35 -35 s 15.671 -35 35 -35 C 119.329 20.999 135 36.67 135 55.999 Z" data-colored="false" data-filltype="gradient" data-stroketype="none" data-fromskin="true"/></g><g id="svga-group-eyebrows-left" data-updown="0" data-leftright="0" data-dist="0" data-scaleX="1" data-scaleY="1" data-rotate="0"><path id="SvgjsPath3332" opacity="1" fill="#6b4e40" stroke-width="none" d="M 74.799 69.068 c -4.425 -0.475 -21.252 3.714 -21.252 3.714 s 16.789 -6.74 23.757 -5.667 c 5.188 0.798 14.397 5.077 12.706 7.339 C 88.649 76.275 84.408 70.1 74.799 69.068 Z" data-colored="true" data-filltype="#000000" data-stroketype="none"/></g><g id="svga-group-eyebrows-right" data-updown="0" data-leftright="0" data-dist="0" data-scaleX="1" data-scaleY="1" data-rotate="0"><path id="SvgjsPath3333" opacity="1" fill="#6b4e40" stroke-width="none" d="M 109.731 74.187 c -1.713 -2.292 7.592 -6.31 13.546 -6.804 c 7.117 -0.59 22.914 4.085 22.914 4.085 s -15.9 -2.628 -20.377 -2.106 C 115.998 70.506 111.11 76.031 109.731 74.187 Z" data-colored="true" data-filltype="#000000" data-stroketype="none"/></g><g id="svga-group-nose-single" data-updown="0" data-leftright="0" data-dist="0" data-scaleX="1" data-scaleY="1" data-rotate="0"><path id="SvgjsPath2951" opacity="1" fill="#e4b3ab" stroke-width="none" d="M 92.281 116.235 c -0.745 2.063 5.028 4.289 7.218 4.426 c 2.374 0.147 9.024 -2.899 7.896 -4.991 c -1.185 -2.197 -5.63 -0.286 -7.547 -0.286 C 97.94 115.384 93.276 113.479 92.281 116.235 Z" data-colored="true" data-filltype="sd1" data-stroketype="none" data-fromskin="true"/><path id="SvgjsPath2952" opacity="1" fill="#c5796d" stroke-width="none" d="M 102.207 117.221 c -0.243 -0.522 1.194 -1.333 1.748 -1.493 c 0.777 -0.226 2.505 0.238 2.438 0.831 c -0.06 0.521 -1.603 -0.169 -2.105 -0.022 C 103.767 116.687 102.435 117.712 102.207 117.221 Z M 95.214 116.742 c 0.706 0 1.753 0.457 1.945 0.057 c 0.229 -0.479 -1.56 -1.065 -2.086 -1 c -0.434 0.052 -1.991 0.958 -1.777 1.338 C 93.496 117.49 94.284 116.742 95.214 116.742 Z" data-colored="true" data-filltype="sd3" data-stroketype="none" data-fromskin="true"/><path id="SvgjsPath2953" opacity="0.2" fill="#ffffff" stroke-width="none" d="M 99.857 113.479 c 0.669 0 1.807 -0.637 1.978 -1.9 c 0.754 -5.575 -0.521 -20.246 -1.978 -20.246 c -1.365 0 -2.508 15.024 -2.155 20.246 C 97.789 112.86 99.099 113.479 99.857 113.479" data-colored="true" data-filltype="hl2" data-stroketype="none" data-fromskin="true"/></g><g id="svga-group-hair-front" data-updown="0" data-leftright="0" data-dist="0" data-scaleX="1" data-scaleY="1" data-rotate="0"><path id="SvgjsPath3336" opacity="0.1" fill="#a46c47" stroke-width="none" d="M 44.483 18.786 v 192.7 h 39.633 c -0.985 -7.894 -2.345 -15.114 -3.827 -18.896 c -7.734 -19.635 -34.67 -24.746 -29.979 -50.592 l 0.186 -0.036 c 5.161 11.272 7.599 17.786 19.622 19.774 c -16.696 -13.644 -13.473 -26.335 -11.147 -42.457 c 1.357 -9.407 -1.612 -16.768 -3.584 -24.324 c 2.337 -6.986 3.574 -13.578 4.833 -21.104 C 71.469 6.622 121.799 9.658 136.22 52.964 c 9.121 27.391 1.487 36.087 12.741 53.306 c 0.534 12.012 3.037 24.947 -11.378 41.925 c -3.168 3.731 -7.858 7.637 -11.999 10.247 c 15.048 -1.334 23.306 -15.722 28.299 -29.979 l 0.183 0.058 c -6.601 55.459 -31.788 30.36 -34.347 82.965 h 41.151 v -192.7 H 44.483 Z" data-colored="true" data-filltype="tone" data-stroketype="none"/><path id="SvgjsPath3337" opacity="1" fill="#85481f" stroke-width="none" d="M 84.239 24.512 c 0 0 13.507 2.744 15.441 8.394 c -9.837 -0.448 -14.145 -3.676 -28.021 1.726 C 74.877 29.073 84.239 24.512 84.239 24.512 Z M 116.354 23.835 c 0 0 -14.886 -0.596 -16.673 9.07 c 9.837 -0.448 15.855 -4.834 29.83 1.466 C 127.59 28.832 116.354 23.835 116.354 23.835 Z" data-colored="true" data-filltype="sd2" data-stroketype="none"/><path id="SvgjsPath3338" opacity="1" fill="#a46c47" stroke-width="none" d="M 171.325 103.155 c 12.474 -84.818 -28.429 -117.88 -66.57 -108.483 C 62.686 -15.575 30.577 5.914 25.649 64.39 c -0.889 20.541 1.352 36.037 1.709 39.729 c -2.823 5.811 -4.602 12.117 -5.334 18.632 c -2.28 1.989 -4.366 3.558 -6.692 5.203 c 1.216 -0.168 3.034 -0.383 6.451 -1.384 c -0.802 22.784 10.506 26.852 9.795 45.72 c -0.663 12.739 -0.707 13.817 1.769 22.173 c 6.55 22.107 -3.539 20.229 -0.849 47.579 c 31.104 -1.338 46.501 4.047 119.532 -0.472 c 1.616 -0.101 12.444 -0.799 16.533 -0.559 c -16.247 -55.787 11.274 -50.916 2.58 -79.354 C 163.35 136.169 184.674 127.674 171.325 103.155 Z M 120.349 232.486 c 0.313 3.851 0.855 8.563 1.039 9.658 c -14.026 0.059 -13.942 -0.431 -36.432 -0.219 c 0.397 -13.065 1.519 -40.587 -1.77 -48.975 c -8.064 -20.475 -33.709 -27.085 -35.086 -49.86 l 0.195 -0.036 c 5.38 11.757 9.681 16.499 22.217 18.573 c -17.408 -14.226 -13.83 -25.25 -13.383 -42.226 c 0.265 -9.903 -1.679 -17.482 -3.736 -25.362 c 2.437 -7.282 3.738 -14.154 5.041 -22.003 c 5.299 -31.981 23.306 -56.507 41.03 -39.238 c 0.001 -0.001 0.225 -0.316 0.225 -0.316 c 0.096 0.134 0.084 0.114 0.202 0.302 c 15.169 -16.919 29.792 -2.734 37.781 17.474 c 11.073 27.991 1.55 37.627 13.281 55.582 c 0.56 12.526 1.191 25.365 -13.838 43.069 c -3.304 3.889 -7.355 7.003 -11.67 9.727 c 15.688 -1.395 25.436 -14.789 30.639 -29.654 l 0.191 0.059 C 141.093 186.96 112.813 144.06 120.349 232.486 Z" data-colored="true" data-filltype="tone" data-stroketype="none"/><path id="SvgjsPath3339" opacity="1" fill="#955932" stroke-width="none" d="M 168.564 241.012 c -4.089 -0.24 -14.917 0.458 -16.533 0.559 c -7.593 0.47 -14.551 0.831 -20.979 1.104 c 0.627 -18.603 -6.242 -38.093 2.549 -55.675 c 4.409 -9.624 18.398 -19 21.398 -31 c 0.559 -2.235 1.938 -7.965 2.429 -12.944 c 3.441 21.68 -17.092 41.785 -12.299 63.68 c 4.266 -14.529 12.416 -38.893 17.552 -49.096 c -0.563 16.096 -1.812 20.566 -1.289 30.668 c 4.13 -9.095 7.526 -16.68 5.584 -38.498 c 0 0 2.598 6.715 4.168 11.848 C 179.839 190.096 152.317 185.225 168.564 241.012 Z M 161.744 152.235 c 14.178 -34.092 -4.985 -37.232 -10.55 -59.281 C 145.21 69.242 145.199 27.485 124 23 c -10.773 -2.279 -19.332 1.04 -24.926 9.434 c 0.13 0.122 0.26 0.239 0.39 0.366 c 0.001 -0.001 0.225 -0.316 0.225 -0.316 c 0.096 0.134 0.084 0.114 0.202 0.302 c 15.169 -16.919 29.792 -2.734 37.781 17.474 c 11.073 27.991 1.55 37.627 13.281 55.582 c 2.666 23.645 -7.074 41.159 -25.508 52.796 c 15.263 -7.068 28.199 -18.51 30.174 -46.749 l 0.398 0.199 C 161.471 119.218 164.952 140.731 161.744 152.235 Z M 154.398 45 c 1.833 21.549 4.026 42.923 16.985 58.268 c -0.021 -0.038 -0.038 -0.074 -0.059 -0.112 c 0.178 -1.207 0.604 -4.451 0.76 -5.638 C 166.309 90.678 160.708 78.757 159 66 c -2.141 -15.982 0.07 -34.47 -15.9 -46 C 150.849 26.708 154.398 36 154.398 45 Z M 69 18 C 44 33 50.146 61.473 44.146 84 c -3.188 11.97 -11.551 22.788 -20.646 30.744 c -0.609 2.384 -1.069 4.813 -1.377 7.277 C 60.299 97.473 45.24 48.478 61.199 30.666 c 11.568 -12.911 25.383 -17.769 38.489 1.817 C 96.415 16.706 79 13 69 18 Z M 82.258 25.4 c -7.133 1.456 -14.761 9.231 -18.923 16.342 c -6.467 11.048 -7.485 28.27 -12.653 46.717 c -4.4 15.707 -13.998 30.571 -33.68 39.249 c 26.759 -5.687 35.423 -30.752 36.391 -33.667 c 2.437 -7.282 3.738 -14.154 5.041 -22.003 c 5.26 -31.746 23.042 -56.139 40.64 -39.604 C 93.415 26.512 90.127 23.793 82.258 25.4 Z M 68.733 161.296 c 0.579 0.115 1.161 0.229 1.779 0.332 c -17.408 -14.226 -14.13 -25.25 -13.683 -42.226 c 0.255 -9.563 -1.65 -17.359 -3.626 -24.951 c -0.523 1.394 -1.105 2.744 -1.716 4.073 C 60.569 121.579 41.722 142.818 68.733 161.296 Z M 146.702 161.628 c 9.171 -9.346 13.167 -29.969 11.369 -43.484 c -0.817 4.008 -1.474 8.073 -2.426 12.056 c 0.149 -0.404 0.296 -0.81 0.438 -1.217 l 0.191 0.059 c -15.183 57.919 -43.463 15.019 -35.927 103.445 c 0.313 3.851 0.855 8.563 1.039 9.658 c -14.026 0.059 -13.942 -0.431 -36.432 -0.219 c 0.397 -13.065 1.519 -40.587 -1.77 -48.975 c -7.75 -19.678 -44.052 -31.323 -33.378 -62.632 c -9.689 13.094 -4.59 24.13 1.678 31.309 c 35.12 44.05 24.852 49.003 26.454 81.047 c 11.177 0.333 30.093 0.525 48.263 -0.105 C 121.536 179.735 127.328 181.371 146.702 161.628 Z M 39.184 142.011 c -1.385 -4.846 8.584 -15.692 5.366 -30.735 C 43.886 121.43 38.638 129.205 36 138 c -3.999 33.884 27.286 39.376 14 74 c 0 -13 -2.667 -19.437 -7.667 -31.437 C 42.333 196.563 49 207 41 223 c 0 0 2.761 -11.765 0.26 -17.418 C 32.879 180.272 39.439 170.276 33 154 c -2.838 -7.69 -8.246 -14.15 -10.878 -27.926 c 0.677 19.739 10.59 29.425 9.958 46.216 c -0.663 12.739 -1.207 13.817 1.268 22.173 c 6.55 22.107 -3.539 20.229 -0.849 47.579 c 12.221 -0.525 22.025 -0.014 33.847 0.527 c 2.261 -24.406 5.03 -40.444 -7.662 -60.172 C 51.814 171.72 37.453 160.703 39.184 142.011 Z M 45 38 c -4.149 20.744 -5.556 42.857 -18.478 58.357 c 0.366 3.807 0.713 6.488 0.837 7.762 c -0.066 0.136 -0.124 0.275 -0.188 0.411 C 51.195 67.57 41.09 47.743 50 28 c 2 -5 6.231 -8.566 11 -14 C 52.915 20.828 47 27 45 38 Z M 166.623 102.836 C 155.162 84.076 155.692 61.634 148 38 c -4.507 -13.846 -24.446 -39.649 -48.506 -6.168 c 11.159 -14.396 23.65 -15.006 31.307 -10.431 c 6.19 3.699 10.544 10.145 13.544 17.145 c 7.068 18.138 5.753 34.787 13.753 52.787 c 5 12 12.048 22.146 12.416 32.828 c -0.332 4.575 -3.198 15.689 -4.698 19.253 c 0.479 -1.376 6.27 -12.165 6.27 -18.4 C 172.085 118.144 170.466 109.127 166.623 102.836 Z M 71.522 9.661 c 3.306 -2.748 25.504 -5.422 29.751 11.058 C 98.289 4.859 78.927 5.073 71.522 9.661 Z M 135.429 8.581 c 3.49 2.642 2.081 1.447 -0.513 -0.514 c -13.694 -8.515 -27.51 -1.497 -33.308 12.366 C 109.649 3.393 126.768 2.02 135.429 8.581 Z M 147.768 15.763 c -17.909 -25.073 -41.461 -16.292 -47.154 -2.327 C 108.07 -2.146 131.988 -5.355 147.768 15.763 Z M 47.118 21.915 c -2.079 4.494 4.73 -15.523 28.092 -20.133 c 8.363 -1.692 19.382 -0.871 24.746 6.221 C 91.351 -4.505 59.979 -4.11 47.118 21.915 Z M 134.716 12.859 c 1.24 0.864 2.13 1.626 2.078 1.583 c -0.177 -0.117 -1.063 -1.067 -2.619 -2.098 c -11.543 -7.674 -29.75 1.124 -33.899 15.082 C 105.102 13.747 123.645 5.512 134.716 12.859 Z M 65.39 15.566 c -3.443 2.883 4.383 -2.277 6.732 -2.839 c 8.25 -2.126 24.014 -0.522 28.82 11.981 C 96.429 10.93 77.129 7.13 65.39 15.566 Z" data-colored="true" data-filltype="sd1" data-stroketype="none"/><path id="SvgjsPath3340" opacity="1" fill="#b38160" stroke-width="none" d="M 54.287 8.395 c -6.063 5.795 -8.245 8.121 -12.733 15.896 C 29.969 42.645 29.465 95.483 30.12 75.647 C 31.003 46.753 33.226 26.926 54.287 8.395 Z M 40.166 46.282 c -1.19 10.81 2.133 -9.666 3.979 -14.112 C 51.075 15.805 71.717 -1.981 91.025 6.798 c 3.802 1.736 6.471 3.731 7.692 4.555 C 71.922 -9.195 43.586 15.053 40.166 46.282 Z M 140.025 11.352 c 4.61 4.55 8.293 8.722 8.248 8.671 c -3.867 -3.539 -21.245 -34.352 -47.079 -3.221 C 113.365 3.41 126.815 -1.016 140.025 11.352 Z M 91.268 18.114 c 5.95 4.151 11.459 11.672 10.709 10.672 c -0.251 -0.291 -1.608 -2.192 -3.735 -4.794 C 75.559 -3.612 50 28.843 47.748 53.002 C 51.44 28.64 73.278 5.713 91.268 18.114 Z M 148.446 35.102 c 0.914 2.425 1.39 3.932 1.306 3.63 c -0.112 -0.292 -0.599 -2.129 -1.518 -4.706 c -7.781 -22.254 -29.125 -27.144 -48.288 -4.222 C 119.501 8.442 139.361 12.269 148.446 35.102 Z M 170.729 89.177 c -0.008 -0.391 0.217 -2.754 0.27 -6.182 c 0.46 -22.099 -4.53 -58.257 -22.219 -71.904 C 171.765 31.294 170.628 90.434 170.729 89.177 Z M 160.594 109.636 c 1.141 1.432 1.838 2.295 1.702 2.122 c -6.983 -11.994 -4.544 1.486 -14.992 -43.759 C 151.208 88.03 150.813 97.418 160.594 109.636 Z M 40.224 110.197 c -3.71 3.778 -2.039 2.239 0.691 -0.536 C 55.243 92.089 52.19 85.149 56.037 63.719 C 52.939 77.874 52.532 97.469 40.224 110.197 Z M 80.217 24.943 c 1.441 -0.43 2.318 -0.692 2.144 -0.644 c -4.026 1.411 -20.332 4.076 -24.18 27.199 C 61.569 36.735 70.158 28.113 80.217 24.943 Z M 143.451 47.042 c 2.782 8.476 -1.829 -8.357 -4.675 -13.598 c -5.338 -10.289 -12.488 -12.038 -23.153 -11.645 C 133.024 21.025 137.857 30.72 143.451 47.042 Z M 34.274 152.301 c 2.071 11.298 11.409 25.639 15.081 38.07 c 1.789 5.938 1.875 6.194 -0.112 -1.306 c -11.232 -35.413 -21.715 -39.51 -10.232 -69.374 C 39.011 119.691 30.189 136.554 34.274 152.301 Z M 148.784 189.284 c -0.385 2.617 -0.607 4.203 -0.555 3.89 c 9.005 -39.146 13.987 -26.598 11.758 -65.936 C 160.009 171.216 154.996 151.983 148.784 189.284 Z M 46.041 133.496 c -8.804 20.717 5.362 28.95 22.507 53.013 c 3.892 6.425 2.585 4.246 1.648 2.489 c -11.499 -21.461 -31.094 -34.2 -23.91 -53.677 c 2.383 -6.427 3.979 -9.329 3.182 -22.331 C 49.611 121.966 49.23 125.986 46.041 133.496 Z M 52.428 119.592 c -0.092 12.744 -6.549 21.745 6.856 35.309 c 4.074 3.177 -2.931 -3.353 -4.056 -5.359 c -2.187 -3.878 -3.819 -8.571 -3.37 -13.059 c 0.683 -13.909 1.296 -1.389 0.912 -29.999 C 52.413 116.792 52.728 110.031 52.428 119.592 Z M 142.67 147.298 c -1.671 2.148 -4.705 4.313 -5.604 6.149 c -0.214 0.387 0.542 -0.853 1.744 -1.979 c 17.557 -16.844 13.72 -27.795 16.996 -34.761 C 152.473 123.786 154.94 131.114 142.67 147.298 Z M 126.529 187.542 c -2.762 11.25 -1.063 15.187 -1.063 15.187 c -0.185 -1 -0.322 -1.582 -0.322 -3.37 c 2.057 -31.334 25.247 -25.986 31.597 -60.146 C 151.157 167.077 131.887 167.036 126.529 187.542 Z" data-colored="true" data-filltype="hl1" data-stroketype="none"/><path id="SvgjsPath3341" opacity="1" fill="#763810" stroke-width="none" d="M 171.429 103.136 c 12.069 -85.836 -28.95 -117.955 -66.649 -108.561 c -63.629 -15.205 -85.202 40.694 -77.51 109.5 c -2.854 5.875 -4.629 12.232 -5.31 18.601 c -2.671 2.329 -6.03 4.794 -7.03 5.43 c 2.281 -0.256 4.492 -0.737 6.75 -1.4 c -0.454 12.987 3.396 20.927 6.94 29.32 c 6.294 14.887 0.154 21.277 3.39 34.07 c 1.24 4.85 3.11 9.63 3.55 14.64 c 0.946 10.766 -5.545 16.426 -3.15 37.41 c 0.08 0 0.15 -0.01 0.23 -0.01 c 24.692 -0.967 13.033 -0.165 29.72 0.439 c 62.103 2.413 88.897 -1.46 106.34 -1.46 c -12.259 -39.767 -0.309 -49.433 3.61 -63.05 c 3.343 -11.656 -3.539 -17.892 -3.11 -27.43 C 170.279 131.121 182.242 124.247 171.429 103.136 Z M 69.579 161.266 c -11.588 -2.079 -16.382 -8.37 -21.42 -19.061 c -0.284 -5.823 1.921 -12.104 2.96 -17.87 c 1.044 -5.75 0.401 -10.896 -0.69 -22.729 c 1.12 -2.35 2.09 -4.77 2.94 -7.24 c 1.57 6.54 3.01 13.15 3.04 19.83 C 56.463 128.817 50.079 147.932 69.579 161.266 Z M 21.699 126.226 c -1.71 0.529 -3.46 0.96 -5.23 1.27 c 41.837 -27.209 31.729 -67.088 39.07 -85.77 c 7.243 -18.434 27.63 -33.995 44.1 -9.15 c -0.06 0.08 -0.109 0.15 -0.16 0.23 c -17.355 -18.325 -36.108 8.93 -40.729 31.36 c -4.49 21.877 -6.914 51.458 -35.12 61.41 C 23.629 125.575 21.699 126.205 21.699 126.226 Z M 32.619 241.855 c -0.543 -9.458 -0.846 -11.33 0.73 -18.64 c 1.28 -5.961 3.59 -12.12 3.23 -18.271 c -0.39 -6.41 -3.11 -12.39 -3.89 -18.74 c -0.75 -6.14 0.5 -12.31 0.53 -18.46 c 0.082 -12.213 -10.172 -20.935 -9.61 -41.63 c 8.104 -2.688 15.358 -7.616 20.94 -14.84 c 0.917 21.249 -5.573 19.928 -6.48 31.84 c -1.511 20.052 22.174 35.669 27.74 56.09 c 1.939 7.062 2.03 35.213 1.99 42.561 C 42.492 241.322 58.322 240.284 32.619 241.855 Z M 67.999 241.766 c 1.762 -47.609 -0.21 -49.127 -16.54 -70.601 c -22.601 -29.594 -7.548 -34.703 -6.54 -50.26 c 0.21 -3.27 0 -6.56 -0.21 -9.84 c 2.15 -2.82 3.97 -5.86 5.51 -9.05 c 0.795 13.27 0.928 13.425 0.83 15.92 c -0.627 17.156 -14.775 28.272 12.29 53.859 c 21.941 20.76 20.976 18.661 21.51 70.03 C 79.229 241.865 73.609 241.865 67.999 241.766 Z M 85.059 241.825 c 0.35 -11.354 1.576 -40.352 -1.78 -48.91 c -8.071 -20.492 -33.704 -27.098 -35.08 -49.83 c 0.323 1 3.402 7.811 6.93 11.45 c 4.472 4.623 9.446 6.313 15.75 7.25 c -17.932 -13.084 -14.028 -28.113 -13.65 -42.38 c 0.263 -9.843 -1.635 -17.335 -3.74 -25.39 c 4.287 -12.413 4.894 -24.4 7.4 -33.84 c 5.711 -21.558 22.336 -43.879 38.589 -27.22 c 0.006 -0.017 0.2 -0.286 0.21 -0.3 c 0.008 0.011 0.188 0.291 0.19 0.3 c 13.404 -16.837 29.143 -4.305 37.7 17.34 c 11.029 27.882 1.583 37.684 13.29 55.6 c 0.491 11.79 1.402 25.005 -13.83 42.95 c -3.366 3.96 -8.398 7.835 -12 9.92 c 15.66 -0.846 25.939 -14.893 31.14 -29.75 c -15.514 57.917 -43.439 15.318 -35.93 103.479 c 0.343 4.205 0.894 8.792 1.021 9.55 C 109.791 242.117 111.782 241.719 85.059 241.825 Z M 163.389 147.476 c 7.729 -35.545 -14.471 -31.226 -17.31 -59.59 c -0.996 -10.411 -0.63 -29.001 -12.86 -48.65 c -8.754 -14.108 -21.634 -20.468 -33.27 -6.5 c -0.04 -0.08 -0.09 -0.16 -0.141 -0.24 c 15.769 -21.402 42.415 -19.527 49.341 26.27 c 4.381 29.034 5.438 27.162 15.17 47.38 C 168.679 115.133 174.634 126.9 163.389 147.476 Z M 151.329 106.596 c 2.058 3.087 4.326 5.995 6.521 9.05 c 0 16.35 -13.219 39.914 -30.75 42.47 c 2.52 -1.54 4.96 -3.229 7.09 -5.25 C 150.003 137.833 152.699 124.613 151.329 106.596 Z M 167.939 156.695 c 1.3 5.5 3.699 10.57 3.729 16.32 c -1.432 16.422 -17.601 23.629 -3.31 67.67 c -9.831 -0.523 -19.654 0.533 -37.141 1.149 c -0.459 -25.169 -2.177 -31.864 -0.949 -42.59 c 2.851 -25.063 24.016 -23.109 27.159 -56.189 c -4.017 34.862 -28.503 30.377 -29.029 61.109 c -0.033 2.001 2.4 37.353 2.43 37.681 c -2.771 0.093 -6.599 0.199 -9.37 0.199 c -7.985 -81.762 13.702 -65.904 27.891 -91.109 c 4.94 -8.745 8.701 -22.552 8.76 -34.92 c 8.21 11.655 7.685 17.531 4.77 32.819 c 5.384 -8.491 9.791 -22.53 6.51 -32.88 c -1.094 -4.394 -4.797 -11.869 -6.25 -14.88 c -10.84 -22.439 -8.965 -23.64 -13 -45.33 c -7.404 -40.292 -33.264 -47.161 -50.39 -23.33 c -17.552 -27.954 -45.346 -8.197 -49.08 25.4 c -1.354 12.346 -0.255 38.468 -26.65 63.02 c 1.906 -14.99 8.729 -22.372 13.75 -34.22 c 12.649 -29.735 1.814 -50.492 18.65 -67.33 C 38.122 37.494 51 59.408 34.099 91.476 c -1.94 3.67 -4.1 7.24 -6 10.939 c -5.854 -64.179 16.384 -121.011 75.59 -107.03 c 40.783 -10.329 64.18 25.442 67.6 67.79 c 1.471 18.212 -0.248 34.59 -0.54 38.77 c -2.87 -4.89 -6.31 -9.47 -8.34 -14.81 c -11.876 -31.337 -1.556 -52.06 -19.32 -67.28 c 18.119 16.345 6.485 41.9 19.79 71.61 c 2.613 4.897 5.803 9.391 8.16 14.36 C 180.63 126.046 163.44 137.618 167.939 156.695 Z" data-colored="true" data-filltype="sd3" data-stroketype="none"/></g><g id="svga-group-glasses-single" data-updown="0" data-leftright="0" data-dist="0" data-scaleX="1" data-scaleY="1" data-rotate="0"><path id="SvgjsPath2880" opacity="1" fill="#26120b" stroke-width="none" d="M 100 18.13 L 100 18.13 L 100 18.13 L 100 18.13 Z" data-colored="true" data-filltype="tone" data-stroketype="none"/></g></g></g><rect id="SvgjsRect1033" style="display:none;" opacity="0.5" fill="#ecf0f1" x="0" y="185" width="200" height="15"/><text id="SvgjsText1034" font-family="&quot;Roboto&quot;,&quot;Helvetica Neue&quot;,Helvetica,Arial,sans-serif" font-size="0.84em" font-weight="400" style="font-size:0.84em;font-family:&quot;Roboto&quot;, &quot;Helvetica Neue&quot;, Helvetica, Arial, sans-serif;text-anchor:middle;font-weight:400;display:none;" fill="#000000" text-anchor="middle" x="100" y="185"><tspan id="SvgjsTspan1035" style="font-size:0.84em;font-family:&quot;Roboto&quot;, &quot;Helvetica Neue&quot;, Helvetica, Arial, sans-serif;text-anchor:middle;font-weight:400;" x="100" dy="1.2em">Erstellt mit Avatars24.de</tspan></text></g><defs id="SvgjsDefs1001"><radialGradient class="svga-on-canvas-facehighlight-gradient-single-0" id="SvgjsRadialGradient2754" gradientUnits="userSpaceOnUse" cx="100" cy="113" r="40"><stop id="SvgjsStop2755" stop-color="rgb(255, 244, 243)" stop-opacity="0.5" offset="0" data-stoptype="hl1"/><stop id="SvgjsStop2756" stop-color="rgb(243, 212, 207)" stop-opacity="0" offset="0.9" data-stoptype="tone"/></radialGradient><radialGradient class="svga-on-canvas-facehighlight-gradient-single-1" id="SvgjsRadialGradient2758" gradientUnits="userSpaceOnUse" cx="100" cy="57" r="36"><stop id="SvgjsStop2759" stop-color="rgb(255, 244, 243)" stop-opacity="0.5" offset="0" data-stoptype="hl1"/><stop id="SvgjsStop2760" stop-color="rgb(243, 212, 207)" stop-opacity="0" offset="0.9" data-stoptype="tone"/></radialGradient><linearGradient class="svga-on-canvas-chinshadow-gradient-single-0" id="SvgjsLinearGradient2911" gradientUnits="userSpaceOnUse" x1="99.98" y1="171.27" x2="99.98" y2="136.351"><stop id="SvgjsStop2912" stop-color="rgb(228, 179, 171)" stop-opacity="0.8" offset="0" data-stoptype="sd1"/><stop id="SvgjsStop2913" stop-color="rgb(197, 121, 109)" stop-opacity="1" offset="0.7" data-stoptype="sd3"/></linearGradient><linearGradient class="svga-on-canvas-mouth-gradient-single-0" id="SvgjsLinearGradient2945" gradientUnits="userSpaceOnUse" x1="100" y1="142" x2="100" y2="139"><stop id="SvgjsStop2946" stop-color="rgb(235, 195, 189)" stop-opacity="1" offset="0.1" data-stoptype="sd05"/><stop id="SvgjsStop2947" stop-color="rgb(228, 179, 171)" stop-opacity="1" offset="1" data-stoptype="sd1"/></linearGradient><radialGradient class="svga-on-canvas-eyesback-gradient-left-0" id="SvgjsRadialGradient3077" gradientUnits="userSpaceOnUse" gradientTransform="matrix(-0.9945, 0.1042, 0.1042, 0.9945, 192.827, -12.4637)" cx="129.05" cy="85.956" r="15.117"><stop id="SvgjsStop3078" stop-color="rgb(255, 255, 255)" stop-opacity="1" offset="0" data-stoptype="#ffffff"/><stop id="SvgjsStop3079" stop-color="rgb(252, 253, 253)" stop-opacity="1" offset="0.316" data-stoptype="#fcfdfd"/><stop id="SvgjsStop3080" stop-color="rgb(244, 247, 248)" stop-opacity="1" offset="0.505" data-stoptype="#f4f7f8"/><stop id="SvgjsStop3081" stop-color="rgb(229, 236, 239)" stop-opacity="1" offset="0.661" data-stoptype="#e5ecef"/><stop id="SvgjsStop3082" stop-color="rgb(216, 226, 231)" stop-opacity="1" offset="0.76" data-stoptype="#d8e2e7"/></radialGradient><radialGradient class="svga-on-canvas-eyesback-gradient-right-0" id="SvgjsRadialGradient3084" gradientUnits="userSpaceOnUse" gradientTransform="matrix(0.9945, 0.1042, -0.1042, 0.9945, 7.1735, -12.4637)" cx="129.049" cy="85.956" r="15.117"><stop id="SvgjsStop3085" stop-color="rgb(255, 255, 255)" stop-opacity="1" offset="0" data-stoptype="#ffffff"/><stop id="SvgjsStop3086" stop-color="rgb(252, 253, 253)" stop-opacity="1" offset="0.316" data-stoptype="#fcfdfd"/><stop id="SvgjsStop3087" stop-color="rgb(244, 247, 248)" stop-opacity="1" offset="0.505" data-stoptype="#f4f7f8"/><stop id="SvgjsStop3088" stop-color="rgb(229, 236, 239)" stop-opacity="1" offset="0.661" data-stoptype="#e5ecef"/><stop id="SvgjsStop3089" stop-color="rgb(216, 226, 231)" stop-opacity="1" offset="0.76" data-stoptype="#d8e2e7"/></radialGradient><radialGradient class="svga-on-canvas-eyesfront-gradient-left-0" id="SvgjsRadialGradient3091" gradientUnits="userSpaceOnUse" gradientTransform="matrix(-0.9945, 0.1042, 0.1042, 0.9945, 192.827, -12.4637)" cx="129.05" cy="85.956" r="15.117"><stop id="SvgjsStop3092" stop-color="rgb(255, 255, 255)" stop-opacity="1" offset="0" data-stoptype="#ffffff"/><stop id="SvgjsStop3093" stop-color="rgb(252, 253, 253)" stop-opacity="1" offset="0.316" data-stoptype="#fcfdfd"/><stop id="SvgjsStop3094" stop-color="rgb(244, 247, 248)" stop-opacity="1" offset="0.505" data-stoptype="#f4f7f8"/><stop id="SvgjsStop3095" stop-color="rgb(229, 236, 239)" stop-opacity="1" offset="0.661" data-stoptype="#e5ecef"/><stop id="SvgjsStop3096" stop-color="rgb(216, 226, 231)" stop-opacity="1" offset="0.76" data-stoptype="#d8e2e7"/></radialGradient><radialGradient class="svga-on-canvas-eyesfront-gradient-left-3" id="SvgjsRadialGradient3100" gradientUnits="userSpaceOnUse" gradientTransform="matrix(0.9998, 0.0208, 0.0166, -0.7998, -44.9524, 149.543)" cx="121.786" cy="84.496" r="16.003" fx="133.039" fy="84.527"><stop id="SvgjsStop3101" stop-color="rgb(228, 179, 171)" stop-opacity="1" offset="0" data-stoptype="sd1"/><stop id="SvgjsStop3102" stop-color="rgb(228, 179, 171)" stop-opacity="0.3" offset="0.7" data-stoptype="sd1"/><stop id="SvgjsStop3103" stop-color="rgb(243, 212, 207)" stop-opacity="0" offset="1" data-stoptype="tone"/></radialGradient><radialGradient class="svga-on-canvas-eyesfront-gradient-left-4" id="SvgjsRadialGradient3105" gradientUnits="userSpaceOnUse" gradientTransform="matrix(1.0336, 0, 0, 1.0336, -1.6792, 1.7282)" cx="69.124" cy="107.529" r="29.525"><stop id="SvgjsStop3106" stop-color="rgb(0, 0, 0)" stop-opacity="0" offset="0.95" data-stoptype="#000000"/><stop id="SvgjsStop3107" stop-color="rgb(0, 0, 0)" stop-opacity="0.3" offset="1" data-stoptype="#000000"/></radialGradient><radialGradient class="svga-on-canvas-eyesfront-gradient-right-0" id="SvgjsRadialGradient3111" gradientUnits="userSpaceOnUse" gradientTransform="matrix(0.9945, 0.1042, -0.1042, 0.9945, 7.1735, -12.4637)" cx="129.049" cy="85.956" r="15.117"><stop id="SvgjsStop3112" stop-color="rgb(255, 255, 255)" stop-opacity="1" offset="0" data-stoptype="#ffffff"/><stop id="SvgjsStop3113" stop-color="rgb(252, 253, 253)" stop-opacity="1" offset="0.316" data-stoptype="#fcfdfd"/><stop id="SvgjsStop3114" stop-color="rgb(244, 247, 248)" stop-opacity="1" offset="0.505" data-stoptype="#f4f7f8"/><stop id="SvgjsStop3115" stop-color="rgb(229, 236, 239)" stop-opacity="1" offset="0.661" data-stoptype="#e5ecef"/><stop id="SvgjsStop3116" stop-color="rgb(216, 226, 231)" stop-opacity="1" offset="0.76" data-stoptype="#d8e2e7"/></radialGradient><radialGradient class="svga-on-canvas-eyesfront-gradient-right-3" id="SvgjsRadialGradient3120" gradientUnits="userSpaceOnUse" gradientTransform="matrix(-0.9998, 0.0208, -0.0166, -0.7998, 244.952, 149.543)" cx="121.786" cy="84.496" r="16.003" fx="133.039" fy="84.527"><stop id="SvgjsStop3121" stop-color="rgb(228, 179, 171)" stop-opacity="1" offset="0" data-stoptype="sd1"/><stop id="SvgjsStop3122" stop-color="rgb(228, 179, 171)" stop-opacity="0.3" offset="0.7" data-stoptype="sd1"/><stop id="SvgjsStop3123" stop-color="rgb(243, 212, 207)" stop-opacity="0" offset="1" data-stoptype="tone"/></radialGradient><radialGradient class="svga-on-canvas-eyesfront-gradient-right-4" id="SvgjsRadialGradient3125" gradientUnits="userSpaceOnUse" gradientTransform="matrix(-1.0336, 0, 0, 1.0336, 201.679, 1.7282)" cx="69.124" cy="107.529" r="29.525"><stop id="SvgjsStop3126" stop-color="rgb(0, 0, 0)" stop-opacity="0" offset="0.95" data-stoptype="#000000"/><stop id="SvgjsStop3127" stop-color="rgb(0, 0, 0)" stop-opacity="0.3" offset="1" data-stoptype="#000000"/></radialGradient><radialGradient class="svga-on-canvas-eyesiris-gradient-left-1" id="SvgjsRadialGradient3178" gradientUnits="userSpaceOnUse" gradientTransform="matrix(0.096, -0.0248, 0.0245, 0.0961, 140.548, 120.358)" cx="-558.588" cy="-490.918" r="84.646"><stop id="SvgjsStop3179" stop-color="rgb(255, 255, 255)" stop-opacity="0.8" offset="0" data-stoptype="#ffffff"/><stop id="SvgjsStop3180" stop-color="rgb(255, 255, 255)" stop-opacity="0" offset="1" data-stoptype="#ffffff"/></radialGradient><radialGradient class="svga-on-canvas-eyesiris-gradient-left-2" id="SvgjsRadialGradient3182" gradientUnits="userSpaceOnUse" gradientTransform="matrix(0.0991, 0.000885632, -0.0011, 0.0991, 130.377, 136.353)" cx="-565.337" cy="-492.691" r="84.644"><stop id="SvgjsStop3183" stop-color="rgb(255, 255, 255)" stop-opacity="0.8" offset="0" data-stoptype="#ffffff"/><stop id="SvgjsStop3184" stop-color="rgb(255, 255, 255)" stop-opacity="0" offset="1" data-stoptype="#ffffff"/></radialGradient><linearGradient class="svga-on-canvas-eyesiris-gradient-left-5" id="SvgjsLinearGradient3188" gradientUnits="userSpaceOnUse" gradientTransform="matrix(1, 0, 0, 1, -52, 0)" x1="122.283" y1="93.047" x2="123.61" y2="91.466"><stop id="SvgjsStop3189" stop-color="rgb(255, 255, 255)" stop-opacity="1" offset="0" data-stoptype="#ffffff"/><stop id="SvgjsStop3190" stop-color="rgb(255, 255, 255)" stop-opacity="0" offset="1" data-stoptype="#ffffff"/></linearGradient><linearGradient class="svga-on-canvas-eyesiris-gradient-left-7" id="SvgjsLinearGradient3196" gradientUnits="userSpaceOnUse" gradientTransform="matrix(1, 0, 0, 1, -50, 0)" x1="130" y1="81" x2="126" y2="85"><stop id="SvgjsStop3197" stop-color="rgb(255, 255, 255)" stop-opacity="1" offset="0" data-stoptype="#ffffff"/><stop id="SvgjsStop3198" stop-color="rgb(255, 255, 255)" stop-opacity="0" offset="1" data-stoptype="#ffffff"/></linearGradient><radialGradient class="svga-on-canvas-eyesiris-gradient-right-1" id="SvgjsRadialGradient3201" gradientUnits="userSpaceOnUse" gradientTransform="matrix(0.096, -0.0248, 0.0245, 0.0961, 192.479, 119.84)" cx="-578.76" cy="-490.73" r="84.646"><stop id="SvgjsStop3202" stop-color="rgb(255, 255, 255)" stop-opacity="0.8" offset="0" data-stoptype="#ffffff"/><stop id="SvgjsStop3203" stop-color="rgb(255, 255, 255)" stop-opacity="0" offset="1" data-stoptype="#ffffff"/></radialGradient><radialGradient class="svga-on-canvas-eyesiris-gradient-right-2" id="SvgjsRadialGradient3205" gradientUnits="userSpaceOnUse" gradientTransform="matrix(0.0991, 0.000885632, -0.0011, 0.0991, 182.31, 135.839)" cx="-584.778" cy="-487.329" r="84.644"><stop id="SvgjsStop3206" stop-color="rgb(255, 255, 255)" stop-opacity="0.8" offset="0" data-stoptype="#ffffff"/><stop id="SvgjsStop3207" stop-color="rgb(255, 255, 255)" stop-opacity="0" offset="1" data-stoptype="#ffffff"/></radialGradient><linearGradient class="svga-on-canvas-eyesiris-gradient-right-5" id="SvgjsLinearGradient3211" gradientUnits="userSpaceOnUse" x1="120.284" y1="93.047" x2="121.611" y2="91.467"><stop id="SvgjsStop3212" stop-color="rgb(255, 255, 255)" stop-opacity="1" offset="0" data-stoptype="#ffffff"/><stop id="SvgjsStop3213" stop-color="rgb(255, 255, 255)" stop-opacity="0" offset="1" data-stoptype="#ffffff"/></linearGradient><linearGradient class="svga-on-canvas-eyesiris-gradient-right-7" id="SvgjsLinearGradient3219" gradientUnits="userSpaceOnUse" x1="130" y1="81" x2="126" y2="85"><stop id="SvgjsStop3220" stop-color="rgb(255, 255, 255)" stop-opacity="1" offset="0" data-stoptype="#ffffff"/><stop id="SvgjsStop3221" stop-color="rgb(255, 255, 255)" stop-opacity="0" offset="1" data-stoptype="#ffffff"/></linearGradient><linearGradient class="svga-on-canvas-eyesiris-gradient-left-6" id="SvgjsLinearGradient3297" gradientUnits="userSpaceOnUse" gradientTransform="matrix(1, 0, 0, 1, -50, 0)" x1="130" y1="81" x2="126" y2="85"><stop id="SvgjsStop3298" stop-color="rgb(255, 255, 255)" stop-opacity="1" offset="0" data-stoptype="#ffffff"/><stop id="SvgjsStop3299" stop-color="rgb(255, 255, 255)" stop-opacity="0" offset="1" data-stoptype="#ffffff"/></linearGradient><linearGradient class="svga-on-canvas-eyesiris-gradient-right-6" id="SvgjsLinearGradient3307" gradientUnits="userSpaceOnUse" x1="130" y1="81" x2="126" y2="85"><stop id="SvgjsStop3308" stop-color="rgb(255, 255, 255)" stop-opacity="1" offset="0" data-stoptype="#ffffff"/><stop id="SvgjsStop3309" stop-color="rgb(255, 255, 255)" stop-opacity="0" offset="1" data-stoptype="#ffffff"/></linearGradient></defs></svg>